<svg width="382" height="107" viewBox="0 0 382 107" fill="none" xmlns="http://www.w3.org/2000/svg">
<g filter="url(#filter0_d_0_803)">
<path d="M51.8421 2.92725L65.8455 97H40.802L39.5818 80.0913H30.8079L29.3553 97H4.02129L16.4559 2.92725H51.8421ZM38.8846 63.415C37.645 52.7624 36.4054 39.6112 35.1658 23.9614C32.6867 41.9354 31.1372 55.0866 30.5174 63.415H38.8846ZM85.4991 2.92725H109.903C117.612 2.92725 123.442 3.52767 127.393 4.72852C131.383 5.92936 134.598 8.36979 137.039 12.0498C139.479 15.6911 140.699 21.5791 140.699 29.7139C140.699 35.2145 139.828 39.0495 138.085 41.2188C136.38 43.388 132.991 45.0537 127.916 46.2158C133.572 47.4941 137.407 49.6247 139.421 52.6074C141.435 55.5514 142.442 60.0837 142.442 66.2041V74.9199C142.442 81.2728 141.706 85.9793 140.234 89.0396C138.801 92.0998 136.496 94.1916 133.32 95.3149C130.143 96.4383 123.636 97 113.796 97H85.4991V2.92725ZM109.962 19.0225V39.9404C111.007 39.9017 111.821 39.8823 112.402 39.8823C114.804 39.8823 116.334 39.3013 116.992 38.1392C117.651 36.9383 117.98 33.5488 117.98 27.9707C117.98 25.0267 117.709 22.9736 117.167 21.8115C116.624 20.6107 115.908 19.8553 115.017 19.5454C114.164 19.2355 112.479 19.0612 109.962 19.0225ZM109.962 54.583V80.9048C113.409 80.7886 115.598 80.2463 116.527 79.2778C117.496 78.3094 117.98 75.9271 117.98 72.1309V63.3569C117.98 59.3283 117.554 56.8879 116.702 56.0356C115.85 55.1834 113.603 54.6992 109.962 54.583ZM222.642 58.0112C222.642 67.4631 222.41 74.1646 221.945 78.1157C221.519 82.0282 220.124 85.6113 217.761 88.8652C215.437 92.1191 212.28 94.6177 208.29 96.3608C204.3 98.104 199.652 98.9756 194.345 98.9756C189.309 98.9756 184.777 98.1621 180.748 96.5352C176.758 94.8695 173.543 92.3903 171.102 89.0977C168.662 85.805 167.209 82.2218 166.744 78.3481C166.28 74.4744 166.047 67.6955 166.047 58.0112V41.916C166.047 32.4642 166.26 25.7821 166.686 21.8696C167.151 17.9185 168.546 14.3159 170.87 11.062C173.233 7.80811 176.409 5.30957 180.399 3.56641C184.389 1.82324 189.038 0.95166 194.345 0.95166C199.38 0.95166 203.893 1.78451 207.883 3.4502C211.912 5.07715 215.146 7.53695 217.587 10.8296C220.027 14.1222 221.48 17.7054 221.945 21.5791C222.41 25.4528 222.642 32.2318 222.642 41.916V58.0112ZM198.18 27.0991C198.18 22.7218 197.928 19.9328 197.424 18.7319C196.959 17.4924 195.972 16.8726 194.461 16.8726C193.182 16.8726 192.195 17.3761 191.497 18.3833C190.839 19.3517 190.51 22.257 190.51 27.0991V71.0269C190.51 76.4888 190.723 79.8589 191.149 81.1372C191.614 82.4155 192.66 83.0547 194.286 83.0547C195.952 83.0547 197.017 82.3187 197.482 80.8467C197.947 79.3747 198.18 75.869 198.18 70.3296V27.0991ZM302.9 2.92725V65.7974C302.9 72.925 302.667 77.9414 302.202 80.8467C301.737 83.7132 300.362 86.6766 298.077 89.7368C295.791 92.7583 292.77 95.0632 289.012 96.6514C285.294 98.2008 280.897 98.9756 275.822 98.9756C270.206 98.9756 265.247 98.0459 260.947 96.1865C256.648 94.3271 253.432 91.9061 251.302 88.9233C249.171 85.9406 247.912 82.8029 247.525 79.5103C247.138 76.1789 246.944 69.2062 246.944 58.5923V2.92725H271.406V73.4673C271.406 77.5734 271.619 80.2075 272.046 81.3696C272.51 82.493 273.421 83.0547 274.776 83.0547C276.326 83.0547 277.314 82.4349 277.74 81.1953C278.205 79.917 278.437 76.9342 278.437 72.2471V2.92725H302.9ZM377.114 2.92725V21.7534H362.588V97H338.125V21.7534H323.657V2.92725H377.114Z" fill="url(#paint0_linear_0_803)"/>
</g>
<defs>
<filter id="filter0_d_0_803" x="0.0213013" y="0.95166" width="381.093" height="106.024" filterUnits="userSpaceOnUse" color-interpolation-filters="sRGB">
<feFlood flood-opacity="0" result="BackgroundImageFix"/>
<feColorMatrix in="SourceAlpha" type="matrix" values="0 0 0 0 0 0 0 0 0 0 0 0 0 0 0 0 0 0 127 0" result="hardAlpha"/>
<feOffset dy="4"/>
<feGaussianBlur stdDeviation="2"/>
<feComposite in2="hardAlpha" operator="out"/>
<feColorMatrix type="matrix" values="0 0 0 0 0 0 0 0 0 0 0 0 0 0 0 0 0 0 0.25 0"/>
<feBlend mode="normal" in2="BackgroundImageFix" result="effect1_dropShadow_0_803"/>
<feBlend mode="normal" in="SourceGraphic" in2="effect1_dropShadow_0_803" result="shape"/>
</filter>
<linearGradient id="paint0_linear_0_803" x1="199" y1="-23" x2="199" y2="112" gradientUnits="userSpaceOnUse">
<stop offset="0.104" stop-color="white"/>
<stop offset="1" stop-color="#006871"/>
</linearGradient>
</defs>
</svg>
