<svg width="45" height="36" viewBox="0 0 45 36" fill="none" xmlns="http://www.w3.org/2000/svg">
<g id="logos:discord-icon" clip-path="url(#clip0_0_2684)">
<path id="Vector" d="M38.1189 3.00272C35.1679 1.58166 32.046 0.571938 28.8357 0.000244141C28.4358 0.744304 27.9686 1.74507 27.6464 2.54123C24.1851 2.00557 20.7556 2.00557 17.358 2.54123C17.036 1.74525 16.5582 0.744304 16.1546 0.000244141C12.9412 0.572202 9.81658 1.5845 6.86421 3.01013C0.989203 12.1474 -0.603467 21.0575 0.19278 29.8415C4.08947 32.8364 7.86575 34.6558 11.5784 35.8463C12.5011 34.5404 13.3167 33.1578 14.0169 31.7128C12.6839 31.1905 11.3988 30.5468 10.177 29.7894C10.4985 29.5441 10.8125 29.2885 11.1184 29.0229C18.5223 32.5871 26.567 32.5871 33.8826 29.0229C34.1899 29.2868 34.5038 29.5423 34.8239 29.7894C33.6001 30.5488 32.3126 31.1938 30.977 31.7166C31.6811 33.1675 32.4953 34.5514 33.4154 35.8499C37.1316 34.6596 40.9114 32.8402 44.8081 29.8415C45.7425 19.6588 43.2121 10.8305 38.1189 3.00272ZM15.0257 24.4395C12.803 24.4395 10.9803 22.304 10.9803 19.7035C10.9803 17.103 12.7642 14.9638 15.0257 14.9638C17.2873 14.9638 19.1099 17.0992 19.071 19.7035C19.0746 22.304 17.2873 24.4395 15.0257 24.4395ZM29.9752 24.4395C27.7526 24.4395 25.93 22.304 25.93 19.7035C25.93 17.103 27.7137 14.9638 29.9752 14.9638C32.2369 14.9638 34.0595 17.0992 34.0206 19.7035C34.0206 22.304 32.2369 24.4395 29.9752 24.4395Z" fill="#1C7A9C"/>
</g>
<defs>
<clipPath id="clip0_0_2684">
<rect width="45" height="36" fill="white"/>
</clipPath>
</defs>
</svg>
