<svg width="1759" height="1663" viewBox="0 0 1759 1663" fill="none" xmlns="http://www.w3.org/2000/svg">
<g clip-path="url(#clip0_21_200)">
<rect width="1759" height="1663" fill="#140C1F"/>
<g opacity="0.75" filter="url(#filter0_f_21_200)">
<path fill-rule="evenodd" clip-rule="evenodd" d="M1778.94 670.167C1671.16 676.627 1569.74 686.324 1484.95 710.949C1388.15 739.064 1274.93 771.382 1277.03 815.935C1279.12 860.231 1411.14 884.695 1494.7 917.44C1585.64 953.079 1644.08 1010.27 1778.94 1012.62C1915 1014.99 2011.12 966.912 2092.33 927.851C2160 895.299 2172.47 856.104 2187.84 815.935C2207.19 765.347 2292.7 704.669 2191.51 668.598C2090.33 632.526 1919.94 661.715 1778.94 670.167Z" fill="#51AEE2" opacity="0.75"/>
</g>
<g opacity="0.75" filter="url(#filter1_f_21_200)">
<path fill-rule="evenodd" clip-rule="evenodd" d="M-20.93 543.302C86.8502 552.168 188.265 565.475 273.053 599.267C369.857 637.849 483.079 682.198 480.976 743.337C478.886 804.124 346.869 837.695 263.308 882.631C172.362 931.537 113.93 1010.02 -20.93 1013.24C-156.999 1016.49 -253.113 950.52 -334.32 896.917C-401.995 852.247 -414.463 798.46 -429.831 743.337C-449.186 673.916 -534.693 590.649 -433.507 541.149C-332.32 491.648 -161.933 531.704 -20.93 543.302Z" fill="#AD1AAF"/>
</g>
</g>
<defs>
<filter id="filter0_f_21_200" x="818.667" y="192.667" width="1879.67" height="1278.37" filterUnits="userSpaceOnUse" color-interpolation-filters="sRGB">
<feFlood flood-opacity="0" result="BackgroundImageFix"/>
<feBlend mode="normal" in="SourceGraphic" in2="BackgroundImageFix" result="shape"/>
<feGaussianBlur stdDeviation="229.167" result="effect1_foregroundBlur_21_200"/>
</filter>
<filter id="filter1_f_21_200" x="-940.333" y="58.6667" width="1879.67" height="1413.02" filterUnits="userSpaceOnUse" color-interpolation-filters="sRGB">
<feFlood flood-opacity="0" result="BackgroundImageFix"/>
<feBlend mode="normal" in="SourceGraphic" in2="BackgroundImageFix" result="shape"/>
<feGaussianBlur stdDeviation="229.167" result="effect1_foregroundBlur_21_200"/>
</filter>
<clipPath id="clip0_21_200">
<rect width="1759" height="1663" fill="white"/>
</clipPath>
</defs>
</svg>
