<svg width="265" height="100" viewBox="0 0 265 100" fill="none" xmlns="http://www.w3.org/2000/svg">
<g filter="url(#filter0_d_0_4697)">
<path d="M4.28249 2.15674H39.4451V18.1353H25.0447V33.2754H37.867V48.4648H25.0447V82H4.28249V2.15674ZM91.4364 2.15674L103.322 82H82.0663L81.0307 67.6489H73.5839L72.351 82H50.849L61.4027 2.15674H91.4364ZM80.4389 53.4951C79.3868 44.4538 78.3347 33.2918 77.2826 20.0093C75.1784 35.2645 73.8633 46.4264 73.3373 53.4951H80.4389ZM167.494 82V91.666H151.812C148.031 91.666 145.368 91.3701 143.822 90.7783C142.277 90.2194 141.225 89.3646 140.666 88.2139C140.14 87.0632 139.877 84.9919 139.877 82C135.175 81.8685 131.132 80.6356 127.745 78.3013C124.359 75.967 122.123 73.008 121.038 69.4243C119.953 65.8078 119.411 60.4159 119.411 53.2485V28.541C119.411 23.1162 119.723 18.9901 120.348 16.1626C121.005 13.3022 122.337 10.6227 124.342 8.12402C126.348 5.59245 128.929 3.68555 132.085 2.40332C135.241 1.12109 138.743 0.47998 142.589 0.47998C147.225 0.47998 151.351 1.26904 154.968 2.84717C158.617 4.42529 161.33 6.43083 163.105 8.86377C164.913 11.2967 166.08 13.8283 166.606 16.4585C167.165 19.0558 167.445 22.9354 167.445 28.0972V54.0376C167.445 61.1392 167.1 65.9557 166.409 68.4873C165.719 71.0189 164.387 73.0409 162.415 74.5532C160.475 76.0327 157.877 77.167 154.623 77.9561C154.721 79.7314 155.083 80.8493 155.708 81.3096C156.365 81.7699 157.894 82 160.294 82H167.494ZM146.683 22.6724C146.683 18.9572 146.469 16.59 146.042 15.5708C145.647 14.5187 144.809 13.9927 143.526 13.9927C142.441 13.9927 141.603 14.4201 141.011 15.2749C140.452 16.0968 140.173 18.5627 140.173 22.6724V59.9556C140.173 64.5913 140.354 67.4517 140.715 68.5366C141.11 69.6216 141.998 70.1641 143.378 70.1641C144.792 70.1641 145.696 69.5394 146.091 68.29C146.485 67.0407 146.683 64.0653 146.683 59.3638V22.6724ZM199.364 2.15674V9.30762C199.364 13.0228 198.921 16.0968 198.033 18.5298C197.145 20.9299 195.6 22.9683 193.397 24.645C191.227 26.2889 188.761 27.4067 186 27.9985V22.2285C187.972 21.1436 189.09 19.6641 189.353 17.79H186V2.15674H199.364ZM258.556 37.4673H240.901V33.9165C240.901 30.8918 240.72 28.9849 240.358 28.1958C240.029 27.3739 239.175 26.9629 237.794 26.9629C236.676 26.9629 235.837 27.341 235.279 28.0972C234.72 28.8205 234.44 29.9219 234.44 31.4014C234.44 33.4069 234.572 34.8864 234.835 35.8398C235.131 36.7604 235.969 37.7796 237.35 38.8975C238.764 40.0153 241.64 41.6427 245.98 43.7798C251.767 46.6073 255.564 49.2703 257.372 51.769C259.181 54.2677 260.085 57.9007 260.085 62.668C260.085 67.9941 259.394 72.0216 258.013 74.7505C256.633 77.4465 254.315 79.5342 251.06 81.0137C247.838 82.4603 243.942 83.1836 239.372 83.1836C234.309 83.1836 229.969 82.3945 226.352 80.8164C222.769 79.2383 220.303 77.1012 218.955 74.4053C217.607 71.7093 216.933 67.6325 216.933 62.1748V59.0186H234.588V63.1611C234.588 66.679 234.802 68.964 235.229 70.0161C235.69 71.0682 236.577 71.5942 237.892 71.5942C239.306 71.5942 240.292 71.249 240.851 70.5586C241.41 69.8353 241.69 68.3394 241.69 66.0708C241.69 62.9474 241.328 60.9912 240.605 60.2021C239.849 59.4131 235.985 57.0788 229.015 53.1992C223.163 49.9115 219.596 46.936 218.314 44.2729C217.031 41.577 216.39 38.3879 216.39 34.7056C216.39 29.478 217.081 25.6313 218.462 23.1655C219.843 20.6668 222.177 18.7435 225.465 17.3955C228.785 16.0475 232.632 15.3735 237.005 15.3735C241.344 15.3735 245.027 15.9325 248.052 17.0503C251.109 18.1353 253.443 19.5819 255.054 21.3901C256.698 23.1984 257.685 24.8752 258.013 26.4204C258.375 27.9657 258.556 30.3822 258.556 33.6699V37.4673Z" fill="url(#paint0_linear_0_4697)"/>
</g>
<defs>
<filter id="filter0_d_0_4697" x="0.282486" y="0.47998" width="263.802" height="99.186" filterUnits="userSpaceOnUse" color-interpolation-filters="sRGB">
<feFlood flood-opacity="0" result="BackgroundImageFix"/>
<feColorMatrix in="SourceAlpha" type="matrix" values="0 0 0 0 0 0 0 0 0 0 0 0 0 0 0 0 0 0 127 0" result="hardAlpha"/>
<feOffset dy="4"/>
<feGaussianBlur stdDeviation="2"/>
<feComposite in2="hardAlpha" operator="out"/>
<feColorMatrix type="matrix" values="0 0 0 0 0 0 0 0 0 0 0 0 0 0 0 0 0 0 0.25 0"/>
<feBlend mode="normal" in2="BackgroundImageFix" result="effect1_dropShadow_0_4697"/>
<feBlend mode="normal" in="SourceGraphic" in2="effect1_dropShadow_0_4697" result="shape"/>
</filter>
<linearGradient id="paint0_linear_0_4697" x1="131" y1="-20" x2="131" y2="103" gradientUnits="userSpaceOnUse">
<stop offset="0.104" stop-color="white"/>
<stop offset="1" stop-color="#006871"/>
</linearGradient>
</defs>
</svg>
