<svg width="43" height="17" viewBox="0 0 43 17" fill="none" xmlns="http://www.w3.org/2000/svg">
<path d="M24.9496 0.443105C28.2498 1.46158 30.9011 2.28055 33.0786 2.95335L24.9103 3.18419C24.432 2.62391 22.428 0.702931 21.6343 0.146131C22.6951 -0.199549 23.9476 0.134545 24.9496 0.443105Z" fill="#AABCBF"/>
<path d="M27.7291 3.10439L24.9103 3.18443C24.432 2.62415 22.428 0.703165 21.6343 0.146365C22.0372 0.0152855 22.4673 -0.0171806 22.9019 0.00833938C25.8927 0.633579 27.9178 1.88291 27.7291 3.10439Z" fill="#98ADAF"/>
<path d="M0.758666 1.06842C2.52872 1.77022 4.07847 2.62746 5.3249 3.68306C5.90888 4.17838 6.41744 4.70385 6.84449 5.25717C6.91843 5.35229 7.19156 5.91606 7.37113 6.01814C8.47723 6.64686 9.98018 5.98913 10.9082 5.65737C14.8452 4.25145 18.912 3.19931 23.4118 2.62975C27.4076 2.12399 31.8033 2.16229 35.4415 3.52181C39.0435 4.86741 41.8925 7.90892 42.3844 10.4609C42.398 10.5294 42.324 10.5851 42.2214 10.6245C42.2154 10.6407 42.2094 10.657 42.1838 10.6767C38.7659 13.376 31.6977 14.0882 26.4705 13.7008C23.3212 13.4676 20.27 12.8099 17.4874 11.8471C15.8985 11.2973 14.4061 10.6477 13.0193 9.91342C11.545 9.1339 10.2412 8.20589 8.37909 7.85789C6.03562 8.62465 2.94823 8.71395 1.24156 10.0897C1.07406 10.2254 0.280302 10.3055 0.4644 10.0271C2.3265 7.20249 3.06293 3.98698 0.0464408 1.29346C-0.188963 1.0835 0.55646 0.988379 0.758666 1.06842Z" fill="#AABCBF"/>
<path opacity="0.47" d="M0.758725 1.06844C2.52878 1.77024 4.07853 2.62747 5.32496 3.68307C5.90894 4.17839 6.4175 4.70387 6.84455 5.25719C6.91849 5.35231 7.19162 5.91607 7.37119 6.01815C7.73939 6.22695 8.15132 6.2919 8.57082 6.27566C8.5512 6.47982 8.51805 6.68514 8.46674 6.89162C8.3762 7.25934 8.23729 7.61432 8.05772 7.9542C5.75951 8.6328 2.87137 8.77432 1.24014 10.0886C1.07264 10.2243 0.278887 10.3043 0.462985 10.0259C2.32509 7.20134 3.06142 3.98583 0.0449339 1.29231C-0.188961 1.08351 0.556519 0.988396 0.758725 1.06844Z" fill="#B7CCCE"/>
<path d="M13.09 4.92579C16.4807 4.19383 21.5842 3.91545 27.2218 4.28317C32.2935 4.61377 36.8009 5.40257 39.9351 6.39901C41.2358 7.68197 42.1307 9.13659 42.3857 10.4613C42.3993 10.5298 42.3254 10.5855 42.2228 10.6249C42.2168 10.6411 42.2107 10.6574 42.185 10.6771C41.6116 11.1295 40.9296 11.5216 40.1766 11.8672C36.7874 12.5899 31.7066 12.8637 26.0991 12.4983C21.791 12.2176 17.8887 11.6074 14.8888 10.8186C14.2474 10.5333 13.6212 10.2328 13.0191 9.91494C11.7365 9.23518 10.5791 8.44524 9.07308 8.02184C8.90256 7.75968 8.82558 7.4952 8.8618 7.23188C8.92367 6.78296 9.29791 6.37231 9.93018 6.00575C10.2908 5.88975 10.6258 5.75985 10.908 5.65893C11.6293 5.40025 12.3566 5.15895 13.09 4.92579Z" fill="#98ADAF"/>
<path d="M33.6155 8.23109C34.0003 6.65465 36.3498 5.1896 37.8407 4.9054C40.1012 6.3612 41.7446 8.45613 42.0977 10.2866C42.1097 10.3516 42.0418 10.4026 41.9438 10.4409C41.9377 10.456 41.9317 10.4711 41.909 10.4896C40.5177 11.5893 37.0908 12.9221 33.7348 13.2087C33.018 12.4744 33.2021 9.92237 33.6155 8.23109Z" fill="#C1D1D3"/>
<path d="M42.1833 10.6778C42.1728 10.686 42.1622 10.6929 42.1516 10.701C41.9253 10.6999 41.6944 10.7057 41.453 10.7289C41.1844 10.7556 40.9308 10.7962 40.6985 10.8484C40.6607 10.7614 40.8222 10.6767 40.9429 10.6512C41.3986 10.5572 41.8634 10.5259 42.3282 10.5665C42.2995 10.5885 42.2632 10.6083 42.221 10.6257C42.215 10.6419 42.209 10.6581 42.1833 10.6778Z" fill="#657577"/>
<path d="M38.0383 8.32932C38.2224 8.34904 38.3823 8.46505 38.5045 8.64601C38.4472 8.88845 38.3507 9.09259 38.2239 9.26775C38.1183 9.41159 37.1118 9.37565 37.2054 9.17033C37.2536 9.06477 37.2793 8.94527 37.2959 8.81767C37.4936 8.49519 37.7622 8.30032 38.0383 8.32932Z" fill="#455051"/>
<path d="M36.2943 6.90935C35.8582 6.86295 35.425 6.84785 34.9995 6.85713C35.8098 6.02889 37.0412 5.38512 37.927 5.21576C39.9173 6.49756 41.3645 8.34311 41.6753 9.95435C41.6814 9.98683 41.6633 10.0147 41.6316 10.039C40.9269 8.45099 38.9169 7.18891 36.2943 6.90935Z" fill="#D5E1E2"/>
<path d="M23.3523 3.1679C26.9422 2.71434 30.8504 2.70159 34.2472 3.68875C32.957 4.13535 31.5386 4.55989 30.0205 4.94617C27.4884 4.45897 24.5851 4.21884 21.5204 4.30468C18.3907 4.39284 15.4979 4.80813 13.0503 5.45657C16.3082 4.42069 19.6854 3.6319 23.3523 3.1679Z" fill="#D5E1E2"/>
<path d="M11.2099 9.37971C11.6596 9.22427 12.2193 9.2347 12.749 9.20802C13.3315 9.17786 13.8973 9.09897 14.427 8.97253L14.4979 9.31241C13.4522 9.71377 12.3929 10.1001 11.317 10.4689C11.2385 10.4956 11.1555 10.5235 11.0605 10.513C10.9141 10.4979 10.7919 10.3982 10.7225 10.2996C10.4644 9.92723 10.7602 9.53515 11.2099 9.37971Z" fill="#98ADAF"/>
<path d="M19.0323 14.9929C19.1697 14.7192 19.3402 14.4454 19.645 14.2331C19.9332 14.0325 20.3225 13.9014 20.7149 13.7866C22.7248 13.1996 25.0155 12.9768 27.2413 13.152L27.2488 13.4652C23.9215 13.9733 20.8598 15.0927 18.5435 16.6494C18.5993 16.0857 18.7637 15.5289 19.0323 14.9929Z" fill="#AABCBF"/>
<path d="M18.5435 16.6459C18.5993 16.0833 18.7637 15.5265 19.0323 14.9906C19.1697 14.7168 19.3402 14.4431 19.645 14.2308C19.9332 14.0301 20.3225 13.8991 20.7149 13.7842C20.8884 13.7332 21.068 13.6891 21.2445 13.6439C22.3159 13.6647 23.2892 13.8608 24.0151 14.1786C21.9583 14.7749 20.0841 15.6112 18.5435 16.6459Z" fill="#C1D1D3"/>
<path d="M13.1944 9.79737C12.5742 10.0259 11.9494 10.2498 11.3187 10.4667C11.2402 10.4934 11.1572 10.5212 11.0621 10.5108C10.9173 10.4957 10.7935 10.3959 10.7241 10.2973C10.5008 9.97717 10.6895 9.64425 11.0335 9.45749C11.3036 9.44589 11.5933 9.45399 11.8921 9.48531C12.3976 9.53867 12.8443 9.65237 13.1944 9.79737Z" fill="#C1D1D3"/>
<path opacity="0.47" d="M8.55859 7.16225C8.60085 7.16921 8.64309 7.17732 8.68836 7.18196C8.69742 7.18312 8.70648 7.18313 8.71553 7.18313C8.83927 6.98941 9.16524 6.85254 9.57116 6.81426C9.20146 6.69362 8.957 6.49409 8.93437 6.28297C8.92532 6.28181 8.91625 6.27949 8.9072 6.27833C8.85288 6.27253 8.8 6.27022 8.74869 6.26906V6.26559C8.8332 6.25747 8.91922 6.24702 9.00372 6.23426C9.01579 6.23194 9.02785 6.22961 9.03992 6.22729C9.11688 6.21453 9.19239 6.20062 9.26934 6.18438C9.26482 6.19482 9.25722 6.2041 9.25571 6.21454C9.20139 6.43958 9.50475 6.6623 9.95293 6.74466C10.0782 6.5521 10.4026 6.41637 10.807 6.37809C10.4795 6.27137 10.2547 6.10202 10.1898 5.91874C10.2939 5.88278 10.3935 5.84683 10.4901 5.81087C10.4689 6.04867 10.8311 6.27603 11.3336 6.33055C11.3427 6.33171 11.3517 6.33168 11.3623 6.33168C11.486 6.13796 11.812 6.00109 12.2179 5.96281C11.8482 5.84217 11.6037 5.64264 11.5811 5.43152C11.5781 5.43152 11.5735 5.43039 11.5705 5.43039C11.6082 5.41763 11.646 5.40487 11.6837 5.39095C11.7652 5.36311 11.8467 5.33408 11.9281 5.30624C11.9191 5.3248 11.9071 5.3422 11.9025 5.36192C11.8437 5.60436 12.1998 5.84333 12.7023 5.90829C12.8245 5.71341 13.152 5.57537 13.5595 5.53709C13.1928 5.41645 12.9483 5.21927 12.9227 5.01047C12.894 5.00815 12.8667 5.00699 12.8396 5.00583C12.8864 4.99075 12.9332 4.9768 12.98 4.96172C13.0237 4.9478 13.066 4.93388 13.1097 4.92112C13.1656 4.90372 13.2214 4.88517 13.2773 4.86777C13.2637 4.89097 13.25 4.91302 13.244 4.93854C13.1836 5.18794 13.5609 5.435 14.0876 5.49184C14.0966 5.493 14.1056 5.49301 14.1162 5.49301C14.24 5.29929 14.5659 5.16242 14.9718 5.12414C14.6021 5.0035 14.3577 4.80397 14.335 4.59285C14.326 4.59169 14.3184 4.58937 14.3079 4.58821C14.2732 4.58473 14.2385 4.58357 14.2038 4.58241C14.2536 4.56733 14.3034 4.55342 14.3532 4.5395C14.3849 4.53022 14.4165 4.52092 14.4467 4.51164C14.5297 4.48728 14.6112 4.4641 14.6942 4.43974C14.676 4.46642 14.6625 4.49425 14.6549 4.52325C14.5946 4.77265 14.9718 5.01972 15.4985 5.07656C15.5121 5.07772 15.5256 5.07774 15.5392 5.0789C15.6614 4.88402 15.9889 4.74597 16.3963 4.70769C16.0296 4.58821 15.7852 4.38987 15.7595 4.18107C15.7459 4.17875 15.7324 4.17643 15.7188 4.17527C15.6962 4.17295 15.675 4.17292 15.6524 4.17176C15.7052 4.15784 15.758 4.14511 15.8108 4.13003C15.8244 4.12655 15.8395 4.12306 15.8531 4.11958C15.9376 4.09754 16.0221 4.07549 16.1066 4.05345C16.0976 4.07201 16.0855 4.08942 16.0809 4.10914C16.0206 4.35854 16.3979 4.60561 16.9245 4.66245C16.9335 4.66361 16.9426 4.66362 16.9531 4.66362C17.0769 4.4699 17.4028 4.33302 17.8088 4.29474C17.4496 4.17758 17.2067 3.98616 17.172 3.782C17.1886 3.77852 17.2052 3.77507 17.2218 3.77043C17.2369 3.76695 17.2519 3.76347 17.267 3.75999C17.3425 3.74143 17.4194 3.72517 17.4949 3.70777C17.4526 3.94557 17.8013 4.17643 18.2947 4.24023C18.4184 4.04535 18.7444 3.9073 19.1518 3.86902C18.8575 3.77274 18.6418 3.62657 18.5542 3.46301C18.6523 3.44213 18.7518 3.42358 18.8484 3.40386C18.9224 3.60106 19.2484 3.77504 19.6784 3.82144C19.6875 3.8226 19.6965 3.82261 19.7071 3.82261C19.8308 3.62889 20.1568 3.49202 20.5627 3.45374C20.3379 3.38066 20.1613 3.2774 20.0496 3.1614C20.1447 3.144 20.2412 3.12779 20.3378 3.11039C20.4555 3.23335 20.6729 3.33426 20.9445 3.38414C21.0697 3.19158 21.3942 3.05585 21.8001 3.01757C21.702 2.98509 21.616 2.94683 21.5375 2.90507C21.6447 2.88767 21.7502 2.87025 21.8574 2.85285C21.9902 2.90853 22.1487 2.9503 22.3267 2.96886C22.3358 2.97002 22.3449 2.97003 22.3539 2.97003C22.4128 2.87839 22.5169 2.80066 22.6527 2.73918C22.8866 2.7067 23.1189 2.66958 23.3543 2.63942C23.3739 2.6371 23.3935 2.6336 23.4146 2.63128C23.5595 2.61272 23.7059 2.59651 23.8508 2.58027C23.9141 2.57331 23.976 2.56517 24.0394 2.55821C24.0047 2.59533 23.9776 2.63595 23.9655 2.68003C23.9052 2.92943 24.2823 3.17649 24.809 3.23333C24.818 3.23449 24.8271 3.2345 24.8362 3.2345C24.9599 3.04078 25.2859 2.90391 25.6918 2.86563C25.3945 2.76819 25.1787 2.61968 25.0927 2.45612C25.1953 2.448 25.2979 2.43988 25.4006 2.43176C25.4956 2.6162 25.811 2.77397 26.2184 2.81805C26.232 2.81921 26.2455 2.81923 26.2591 2.82039C26.3814 2.62551 26.7088 2.4863 27.1162 2.44918C27.0302 2.42134 26.9533 2.38769 26.8824 2.35289C27.0318 2.34825 27.1812 2.34247 27.3305 2.34015C27.4271 2.36799 27.5313 2.39 27.6444 2.4016C27.6535 2.40276 27.6625 2.40277 27.6716 2.40277C27.6867 2.37957 27.7078 2.35755 27.7289 2.33551C27.8587 2.33435 27.9884 2.33318 28.1182 2.33434C28.0262 2.39118 27.9613 2.45962 27.9416 2.5385C27.8828 2.78094 28.239 3.0199 28.7415 3.08486C28.8637 2.88998 29.1911 2.75194 29.5986 2.71366C29.333 2.62666 29.1338 2.49907 29.0327 2.35523C29.1459 2.35987 29.2606 2.36451 29.3737 2.37031C29.5126 2.51415 29.7872 2.63013 30.1267 2.66725C30.1357 2.66841 30.1448 2.66841 30.1538 2.66841C30.2097 2.58025 30.3078 2.50486 30.4376 2.44454C30.5855 2.45846 30.7333 2.47354 30.8797 2.48978C30.6368 2.54894 30.4587 2.6603 30.424 2.80414C30.3697 3.02918 30.673 3.2519 31.1212 3.33426C31.2464 3.1417 31.5708 3.00597 31.9767 2.96769C31.6734 2.86909 31.4577 2.71714 31.3747 2.54894C31.4939 2.56402 31.6116 2.57908 31.7308 2.59648C31.8591 2.75308 32.1458 2.88187 32.5049 2.92015C32.514 2.92131 32.5231 2.92128 32.5321 2.92128C32.5698 2.86212 32.6287 2.80993 32.7011 2.76237C32.8067 2.78325 32.9123 2.80646 33.0165 2.8285C32.9018 2.88882 32.8248 2.96652 32.8021 3.057C32.7433 3.29944 33.0995 3.53841 33.602 3.60337C33.7242 3.40849 34.0516 3.27045 34.4591 3.23217C34.361 3.19969 34.275 3.16142 34.195 3.1185C34.4183 3.18114 34.6386 3.24843 34.8574 3.32035C34.9238 3.34239 34.9902 3.36675 35.0566 3.38995C35.1396 3.41895 35.2226 3.44679 35.3056 3.47579C35.3916 3.66603 35.7116 3.83074 36.128 3.87482C36.1416 3.87598 36.1552 3.87597 36.1688 3.87713C36.1778 3.86321 36.1868 3.85045 36.1974 3.83769C36.2864 3.87829 36.374 3.92122 36.4615 3.96414C36.454 3.97922 36.4434 3.99431 36.4404 4.01055C36.38 4.25995 36.7573 4.50702 37.2839 4.56386C37.293 4.56502 37.302 4.56503 37.3126 4.56503C37.3367 4.52791 37.3669 4.49311 37.4047 4.46063C37.4816 4.50587 37.5571 4.55573 37.6325 4.60213C37.6084 4.63345 37.5902 4.66595 37.5811 4.70075C37.5691 4.75295 37.5782 4.80512 37.6023 4.85616C37.5073 4.8782 37.4122 4.89911 37.3186 4.92579C37.287 4.87591 37.2673 4.82371 37.2613 4.77035C37.2522 4.76919 37.2432 4.76687 37.2341 4.76571C36.7075 4.71003 36.2321 4.86662 36.1702 5.11486C36.1521 5.18678 36.1748 5.25871 36.2246 5.32599C36.1476 5.36195 36.0737 5.40255 35.9983 5.44083C35.9168 5.36195 35.861 5.27726 35.8489 5.1891C35.8353 5.18678 35.8217 5.18445 35.8081 5.18213C35.2814 5.12645 34.8062 5.28304 34.7443 5.53128C34.7036 5.696 34.8574 5.8584 35.1155 5.96628C35.0596 6.00572 35.0069 6.04632 34.9525 6.08692C34.6477 5.96512 34.444 5.78882 34.4229 5.59974C34.4138 5.59858 34.4048 5.59627 34.3957 5.59511C33.8691 5.53943 33.3937 5.69602 33.3318 5.94426C33.2715 6.19366 33.6487 6.44073 34.1754 6.49757C34.1844 6.49873 34.1935 6.49874 34.204 6.49874C34.3051 6.34098 34.542 6.22382 34.8453 6.16466C34.6084 6.3491 34.3851 6.54746 34.1738 6.75974C34.1678 6.74118 34.1557 6.72262 34.1527 6.70406C34.1437 6.7029 34.1346 6.70058 34.1256 6.69942C33.5989 6.64374 33.1236 6.80034 33.0617 7.04858C33.0179 7.2307 33.2081 7.41049 33.5174 7.51721C33.445 7.61581 33.3816 7.72021 33.3152 7.82229C33.0361 7.87565 32.8309 7.99513 32.7916 8.15289C32.7645 8.26309 32.8278 8.37212 32.947 8.46608C32.9168 8.52756 32.8912 8.59021 32.8626 8.65285C32.6347 8.53685 32.4898 8.38489 32.4702 8.22713C31.9617 8.18421 31.5089 8.33734 31.4501 8.57978C31.3912 8.82222 31.7474 9.06116 32.2499 9.12612C32.3389 8.98344 32.5397 8.87209 32.7992 8.80713C32.7645 8.88949 32.7267 8.97071 32.6965 9.05539C32.606 9.11223 32.5411 9.18066 32.5215 9.25954C32.5034 9.3303 32.526 9.40105 32.5728 9.46717C32.5577 9.52169 32.5381 9.57389 32.5246 9.62841C32.5185 9.65509 32.5155 9.68061 32.5094 9.70729C32.3344 9.59941 32.2182 9.47066 32.2001 9.33378C31.6915 9.29086 31.2389 9.44396 31.18 9.6864C31.1212 9.92884 31.4773 10.1678 31.9798 10.2328C32.0613 10.1028 32.2393 10.0019 32.4657 9.93466C32.4521 10.0112 32.4325 10.0889 32.4219 10.1643C32.3329 10.22 32.2695 10.2884 32.2514 10.3662C32.2257 10.4682 32.2771 10.5692 32.3797 10.6573C32.3767 10.735 32.3752 10.8116 32.3752 10.887C32.1201 10.7675 31.9511 10.6086 31.9315 10.4393C31.423 10.3963 30.9702 10.5494 30.9114 10.7919C30.8525 11.0343 31.2087 11.2733 31.7112 11.3383C31.8138 11.1747 32.0628 11.0552 32.3797 10.9972C32.3812 11.0552 32.3812 11.1132 32.3842 11.1701C32.1699 11.2315 32.0145 11.3371 31.9828 11.4705C31.936 11.6631 32.1518 11.8533 32.4929 11.9565C32.5125 12.0435 32.535 12.1305 32.5592 12.2152C32.1246 12.2164 31.7655 12.3614 31.7127 12.5748C31.6523 12.8242 32.0296 13.0713 32.5562 13.1281C32.5653 13.1293 32.5743 13.1293 32.5849 13.1293C32.6347 13.0527 32.7222 12.9878 32.8278 12.931C32.861 13.0017 32.8973 13.0701 32.9335 13.1386C32.8958 13.178 32.8671 13.2186 32.855 13.265C32.8248 13.3857 32.9003 13.5051 33.0436 13.6037C32.938 13.6142 32.8339 13.6258 32.7298 13.6351C32.6166 13.5434 32.5456 13.4402 32.5336 13.3335C32.5245 13.3323 32.5155 13.33 32.5064 13.3288C31.9798 13.2731 31.5044 13.4297 31.4425 13.678C31.438 13.6954 31.4411 13.7128 31.4411 13.7302C31.3898 13.7337 31.3399 13.7348 31.2886 13.7383C31.2177 13.7418 31.1468 13.7464 31.0774 13.7487C30.9189 13.7383 30.7681 13.7464 30.6338 13.7708C30.4331 13.7778 30.2369 13.7801 30.0377 13.7847C30.2007 13.6896 30.427 13.6223 30.688 13.5991C30.3183 13.4785 30.0739 13.2789 30.0512 13.0678C30.0422 13.0667 30.0346 13.0643 30.0241 13.0632C29.4974 13.0075 29.0207 13.1641 28.9603 13.4123C28.9256 13.5515 29.0327 13.6896 29.2213 13.794C29.0961 13.794 28.9708 13.794 28.8471 13.7928C28.7294 13.7012 28.6539 13.5979 28.6389 13.4912C28.2329 13.4784 27.8814 13.5898 27.7621 13.7685C27.6867 13.7661 27.6097 13.765 27.5343 13.7615C27.2823 13.751 27.0378 13.7348 26.7933 13.7197C26.487 13.5979 26.2848 13.4216 26.2622 13.2337C25.7536 13.1908 25.3009 13.3439 25.242 13.5863V13.5875C25.1726 13.5794 25.1047 13.5701 25.0368 13.562C24.8135 13.5364 24.5918 13.5086 24.3699 13.4785C24.0304 13.3567 23.804 13.1699 23.7798 12.9692C23.7663 12.9669 23.7527 12.9646 23.7391 12.9634C23.2834 12.9147 22.8685 13.026 22.7236 13.2174C22.621 13.1989 22.5183 13.178 22.4157 13.1583C22.5485 12.9739 22.8684 12.8451 23.2607 12.8091C22.891 12.6885 22.6466 12.489 22.624 12.2779C22.6149 12.2767 22.6073 12.2744 22.5968 12.2732C22.0701 12.2175 21.5934 12.3741 21.533 12.6224C21.4923 12.7894 21.6507 12.9541 21.9148 13.062C21.7216 13.0226 21.5315 12.9773 21.3383 12.9344C21.2659 12.859 21.2206 12.7778 21.2116 12.6955C20.9701 12.6746 20.7423 12.6978 20.5627 12.7546C20.4556 12.7279 20.3499 12.6989 20.2427 12.6711C20.3921 12.6073 20.5732 12.562 20.7769 12.5423C20.4072 12.4217 20.1628 12.2222 20.1401 12.0111C20.1311 12.0099 20.1235 12.0076 20.113 12.0064C19.5954 11.9519 19.1306 12.1015 19.0552 12.3428C18.9571 12.3138 18.8591 12.286 18.7625 12.257C18.4607 12.1653 18.1618 12.0691 17.8661 11.9705C17.8072 11.902 17.771 11.8312 17.7635 11.757C17.7544 11.7558 17.7453 11.7535 17.7363 11.7535C17.5673 11.735 17.4058 11.7408 17.2595 11.7628C17.1569 11.7269 17.0573 11.6886 16.9547 11.6514C17.0498 11.6282 17.1493 11.6085 17.258 11.5993C16.8913 11.4798 16.6469 11.2814 16.6212 11.0726C16.2938 11.0448 15.9904 11.0982 15.8003 11.206C15.7158 11.1712 15.6298 11.1364 15.5453 11.1016C15.7082 11.0088 15.93 10.945 16.1866 10.9207C15.8169 10.8 15.5724 10.6005 15.5498 10.3894C15.5407 10.3882 15.5317 10.3859 15.5226 10.3847C15.0639 10.336 14.6444 10.4485 14.5041 10.6422C14.4196 10.6028 14.3335 10.5657 14.2505 10.5262C14.4029 10.3708 14.6927 10.2618 15.0458 10.2293C14.6791 10.1098 14.4347 9.91145 14.409 9.70265C14.3954 9.70033 14.3818 9.698 14.3682 9.69684C13.8416 9.64116 13.3648 9.79779 13.3044 10.046C13.3029 10.0495 13.3044 10.0541 13.3044 10.0576C13.241 10.0251 13.1761 9.9938 13.1142 9.96132C13.0825 9.94508 13.0494 9.92885 13.0177 9.91261C13.0147 9.91145 13.0132 9.91029 13.0102 9.90797C13.0177 9.90913 13.0267 9.90914 13.0343 9.90914C13.158 9.71542 13.484 9.57855 13.8899 9.54027C13.5202 9.41963 13.2758 9.2201 13.2531 9.00898C13.2441 9.00782 13.235 9.0055 13.226 9.00434C12.6993 8.94866 12.224 9.10526 12.1621 9.3535C12.1545 9.38134 12.156 9.41033 12.159 9.43817C12.1123 9.41265 12.067 9.38599 12.0202 9.36047C11.9191 9.30363 11.8181 9.24792 11.717 9.19108C11.7728 9.20384 11.8301 9.21312 11.8905 9.22124C12.0127 9.02636 12.3401 8.88835 12.7476 8.85007C12.3809 8.72943 12.1364 8.53221 12.1108 8.32341C11.6023 8.28049 11.1495 8.43363 11.0907 8.67491C11.0741 8.74335 11.0937 8.81176 11.1374 8.87672C11.0469 8.82916 10.9564 8.78046 10.8658 8.73406C10.8357 8.71898 10.8055 8.70507 10.7753 8.68999C10.4297 8.51831 10.0721 8.35823 9.69486 8.22019C9.66015 8.16915 9.63756 8.11694 9.63002 8.06358C9.50628 8.05894 9.38702 8.06707 9.27837 8.08563C9.1667 8.05083 9.05351 8.01719 8.93732 7.98587C9.04898 7.95455 9.16974 7.93017 9.30103 7.91741C8.93132 7.79677 8.68687 7.59724 8.66423 7.38612C8.65518 7.38496 8.64612 7.38264 8.63706 7.38148C8.58878 7.37684 8.54048 7.37453 8.49219 7.37337C8.51633 7.30493 8.53747 7.23417 8.55859 7.16225ZM11.3125 6.53817C11.3035 6.53701 11.2959 6.5347 11.2854 6.53354C10.7587 6.47786 10.2819 6.63329 10.2215 6.88269C10.1611 7.13209 10.5384 7.37919 11.0651 7.43603C11.0741 7.43719 11.0832 7.43717 11.0922 7.43717C11.216 7.24345 11.5418 7.10657 11.9478 7.06829C11.5796 6.94765 11.3352 6.74813 11.3125 6.53817ZM12.654 6.11595C12.1455 6.07303 11.6928 6.22614 11.634 6.46858C11.5751 6.71102 11.9312 6.94999 12.4337 7.01495C12.5559 6.82007 12.8834 6.68202 13.2908 6.64374C12.9226 6.5231 12.6797 6.32591 12.654 6.11595ZM21.2433 7.38729C21.2523 7.38845 21.2613 7.38845 21.2719 7.38845C21.3956 7.19474 21.7216 7.05786 22.1275 7.01958C21.7578 6.89894 21.5134 6.69941 21.4907 6.48829C21.4817 6.48713 21.4726 6.48482 21.4636 6.48366C20.9369 6.42798 20.46 6.58457 20.3997 6.83281C20.3393 7.08337 20.7166 7.33161 21.2433 7.38729ZM20.0798 6.91285C19.615 6.89777 19.2197 7.04624 19.1653 7.27128C19.111 7.49632 19.4144 7.71904 19.8625 7.8014C19.9878 7.60884 20.3122 7.47198 20.7166 7.43486C20.3529 7.31655 20.1085 7.12049 20.0798 6.91285ZM21.542 7.52535C21.4832 7.76779 21.8393 8.00672 22.3418 8.07168C22.4655 7.8768 22.7915 7.73879 23.1989 7.70051C22.8323 7.57987 22.5877 7.38266 22.5621 7.17386C22.0535 7.12978 21.6009 7.28291 21.542 7.52535ZM22.6119 6.9662C22.7341 6.77132 23.0616 6.63331 23.469 6.59503C23.1023 6.47555 22.8578 6.27717 22.8322 6.06837C22.3237 6.02545 21.871 6.17859 21.8122 6.42103C21.7533 6.66231 22.1094 6.90124 22.6119 6.9662ZM22.8835 7.09962C22.8231 7.34902 23.2004 7.59609 23.7271 7.65293C23.7361 7.65409 23.7451 7.6541 23.7557 7.6541C23.8794 7.46038 24.2054 7.32351 24.6113 7.28523C24.2416 7.16459 23.9972 6.96506 23.9745 6.75394C23.9655 6.75278 23.9564 6.75046 23.9474 6.7493C23.4207 6.69362 22.9439 6.85022 22.8835 7.09962ZM26.2697 8.132C26.2607 8.13084 26.2531 8.12853 26.2425 8.12737C25.7159 8.07169 25.2405 8.22828 25.1787 8.47652C25.1183 8.72592 25.4956 8.97302 26.0222 9.02986C26.0313 9.03102 26.0403 9.03103 26.0509 9.03103C26.1746 8.83731 26.5006 8.70041 26.9065 8.66213C26.5383 8.54265 26.2939 8.34312 26.2697 8.132ZM27.1766 7.55898C26.8069 7.43834 26.5625 7.23881 26.5399 7.02769C26.5308 7.02653 26.5217 7.02421 26.5127 7.02305C25.986 6.96737 25.5107 7.12397 25.4488 7.37221C25.3885 7.62161 25.7657 7.86871 26.2924 7.92555C26.3014 7.92671 26.3105 7.92668 26.3195 7.92668C26.4448 7.73412 26.7707 7.5961 27.1766 7.55898ZM25.7657 7.97309C25.399 7.85245 25.1546 7.65524 25.1289 7.44644C25.1154 7.44412 25.1017 7.44183 25.0881 7.44067C24.5615 7.38499 24.0862 7.54158 24.0244 7.78982C23.964 8.03922 24.3412 8.28629 24.8678 8.34313C24.8814 8.34429 24.8951 8.34431 24.9086 8.34547C25.0324 8.14943 25.3583 8.01137 25.7657 7.97309ZM25.138 7.23765C25.1516 7.23881 25.1651 7.23883 25.1787 7.23999C25.3009 7.04511 25.6283 6.9059 26.0358 6.86878C25.6691 6.7493 25.4246 6.55093 25.399 6.34213C25.3854 6.33981 25.3719 6.33751 25.3583 6.33519C24.8316 6.27951 24.3563 6.4361 24.2944 6.68434C24.234 6.93374 24.6113 7.18197 25.138 7.23765ZM26.5624 6.8212C26.5715 6.82236 26.5806 6.82237 26.5912 6.82237C26.7149 6.62865 27.0409 6.49178 27.4468 6.4535C27.0771 6.33285 26.8325 6.13333 26.8099 5.92221C26.8008 5.92105 26.7919 5.91873 26.7828 5.91757C26.2562 5.86189 25.7808 6.01848 25.7189 6.26672C25.6586 6.51728 26.0373 6.76436 26.5624 6.8212ZM26.8613 6.95809C26.8024 7.20053 27.1585 7.4395 27.661 7.50446C27.7832 7.30958 28.1107 7.17153 28.5181 7.13325C28.1514 7.01377 27.907 6.8154 27.8813 6.6066C27.3728 6.56252 26.9201 6.71565 26.8613 6.95809ZM27.6112 7.71095C27.1027 7.66803 26.65 7.82113 26.5912 8.06241C26.5323 8.30369 26.8884 8.54382 27.3909 8.60878C27.5131 8.4139 27.8405 8.27585 28.248 8.23757C27.8813 8.11809 27.6368 7.92091 27.6112 7.71095ZM27.3411 8.81527C26.8326 8.77235 26.3799 8.92545 26.321 9.16789C26.2622 9.41033 26.6183 9.6493 27.1208 9.71426C27.2431 9.51938 27.5705 9.38133 27.9779 9.34305C27.6112 9.22241 27.3683 9.02523 27.3411 8.81527ZM26.0012 9.23749C25.9921 9.23633 25.983 9.23401 25.974 9.23285C25.4473 9.17717 24.9705 9.33377 24.9101 9.58317C24.8497 9.83257 25.227 10.0796 25.7537 10.1365C25.7627 10.1376 25.7718 10.1376 25.7823 10.1376C25.9061 9.94393 26.232 9.80706 26.6379 9.76878C26.2682 9.64814 26.0238 9.44861 26.0012 9.23749ZM25.4956 9.07858C25.1289 8.95794 24.8845 8.76072 24.8588 8.55192C24.8452 8.5496 24.8317 8.54728 24.8181 8.54612C24.2915 8.49044 23.8146 8.64707 23.7542 8.89531C23.6939 9.14471 24.0711 9.39178 24.5978 9.44862C24.6114 9.44978 24.6249 9.44979 24.6385 9.45095C24.7622 9.25375 25.0882 9.1157 25.4956 9.07858ZM24.3397 8.38954C23.97 8.2689 23.7256 8.06937 23.7029 7.85825C23.6939 7.85709 23.6863 7.85478 23.6758 7.85362C23.1491 7.79794 22.6738 7.95453 22.6119 8.20277C22.5515 8.45217 22.9288 8.69924 23.4555 8.75608C23.4645 8.75724 23.4736 8.75725 23.4826 8.75725C23.6094 8.56469 23.9338 8.42782 24.3397 8.38954ZM22.292 8.277C21.7835 8.23408 21.3307 8.38722 21.2719 8.62966C21.213 8.8721 21.5692 9.11107 22.0717 9.17603C22.1939 8.98115 22.5214 8.8431 22.9288 8.80482C22.5621 8.68418 22.3177 8.48696 22.292 8.277ZM21.8574 8.12507C21.4877 8.00443 21.2432 7.8049 21.2206 7.59378C21.2115 7.59262 21.2025 7.5903 21.1934 7.58914C20.6668 7.53346 20.1914 7.69005 20.1296 7.93829C20.0692 8.18769 20.4465 8.43476 20.9731 8.4916C20.9822 8.49276 20.9912 8.49277 21.0003 8.49277C21.1255 8.30021 21.4515 8.16335 21.8574 8.12507ZM19.8097 8.01833C19.3449 8.00325 18.9495 8.15172 18.8952 8.37676C18.8409 8.6018 19.1442 8.82452 19.5924 8.90688C19.7177 8.71432 20.0421 8.57863 20.4465 8.54035C20.0828 8.42087 19.8384 8.22597 19.8097 8.01833ZM19.4807 7.87217C19.111 7.75153 18.8665 7.55203 18.8439 7.34091C18.8348 7.33975 18.8258 7.3374 18.8167 7.33624C18.2901 7.28056 17.8148 7.43719 17.753 7.68543C17.6926 7.93483 18.0698 8.1819 18.5964 8.23874C18.6055 8.2399 18.6145 8.2399 18.6236 8.2399C18.7488 8.04619 19.0748 7.90929 19.4807 7.87217ZM18.3399 7.18196C17.9732 7.06248 17.7288 6.86415 17.7031 6.65535C17.1946 6.61243 16.7419 6.76553 16.683 7.00797C16.6242 7.25041 16.9803 7.48938 17.4828 7.55434C17.605 7.35714 17.931 7.21908 18.3399 7.18196ZM18.8666 7.13442C18.8756 7.13558 18.8846 7.13559 18.8952 7.13559C19.0189 6.94187 19.3449 6.80496 19.7508 6.76668C19.3811 6.64604 19.1367 6.44655 19.114 6.23543C19.105 6.23427 19.0959 6.23195 19.0869 6.23079C18.5602 6.17511 18.0849 6.33171 18.023 6.57995C17.9626 6.83051 18.3399 7.07758 18.8666 7.13442ZM20.1311 6.69708C20.2564 6.50453 20.5823 6.36883 20.9867 6.33055C20.6231 6.21107 20.3786 6.01618 20.35 5.80854C19.8852 5.79346 19.4898 5.94192 19.4355 6.16696C19.3796 6.392 19.6845 6.61356 20.1311 6.69708ZM21.5134 6.28297C21.5224 6.28413 21.5315 6.28414 21.542 6.28414C21.6658 6.09042 21.9917 5.95355 22.3977 5.91527C22.028 5.79463 21.7835 5.5951 21.7609 5.38398C21.7518 5.38282 21.7443 5.3805 21.7337 5.37934C21.2071 5.32366 20.7317 5.47909 20.6698 5.72849C20.6095 5.97905 20.9867 6.22613 21.5134 6.28297ZM22.882 5.86188C23.0043 5.667 23.3317 5.52899 23.7391 5.49071C23.3724 5.37123 23.128 5.17286 23.1023 4.96406C22.5938 4.92114 22.1411 5.07424 22.0822 5.31668C22.0234 5.5568 22.3795 5.79692 22.882 5.86188ZM23.1536 5.99414C23.0933 6.24354 23.4706 6.49061 23.9972 6.54745C24.0062 6.54861 24.0153 6.54862 24.0258 6.54862C24.1496 6.3549 24.4755 6.21802 24.8815 6.17974C24.5118 6.0591 24.2673 5.85957 24.2447 5.64845C24.2356 5.64729 24.2281 5.64498 24.2175 5.64382C23.6909 5.58814 23.214 5.74474 23.1536 5.99414ZM25.4081 6.13333C25.4217 6.13449 25.4352 6.13451 25.4488 6.13567C25.571 5.94079 25.8985 5.80158 26.3059 5.76446C25.9392 5.64498 25.6948 5.44661 25.6691 5.23781C25.6555 5.23549 25.642 5.23316 25.6284 5.232C25.1018 5.17632 24.6264 5.33292 24.5645 5.58116C24.5042 5.8294 24.8815 6.07649 25.4081 6.13333ZM26.8326 5.71575C26.8416 5.71691 26.8507 5.71688 26.8597 5.71688C26.9835 5.52316 27.3094 5.38629 27.7154 5.34801C27.3456 5.22737 27.1012 5.02784 27.0786 4.81672C27.0695 4.81556 27.0604 4.81325 27.0514 4.81209C26.5247 4.75641 26.0494 4.913 25.9875 5.16124C25.9287 5.41296 26.3059 5.66007 26.8326 5.71575ZM27.1313 5.85378C27.0725 6.09622 27.4286 6.33519 27.9311 6.40015C28.0534 6.20527 28.3808 6.06722 28.7882 6.02894C28.4216 5.90946 28.1771 5.71109 28.1515 5.50229C27.6429 5.45821 27.1902 5.61134 27.1313 5.85378ZM29.3149 5.98023C29.3239 5.98139 29.333 5.98136 29.3435 5.98136C29.4673 5.78764 29.7932 5.65077 30.1992 5.61249C29.8295 5.49185 29.585 5.29232 29.5624 5.0812C29.5533 5.08004 29.5443 5.07772 29.5352 5.07656C29.0086 5.02088 28.5332 5.17635 28.4713 5.42575C28.411 5.67747 28.7898 5.92455 29.3149 5.98023ZM29.6137 6.11825C29.5593 6.34329 29.8626 6.56601 30.3108 6.64837C30.436 6.45581 30.7605 6.31892 31.1664 6.2818C30.8027 6.16232 30.5583 5.96746 30.5296 5.75982C30.0648 5.74474 29.6695 5.89321 29.6137 6.11825ZM29.2922 6.18785C29.2832 6.18669 29.2756 6.18437 29.2651 6.18321C28.7384 6.12753 28.2632 6.28413 28.2013 6.53237C28.1409 6.78177 28.5181 7.02887 29.0448 7.08571C29.0538 7.08687 29.0628 7.08684 29.0734 7.08684C29.1971 6.89312 29.5231 6.75625 29.929 6.71797C29.5608 6.59733 29.3164 6.39897 29.2922 6.18785ZM29.0221 7.29217C29.013 7.29101 29.0055 7.28869 28.9949 7.28753C28.4683 7.23185 27.993 7.38844 27.9311 7.63668C27.8708 7.88608 28.248 8.13319 28.7746 8.19003C28.7837 8.19119 28.7927 8.19116 28.8018 8.19116C28.9255 7.99744 29.2515 7.86057 29.6574 7.82229C29.2907 7.70281 29.0462 7.50329 29.0221 7.29217ZM28.7535 8.39648C28.7445 8.39532 28.7354 8.393 28.7264 8.39184C28.1997 8.33616 27.7244 8.49163 27.6625 8.74103C27.6021 8.99043 27.9794 9.2375 28.506 9.29434C28.5151 9.2955 28.5242 9.29551 28.5332 9.29551C28.657 9.10179 28.9829 8.96488 29.3888 8.9266C29.0207 8.80712 28.7762 8.60876 28.7535 8.39648ZM28.4834 9.50196C28.4743 9.5008 28.4653 9.49849 28.4562 9.49733C27.9296 9.44165 27.4543 9.59824 27.3924 9.84648C27.3321 10.0959 27.7093 10.343 28.2359 10.3998C28.245 10.401 28.2541 10.401 28.2646 10.401C28.3884 10.2073 28.7143 10.0704 29.1202 10.0321C28.7505 9.91261 28.506 9.71308 28.4834 9.50196ZM28.2133 10.6063C28.2043 10.6051 28.1952 10.6028 28.1862 10.6016C27.6595 10.546 27.1842 10.7014 27.1223 10.9508C27.0619 11.2002 27.4392 11.4473 27.9659 11.5041C27.9749 11.5053 27.9839 11.5053 27.9945 11.5053C28.1183 11.3116 28.4442 11.1747 28.8501 11.1364C28.4804 11.0169 28.236 10.8174 28.2133 10.6063ZM27.7093 10.4474C27.3426 10.3279 27.0981 10.1296 27.0725 9.92075C26.5639 9.87783 26.1113 10.0309 26.0525 10.2734C25.9936 10.5158 26.3497 10.7548 26.8522 10.8197C26.9744 10.6237 27.3003 10.4856 27.7093 10.4474ZM25.731 10.3418C25.722 10.3406 25.7129 10.3383 25.7038 10.3372C25.1772 10.2815 24.7018 10.4369 24.64 10.6863C24.5796 10.9357 24.9569 11.1828 25.4835 11.2397C25.4926 11.2408 25.5017 11.2408 25.5107 11.2408C25.6344 11.0471 25.9604 10.9102 26.3663 10.8719C25.9981 10.7524 25.7536 10.5529 25.731 10.3418ZM25.2255 10.1829C24.8588 10.0623 24.6143 9.86504 24.5887 9.65624C24.5751 9.65392 24.5615 9.65162 24.548 9.6493C24.0213 9.59362 23.5445 9.75022 23.4841 9.99846C23.4237 10.2479 23.801 10.4949 24.3277 10.5518C24.3412 10.5529 24.3548 10.5529 24.3684 10.5541C24.4921 10.3592 24.818 10.2212 25.2255 10.1829ZM24.0711 9.49503C23.7014 9.37439 23.4569 9.17486 23.4343 8.96374C23.4252 8.96258 23.4162 8.96026 23.4072 8.9591C22.8805 8.90342 22.4037 9.06001 22.3433 9.30825C22.283 9.55765 22.6601 9.80472 23.1868 9.86156C23.1958 9.86272 23.2049 9.86273 23.214 9.86273C23.3392 9.66901 23.6636 9.53215 24.0711 9.49503ZM22.0219 9.38249C21.5133 9.33957 21.0606 9.49271 21.0018 9.73515C20.9429 9.97759 21.2991 10.2165 21.8016 10.2815C21.9238 10.0866 22.2512 9.94859 22.6587 9.91031C22.292 9.78967 22.049 9.59245 22.0219 9.38249ZM21.5873 9.23055C21.2175 9.10991 20.9731 8.91038 20.9505 8.69926C20.9414 8.6981 20.9323 8.69578 20.9233 8.69462C20.3966 8.63894 19.9214 8.79554 19.8595 9.04378C19.7992 9.29318 20.1763 9.54025 20.703 9.59709C20.712 9.59825 20.7211 9.59825 20.7302 9.59825C20.8554 9.40453 21.1813 9.26767 21.5873 9.23055ZM19.5395 9.12265C19.0748 9.10757 18.6795 9.25604 18.6252 9.48108C18.5708 9.70612 18.8741 9.92884 19.3223 10.0112C19.4475 9.81864 19.7719 9.68294 20.1763 9.64466C19.8127 9.52518 19.5697 9.33029 19.5395 9.12265ZM19.2107 8.97648C18.8409 8.85584 18.5965 8.65635 18.5739 8.44523C18.5648 8.44407 18.5573 8.44175 18.5467 8.44059C18.02 8.38491 17.5447 8.5415 17.4828 8.78974C17.4225 9.03914 17.7997 9.28621 18.3264 9.34305C18.3354 9.34421 18.3445 9.34422 18.3536 9.34422C18.4788 9.15166 18.8047 9.01476 19.2107 8.97648ZM18.0698 8.28628C17.7031 8.1668 17.4586 7.96846 17.433 7.75966C16.9245 7.71674 16.4718 7.86985 16.413 8.11229C16.3541 8.35473 16.7102 8.5937 17.2127 8.65866C17.3349 8.46262 17.6624 8.32456 18.0698 8.28628ZM16.9985 7.60769C16.6287 7.48705 16.3843 7.28752 16.3617 7.0764C16.3526 7.07524 16.3451 7.07292 16.3345 7.07176C15.8078 7.01608 15.3325 7.17271 15.2706 7.42095C15.2103 7.67035 15.5875 7.91742 16.1142 7.97426C16.1232 7.97542 16.1323 7.97543 16.1414 7.97543C16.2666 7.78171 16.5925 7.64481 16.9985 7.60769ZM15.8561 6.91749C15.4894 6.79685 15.245 6.59967 15.2193 6.39087C15.2057 6.38855 15.1922 6.38623 15.1786 6.38507C14.652 6.32939 14.1766 6.48482 14.1147 6.73422C14.0544 6.98362 14.4317 7.23069 14.9583 7.28753C14.9719 7.28869 14.9854 7.2887 14.999 7.28987C15.1227 7.09266 15.4487 6.95461 15.8561 6.91749ZM16.3842 6.86878C16.3933 6.86994 16.4023 6.86995 16.4114 6.86995C16.5351 6.67623 16.8611 6.53935 17.267 6.50107C16.8973 6.38043 16.6529 6.1809 16.6302 5.96978C16.6212 5.96862 16.6121 5.96631 16.6031 5.96515C16.0764 5.90947 15.6011 6.0649 15.5392 6.3143C15.4803 6.56602 15.8576 6.8131 16.3842 6.86878ZM17.753 6.44769C17.8752 6.25281 18.2026 6.11476 18.6101 6.07648C18.2434 5.957 17.9989 5.75866 17.9733 5.54986C17.4647 5.50694 17.012 5.66005 16.9531 5.90249C16.8928 6.14377 17.2489 6.38273 17.753 6.44769ZM19.1367 6.02894C19.1457 6.0301 19.1548 6.03011 19.1653 6.03011C19.2891 5.83639 19.615 5.69948 20.021 5.6612C19.6513 5.54056 19.4068 5.34107 19.3842 5.12995C19.3751 5.12879 19.3661 5.12647 19.357 5.12531C18.8304 5.06963 18.355 5.22622 18.2931 5.47446C18.2328 5.72502 18.6101 5.97326 19.1367 6.02894ZM20.4013 5.5916C20.5265 5.39904 20.8524 5.26335 21.2568 5.22507C20.8931 5.10559 20.6487 4.91069 20.62 4.70305C20.1552 4.68797 19.7599 4.83644 19.7056 5.06148C19.6498 5.28652 19.9546 5.50924 20.4013 5.5916ZM21.7834 5.17749C21.7925 5.17865 21.8016 5.17866 21.8122 5.17866C21.9359 4.98494 22.2618 4.84806 22.6677 4.80978C22.298 4.68914 22.0535 4.48961 22.0309 4.2785C22.0219 4.27734 22.0143 4.27502 22.0037 4.27386C21.4771 4.21818 21.0018 4.37477 20.94 4.62301C20.8796 4.87357 21.2568 5.12181 21.7834 5.17749ZM23.1522 4.7564C23.2744 4.56152 23.6018 4.42351 24.0093 4.38523C23.6426 4.26459 23.3981 4.06738 23.3725 3.85858C22.8639 3.81566 22.4112 3.96876 22.3523 4.2112C22.2935 4.45248 22.6482 4.69144 23.1522 4.7564ZM23.4238 4.88982C23.3634 5.13922 23.7406 5.38629 24.2672 5.44313C24.2763 5.44429 24.2854 5.4443 24.2944 5.4443C24.4181 5.25058 24.7441 5.11371 25.15 5.07543C24.7803 4.95479 24.5359 4.75526 24.5132 4.54414C24.5042 4.54298 24.4951 4.54066 24.4861 4.5395C23.9609 4.48382 23.4841 4.64042 23.4238 4.88982ZM25.6781 5.02785C25.6917 5.02901 25.7054 5.02903 25.7189 5.03019C25.8412 4.83531 26.1686 4.6961 26.576 4.65898C26.2094 4.53834 25.9649 4.34113 25.9393 4.13233C25.9257 4.13001 25.9121 4.12768 25.8985 4.12652C25.3719 4.07084 24.8965 4.22631 24.8347 4.47571C24.7728 4.72395 25.1515 4.97217 25.6781 5.02785ZM27.1027 4.6114C27.1117 4.61256 27.1208 4.61257 27.1313 4.61257C27.2551 4.41885 27.581 4.28198 27.987 4.2437C27.6173 4.12306 27.3728 3.92353 27.3502 3.71241C27.3411 3.71125 27.3321 3.70893 27.323 3.70777C26.7964 3.65209 26.321 3.80752 26.2591 4.05692C26.1988 4.30748 26.576 4.55456 27.1027 4.6114ZM27.4015 4.74829C27.3426 4.99073 27.6988 5.2297 28.2013 5.29466C28.3235 5.09978 28.651 4.96173 29.0584 4.92345C28.6917 4.80397 28.4472 4.6056 28.4216 4.3968C27.9131 4.35388 27.4603 4.50585 27.4015 4.74829ZM29.585 4.87591C29.5941 4.87707 29.6031 4.87704 29.6137 4.87704C29.7374 4.68332 30.0634 4.54645 30.4693 4.50817C30.0996 4.38753 29.8551 4.188 29.8325 3.97688C29.8234 3.97572 29.8144 3.97341 29.8053 3.97225C29.2787 3.91657 28.8033 4.07316 28.7415 4.3214C28.6811 4.57196 29.0599 4.82023 29.585 4.87591ZM29.8838 5.01277C29.828 5.23781 30.1327 5.46053 30.5809 5.54289C30.7062 5.35033 31.0306 5.2146 31.4366 5.17632C31.0729 5.05684 30.8284 4.86198 30.7998 4.65434C30.3335 4.64042 29.9381 4.78773 29.8838 5.01277ZM31.9632 5.12995C31.9722 5.13111 31.9813 5.13108 31.9904 5.13108C32.1141 4.93736 32.44 4.80049 32.8459 4.76221C32.4762 4.64157 32.2317 4.44207 32.2091 4.23095C32.2 4.22979 32.191 4.22744 32.1819 4.22628C31.6553 4.1706 31.18 4.32723 31.1182 4.57547C31.0593 4.82603 31.4365 5.07311 31.9632 5.12995ZM31.9405 5.3364C31.9315 5.33524 31.9224 5.33292 31.9134 5.33176C31.3867 5.27608 30.9114 5.43271 30.8495 5.68095C30.7891 5.93035 31.1664 6.17742 31.6931 6.23426C31.7021 6.23542 31.7111 6.23543 31.7217 6.23543C31.8454 6.04171 32.1714 5.9048 32.5773 5.86652C32.2076 5.74588 31.9632 5.54752 31.9405 5.3364ZM31.6704 6.44075C31.6613 6.43959 31.6523 6.43724 31.6432 6.43608C31.1166 6.3804 30.6413 6.53703 30.5794 6.78527C30.5191 7.03467 30.8963 7.28174 31.4229 7.33858C31.432 7.33974 31.4411 7.33974 31.4517 7.33974C31.5754 7.14602 31.9013 7.00915 32.3072 6.97087C31.9375 6.85139 31.693 6.65187 31.6704 6.44075ZM30.258 6.86414C29.7932 6.84906 29.3979 6.99753 29.3435 7.22257C29.2892 7.44761 29.5926 7.67033 30.0407 7.75269C30.166 7.56013 30.4904 7.4244 30.8948 7.38612C30.5311 7.2678 30.2882 7.07294 30.258 6.86414ZM29.9894 7.96962C29.5247 7.95454 29.1293 8.10301 29.075 8.32805C29.0206 8.55309 29.3239 8.77581 29.7721 8.85817C29.8973 8.66561 30.2218 8.52872 30.6262 8.4916C30.2626 8.37212 30.0181 8.17726 29.9894 7.96962ZM29.7193 9.07394C29.2545 9.05886 28.8592 9.20733 28.8048 9.43237C28.7505 9.65741 29.0539 9.88013 29.502 9.96249C29.6273 9.76993 29.9517 9.63307 30.3576 9.59595C29.9924 9.47763 29.748 9.28274 29.7193 9.07394ZM29.4492 10.1794C28.9844 10.1643 28.589 10.3117 28.5347 10.5379C28.4804 10.7629 28.7837 10.9856 29.2319 11.068C29.3572 10.8754 29.6831 10.7397 30.0875 10.7014C29.7224 10.5819 29.4778 10.3871 29.4492 10.1794ZM29.179 11.2837C28.7143 11.2687 28.319 11.4171 28.2646 11.6422C28.2103 11.8672 28.5136 12.0899 28.9618 12.1723C29.087 11.9797 29.413 11.8429 29.8174 11.8058C29.4522 11.6874 29.2077 11.4914 29.179 11.2837ZM27.9432 11.7118C27.9342 11.7106 27.9251 11.7083 27.916 11.7071C27.3894 11.6514 26.914 11.808 26.8522 12.0563C26.7918 12.3057 27.1691 12.5528 27.6957 12.6096C27.7048 12.6108 27.7139 12.6108 27.7229 12.6108C27.8466 12.4171 28.1726 12.2802 28.5785 12.2419C28.2103 12.1224 27.9658 11.9229 27.9432 11.7118ZM27.4392 11.5529C27.0725 11.4322 26.8281 11.235 26.8024 11.0262C26.2939 10.9833 25.8412 11.1364 25.7823 11.3789C25.7235 11.6213 26.0795 11.8603 26.582 11.9252C26.7043 11.7292 27.0303 11.59 27.4392 11.5529ZM25.4609 11.4473C25.4518 11.4461 25.4428 11.4438 25.4337 11.4426C24.9071 11.387 24.4318 11.5436 24.3699 11.7918C24.3096 12.0412 24.6868 12.2883 25.2134 12.3451C25.2225 12.3463 25.2315 12.3463 25.2406 12.3463C25.3643 12.1526 25.6903 12.0157 26.0962 11.9774C25.728 11.8579 25.4835 11.6584 25.4609 11.4473ZM24.9569 11.2884C24.5902 11.1689 24.3458 10.9705 24.3201 10.7617C24.3065 10.7594 24.2929 10.7571 24.2793 10.756C23.7527 10.7003 23.2774 10.8557 23.2155 11.1051C23.1552 11.3545 23.5324 11.6016 24.059 11.6584C24.0726 11.6596 24.0862 11.6596 24.0998 11.6608C24.222 11.4636 24.548 11.3255 24.9569 11.2884ZM23.801 10.5993C23.4313 10.4787 23.1869 10.2792 23.1642 10.0681C23.1552 10.0669 23.1476 10.0646 23.1371 10.0634C22.6104 10.0077 22.1351 10.1632 22.0732 10.4126C22.0128 10.662 22.3901 10.9091 22.9167 10.9659C22.9258 10.9671 22.9349 10.967 22.9439 10.967C23.0692 10.7745 23.3951 10.6376 23.801 10.5993ZM21.7517 10.4868C21.2432 10.4439 20.7906 10.597 20.7317 10.8395C20.6729 11.0819 21.0289 11.3209 21.5314 11.3858C21.6537 11.191 21.9811 11.0529 22.3885 11.0146C22.0219 10.894 21.7789 10.6968 21.7517 10.4868ZM21.3187 10.3349C20.949 10.2142 20.7045 10.0147 20.6819 9.80358C20.6728 9.80242 20.6653 9.8001 20.6547 9.79894C20.1281 9.74326 19.6527 9.89985 19.5908 10.1481C19.5305 10.3975 19.9078 10.6446 20.4344 10.7014C20.4435 10.7026 20.4525 10.7026 20.4631 10.7026C20.5868 10.51 20.9113 10.3731 21.3187 10.3349ZM19.2695 10.2281C18.8047 10.2131 18.4093 10.3615 18.355 10.5866C18.3007 10.8116 18.604 11.0343 19.0521 11.1167C19.1774 10.9241 19.5034 10.7884 19.9078 10.7501C19.5426 10.6307 19.2997 10.4358 19.2695 10.2281ZM18.9405 10.082C18.5708 9.96132 18.3264 9.76183 18.3037 9.55071C18.2947 9.54955 18.2856 9.54723 18.2766 9.54607C17.7499 9.49039 17.273 9.64699 17.2127 9.89523C17.1523 10.1446 17.5296 10.3917 18.0562 10.4485C18.0653 10.4497 18.0743 10.4497 18.0849 10.4497C18.2086 10.256 18.5346 10.1191 18.9405 10.082ZM17.7997 9.39176C17.4331 9.27228 17.1886 9.07395 17.1629 8.86515C16.6544 8.82223 16.2017 8.97533 16.1428 9.21777C16.084 9.46021 16.4401 9.69918 16.9425 9.76414C17.0648 9.56694 17.3923 9.42888 17.7997 9.39176ZM16.7283 8.712C16.3586 8.59136 16.1142 8.39187 16.0915 8.18075C16.0825 8.17959 16.0749 8.17724 16.0644 8.17608C15.5377 8.1204 15.0624 8.27587 15.0005 8.52527C14.9401 8.77467 15.3174 9.02174 15.844 9.07858C15.8531 9.07974 15.8621 9.07974 15.8727 9.07974C15.9964 8.88718 16.3224 8.74912 16.7283 8.712ZM15.5875 8.0218C15.2209 7.90232 14.9764 7.70399 14.9507 7.49519C14.9372 7.49287 14.9235 7.49053 14.9099 7.48821C14.3833 7.43253 13.908 7.58914 13.8462 7.83854C13.7858 8.08794 14.163 8.335 14.6896 8.39184C14.7032 8.393 14.7169 8.39302 14.7304 8.39418C14.8527 8.19814 15.1786 8.06008 15.5875 8.0218ZM14.4317 7.33394C14.062 7.2133 13.8174 7.01377 13.7948 6.80265C13.7857 6.80149 13.7783 6.79917 13.7677 6.79801C13.2411 6.74233 12.7642 6.89893 12.7038 7.14833C12.6435 7.39773 13.0207 7.6448 13.5473 7.70164C13.5564 7.7028 13.5655 7.70281 13.576 7.70281C13.6998 7.50793 14.0257 7.37106 14.4317 7.33394ZM14.0649 5.69717C14.0559 5.69601 14.0483 5.69369 14.0377 5.69253C13.5111 5.63685 13.0358 5.79228 12.974 6.04168C12.9136 6.29108 13.2908 6.53819 13.8174 6.59503C13.8265 6.59619 13.8356 6.59616 13.8462 6.59616C13.9699 6.40244 14.2958 6.26557 14.7017 6.22729C14.332 6.10781 14.0875 5.90829 14.0649 5.69717ZM15.4895 5.28539C15.4759 5.28307 15.4622 5.28073 15.4487 5.27841C14.922 5.22273 14.4467 5.37933 14.3849 5.62757C14.3245 5.87697 14.7017 6.12407 15.2283 6.18091C15.2419 6.18207 15.2556 6.18205 15.2691 6.18321C15.3914 5.98833 15.7188 5.85028 16.1262 5.812C15.7596 5.69252 15.5151 5.49419 15.4895 5.28539ZM16.9018 4.8666C16.8928 4.86544 16.8852 4.86312 16.8747 4.86196C16.348 4.80628 15.8727 4.96288 15.8108 5.21112C15.7504 5.46052 16.1277 5.70762 16.6544 5.76446C16.6634 5.76562 16.6725 5.76563 16.6815 5.76563C16.8053 5.57191 17.1312 5.435 17.5372 5.39672C17.169 5.27724 16.9245 5.07772 16.9018 4.8666ZM18.2418 4.44438C17.7333 4.40146 17.2807 4.55456 17.2218 4.797C17.1629 5.03944 17.519 5.27841 18.0215 5.34337C18.1453 5.14849 18.4712 5.01045 18.8786 4.97217C18.5119 4.85153 18.269 4.65434 18.2418 4.44438ZM19.6543 4.02563C19.6453 4.02447 19.6362 4.02213 19.6271 4.02213C19.1005 3.96645 18.6236 4.12188 18.5633 4.37128C18.5029 4.62068 18.8802 4.86778 19.4068 4.92462C19.4159 4.92578 19.4249 4.92579 19.4355 4.92579C19.5592 4.73207 19.8852 4.59516 20.2911 4.55688C19.9214 4.43624 19.6769 4.23675 19.6543 4.02563ZM20.8901 3.59874C20.4254 3.58366 20.03 3.73213 19.9757 3.95717C19.9213 4.18221 20.2247 4.40493 20.6729 4.48729C20.7981 4.29473 21.1225 4.15903 21.5284 4.12075C21.1617 4.00127 20.9188 3.80638 20.8901 3.59874ZM22.301 3.17418C22.292 3.17302 22.2829 3.1707 22.2739 3.16954C21.7472 3.11386 21.2719 3.2693 21.21 3.5187C21.1496 3.7681 21.5269 4.01516 22.0536 4.072C22.0626 4.07316 22.0716 4.07317 22.0822 4.07317C22.2059 3.87945 22.5319 3.74258 22.9378 3.7043C22.5681 3.58482 22.3237 3.3853 22.301 3.17418ZM23.6425 2.75309C23.134 2.71017 22.6813 2.8633 22.6225 3.10458C22.5636 3.34702 22.9197 3.58599 23.4222 3.65095C23.5444 3.45607 23.8719 3.31802 24.2793 3.27974C23.9126 3.16026 23.6682 2.96305 23.6425 2.75309ZM24.7834 3.43866C24.7743 3.4375 24.7653 3.43519 24.7562 3.43519C24.2296 3.37951 23.7542 3.53494 23.6923 3.78434C23.632 4.03374 24.0093 4.28081 24.5359 4.33765C24.545 4.33881 24.554 4.33882 24.5645 4.33882C24.6883 4.1451 25.0142 4.00823 25.4202 3.96995C25.0505 3.84931 24.806 3.65094 24.7834 3.43866ZM26.2094 3.02684C26.1958 3.02452 26.1822 3.02223 26.1686 3.02107C25.642 2.96539 25.1667 3.12199 25.1048 3.37023C25.0445 3.61963 25.4216 3.8667 25.9483 3.92354C25.9619 3.9247 25.9755 3.92471 25.9891 3.92587C26.1113 3.73099 26.4388 3.59294 26.8462 3.55466C26.478 3.43402 26.235 3.2368 26.2094 3.02684ZM27.6203 2.60809C27.6112 2.60693 27.6022 2.60461 27.5931 2.60345C27.0665 2.54777 26.5911 2.70437 26.5293 2.95261C26.4689 3.20201 26.8462 3.44911 27.3728 3.50595C27.3819 3.50711 27.3909 3.50709 27.4015 3.50709C27.5252 3.31337 27.8512 3.17649 28.2571 3.13821C27.8874 3.01873 27.6429 2.81921 27.6203 2.60809ZM28.6916 3.29132C28.1831 3.2484 27.7305 3.40154 27.6716 3.64398C27.6128 3.88642 27.9688 4.12539 28.4713 4.19035C28.5936 3.99547 28.921 3.85742 29.3284 3.81914C28.9617 3.6985 28.7173 3.50128 28.6916 3.29132ZM30.1025 2.87257C30.0935 2.87141 30.0844 2.86909 30.0754 2.86793C29.5487 2.81225 29.0735 2.96769 29.0116 3.21709C28.9512 3.46649 29.3284 3.71359 29.8551 3.77043C29.8641 3.77159 29.8732 3.77156 29.8822 3.77156C30.006 3.57784 30.3319 3.44097 30.7379 3.40269C30.3697 3.28321 30.1252 3.08369 30.1025 2.87257ZM31.0683 3.55003C30.6036 3.53495 30.2082 3.68341 30.1538 3.90845C30.0995 4.13349 30.4029 4.35622 30.8511 4.43858C30.9763 4.24602 31.3008 4.10912 31.7067 4.072C31.3415 3.95368 31.097 3.75767 31.0683 3.55003ZM32.4792 3.1266C32.4702 3.12544 32.4611 3.12313 32.4521 3.12313C31.9254 3.06745 31.4502 3.22289 31.3883 3.47229C31.3279 3.72169 31.7051 3.96879 32.2318 4.02563C32.2408 4.02679 32.2498 4.02676 32.2604 4.02676C32.3841 3.83304 32.7101 3.69617 33.116 3.65789C32.7478 3.53725 32.5034 3.33772 32.4792 3.1266ZM33.5507 3.80986C33.0421 3.76694 32.5894 3.92005 32.5305 4.16249C32.4717 4.40493 32.8279 4.6439 33.3304 4.70886C33.4526 4.51398 33.78 4.37593 34.1875 4.33765C33.8208 4.21701 33.5778 4.01982 33.5507 3.80986ZM34.963 3.39108C34.954 3.38992 34.9464 3.3876 34.9359 3.38644C34.4092 3.33076 33.934 3.48739 33.8721 3.73563C33.8117 3.98503 34.1889 4.2321 34.7156 4.28894C34.7246 4.2901 34.7337 4.29011 34.7427 4.29011C34.8665 4.09639 35.1924 3.95948 35.5984 3.9212C35.2302 3.80172 34.9857 3.6022 34.963 3.39108ZM35.8971 4.98144C36.0194 4.78656 36.3468 4.64739 36.7542 4.61027C36.3876 4.49079 36.1431 4.29242 36.1175 4.08362C36.1039 4.0813 36.0903 4.07897 36.0767 4.07781C35.5501 4.02213 35.0747 4.17872 35.0129 4.42696C34.9525 4.67636 35.3298 4.92347 35.8564 4.98031C35.87 4.98147 35.8836 4.98144 35.8971 4.98144ZM34.4726 5.39559C34.5963 5.20187 34.9223 5.06496 35.3282 5.02668C34.9585 4.90604 34.7141 4.70655 34.6914 4.49543C34.6824 4.49427 34.6733 4.49195 34.6643 4.49079C34.1376 4.43511 33.6623 4.59171 33.6004 4.83995C33.54 5.08935 33.9173 5.33641 34.444 5.39325C34.4545 5.39557 34.4635 5.39559 34.4726 5.39559ZM33.9188 5.44196C33.5521 5.32132 33.3077 5.12415 33.282 4.91535C32.7735 4.87243 32.3208 5.02553 32.262 5.26797C32.2031 5.51041 32.5592 5.74938 33.0617 5.81434C33.1839 5.6183 33.5099 5.47908 33.9188 5.44196ZM33.6487 6.54628C33.2821 6.4268 33.0376 6.22846 33.012 6.01966C32.5034 5.97674 32.0507 6.12985 31.9918 6.37229C31.933 6.61473 32.2892 6.8537 32.7916 6.91866C32.9139 6.72262 33.2413 6.58456 33.6487 6.54628ZM33.3786 7.65176C33.0119 7.53112 32.7675 7.33395 32.7418 7.12515C32.2333 7.08223 31.7805 7.23532 31.7217 7.4766C31.6628 7.71904 32.019 7.95801 32.5215 8.02297C32.6437 7.82693 32.9712 7.68888 33.3786 7.65176ZM32.0371 8.07749C31.6674 7.95685 31.423 7.75732 31.4004 7.5462C31.3913 7.54504 31.3822 7.54272 31.3732 7.54156C30.8465 7.48588 30.3712 7.64251 30.3093 7.89075C30.249 8.14015 30.6262 8.38722 31.1529 8.44406C31.1619 8.44522 31.171 8.44523 31.18 8.44523C31.3053 8.25151 31.6312 8.11461 32.0371 8.07749ZM31.767 9.1818C31.3973 9.06116 31.1529 8.86167 31.1302 8.65055C31.1212 8.64939 31.1121 8.64705 31.103 8.64705C30.5764 8.59136 30.101 8.7468 30.0392 8.9962C29.9788 9.2456 30.3561 9.4927 30.8827 9.54954C30.8918 9.5507 30.9009 9.55071 30.9099 9.55071C31.0352 9.35699 31.3611 9.21892 31.767 9.1818ZM31.4969 10.2861C31.1272 10.1655 30.8827 9.96598 30.8601 9.75486C30.851 9.7537 30.8435 9.75139 30.8329 9.75023C30.3063 9.69455 29.8309 9.85114 29.769 10.0994C29.7087 10.3488 30.086 10.5958 30.6126 10.6527C30.6217 10.6538 30.6307 10.6539 30.6412 10.6539C30.765 10.4613 31.091 10.3244 31.4969 10.2861ZM30.5899 10.8603C30.5809 10.8592 30.5733 10.8569 30.5628 10.8557C30.0361 10.8 29.5609 10.9566 29.499 11.2049C29.4386 11.4543 29.8158 11.7013 30.3425 11.7582C30.3515 11.7593 30.3606 11.7593 30.3712 11.7593C30.4949 11.5656 30.8208 11.4287 31.2267 11.3905C30.857 11.271 30.6141 11.0715 30.5899 10.8603ZM32.2982 12.0702C31.9315 11.9507 31.687 11.7524 31.6614 11.5436C31.1528 11.5007 30.7001 11.6538 30.6412 11.8962C30.5824 12.1386 30.9386 12.3776 31.4411 12.4426C31.5648 12.2465 31.8907 12.1085 32.2982 12.0702ZM31.1709 13.5469C31.2932 13.352 31.6206 13.214 32.028 13.1757C31.6613 13.0562 31.4169 12.8579 31.3912 12.6491C30.8827 12.6061 30.4301 12.7592 30.3712 13.0017C30.3124 13.243 30.6684 13.4819 31.1709 13.5469ZM30.1011 12.8648C30.2248 12.6711 30.5508 12.5342 30.9567 12.496C30.587 12.3753 30.3425 12.1758 30.3199 11.9647C30.3109 11.9635 30.3033 11.9612 30.2927 11.96C29.7661 11.9043 29.2892 12.0609 29.2289 12.3092C29.1685 12.5586 29.5458 12.8056 30.0724 12.8625C30.083 12.8648 30.092 12.8648 30.1011 12.8648ZM29.5458 12.9112C29.1821 12.7917 28.9377 12.5969 28.909 12.3892C28.4442 12.3741 28.0488 12.5226 27.9945 12.7476C27.9402 12.9727 28.2435 13.1954 28.6916 13.2778C28.8169 13.0841 29.1414 12.9483 29.5458 12.9112ZM27.4256 13.7151C27.4347 13.7163 27.4437 13.7162 27.4542 13.7162C27.578 13.5225 27.9039 13.3856 28.3099 13.3474C27.9402 13.2267 27.6957 13.0272 27.6731 12.8161C27.664 12.8149 27.655 12.8126 27.6459 12.8114C27.1193 12.7558 26.6439 12.9124 26.582 13.1606C26.5217 13.4112 26.899 13.6583 27.4256 13.7151ZM27.1691 12.6572C26.8024 12.5377 26.558 12.3393 26.5323 12.1305C26.0238 12.0876 25.571 12.2407 25.5122 12.4832C25.4533 12.7256 25.8095 12.9646 26.312 13.0295C26.4342 12.8335 26.7617 12.6954 27.1691 12.6572ZM24.9433 13.4506C24.9523 13.4518 24.9614 13.4518 24.972 13.4518C25.0957 13.258 25.4216 13.1212 25.8275 13.0829C25.4578 12.9623 25.2134 12.7627 25.1907 12.5516C25.1817 12.5504 25.1742 12.5481 25.1637 12.547C24.637 12.4913 24.1617 12.6479 24.0998 12.8961C24.0394 13.1467 24.4166 13.3938 24.9433 13.4506ZM23.7874 12.7616C23.801 12.7627 23.8146 12.7627 23.8282 12.7639C23.9504 12.569 24.2779 12.4298 24.6853 12.3927C24.3186 12.2732 24.0741 12.0749 24.0485 11.8661C24.0349 11.8638 24.0213 11.8614 24.0077 11.8591C23.4811 11.8034 23.0058 11.96 22.9439 12.2083C22.8836 12.4577 23.2607 12.7059 23.7874 12.7616ZM22.6753 12.0737C22.799 11.88 23.125 11.7431 23.5309 11.7048C23.1612 11.5842 22.9167 11.3847 22.8941 11.1735C22.885 11.1724 22.8775 11.1701 22.8669 11.1689C22.3403 11.1132 21.8649 11.2698 21.803 11.5181C21.7427 11.7675 22.12 12.0145 22.6466 12.0714C22.6557 12.0725 22.6662 12.0725 22.6753 12.0737ZM21.2629 12.4901C21.3851 12.2953 21.7125 12.1572 22.12 12.1189C21.7533 11.9995 21.5088 11.8011 21.4832 11.5923C20.9746 11.5494 20.5219 11.7025 20.4631 11.9449C20.4027 12.1862 20.7589 12.4252 21.2629 12.4901ZM20.1914 11.8081C20.3152 11.6143 20.6412 11.4775 21.0471 11.4392C20.6774 11.3185 20.4329 11.119 20.4103 10.9079C20.4012 10.9067 20.3937 10.9044 20.3831 10.9033C19.8565 10.8476 19.3811 11.003 19.3192 11.2524C19.2589 11.5018 19.6362 11.7489 20.1628 11.8058C20.1734 11.8081 20.1824 11.8081 20.1914 11.8081ZM18.7821 12.221C18.9073 12.0285 19.2317 11.8927 19.6376 11.8545C19.274 11.735 19.0295 11.5401 19.0008 11.3324C18.5361 11.3174 18.1408 11.4659 18.0865 11.6909C18.0306 11.916 18.3339 12.1387 18.7821 12.221ZM17.7877 11.554C17.7967 11.5552 17.8057 11.5552 17.8148 11.5552C17.9385 11.3615 18.2645 11.2246 18.6704 11.1863C18.3007 11.0656 18.0562 10.8661 18.0336 10.655C18.0245 10.6539 18.0155 10.6515 18.0064 10.6504C17.4798 10.5947 17.0044 10.7501 16.9425 10.9995C16.8822 11.2501 17.261 11.4972 17.7877 11.554ZM16.6725 10.8673C16.7947 10.6724 17.1222 10.5344 17.5296 10.4961C17.1629 10.3754 16.9185 10.1783 16.8928 9.96946C16.3843 9.92654 15.9315 10.0796 15.8727 10.3221C15.8138 10.5634 16.17 10.8023 16.6725 10.8673ZM15.5739 10.1841C15.583 10.1852 15.592 10.1852 15.6026 10.1852C15.7263 9.99151 16.0523 9.8546 16.4582 9.81632C16.0885 9.69568 15.844 9.49619 15.8214 9.28507C15.8123 9.28391 15.8048 9.28159 15.7942 9.28043C15.2676 9.22475 14.7908 9.38134 14.7304 9.62958C14.6701 9.88014 15.0473 10.1284 15.5739 10.1841ZM14.418 9.49616C14.4316 9.49732 14.4452 9.49733 14.4587 9.4985C14.581 9.30362 14.9085 9.16441 15.3159 9.12729C14.9492 9.00665 14.7047 8.80947 14.679 8.60067C14.6655 8.59835 14.6519 8.59602 14.6383 8.59486C14.1117 8.53919 13.6363 8.69462 13.5745 8.94402C13.5141 9.19226 13.8914 9.43932 14.418 9.49616ZM13.2773 8.80599C13.2863 8.80715 13.2954 8.80713 13.3044 8.80713C13.4282 8.61341 13.754 8.47653 14.16 8.43825C13.7903 8.31761 13.5458 8.11808 13.5232 7.90696C13.5141 7.9058 13.5051 7.90349 13.496 7.90233C12.9694 7.84665 12.4941 8.00208 12.4322 8.25148C12.3734 8.50204 12.7506 8.74915 13.2773 8.80599ZM13.0207 7.74805C12.654 7.62857 12.4095 7.4302 12.3839 7.2214C11.8753 7.17848 11.4227 7.33162 11.3638 7.57406C11.305 7.8165 11.6611 8.05547 12.1636 8.12043C12.2858 7.92439 12.6117 7.78633 13.0207 7.74805ZM10.7949 8.54035C10.804 8.54151 10.813 8.54148 10.8221 8.54148C10.9458 8.34776 11.2718 8.21089 11.6777 8.17261C11.308 8.05197 11.0636 7.85244 11.0409 7.64132C11.0319 7.64016 11.0228 7.63784 11.0138 7.63668C10.4871 7.581 10.0102 7.73763 9.94989 7.98587C9.89104 8.23759 10.2683 8.48467 10.7949 8.54035ZM9.68279 7.85015C9.80804 7.65759 10.1324 7.5207 10.5369 7.48358C10.1732 7.3641 9.92873 7.1692 9.90006 6.96156C9.43529 6.94648 9.03999 7.09499 8.98567 7.32003C8.93135 7.54507 9.23462 7.76779 9.68279 7.85015Z" fill="#B7CCCE"/>
<path d="M36.1466 5.04192C36.1738 5.03032 36.204 5.02222 36.2357 5.0141C34.5909 5.89222 33.2343 7.5661 32.7409 9.5845C32.4164 10.9127 32.5205 12.1748 32.9536 13.2199C32.7544 13.2269 32.5658 13.1898 32.5175 13.0877C31.2771 10.4707 32.3183 6.61024 36.1466 5.04192Z" fill="#657577"/>
<path d="M36.0615 5.66951C36.0826 5.65907 36.1067 5.65094 36.1324 5.64398C34.8422 6.4583 33.8478 7.99762 33.5897 9.84318C33.4192 11.0577 33.5973 12.2073 34.0303 13.1573C33.8674 13.1654 33.7089 13.1341 33.6621 13.0401C32.4489 10.6621 33.0239 7.13227 36.0615 5.66951Z" fill="#657577"/>
<path opacity="0.47" d="M1.05664 9.03643C2.07069 7.15955 2.48258 5.16551 1.59378 3.29675C3.29895 3.51715 4.82458 3.88719 6.04083 4.34655C6.33358 4.64235 6.60519 4.94512 6.84663 5.25832C6.92057 5.35344 7.1937 5.91721 7.37327 6.01929C7.74147 6.22809 8.1534 6.29303 8.5729 6.27679C8.55328 6.48095 8.52013 6.68628 8.46883 6.89276C8.37829 7.26048 8.23946 7.61546 8.05989 7.95534C6.59616 8.38686 4.89553 8.60259 3.43029 9.04107C2.68032 9.07935 1.88357 9.07819 1.05664 9.03643Z" fill="#B7CCCE"/>
<path opacity="0.47" d="M2.01682 4.66296C4.13545 4.92048 5.97046 5.35314 7.20934 5.84962C7.26669 5.92734 7.32251 5.99 7.3708 6.01784C7.58206 6.13848 7.80989 6.20692 8.04379 6.24288C8.23543 6.35192 8.39385 6.46213 8.5206 6.57349C8.50249 6.67905 8.49352 6.78459 8.46635 6.89131C8.37883 7.25091 8.24302 7.59661 8.06949 7.92837C7.97593 7.96549 7.8718 8.00029 7.76315 8.03393C7.57453 8.08497 7.38282 8.13366 7.18816 8.18006C5.81195 8.47122 3.72349 8.5501 1.39209 8.35522C1.94287 7.1407 2.21148 5.88792 2.01682 4.66296Z" fill="#B7CCCE"/>
</svg>
