<svg width="47" height="70" viewBox="0 0 47 70" fill="none" xmlns="http://www.w3.org/2000/svg">
<g opacity="0.68">
<g opacity="0.81">
<path d="M16.8723 3.10544C16.8056 3.10308 16.8026 2.79606 16.6565 2.41718C16.5187 2.04041 16.1833 1.61738 15.7229 1.4995C15.6042 1.46301 15.5271 1.46358 15.3558 1.45619C15.2701 1.47003 15.1278 1.48199 15.0224 1.52735C14.7955 1.60021 14.5942 1.75466 14.4367 1.92489C14.2807 2.10117 14.1712 2.30192 14.1031 2.485C14.0697 2.57315 14.0416 2.67437 14.0313 2.73372C14.0163 2.76804 13.9981 2.94156 13.9927 2.96694C13.9672 3.2196 13.9794 3.65615 14.2237 4.0406C14.4582 4.42117 14.9313 4.67815 15.4123 4.58417C15.8919 4.51235 16.3098 4.12299 16.5208 3.7647C16.741 3.40857 16.8057 3.10138 16.8723 3.10544C16.903 3.10777 16.9225 3.18564 16.9304 3.32194C16.9271 3.46966 16.9088 3.68677 16.8226 3.9348C16.6676 4.43083 16.1977 5.07928 15.5038 5.30663C14.8223 5.56022 14.018 5.28303 13.5851 4.69803C13.1329 4.11978 13.0644 3.35569 13.1135 2.92466C13.1357 2.77528 13.1329 2.74607 13.1767 2.56183C13.2131 2.40031 13.2593 2.26319 13.3262 2.10656C13.4566 1.79825 13.6604 1.47552 13.9367 1.2127C14.2131 0.955871 14.5555 0.751793 14.9176 0.681159C15.1048 0.638019 15.264 0.637125 15.4732 0.654028C15.5957 0.674451 15.8097 0.71637 15.9587 0.794492C16.5997 1.08604 16.9351 1.77322 16.9894 2.27847C17.0509 2.79689 16.9235 3.11217 16.8723 3.10544Z" fill="#B8E2E7"/>
</g>
<g opacity="0.81">
<path d="M15.5559 8.44837C15.5156 8.44729 15.5147 8.26345 15.4273 8.03785C15.3448 7.81248 15.1449 7.56009 14.8697 7.49044C14.7985 7.4682 14.7524 7.46855 14.6499 7.46362C14.5993 7.4723 14.5138 7.47845 14.4512 7.50621C14.315 7.5501 14.1956 7.64266 14.1011 7.74412C14.0078 7.84904 13.9424 7.969 13.9019 8.07818C13.8822 8.13108 13.8653 8.19097 13.8589 8.22656C13.8496 8.24663 13.8385 8.35038 13.8355 8.36563C13.8203 8.51706 13.8279 8.77729 13.9732 9.00739C14.1138 9.2347 14.3964 9.38764 14.6828 9.33217C14.9693 9.28953 15.2182 9.05616 15.3448 8.84256C15.4779 8.62927 15.5158 8.44559 15.5559 8.44837C15.5737 8.45008 15.5855 8.49681 15.5904 8.5774C15.5879 8.66619 15.5778 8.79563 15.5262 8.9436C15.433 9.24002 15.1521 9.62658 14.7388 9.76314C14.332 9.91368 13.8518 9.74868 13.5931 9.40029C13.3227 9.0539 13.2815 8.598 13.311 8.3404C13.3242 8.25213 13.3224 8.2341 13.3486 8.12423C13.3706 8.02783 13.3976 7.94536 13.4379 7.85241C13.5155 7.66808 13.6378 7.47564 13.8026 7.31943C13.9672 7.16493 14.1723 7.04401 14.3882 7.00225C14.4995 6.97682 14.5947 6.97542 14.7196 6.9857C14.7926 6.99776 14.9211 7.02275 15.0099 7.06976C15.3927 7.24375 15.5934 7.65347 15.6249 7.95588C15.6621 8.26542 15.5864 8.4524 15.5559 8.44837Z" fill="#B8E2E7"/>
</g>
<path d="M25.2049 50.8586C25.1432 50.8565 25.1411 50.5777 25.0082 50.2311C24.883 49.8874 24.5777 49.5009 24.1566 49.3934C24.049 49.3609 23.9777 49.3609 23.8228 49.3551C23.7445 49.3676 23.6146 49.3776 23.5191 49.4183C23.3122 49.4853 23.1281 49.626 22.9851 49.7807C22.8414 49.9422 22.7424 50.1247 22.6802 50.2918C22.6155 50.4767 22.602 50.5607 22.5758 50.7561C22.5589 50.939 22.565 51.3719 22.7893 51.7109C23.0041 52.0589 23.4355 52.2934 23.8732 52.2084C24.3112 52.1414 24.6909 51.7879 24.8845 51.4595C25.0849 51.1358 25.1433 50.8556 25.2049 50.8586C25.2319 50.8624 25.2493 50.9325 25.2584 51.0569C25.255 51.191 25.2379 51.3893 25.1583 51.6154C25.017 52.0677 24.5889 52.6583 23.9569 52.8647C23.3344 53.0972 22.6011 52.8439 22.2063 52.3095C22.0058 52.0485 21.8799 51.7398 21.8192 51.4497C21.758 51.1484 21.7569 50.9167 21.7797 50.6691C21.7922 50.5448 21.8523 50.2118 21.9705 49.9465C22.0887 49.6658 22.276 49.3722 22.5268 49.1338C22.7787 48.898 23.0918 48.7131 23.4216 48.6486C23.5926 48.6089 23.7373 48.609 23.9275 48.6225C24.0393 48.6415 24.2363 48.68 24.371 48.7506C24.9563 49.0164 25.2611 49.6431 25.3111 50.1046C25.3679 50.5775 25.2511 50.8651 25.2049 50.8586Z" fill="#B8E2E7"/>
<path d="M25.5263 54.9237C25.4881 54.9236 25.4875 54.7509 25.4052 54.5384C25.3278 54.3278 25.1401 54.0897 24.8817 54.0242C24.6046 53.9451 24.3456 54.0643 24.1601 54.2622C23.9783 54.4723 23.9293 54.6879 23.9112 54.8461C23.8969 54.9881 23.9032 55.2329 24.0408 55.4473C24.1726 55.6605 24.4375 55.8049 24.7076 55.7538C24.9767 55.7128 25.2103 55.495 25.3293 55.293C25.4529 55.0946 25.4891 54.9211 25.5263 54.9237C25.5553 54.9217 25.5912 55.1013 25.4981 55.3891C25.4104 55.667 25.1476 56.0314 24.759 56.158C24.3761 56.3003 23.9259 56.1444 23.6825 55.8164C23.4292 55.4931 23.3903 55.0638 23.4175 54.8223C23.4352 54.5966 23.5652 54.149 23.879 53.864C24.034 53.7193 24.2263 53.6046 24.4297 53.5648C24.5351 53.5408 24.6244 53.5408 24.7408 53.5498C24.8096 53.5608 24.9303 53.5846 25.0144 53.6288C25.3731 53.7923 25.5612 54.1766 25.5925 54.4593C25.6272 54.7508 25.5554 54.9277 25.5263 54.9237Z" fill="#B8E2E7"/>
<path d="M18.1169 56.29C18.0508 56.2886 18.0488 55.9867 17.9054 55.6165C17.7704 55.2476 17.4423 54.8309 16.9909 54.7169C16.8749 54.6814 16.7993 54.682 16.6316 54.6739C16.5474 54.6878 16.4081 54.6991 16.3056 54.7446C16.0823 54.8168 15.8865 54.9663 15.7314 55.1341C15.5781 55.3054 15.4705 55.502 15.404 55.6826C15.3359 55.8802 15.3203 55.9709 15.2927 56.1807C15.2737 56.3764 15.2809 56.8418 15.522 57.2073C15.7516 57.5799 16.2157 57.8322 16.6856 57.7419C17.1564 57.6714 17.5648 57.2901 17.7724 56.9377C17.9883 56.5873 18.0511 56.286 18.1169 56.29C18.1461 56.2931 18.1651 56.3693 18.1732 56.503C18.1695 56.6473 18.1524 56.8602 18.0674 57.1032C17.9149 57.589 17.4556 58.2252 16.776 58.4464C16.1072 58.6954 15.3196 58.4233 14.8964 57.8499C14.6798 57.5702 14.5448 57.2372 14.4789 56.9263C14.4136 56.6026 14.4121 56.3529 14.4368 56.0865C14.45 55.9547 14.5149 55.5962 14.6424 55.31C14.7691 55.0092 14.9694 54.6931 15.2402 54.4352C15.5118 54.1832 15.8473 53.9831 16.202 53.9138C16.3855 53.8722 16.541 53.872 16.7462 53.8862C16.8658 53.9064 17.0769 53.9482 17.2226 54.0245C17.8505 54.3094 18.1786 54.9834 18.2316 55.48C18.292 55.9882 18.1666 56.2975 18.1169 56.29Z" fill="#B8E2E7"/>
<g opacity="0.81">
<path d="M12.1824 6.36041C12.0826 6.35817 12.077 5.89117 11.8547 5.31799C11.6457 4.74717 11.1391 4.10134 10.4401 3.92155C10.3539 3.89774 10.2657 3.88067 10.1773 3.8713C10.0828 3.85906 10.0255 3.86314 9.89621 3.86034C9.73893 3.87073 9.54351 3.90236 9.37687 3.96273C9.03383 4.08044 8.7262 4.30415 8.48851 4.56968C8.00305 5.10796 7.84821 5.76642 7.81459 6.15034C7.77095 6.53377 7.79253 7.19901 8.16528 7.78027C8.5178 8.36227 9.23894 8.74402 9.9682 8.60898C10.6965 8.49783 11.3276 7.90757 11.6489 7.36141C11.9842 6.81334 12.0831 6.35307 12.1824 6.36041C12.2628 6.35573 12.3585 6.85015 12.1061 7.61933C11.8705 8.37221 11.1593 9.35697 10.1065 9.70213C9.59147 9.87653 9.02579 9.88865 8.5079 9.71927C7.98725 9.55575 7.52899 9.20887 7.19525 8.77652C6.50784 7.9023 6.39874 6.74046 6.48037 6.08702C6.53127 5.43125 6.87141 4.29102 7.72729 3.49188C8.14445 3.09564 8.6678 2.79598 9.21636 2.68217C9.49512 2.62377 9.75402 2.61228 10.0442 2.64077C10.1378 2.65468 10.3031 2.67972 10.4253 2.71723C10.5537 2.75076 10.6763 2.79854 10.7954 2.853C11.7689 3.2956 12.2765 4.33898 12.3584 5.10628C12.4543 5.89136 12.2611 6.37274 12.1824 6.36041Z" fill="#B8E2E7"/>
</g>
<path d="M25.3863 25.6389C25.3633 25.6386 25.3625 25.5326 25.3115 25.402C25.2641 25.2724 25.1471 25.1249 24.9884 25.0839C24.8177 25.0338 24.658 25.1099 24.5444 25.2301C24.4319 25.3597 24.4012 25.4932 24.3899 25.591C24.3811 25.6786 24.3854 25.8292 24.4706 25.9623C24.5518 26.0936 24.7149 26.1834 24.881 26.1513C25.0469 26.1268 25.1916 25.9919 25.2647 25.8672C25.3412 25.7435 25.3634 25.6378 25.3863 25.6389C25.4044 25.6381 25.4264 25.7494 25.369 25.9261C25.3157 26.0978 25.1527 26.3216 24.9135 26.3998C24.6777 26.4885 24.3993 26.3922 24.2497 26.1893C24.0934 25.9886 24.0695 25.7251 24.0859 25.5764C24.0971 25.4367 24.1766 25.162 24.3709 24.985C24.5525 24.7989 24.8669 24.7311 25.0707 24.8392C25.2918 24.9396 25.4089 25.1785 25.4266 25.3537C25.4483 25.5316 25.4047 25.6423 25.3863 25.6389Z" fill="#B8E2E7"/>
<path d="M38.0569 68.1238C38.0266 68.1249 37.9891 67.9325 38.0875 67.6338C38.179 67.3407 38.4565 66.9583 38.8659 66.8249C38.9619 66.7868 39.0927 66.7752 39.1666 66.7702C39.2902 66.7727 39.3828 66.7823 39.4873 66.8172C39.6905 66.88 39.8666 67.0184 39.9983 67.1837C40.1282 67.3524 40.2095 67.5529 40.249 67.7403C40.2908 67.9184 40.2855 68.1353 40.2775 68.2152C40.2537 68.5013 40.1243 68.9217 39.7912 69.2407C39.4698 69.5587 38.9655 69.6763 38.5977 69.4885C38.2191 69.3164 38.0209 68.9103 37.989 68.6121C37.9518 68.3026 38.0272 68.119 38.0569 68.1238C38.0964 68.1249 38.0988 68.3088 38.1846 68.5292C38.2666 68.752 38.4632 69.0016 38.7355 69.0711C39.0059 69.1534 39.3128 69.0297 39.4951 68.8205C39.6827 68.6166 39.7437 68.3392 39.7556 68.2218C39.764 68.0948 39.766 68.0394 39.7486 67.9188C39.7311 67.8069 39.691 67.6827 39.62 67.5724C39.5475 67.4638 39.4482 67.3633 39.3242 67.3069C39.2686 67.2734 39.1864 67.2601 39.1374 67.2466C39.0363 67.2417 38.9923 67.2354 38.9181 67.2506C38.6345 67.2925 38.3896 67.5226 38.2638 67.7354C38.1345 67.9472 38.0962 68.1274 38.0569 68.1238Z" fill="#B8E2E7"/>
<path d="M24.5225 33.5249C24.6159 33.5269 24.6203 33.9622 24.8285 34.4979C25.0233 35.0305 25.4967 35.6345 26.1502 35.801C26.2301 35.8228 26.312 35.8387 26.3953 35.8478C26.4834 35.8598 26.5364 35.8555 26.6578 35.8579C26.8036 35.847 26.9872 35.819 27.142 35.7615C27.4626 35.6521 27.7508 35.4429 27.9721 35.1962C28.4261 34.6846 28.5672 34.0982 28.6028 33.7024C28.6395 33.3802 28.6233 32.7331 28.2739 32.1992C27.9442 31.655 27.2707 31.3004 26.5907 31.4258C25.9101 31.5281 25.321 32.0802 25.0206 32.5898C24.7077 33.1013 24.6154 33.532 24.5225 33.5249C24.4473 33.529 24.3591 33.0675 24.5942 32.3487C24.8145 31.6473 25.4788 30.7269 26.4609 30.4049C26.9424 30.2417 27.4699 30.2303 27.9537 30.3878C28.4386 30.541 28.8674 30.866 29.1788 31.2699C29.4918 31.673 29.6897 32.1527 29.7833 32.6034C29.8789 33.0619 29.8788 33.45 29.8443 33.7997C29.8009 34.3738 29.4799 35.467 28.6813 36.2048C28.292 36.5742 27.8031 36.8541 27.2921 36.9595C27.031 37.0145 26.7894 37.0251 26.5178 36.9983C26.4305 36.9856 26.2759 36.9628 26.1628 36.9274C26.0429 36.8951 25.9271 36.8511 25.8164 36.7996C24.9077 36.3858 24.4355 35.4125 24.3579 34.695C24.269 33.9624 24.4489 33.5129 24.5225 33.5249Z" fill="#B8E2E7"/>
</g>
</svg>
