<svg width="56" height="17" viewBox="0 0 56 17" fill="none" xmlns="http://www.w3.org/2000/svg">
<path d="M23.0385 0.443105C18.6784 1.46158 15.1756 2.28055 12.2988 2.95335L23.0903 3.18419C23.7223 2.62391 26.3698 0.702931 27.4185 0.146131C26.017 -0.199549 24.3622 0.134545 23.0385 0.443105Z" fill="#AABCBF"/>
<path d="M19.366 3.10359L23.0901 3.18363C23.722 2.62335 26.3696 0.702372 27.4182 0.145572C26.8859 0.014492 26.3177 -0.0179741 25.7435 0.00754592C21.7922 0.632786 19.1168 1.88211 19.366 3.10359Z" fill="#98ADAF"/>
<path d="M54.9987 1.06872C52.6602 1.77052 50.6127 2.62776 48.966 3.68336C48.1945 4.17868 47.5226 4.70415 46.9584 5.25747C46.8607 5.35259 46.4998 5.91636 46.2626 6.01844C44.8013 6.64716 42.8157 5.98944 41.5896 5.65768C36.3883 4.25176 31.0154 3.19962 25.0705 2.63006C19.7914 2.1243 13.984 2.16259 9.17743 3.52211C4.41868 4.86771 0.654709 7.90923 0.00479126 10.4612C-0.0131531 10.5297 0.0845985 10.5854 0.220165 10.6248C0.228142 10.6411 0.236042 10.6573 0.269932 10.677C4.78547 13.3763 14.1236 14.0885 21.0295 13.7011C25.1901 13.4679 29.2212 12.8102 32.8975 11.8474C34.9967 11.2976 36.9684 10.648 38.8006 9.91372C40.7483 9.1342 42.4708 8.2062 44.9309 7.8582C48.027 8.62496 52.1059 8.71426 54.3607 10.09C54.582 10.2257 55.6306 10.3058 55.3874 10.0274C52.9273 7.20279 51.9544 3.98728 55.9396 1.29376C56.2506 1.0838 55.2658 0.988684 54.9987 1.06872Z" fill="#AABCBF"/>
<path opacity="0.47" d="M54.9986 1.06874C52.6601 1.77054 50.6126 2.62778 48.9659 3.68338C48.1944 4.1787 47.5225 4.70417 46.9583 5.25749C46.8606 5.35261 46.4998 5.91638 46.2625 6.01846C45.7761 6.22726 45.2319 6.2922 44.6776 6.27596C44.7036 6.48012 44.7474 6.68545 44.8151 6.89193C44.9348 7.25965 45.1183 7.61463 45.3555 7.95451C48.3918 8.63311 52.2075 8.77462 54.3626 10.0889C54.5839 10.2246 55.6325 10.3046 55.3893 10.0262C52.9292 7.20164 51.9564 3.98613 55.9416 1.29261C56.2506 1.08381 55.2657 0.988701 54.9986 1.06874Z" fill="#B7CCCE"/>
<path d="M38.7065 4.92494C34.2268 4.19298 27.4844 3.91459 20.0363 4.28231C13.3358 4.61291 7.38087 5.40172 3.24014 6.39816C1.52164 7.68112 0.339386 9.13574 0.00246429 10.4605C-0.0154762 10.5289 0.0821533 10.5846 0.217716 10.624C0.225693 10.6403 0.233715 10.6565 0.267609 10.6762C1.02518 11.1286 1.92628 11.5207 2.92109 11.8664C7.39875 12.5891 14.1112 12.8628 21.5195 12.4974C27.2112 12.2167 32.3667 11.6066 36.3301 10.8178C37.1773 10.5324 38.0047 10.2319 38.8002 9.91409C40.4947 9.23433 42.0238 8.44438 44.0134 8.02098C44.2387 7.75882 44.3404 7.49434 44.2926 7.23102C44.2108 6.7821 43.7164 6.37146 42.8811 6.0049C42.4046 5.8889 41.962 5.759 41.5892 5.65808C40.6363 5.3994 39.6754 5.1581 38.7065 4.92494Z" fill="#98ADAF"/>
<path d="M11.5898 8.23145C11.0815 6.65501 7.97744 5.18996 6.00775 4.90576C3.02132 6.36156 0.850187 8.4565 0.383682 10.287C0.367733 10.3519 0.457425 10.403 0.58701 10.4412C0.594985 10.4563 0.60298 10.4714 0.632884 10.49C2.47099 11.5897 6.99848 12.9225 11.4323 13.209C12.3792 12.4747 12.1361 9.92273 11.5898 8.23145Z" fill="#C1D1D3"/>
<path d="M0.269874 10.6771C0.28383 10.6852 0.297777 10.6922 0.311733 10.7003C0.610775 10.6991 0.915823 10.705 1.2348 10.7282C1.58966 10.7548 1.92459 10.7954 2.23161 10.8476C2.28145 10.7606 2.06816 10.6759 1.90867 10.6504C1.3066 10.5565 0.692504 10.5251 0.0784712 10.5657C0.11635 10.5878 0.164286 10.6075 0.220107 10.6249C0.228082 10.6412 0.235983 10.6574 0.269874 10.6771Z" fill="#657577"/>
<path d="M5.74668 8.32853C5.50346 8.34825 5.29221 8.46426 5.13073 8.64522C5.20649 8.88766 5.33403 9.0918 5.50149 9.26696C5.64104 9.4108 6.97076 9.37485 6.84715 9.16953C6.78336 9.06397 6.74947 8.94448 6.72754 8.81688C6.46638 8.4944 6.11151 8.29953 5.74668 8.32853Z" fill="#455051"/>
<path d="M8.05016 6.9099C8.62631 6.8635 9.19854 6.8484 9.76074 6.85768C8.69017 6.02944 7.06338 5.38567 5.89313 5.21631C3.26355 6.49811 1.35166 8.34366 0.940975 9.9549C0.933001 9.98738 0.956907 10.0152 0.998773 10.0396C1.92979 8.45154 4.58526 7.18946 8.05016 6.9099Z" fill="#D5E1E2"/>
<path d="M25.1485 3.16766C20.4057 2.7141 15.2423 2.70134 10.7547 3.6885C12.4592 4.1351 14.3331 4.55964 16.3387 4.94592C19.684 4.45872 23.5197 4.21859 27.5687 4.30443C31.7035 4.39259 35.5253 4.80789 38.7589 5.45633C34.4547 4.42045 29.993 3.63166 25.1485 3.16766Z" fill="#D5E1E2"/>
<path d="M41.1907 9.37934C40.5966 9.2239 39.857 9.23433 39.1573 9.20765C38.3877 9.17749 37.6401 9.09861 36.9404 8.97217L36.8467 9.31205C38.2283 9.71341 39.6277 10.0997 41.0492 10.4686C41.1528 10.4953 41.2624 10.5231 41.388 10.5127C41.5814 10.4976 41.7429 10.3978 41.8346 10.2992C42.1755 9.92686 41.7848 9.53478 41.1907 9.37934Z" fill="#98ADAF"/>
<path d="M30.8571 14.9924C30.6756 14.7186 30.4504 14.4449 30.0476 14.2326C29.6669 14.0319 29.1525 13.9008 28.6342 13.786C25.9787 13.199 22.9524 12.9763 20.0118 13.1515L20.0018 13.4647C24.3977 13.9728 28.4427 15.0922 31.5029 16.6489C31.4292 16.0851 31.2119 15.5283 30.8571 14.9924Z" fill="#AABCBF"/>
<path d="M31.5029 16.6461C31.4292 16.0835 31.2119 15.5267 30.8571 14.9908C30.6756 14.717 30.4504 14.4433 30.0476 14.231C29.6669 14.0303 29.1525 13.8992 28.6342 13.7844C28.4049 13.7334 28.1677 13.6893 27.9344 13.644C26.519 13.6649 25.2331 13.861 24.2741 14.1788C26.9914 14.775 29.4675 15.6114 31.5029 16.6461Z" fill="#C1D1D3"/>
<path d="M38.5698 9.79755C39.3892 10.0261 40.2147 10.2499 41.048 10.4669C41.1517 10.4935 41.2613 10.5214 41.3869 10.5109C41.5783 10.4959 41.7417 10.3961 41.8334 10.2975C42.1285 9.97735 41.8793 9.64443 41.4247 9.45767C41.0679 9.44607 40.6851 9.45418 40.2904 9.4855C39.6225 9.53886 39.0324 9.65255 38.5698 9.79755Z" fill="#C1D1D3"/>
<path opacity="0.47" d="M44.6938 7.16188C44.638 7.16884 44.5822 7.17696 44.5223 7.1816C44.5104 7.18276 44.4984 7.18277 44.4864 7.18277C44.323 6.98905 43.8923 6.85217 43.356 6.81389C43.8445 6.69325 44.1674 6.49373 44.1973 6.28261C44.2093 6.28145 44.2213 6.27913 44.2332 6.27797C44.305 6.27217 44.3749 6.26985 44.4426 6.26869V6.26522C44.331 6.2571 44.2174 6.24665 44.1057 6.23389C44.0898 6.23157 44.0738 6.22924 44.0579 6.22692C43.9562 6.21416 43.8565 6.20025 43.7548 6.18402C43.7608 6.19445 43.7708 6.20374 43.7728 6.21418C43.8446 6.43922 43.4438 6.66194 42.8517 6.7443C42.6862 6.55174 42.2576 6.41601 41.7233 6.37773C42.1559 6.27101 42.453 6.10165 42.5387 5.91837C42.4012 5.88241 42.2696 5.84647 42.142 5.81051C42.1699 6.04831 41.6914 6.27566 41.0276 6.33018C41.0156 6.33134 41.0037 6.33132 40.9897 6.33132C40.8262 6.1376 40.3956 6.00072 39.8593 5.96244C40.3477 5.8418 40.6707 5.64227 40.7006 5.43115C40.7046 5.43115 40.7106 5.43002 40.7146 5.43002C40.6648 5.41726 40.6149 5.40451 40.5651 5.39059C40.4574 5.36275 40.3498 5.33371 40.2421 5.30587C40.2541 5.32443 40.27 5.34184 40.2759 5.36156C40.3537 5.604 39.8833 5.84297 39.2194 5.90793C39.0579 5.71305 38.6252 5.575 38.0869 5.53672C38.5714 5.41608 38.8943 5.2189 38.9282 5.0101C38.9661 5.00778 39.0021 5.00663 39.038 5.00547C38.9762 4.99039 38.9143 4.97644 38.8525 4.96136C38.7947 4.94744 38.7389 4.93351 38.6811 4.92075C38.6073 4.90335 38.5335 4.8848 38.4597 4.8674C38.4777 4.8906 38.4957 4.91265 38.5037 4.93817C38.5834 5.18757 38.085 5.43464 37.3892 5.49148C37.3772 5.49264 37.3653 5.49265 37.3513 5.49265C37.1879 5.29893 36.7572 5.16205 36.2209 5.12377C36.7094 5.00313 37.0323 4.8036 37.0622 4.59248C37.0742 4.59132 37.0842 4.58901 37.0981 4.58785C37.144 4.58437 37.1898 4.5832 37.2356 4.58204C37.1698 4.56696 37.1041 4.55306 37.0383 4.53914C36.9964 4.52986 36.9546 4.52056 36.9148 4.51128C36.8051 4.48692 36.6975 4.46374 36.5878 4.43938C36.6117 4.46606 36.6297 4.49389 36.6396 4.52289C36.7194 4.77229 36.2209 5.01936 35.5252 5.0762C35.5072 5.07736 35.4893 5.07737 35.4714 5.07853C35.3099 4.88365 34.8773 4.7456 34.339 4.70732C34.8235 4.58784 35.1464 4.38951 35.1803 4.18071C35.1983 4.17839 35.2162 4.17606 35.2341 4.1749C35.264 4.17258 35.2919 4.17256 35.3218 4.1714C35.2521 4.15748 35.1823 4.14474 35.1125 4.12966C35.0946 4.12618 35.0746 4.1227 35.0567 4.11922C34.9451 4.09718 34.8334 4.07513 34.7217 4.05309C34.7337 4.07165 34.7497 4.08905 34.7557 4.10877C34.8354 4.35817 34.337 4.60524 33.6412 4.66208C33.6292 4.66324 33.6173 4.66325 33.6033 4.66325C33.4399 4.46953 33.0092 4.33266 32.4729 4.29438C32.9474 4.17722 33.2684 3.9858 33.3142 3.78164C33.2923 3.77816 33.2703 3.7747 33.2484 3.77006C33.2285 3.76658 33.2086 3.7631 33.1887 3.75962C33.089 3.74106 32.9873 3.7248 32.8876 3.7074C32.9434 3.9452 32.4829 4.17606 31.8309 4.23986C31.6675 4.04498 31.2369 3.90693 30.6986 3.86865C31.0873 3.77237 31.3724 3.62621 31.4881 3.46265C31.3585 3.44177 31.227 3.42321 31.0994 3.40349C31.0017 3.60069 30.571 3.77467 30.0028 3.82107C29.9909 3.82223 29.9789 3.82224 29.965 3.82224C29.8015 3.62852 29.3708 3.49165 28.8346 3.45337C29.1316 3.38029 29.3649 3.27703 29.5124 3.16103C29.3868 3.14363 29.2593 3.12742 29.1317 3.11002C28.9762 3.23298 28.689 3.33389 28.3302 3.38377C28.1647 3.19121 27.7361 3.05548 27.1998 3.0172C27.3294 2.98472 27.443 2.94646 27.5467 2.9047C27.4052 2.8873 27.2656 2.86988 27.1241 2.85248C26.9487 2.90816 26.7393 2.94993 26.504 2.96849C26.4921 2.96965 26.4801 2.96966 26.4681 2.96966C26.3904 2.87802 26.2528 2.80029 26.0734 2.73881C25.7644 2.70633 25.4574 2.66922 25.1464 2.63906C25.1205 2.63674 25.0946 2.63323 25.0667 2.63091C24.8753 2.61235 24.682 2.59614 24.4906 2.5799C24.4068 2.57294 24.3251 2.56481 24.2414 2.55785C24.2872 2.59497 24.323 2.63558 24.339 2.67966C24.4187 2.92906 23.9204 3.17613 23.2246 3.23297C23.2126 3.23413 23.2007 3.23414 23.1887 3.23414C23.0252 3.04042 22.5946 2.90354 22.0583 2.86526C22.451 2.76782 22.7362 2.61931 22.8498 2.45575C22.7143 2.44763 22.5786 2.43952 22.4431 2.4314C22.3175 2.61584 21.9008 2.77361 21.3625 2.81769C21.3446 2.81885 21.3267 2.81886 21.3087 2.82002C21.1473 2.62514 20.7147 2.48593 20.1764 2.44881C20.29 2.42097 20.3916 2.38732 20.4853 2.35252C20.288 2.34788 20.0906 2.3421 19.8932 2.33978C19.7656 2.36762 19.6281 2.38964 19.4785 2.40124C19.4666 2.4024 19.4546 2.4024 19.4427 2.4024C19.4227 2.3792 19.3949 2.35718 19.367 2.33514C19.1955 2.33398 19.0241 2.33281 18.8526 2.33397C18.9742 2.39081 19.06 2.45925 19.0859 2.53813C19.1636 2.78057 18.6931 3.01954 18.0292 3.0845C17.8677 2.88962 17.4351 2.75157 16.8969 2.71329C17.2477 2.62629 17.5109 2.4987 17.6445 2.35486C17.4949 2.3595 17.3434 2.36414 17.1939 2.36994C17.0105 2.51378 16.6477 2.62976 16.1991 2.66688C16.1872 2.66804 16.1752 2.66805 16.1632 2.66805C16.0895 2.57989 15.9598 2.5045 15.7883 2.44418C15.593 2.4581 15.3977 2.47318 15.2043 2.48942C15.5253 2.54858 15.7605 2.65993 15.8064 2.80377C15.8781 3.02881 15.4773 3.25153 14.8852 3.33389C14.7198 3.14133 14.2912 3.0056 13.7549 2.96732C14.1557 2.86872 14.4407 2.71677 14.5504 2.54857C14.3929 2.56365 14.2373 2.57871 14.0798 2.59611C13.9104 2.75271 13.5316 2.8815 13.0571 2.91978C13.0451 2.92094 13.0332 2.92091 13.0212 2.92091C12.9714 2.86175 12.8936 2.80956 12.7979 2.762C12.6584 2.78288 12.5189 2.80609 12.3813 2.82813C12.5328 2.88845 12.6345 2.96616 12.6644 3.05664C12.7422 3.29908 12.2716 3.53805 11.6078 3.60301C11.4463 3.40813 11.0137 3.27008 10.4754 3.2318C10.605 3.19932 10.7186 3.16105 10.8243 3.11813C10.5292 3.18077 10.2382 3.24806 9.94914 3.31998C9.86142 3.34202 9.77367 3.36638 9.68595 3.38958C9.5763 3.41858 9.46669 3.44643 9.35704 3.47543C9.24341 3.66567 8.82067 3.83038 8.27044 3.87446C8.25249 3.87562 8.2346 3.8756 8.21666 3.87676C8.20469 3.86284 8.19277 3.85008 8.17881 3.83732C8.06119 3.87792 7.94546 3.92085 7.82983 3.96377C7.8398 3.97885 7.85383 3.99394 7.85782 4.01018C7.93756 4.25958 7.43912 4.50665 6.74335 4.56349C6.73138 4.56465 6.71946 4.56466 6.70551 4.56466C6.67361 4.52754 6.63366 4.49274 6.58382 4.46026C6.48215 4.5055 6.38247 4.55536 6.28279 4.60176C6.31469 4.63308 6.33872 4.66558 6.35069 4.70038C6.36663 4.75258 6.3546 4.80475 6.3227 4.85579C6.4483 4.87783 6.57387 4.89875 6.69748 4.92543C6.73934 4.87555 6.76531 4.82334 6.77328 4.76998C6.78524 4.76882 6.79721 4.7665 6.80918 4.76534C7.50495 4.70966 8.13297 4.86626 8.21471 5.1145C8.23863 5.18642 8.20871 5.25835 8.14292 5.32563C8.24459 5.36159 8.34221 5.40219 8.44189 5.44047C8.54954 5.36159 8.6233 5.27689 8.63925 5.18873C8.65719 5.18641 8.67521 5.18408 8.69316 5.18176C9.38893 5.12608 10.0168 5.28267 10.0986 5.53091C10.1524 5.69563 9.9491 5.85803 9.60819 5.96591C9.68196 6.00535 9.75167 6.04596 9.82344 6.08656C10.2262 5.96476 10.4953 5.78846 10.5232 5.59938C10.5352 5.59822 10.5472 5.5959 10.5591 5.59474C11.2549 5.53906 11.8829 5.69565 11.9647 5.94389C12.0444 6.19329 11.546 6.44036 10.8502 6.4972C10.8382 6.49836 10.8263 6.49837 10.8123 6.49837C10.6788 6.34061 10.3658 6.22346 9.96508 6.1643C10.2781 6.34874 10.5732 6.5471 10.8523 6.75938C10.8602 6.74082 10.8761 6.72225 10.8801 6.70369C10.8921 6.70253 10.9041 6.70022 10.916 6.69906C11.6118 6.64338 12.2398 6.79997 12.3215 7.04821C12.3794 7.23033 12.1282 7.41012 11.7195 7.51684C11.8152 7.61544 11.8988 7.71984 11.9866 7.82192C12.3554 7.87528 12.6265 7.99476 12.6783 8.15252C12.7142 8.26272 12.6305 8.37175 12.473 8.46571C12.5129 8.52719 12.5467 8.58984 12.5846 8.65248C12.8857 8.53648 13.0771 8.38452 13.103 8.22676C13.7748 8.18384 14.373 8.33698 14.4507 8.57942C14.5285 8.82186 14.0579 9.06079 13.394 9.12575C13.2764 8.98307 13.0112 8.87172 12.6683 8.80676C12.7142 8.88912 12.7641 8.97034 12.804 9.05502C12.9236 9.11186 13.0093 9.1803 13.0352 9.25918C13.0591 9.32994 13.0292 9.40068 12.9674 9.4668C12.9874 9.52132 13.0132 9.57353 13.0312 9.62805C13.0392 9.65473 13.0432 9.68024 13.0511 9.70692C13.2824 9.59904 13.4359 9.47029 13.4599 9.33341C14.1317 9.29049 14.7297 9.44359 14.8075 9.68603C14.8852 9.92847 14.4148 10.1674 13.7509 10.2324C13.6433 10.1025 13.408 10.0016 13.1089 9.9343C13.1269 10.0109 13.1528 10.0886 13.1667 10.164C13.2844 10.2197 13.3682 10.2881 13.3921 10.3658C13.426 10.4679 13.3582 10.5688 13.2226 10.657C13.2266 10.7347 13.2286 10.8112 13.2286 10.8866C13.5655 10.7672 13.7888 10.6083 13.8147 10.4389C14.4865 10.396 15.0847 10.5491 15.1624 10.7915C15.2402 11.034 14.7696 11.2729 14.1057 11.3379C13.9702 11.1743 13.6413 11.0548 13.2226 10.9968C13.2206 11.0548 13.2206 11.1129 13.2166 11.1697C13.4997 11.2312 13.705 11.3367 13.7469 11.4701C13.8087 11.6627 13.5236 11.8529 13.073 11.9562C13.0471 12.0432 13.0173 12.1302 12.9854 12.2149C13.5596 12.216 14.034 12.361 14.1038 12.5745C14.1835 12.8239 13.6851 13.0709 12.9893 13.1278C12.9774 13.1289 12.9654 13.1289 12.9515 13.1289C12.8857 13.0524 12.77 12.9874 12.6305 12.9306C12.5866 13.0013 12.5388 13.0698 12.4909 13.1382C12.5408 13.1776 12.5786 13.2183 12.5946 13.2647C12.6345 13.3853 12.5348 13.5048 12.3454 13.6034C12.485 13.6138 12.6225 13.6254 12.7601 13.6347C12.9096 13.5431 13.0033 13.4398 13.0193 13.3331C13.0312 13.3319 13.0432 13.3296 13.0552 13.3285C13.7509 13.2728 14.379 13.4294 14.4607 13.6776C14.4667 13.695 14.4626 13.7124 14.4626 13.7298C14.5304 13.7333 14.5962 13.7344 14.664 13.7379C14.7577 13.7414 14.8514 13.7461 14.9432 13.7484C15.1525 13.7379 15.3517 13.7461 15.5292 13.7704C15.7943 13.7774 16.0535 13.7797 16.3167 13.7843C16.1014 13.6892 15.8024 13.6219 15.4575 13.5987C15.9459 13.4781 16.2689 13.2786 16.2988 13.0674C16.3108 13.0663 16.3207 13.064 16.3347 13.0628C17.0305 13.0071 17.6604 13.1637 17.7401 13.412C17.786 13.5512 17.6445 13.6892 17.3953 13.7936C17.5607 13.7936 17.7262 13.7936 17.8896 13.7924C18.0451 13.7008 18.1448 13.5976 18.1648 13.4908C18.701 13.4781 19.1655 13.5894 19.323 13.7681C19.4227 13.7658 19.5244 13.7646 19.6241 13.7611C19.957 13.7507 20.28 13.7345 20.603 13.7194C21.0077 13.5976 21.2748 13.4213 21.3047 13.2333C21.9766 13.1904 22.5747 13.3435 22.6525 13.586V13.5871C22.7442 13.579 22.8339 13.5697 22.9236 13.5616C23.2186 13.5361 23.5116 13.5082 23.8047 13.4781C24.2532 13.3563 24.5524 13.1695 24.5843 12.9689C24.6022 12.9665 24.6201 12.9642 24.638 12.963C25.2401 12.9143 25.7883 13.0257 25.9797 13.2171C26.1153 13.1985 26.2509 13.1776 26.3865 13.1579C26.211 12.9735 25.7884 12.8447 25.2701 12.8088C25.7585 12.6881 26.0815 12.4886 26.1114 12.2775C26.1233 12.2763 26.1333 12.274 26.1473 12.2728C26.843 12.2172 27.4729 12.3738 27.5527 12.622C27.6065 12.789 27.3972 12.9538 27.0483 13.0616C27.3035 13.0222 27.5547 12.977 27.8099 12.9341C27.9056 12.8587 27.9654 12.7775 27.9773 12.6951C28.2963 12.6742 28.5973 12.6974 28.8346 12.7543C28.9761 12.7276 29.1157 12.6986 29.2573 12.6707C29.0599 12.6069 28.8207 12.5617 28.5515 12.542C29.04 12.4213 29.3629 12.2218 29.3928 12.0107C29.4048 12.0095 29.4148 12.0072 29.4287 12.006C30.1125 11.9515 30.7266 12.1012 30.8262 12.3424C30.9558 12.3134 31.0853 12.2856 31.2129 12.2566C31.6117 12.165 32.0065 12.0687 32.3972 11.9701C32.475 11.9017 32.5228 11.8309 32.5328 11.7566C32.5448 11.7555 32.5567 11.7532 32.5687 11.7532C32.792 11.7346 33.0053 11.7404 33.1986 11.7624C33.3342 11.7265 33.4657 11.6882 33.6013 11.6511C33.4757 11.6279 33.3441 11.6082 33.2006 11.5989C33.685 11.4794 34.008 11.281 34.0419 11.0722C34.4745 11.0444 34.8752 11.0978 35.1264 11.2057C35.2381 11.1709 35.3517 11.136 35.4634 11.1012C35.248 11.0084 34.955 10.9447 34.6161 10.9203C35.1045 10.7997 35.4275 10.6001 35.4574 10.389C35.4694 10.3879 35.4813 10.3855 35.4933 10.3844C36.0993 10.3357 36.6535 10.4482 36.839 10.6419C36.9506 10.6024 37.0643 10.5653 37.1739 10.5259C36.9726 10.3704 36.5897 10.2614 36.1232 10.2289C36.6077 10.1095 36.9306 9.91108 36.9645 9.70228C36.9825 9.69996 37.0005 9.69764 37.0184 9.69648C37.7142 9.6408 38.3441 9.79743 38.4238 10.0457C38.4258 10.0491 38.4238 10.0538 38.4238 10.0572C38.5076 10.0248 38.5934 9.99343 38.6751 9.96095C38.717 9.94471 38.7608 9.92848 38.8026 9.91224C38.8066 9.91108 38.8086 9.90993 38.8126 9.90761C38.8026 9.90877 38.7907 9.90877 38.7807 9.90877C38.6173 9.71505 38.1866 9.57818 37.6503 9.5399C38.1388 9.41926 38.4617 9.21973 38.4916 9.00861C38.5036 9.00745 38.5156 9.00514 38.5275 9.00397C39.2233 8.9483 39.8513 9.10489 39.933 9.35313C39.943 9.38097 39.941 9.40997 39.9371 9.43781C39.9989 9.41229 40.0586 9.38562 40.1204 9.3601C40.254 9.30326 40.3876 9.24755 40.5211 9.19071C40.4474 9.20347 40.3716 9.21275 40.2919 9.22087C40.1304 9.02599 39.6978 8.88798 39.1595 8.8497C39.644 8.72906 39.9669 8.53185 40.0008 8.32305C40.6727 8.28013 41.2708 8.43326 41.3486 8.67454C41.3705 8.74298 41.3446 8.8114 41.2867 8.87636C41.4064 8.8288 41.526 8.78009 41.6456 8.73369C41.6854 8.71861 41.7253 8.7047 41.7652 8.68962C42.2217 8.51794 42.6942 8.35786 43.1926 8.21982C43.2385 8.16878 43.2683 8.11657 43.2783 8.06321C43.4418 8.05857 43.5993 8.0667 43.7429 8.08526C43.8904 8.05046 44.0399 8.01683 44.1934 7.98551C44.0459 7.95419 43.8864 7.9298 43.7129 7.91704C44.2014 7.7964 44.5243 7.59687 44.5542 7.38575C44.5662 7.38459 44.5782 7.38227 44.5901 7.38111C44.6539 7.37647 44.7177 7.37417 44.7815 7.37301C44.7496 7.30457 44.7217 7.2338 44.6938 7.16188ZM41.0554 6.53781C41.0674 6.53665 41.0774 6.53433 41.0913 6.53317C41.7871 6.47749 42.4171 6.63292 42.4969 6.88232C42.5766 7.13172 42.0782 7.37883 41.3824 7.43567C41.3704 7.43683 41.3584 7.4368 41.3465 7.4368C41.183 7.24308 40.7525 7.10621 40.2162 7.06793C40.7026 6.94729 41.0255 6.74777 41.0554 6.53781ZM39.2831 6.11559C39.955 6.07267 40.553 6.22577 40.6308 6.46821C40.7085 6.71065 40.2381 6.94962 39.5742 7.01458C39.4127 6.8197 38.9801 6.68165 38.4418 6.64337C38.9283 6.52273 39.2493 6.32555 39.2831 6.11559ZM27.9355 7.38692C27.9235 7.38808 27.9116 7.38809 27.8976 7.38809C27.7341 7.19437 27.3035 7.0575 26.7672 7.01922C27.2556 6.89858 27.5786 6.69905 27.6085 6.48793C27.6205 6.48677 27.6324 6.48445 27.6444 6.48329C28.3402 6.42761 28.9702 6.5842 29.0499 6.83244C29.1297 7.083 28.6312 7.33124 27.9355 7.38692ZM29.4725 6.91248C30.0866 6.8974 30.6089 7.04587 30.6807 7.27091C30.7525 7.49595 30.3517 7.71867 29.7596 7.80103C29.5941 7.60847 29.1655 7.47162 28.6312 7.4345C29.1117 7.31618 29.4347 7.12012 29.4725 6.91248ZM27.5407 7.52498C27.6185 7.76742 27.1481 8.00636 26.4842 8.07132C26.3207 7.87644 25.89 7.73842 25.3517 7.70014C25.8362 7.5795 26.1592 7.38229 26.1931 7.17349C26.865 7.12941 27.463 7.28254 27.5407 7.52498ZM26.1273 6.96583C25.9658 6.77095 25.5332 6.63294 24.9949 6.59466C25.4794 6.47518 25.8023 6.27681 25.8362 6.06801C26.5081 6.02509 27.1061 6.17823 27.1838 6.42067C27.2616 6.66195 26.7912 6.90087 26.1273 6.96583ZM25.7685 7.09926C25.8482 7.34866 25.3498 7.59573 24.654 7.65257C24.642 7.65373 24.6301 7.65373 24.6161 7.65373C24.4527 7.46001 24.022 7.32314 23.4857 7.28486C23.9742 7.16422 24.2971 6.96469 24.327 6.75357C24.339 6.75241 24.351 6.75009 24.3629 6.74893C25.0587 6.69325 25.6887 6.84986 25.7685 7.09926ZM21.2948 8.13164C21.3067 8.13048 21.3167 8.12816 21.3307 8.127C22.0264 8.07132 22.6544 8.22792 22.7362 8.47616C22.8159 8.72555 22.3175 8.97266 21.6217 9.0295C21.6097 9.03066 21.5978 9.03067 21.5839 9.03067C21.4204 8.83695 20.9897 8.70004 20.4535 8.66176C20.9399 8.54228 21.2629 8.34276 21.2948 8.13164ZM20.0966 7.55861C20.585 7.43797 20.908 7.23844 20.9379 7.02732C20.9498 7.02616 20.9618 7.02385 20.9738 7.02269C21.6695 6.96701 22.2976 7.1236 22.3793 7.37184C22.459 7.62124 21.9606 7.86834 21.2648 7.92518C21.2529 7.92634 21.2409 7.92632 21.2289 7.92632C21.0635 7.73376 20.6328 7.59573 20.0966 7.55861ZM21.9606 7.97273C22.445 7.85209 22.768 7.65487 22.8019 7.44607C22.8198 7.44375 22.8379 7.44146 22.8558 7.4403C23.5516 7.38462 24.1795 7.54122 24.2612 7.78946C24.3409 8.03886 23.8426 8.28593 23.1469 8.34277C23.1289 8.34393 23.1109 8.34394 23.0929 8.3451C22.9295 8.14906 22.4989 8.01101 21.9606 7.97273ZM22.79 7.23728C22.772 7.23844 22.7541 7.23846 22.7362 7.23962C22.5747 7.04474 22.1421 6.90553 21.6038 6.86841C22.0883 6.74893 22.4112 6.55056 22.4451 6.34176C22.4631 6.33944 22.481 6.33714 22.4989 6.33482C23.1947 6.27914 23.8227 6.43573 23.9044 6.68397C23.9842 6.93337 23.4857 7.1816 22.79 7.23728ZM20.9081 6.82083C20.8961 6.82199 20.884 6.822 20.8701 6.822C20.7066 6.62828 20.276 6.49141 19.7397 6.45313C20.2281 6.33249 20.5512 6.13296 20.5811 5.92184C20.5931 5.92068 20.6049 5.91836 20.6169 5.9172C21.3126 5.86152 21.9407 6.01812 22.0224 6.26636C22.1021 6.51692 21.6018 6.76399 20.9081 6.82083ZM20.5132 6.95773C20.591 7.20017 20.1205 7.43914 19.4566 7.5041C19.2952 7.30922 18.8626 7.17117 18.3243 7.13289C18.8087 7.01341 19.1317 6.81504 19.1656 6.60624C19.8374 6.56216 20.4354 6.71529 20.5132 6.95773ZM19.5225 7.71059C20.1943 7.66767 20.7923 7.82076 20.8701 8.06204C20.9478 8.30332 20.4774 8.54345 19.8135 8.60841C19.6521 8.41353 19.2195 8.27548 18.6812 8.2372C19.1656 8.11772 19.4886 7.92055 19.5225 7.71059ZM19.8792 8.8149C20.5511 8.77198 21.1492 8.92508 21.227 9.16752C21.3047 9.40996 20.8342 9.64893 20.1703 9.71389C20.0088 9.51901 19.5762 9.38097 19.0379 9.34269C19.5224 9.22205 19.8434 9.02486 19.8792 8.8149ZM21.6496 9.23712C21.6615 9.23596 21.6735 9.23364 21.6855 9.23248C22.3812 9.1768 23.0113 9.33341 23.091 9.58281C23.1707 9.83221 22.6723 10.0793 21.9765 10.1361C21.9646 10.1373 21.9526 10.1373 21.9387 10.1373C21.7752 9.94356 21.3446 9.80669 20.8083 9.76841C21.2967 9.64777 21.6197 9.44824 21.6496 9.23712ZM22.3175 9.07821C22.8019 8.95757 23.1249 8.76036 23.1588 8.55156C23.1767 8.54924 23.1946 8.54691 23.2126 8.54575C23.9083 8.49007 24.5383 8.6467 24.6181 8.89494C24.6978 9.14434 24.1994 9.39141 23.5036 9.44825C23.4857 9.44941 23.4678 9.44943 23.4498 9.45059C23.2864 9.25339 22.8558 9.11533 22.3175 9.07821ZM23.8446 8.38918C24.333 8.26854 24.656 8.06901 24.6859 7.85789C24.6978 7.85673 24.7078 7.85441 24.7218 7.85325C25.4175 7.79757 26.0456 7.95416 26.1273 8.2024C26.207 8.4518 25.7086 8.69887 25.0128 8.75571C25.0009 8.75687 24.9889 8.75688 24.9769 8.75688C24.8095 8.56432 24.3809 8.42746 23.8446 8.38918ZM26.5499 8.27664C27.2217 8.23372 27.8199 8.38686 27.8976 8.6293C27.9754 8.87174 27.5048 9.11071 26.841 9.17567C26.6795 8.98079 26.2469 8.84274 25.7086 8.80446C26.193 8.68382 26.516 8.4866 26.5499 8.27664ZM27.1241 8.1247C27.6125 8.00406 27.9355 7.80453 27.9654 7.59341C27.9774 7.59225 27.9893 7.58993 28.0013 7.58877C28.6971 7.53309 29.3251 7.68969 29.4068 7.93793C29.4866 8.18733 28.9881 8.4344 28.2924 8.49124C28.2804 8.4924 28.2684 8.4924 28.2565 8.4924C28.091 8.29984 27.6604 8.16298 27.1241 8.1247ZM29.8294 8.01797C30.4435 8.00289 30.9658 8.15136 31.0376 8.3764C31.1094 8.60144 30.7086 8.82416 30.1165 8.90652C29.951 8.71396 29.5224 8.57826 28.9881 8.53998C29.4686 8.4205 29.7915 8.22561 29.8294 8.01797ZM30.2641 7.8718C30.7525 7.75116 31.0755 7.55167 31.1054 7.34055C31.1173 7.33939 31.1293 7.33703 31.1413 7.33587C31.837 7.28019 32.4649 7.43682 32.5467 7.68506C32.6264 7.93446 32.1281 8.18153 31.4323 8.23837C31.4204 8.23953 31.4084 8.23954 31.3964 8.23954C31.231 8.04582 30.8003 7.90892 30.2641 7.8718ZM31.7712 7.1816C32.2556 7.06212 32.5786 6.86378 32.6125 6.65498C33.2843 6.61206 33.8825 6.76517 33.9602 7.00761C34.038 7.25005 33.5674 7.48902 32.9036 7.55398C32.7421 7.35677 32.3115 7.21872 31.7712 7.1816ZM31.0754 7.13406C31.0635 7.13522 31.0515 7.13522 31.0376 7.13522C30.8741 6.9415 30.4435 6.8046 29.9072 6.76632C30.3956 6.64568 30.7186 6.44618 30.7485 6.23506C30.7604 6.2339 30.7724 6.23159 30.7844 6.23042C31.4801 6.17474 32.1082 6.33134 32.1899 6.57958C32.2696 6.83014 31.7712 7.07722 31.0754 7.13406ZM29.4048 6.69672C29.2393 6.50416 28.8086 6.36846 28.2743 6.33018C28.7548 6.2107 29.0778 6.01581 29.1156 5.80817C29.7297 5.79309 30.252 5.94156 30.3238 6.1666C30.3976 6.39164 29.9949 6.6132 29.4048 6.69672ZM27.5786 6.28261C27.5666 6.28377 27.5547 6.28377 27.5407 6.28377C27.3773 6.09005 26.9466 5.95318 26.4103 5.9149C26.8988 5.79426 27.2217 5.59473 27.2516 5.38361C27.2636 5.38245 27.2736 5.38013 27.2875 5.37897C27.9833 5.32329 28.6113 5.47873 28.6931 5.72813C28.7728 5.97869 28.2743 6.22576 27.5786 6.28261ZM25.7704 5.86152C25.6089 5.66664 25.1763 5.52862 24.638 5.49034C25.1225 5.37086 25.4455 5.17249 25.4793 4.96369C26.1512 4.92077 26.7493 5.07388 26.8271 5.31632C26.9048 5.55644 26.4343 5.79656 25.7704 5.86152ZM25.4116 5.99377C25.4913 6.24317 24.9929 6.49024 24.2971 6.54708C24.2851 6.54824 24.2732 6.54825 24.2593 6.54825C24.0958 6.35453 23.6651 6.21766 23.1288 6.17938C23.6173 6.05874 23.9402 5.85921 23.9701 5.64809C23.9821 5.64693 23.9921 5.64461 24.006 5.64345C24.7018 5.58777 25.3318 5.74437 25.4116 5.99377ZM22.4331 6.13297C22.4151 6.13413 22.3972 6.13414 22.3793 6.1353C22.2178 5.94042 21.7852 5.80122 21.2469 5.7641C21.7314 5.64462 22.0543 5.44624 22.0882 5.23744C22.1062 5.23512 22.1241 5.2328 22.142 5.23164C22.8378 5.17596 23.4658 5.33255 23.5475 5.58079C23.6273 5.82903 23.1288 6.07613 22.4331 6.13297ZM20.5512 5.71538C20.5392 5.71654 20.5272 5.71652 20.5153 5.71652C20.3518 5.5228 19.9211 5.38593 19.3849 5.34765C19.8733 5.22701 20.1963 5.02748 20.2262 4.81636C20.2381 4.8152 20.2501 4.81288 20.2621 4.81172C20.9578 4.75604 21.5858 4.91263 21.6676 5.16087C21.7453 5.41259 21.2469 5.6597 20.5512 5.71538ZM20.1564 5.85341C20.2342 6.09585 19.7636 6.33482 19.0998 6.39978C18.9383 6.2049 18.5057 6.06685 17.9674 6.02857C18.4518 5.90909 18.7748 5.71072 18.8087 5.50192C19.4805 5.45784 20.0787 5.61097 20.1564 5.85341ZM17.2716 5.97986C17.2597 5.98102 17.2477 5.98099 17.2338 5.98099C17.0703 5.78727 16.6397 5.6504 16.1034 5.61212C16.5918 5.49148 16.9148 5.29195 16.9447 5.08083C16.9566 5.07967 16.9686 5.07736 16.9806 5.0762C17.6763 5.02052 18.3044 5.17598 18.3861 5.42538C18.4658 5.6771 17.9654 5.92418 17.2716 5.97986ZM16.8769 6.11789C16.9487 6.34293 16.548 6.56565 15.9559 6.64801C15.7904 6.45545 15.3618 6.31856 14.8255 6.28144C15.3059 6.16196 15.6289 5.9671 15.6668 5.75946C16.2808 5.74438 16.8031 5.89285 16.8769 6.11789ZM17.3016 6.18748C17.3135 6.18632 17.3235 6.18401 17.3375 6.18285C18.0332 6.12717 18.6611 6.28376 18.7429 6.532C18.8226 6.7814 18.3243 7.0285 17.6285 7.08534C17.6166 7.0865 17.6046 7.08648 17.5907 7.08648C17.4272 6.89276 16.9965 6.75589 16.4603 6.71761C16.9467 6.59697 17.2697 6.3986 17.3016 6.18748ZM17.6585 7.2918C17.6704 7.29064 17.6804 7.28832 17.6943 7.28716C18.3901 7.23148 19.018 7.38808 19.0998 7.63632C19.1795 7.88572 18.6812 8.13282 17.9854 8.18966C17.9734 8.19082 17.9615 8.19079 17.9495 8.19079C17.786 7.99707 17.3554 7.8602 16.8191 7.82192C17.3035 7.70244 17.6266 7.50292 17.6585 7.2918ZM18.0133 8.39611C18.0252 8.39495 18.0372 8.39264 18.0492 8.39148C18.7449 8.3358 19.373 8.49127 19.4547 8.74067C19.5344 8.99007 19.036 9.23713 18.3402 9.29397C18.3283 9.29514 18.3163 9.29514 18.3043 9.29514C18.1409 9.10142 17.7102 8.96452 17.1739 8.92624C17.6604 8.80676 17.9834 8.60839 18.0133 8.39611ZM18.3702 9.5016C18.3821 9.50044 18.3941 9.49812 18.4061 9.49696C19.1018 9.44128 19.7297 9.59787 19.8115 9.84611C19.8912 10.0955 19.3929 10.3426 18.6971 10.3995C18.6852 10.4006 18.6731 10.4006 18.6592 10.4006C18.4957 10.2069 18.0651 10.07 17.5289 10.0317C18.0173 9.91224 18.3403 9.71272 18.3702 9.5016ZM18.7269 10.6059C18.7389 10.6048 18.7509 10.6024 18.7628 10.6013C19.4586 10.5456 20.0866 10.7011 20.1684 10.9505C20.2481 11.1999 19.7497 11.4469 19.0539 11.5038C19.0419 11.5049 19.03 11.5049 19.016 11.5049C18.8526 11.3112 18.4219 11.1743 17.8856 11.136C18.3741 11.0166 18.697 10.817 18.7269 10.6059ZM19.3929 10.447C19.8773 10.3275 20.2003 10.1292 20.2342 9.92038C20.906 9.87746 21.504 10.0306 21.5818 10.273C21.6595 10.5154 21.1891 10.7544 20.5252 10.8194C20.3638 10.6233 19.9332 10.4853 19.3929 10.447ZM22.0065 10.3414C22.0184 10.3403 22.0304 10.338 22.0424 10.3368C22.7381 10.2811 23.3662 10.4366 23.4479 10.686C23.5276 10.9354 23.0292 11.1825 22.3334 11.2393C22.3215 11.2405 22.3095 11.2405 22.2975 11.2405C22.134 11.0467 21.7034 10.9098 21.1671 10.8716C21.6536 10.7521 21.9766 10.5526 22.0065 10.3414ZM22.6744 10.1825C23.1588 10.0619 23.4818 9.86467 23.5157 9.65587C23.5336 9.65355 23.5515 9.65125 23.5694 9.64893C24.2652 9.59325 24.8952 9.74985 24.975 9.99809C25.0547 10.2475 24.5563 10.4946 23.8605 10.5514C23.8426 10.5526 23.8247 10.5526 23.8067 10.5537C23.6432 10.3589 23.2126 10.2208 22.6744 10.1825ZM24.1995 9.49466C24.6879 9.37402 25.0109 9.17449 25.0408 8.96337C25.0528 8.96221 25.0646 8.95989 25.0766 8.95873C25.7724 8.90305 26.4024 9.05965 26.4821 9.30789C26.5619 9.55729 26.0635 9.80436 25.3678 9.8612C25.3558 9.86236 25.3438 9.86236 25.3319 9.86236C25.1664 9.66864 24.7378 9.53178 24.1995 9.49466ZM26.9068 9.38212C27.5786 9.3392 28.1768 9.49234 28.2545 9.73478C28.3323 9.97722 27.8617 10.2162 27.1978 10.2811C27.0364 10.0862 26.6038 9.94822 26.0655 9.90994C26.5499 9.7893 26.8709 9.59208 26.9068 9.38212ZM27.481 9.23018C27.9694 9.10954 28.2924 8.91001 28.3223 8.69889C28.3343 8.69773 28.3462 8.69542 28.3582 8.69426C29.054 8.63858 29.6819 8.79517 29.7636 9.04341C29.8433 9.29281 29.345 9.53988 28.6492 9.59672C28.6373 9.59788 28.6253 9.59789 28.6133 9.59789C28.4479 9.40417 28.0173 9.2673 27.481 9.23018ZM30.1863 9.12228C30.8003 9.1072 31.3226 9.25567 31.3944 9.48071C31.4661 9.70575 31.0655 9.92847 30.4734 10.0108C30.3079 9.81827 29.8793 9.68258 29.345 9.6443C29.8255 9.52482 30.1464 9.32992 30.1863 9.12228ZM30.6208 8.97611C31.1093 8.85547 31.4322 8.65598 31.4621 8.44486C31.4741 8.4437 31.4841 8.44138 31.498 8.44022C32.1938 8.38454 32.8218 8.54114 32.9036 8.78938C32.9833 9.03878 32.4849 9.28585 31.7891 9.34269C31.7771 9.34385 31.7652 9.34385 31.7532 9.34385C31.5877 9.15129 31.1571 9.01439 30.6208 8.97611ZM32.1281 8.28591C32.6125 8.16643 32.9355 7.9681 32.9694 7.7593C33.6412 7.71638 34.2393 7.86948 34.317 8.11192C34.3948 8.35436 33.9243 8.59333 33.2604 8.65829C33.099 8.46225 32.6664 8.32419 32.1281 8.28591ZM33.5435 7.60732C34.0319 7.48668 34.3549 7.28715 34.3848 7.07603C34.3967 7.07487 34.4067 7.07256 34.4207 7.0714C35.1164 7.01572 35.7445 7.17235 35.8262 7.42059C35.9059 7.66999 35.4075 7.91705 34.7117 7.97389C34.6998 7.97505 34.6878 7.97506 34.6758 7.97506C34.5104 7.78134 34.0798 7.64444 33.5435 7.60732ZM35.0527 6.91712C35.5371 6.79648 35.8601 6.59931 35.894 6.39051C35.9119 6.38819 35.9298 6.38586 35.9478 6.3847C36.6435 6.32902 37.2716 6.48445 37.3533 6.73385C37.433 6.98325 36.9346 7.23032 36.2388 7.28716C36.2209 7.28832 36.203 7.28834 36.185 7.2895C36.0216 7.0923 35.591 6.95424 35.0527 6.91712ZM34.355 6.86841C34.343 6.86957 34.331 6.86958 34.3191 6.86958C34.1556 6.67586 33.7249 6.53899 33.1887 6.50071C33.6771 6.38007 34.0001 6.18054 34.03 5.96942C34.0419 5.96826 34.0539 5.96594 34.0659 5.96478C34.7616 5.9091 35.3896 6.06453 35.4714 6.31393C35.5491 6.56565 35.0507 6.81273 34.355 6.86841ZM32.5467 6.44732C32.3852 6.25244 31.9526 6.11439 31.4143 6.07611C31.8988 5.95663 32.2217 5.7583 32.2556 5.5495C32.9275 5.50658 33.5256 5.65968 33.6033 5.90212C33.6831 6.1434 33.2125 6.38236 32.5467 6.44732ZM30.7185 6.02857C30.7066 6.02973 30.6947 6.02974 30.6807 6.02974C30.5172 5.83602 30.0866 5.69911 29.5503 5.66083C30.0387 5.54019 30.3617 5.3407 30.3916 5.12958C30.4036 5.12842 30.4155 5.1261 30.4275 5.12494C31.1233 5.06926 31.7513 5.22586 31.833 5.4741C31.9128 5.72466 31.4143 5.97289 30.7185 6.02857ZM29.0479 5.59124C28.8824 5.39868 28.4519 5.26298 27.9176 5.2247C28.398 5.10522 28.721 4.91033 28.7589 4.70269C29.3729 4.68761 29.8952 4.83607 29.9669 5.06111C30.0407 5.28615 29.638 5.50888 29.0479 5.59124ZM27.2218 5.17712C27.2099 5.17828 27.1978 5.17829 27.1838 5.17829C27.0204 4.98457 26.5898 4.8477 26.0536 4.80942C26.542 4.68878 26.865 4.48925 26.8949 4.27813C26.9068 4.27697 26.9168 4.27465 26.9308 4.27349C27.6265 4.21781 28.2544 4.37441 28.3362 4.62265C28.4159 4.87321 27.9176 5.12144 27.2218 5.17712ZM25.4135 4.75603C25.252 4.56115 24.8194 4.42314 24.2812 4.38486C24.7656 4.26422 25.0886 4.06701 25.1225 3.85821C25.7943 3.81529 26.3924 3.96839 26.4702 4.21083C26.5479 4.45211 26.0794 4.69107 25.4135 4.75603ZM25.0547 4.88946C25.1344 5.13886 24.6361 5.38593 23.9403 5.44277C23.9284 5.44393 23.9164 5.44393 23.9044 5.44393C23.741 5.25021 23.3103 5.11334 22.774 5.07506C23.2625 4.95442 23.5854 4.75489 23.6153 4.54377C23.6273 4.54261 23.6393 4.5403 23.6512 4.53914C24.345 4.48346 24.9749 4.64006 25.0547 4.88946ZM22.0763 5.02748C22.0584 5.02864 22.0403 5.02866 22.0224 5.02982C21.8609 4.83494 21.4283 4.69573 20.89 4.65861C21.3745 4.53797 21.6975 4.34076 21.7313 4.13196C21.7493 4.12964 21.7672 4.12731 21.7851 4.12615C22.4809 4.07047 23.1089 4.22594 23.1907 4.47534C23.2724 4.72358 22.7721 4.9718 22.0763 5.02748ZM20.1943 4.61103C20.1823 4.61219 20.1704 4.6122 20.1564 4.6122C19.993 4.41848 19.5623 4.28161 19.026 4.24333C19.5145 4.12269 19.8374 3.92316 19.8673 3.71204C19.8793 3.71088 19.8913 3.70856 19.9032 3.7074C20.599 3.65172 21.227 3.80716 21.3087 4.05656C21.3885 4.30712 20.89 4.55419 20.1943 4.61103ZM19.7995 4.74793C19.8773 4.99037 19.4067 5.22934 18.7429 5.2943C18.5814 5.09942 18.1488 4.96137 17.6105 4.92309C18.095 4.80361 18.4179 4.60524 18.4518 4.39644C19.1237 4.35352 19.7218 4.50549 19.7995 4.74793ZM16.9147 4.87555C16.9028 4.87671 16.8909 4.87668 16.8769 4.87668C16.7134 4.68296 16.2828 4.54609 15.7465 4.50781C16.2349 4.38717 16.5579 4.18764 16.5878 3.97652C16.5997 3.97536 16.6117 3.97304 16.6237 3.97188C17.3195 3.9162 17.9475 4.07279 18.0292 4.32103C18.109 4.57159 17.6085 4.81987 16.9147 4.87555ZM16.52 5.0124C16.5938 5.23744 16.1911 5.46016 15.599 5.54252C15.4335 5.34996 15.0049 5.21423 14.4686 5.17595C14.9491 5.05647 15.272 4.86161 15.3099 4.65397C15.9259 4.64005 16.4482 4.78736 16.52 5.0124ZM13.7728 5.12958C13.7609 5.13074 13.7489 5.13071 13.7369 5.13071C13.5735 4.93699 13.1429 4.80012 12.6066 4.76184C13.0951 4.6412 13.418 4.44171 13.4479 4.23059C13.4599 4.22943 13.4719 4.22707 13.4838 4.22591C14.1796 4.17023 14.8075 4.32686 14.8892 4.5751C14.967 4.82566 14.4686 5.07274 13.7728 5.12958ZM13.8028 5.33603C13.8147 5.33487 13.8267 5.33256 13.8387 5.3314C14.5344 5.27572 15.1625 5.43235 15.2442 5.68059C15.3239 5.92999 14.8255 6.17705 14.1297 6.23389C14.1178 6.23505 14.1058 6.23506 14.0919 6.23506C13.9284 6.04134 13.4977 5.90443 12.9615 5.86615C13.4499 5.74551 13.7729 5.54715 13.8028 5.33603ZM14.1597 6.44038C14.1716 6.43922 14.1836 6.43687 14.1955 6.43571C14.8913 6.38003 15.5192 6.53666 15.601 6.7849C15.6807 7.0343 15.1824 7.28137 14.4866 7.33821C14.4746 7.33937 14.4626 7.33938 14.4486 7.33938C14.2852 7.14566 13.8546 7.00879 13.3184 6.97051C13.8068 6.85103 14.1297 6.6515 14.1597 6.44038ZM16.0256 6.86377C16.6397 6.84869 17.162 6.99716 17.2338 7.2222C17.3056 7.44724 16.9048 7.66996 16.3127 7.75232C16.1472 7.55976 15.7186 7.42403 15.1843 7.38575C15.6648 7.26743 15.9858 7.07257 16.0256 6.86377ZM16.3804 7.96926C16.9945 7.95418 17.5168 8.10265 17.5886 8.32769C17.6604 8.55273 17.2597 8.77545 16.6676 8.85781C16.5021 8.66525 16.0734 8.52836 15.5391 8.49124C16.0196 8.37176 16.3426 8.1769 16.3804 7.96926ZM16.7373 9.07357C17.3514 9.05849 17.8737 9.20696 17.9455 9.432C18.0173 9.65704 17.6165 9.87976 17.0244 9.96212C16.8589 9.76956 16.4304 9.63271 15.8941 9.59559C16.3765 9.47727 16.6995 9.28237 16.7373 9.07357ZM17.0942 10.1791C17.7083 10.164 18.2306 10.3113 18.3024 10.5375C18.3742 10.7625 17.9734 10.9852 17.3813 11.0676C17.2158 10.875 16.7851 10.7393 16.2509 10.701C16.7333 10.5816 17.0563 10.3867 17.0942 10.1791ZM17.4511 11.2834C18.0651 11.2683 18.5874 11.4168 18.6592 11.6418C18.7309 11.8668 18.3303 12.0896 17.7382 12.1719C17.5727 11.9794 17.142 11.8425 16.6077 11.8054C17.0902 11.6871 17.4132 11.491 17.4511 11.2834ZM19.0838 11.7114C19.0958 11.7102 19.1078 11.7079 19.1197 11.7068C19.8155 11.6511 20.4435 11.8077 20.5252 12.0559C20.605 12.3053 20.1065 12.5524 19.4108 12.6093C19.3988 12.6104 19.3868 12.6104 19.3749 12.6104C19.2114 12.4167 18.7807 12.2798 18.2445 12.2415C18.7309 12.122 19.0539 11.9225 19.0838 11.7114ZM19.7497 11.5525C20.2341 11.4318 20.5571 11.2346 20.591 11.0258C21.2628 10.9829 21.8609 11.1361 21.9387 11.3785C22.0164 11.6209 21.546 11.8599 20.8821 11.9249C20.7207 11.7288 20.2899 11.5896 19.7497 11.5525ZM22.3634 11.4469C22.3753 11.4458 22.3873 11.4434 22.3992 11.4423C23.095 11.3866 23.7229 11.5432 23.8047 11.7914C23.8844 12.0408 23.3861 12.2879 22.6903 12.3448C22.6783 12.3459 22.6664 12.3459 22.6544 12.3459C22.4909 12.1522 22.0603 12.0153 21.524 11.977C22.0104 11.8576 22.3334 11.658 22.3634 11.4469ZM23.0292 11.288C23.5136 11.1685 23.8366 10.9702 23.8705 10.7614C23.8884 10.759 23.9064 10.7567 23.9244 10.7556C24.6202 10.6999 25.2481 10.8553 25.3298 11.1047C25.4095 11.3541 24.9112 11.6012 24.2155 11.658C24.1975 11.6592 24.1795 11.6592 24.1615 11.6604C24.0001 11.4632 23.5695 11.3251 23.0292 11.288ZM24.5563 10.599C25.0447 10.4783 25.3677 10.2788 25.3976 10.0677C25.4095 10.0665 25.4195 10.0642 25.4335 10.063C26.1292 10.0074 26.7573 10.1628 26.839 10.4122C26.9187 10.6616 26.4203 10.9087 25.7245 10.9655C25.7126 10.9667 25.7006 10.9667 25.6886 10.9667C25.5232 10.7741 25.0926 10.6373 24.5563 10.599ZM27.2637 10.4864C27.9355 10.4435 28.5335 10.5967 28.6113 10.8391C28.689 11.0815 28.2186 11.3205 27.5547 11.3855C27.3932 11.1906 26.9606 11.0525 26.4224 11.0143C26.9068 10.8936 27.2278 10.6964 27.2637 10.4864ZM27.8358 10.3345C28.3242 10.2139 28.6472 10.0143 28.6771 9.80321C28.6891 9.80205 28.6991 9.79973 28.713 9.79857C29.4088 9.74289 30.0368 9.89949 30.1185 10.1477C30.1983 10.3971 29.6998 10.6442 29.0041 10.701C28.9921 10.7022 28.9802 10.7022 28.9662 10.7022C28.8027 10.5096 28.3741 10.3728 27.8358 10.3345ZM30.5431 10.2278C31.1571 10.2127 31.6795 10.3612 31.7512 10.5862C31.823 10.8112 31.4223 11.034 30.8302 11.1163C30.6648 10.9238 30.2341 10.7881 29.6998 10.7498C30.1823 10.6303 30.5032 10.4354 30.5431 10.2278ZM30.9777 10.0816C31.4662 9.96096 31.7891 9.76146 31.819 9.55034C31.831 9.54918 31.843 9.54687 31.8549 9.54571C32.5507 9.49003 33.1807 9.64662 33.2604 9.89486C33.3402 10.1443 32.8417 10.3913 32.146 10.4482C32.134 10.4493 32.1221 10.4493 32.1081 10.4493C31.9447 10.2556 31.514 10.1187 30.9777 10.0816ZM32.4849 9.3914C32.9693 9.27192 33.2923 9.07358 33.3262 8.86478C33.998 8.82186 34.5961 8.97496 34.6739 9.2174C34.7516 9.45984 34.2812 9.69881 33.6173 9.76377C33.4559 9.56657 33.0231 9.42852 32.4849 9.3914ZM33.9004 8.71164C34.3888 8.591 34.7118 8.3915 34.7417 8.18038C34.7536 8.17922 34.7636 8.17687 34.7776 8.17571C35.4733 8.12003 36.1014 8.2755 36.1831 8.5249C36.2628 8.7743 35.7644 9.02137 35.0686 9.07821C35.0567 9.07937 35.0447 9.07938 35.0308 9.07938C34.8673 8.88682 34.4366 8.74876 33.9004 8.71164ZM35.4075 8.02144C35.8919 7.90196 36.2149 7.70362 36.2488 7.49482C36.2667 7.4925 36.2848 7.49017 36.3027 7.48785C36.9985 7.43217 37.6264 7.58877 37.7081 7.83817C37.7879 8.08757 37.2895 8.33464 36.5938 8.39148C36.5758 8.39264 36.5578 8.39265 36.5399 8.39381C36.3784 8.19777 35.9478 8.05972 35.4075 8.02144ZM36.9346 7.33357C37.423 7.21293 37.7461 7.0134 37.776 6.80228C37.788 6.80112 37.7978 6.79881 37.8118 6.79765C38.5076 6.74197 39.1376 6.89857 39.2173 7.14797C39.2971 7.39737 38.7987 7.64444 38.103 7.70128C38.091 7.70244 38.079 7.70244 38.065 7.70244C37.9015 7.50756 37.4709 7.37069 36.9346 7.33357ZM37.4191 5.6968C37.4311 5.69564 37.4411 5.69332 37.455 5.69216C38.1508 5.63648 38.7787 5.79192 38.8604 6.04132C38.9402 6.29072 38.4419 6.53782 37.7461 6.59466C37.7341 6.59582 37.7221 6.59579 37.7081 6.59579C37.5446 6.40207 37.1141 6.2652 36.5778 6.22692C37.0663 6.10744 37.3892 5.90792 37.4191 5.6968ZM35.5371 5.28502C35.555 5.2827 35.5731 5.28037 35.591 5.27805C36.2868 5.22237 36.9147 5.37896 36.9964 5.6272C37.0762 5.8766 36.5778 6.12371 35.8821 6.18055C35.8641 6.18171 35.8461 6.18169 35.8282 6.18285C35.6667 5.98797 35.2341 5.84992 34.6958 5.81164C35.1802 5.69216 35.5032 5.49382 35.5371 5.28502ZM33.6711 4.86624C33.6831 4.86508 33.6931 4.86276 33.707 4.8616C34.4028 4.80592 35.0308 4.96251 35.1125 5.21075C35.1923 5.46015 34.6938 5.70726 33.9981 5.7641C33.9861 5.76526 33.9741 5.76526 33.9622 5.76526C33.7987 5.57154 33.3681 5.43464 32.8318 5.39636C33.3182 5.27688 33.6412 5.07736 33.6711 4.86624ZM31.9008 4.44402C32.5726 4.4011 33.1707 4.5542 33.2484 4.79664C33.3262 5.03908 32.8557 5.27805 32.1919 5.34301C32.0284 5.14813 31.5978 5.01008 31.0595 4.9718C31.5439 4.85116 31.8649 4.65398 31.9008 4.44402ZM30.0347 4.02526C30.0467 4.0241 30.0586 4.02176 30.0706 4.02176C30.7664 3.96608 31.3964 4.12151 31.4761 4.37091C31.5559 4.62031 31.0574 4.86742 30.3617 4.92426C30.3497 4.92542 30.3378 4.92543 30.3238 4.92543C30.1603 4.7317 29.7297 4.5948 29.1934 4.55652C29.6818 4.43588 30.0048 4.23638 30.0347 4.02526ZM28.402 3.59837C29.016 3.58329 29.5384 3.73176 29.6102 3.9568C29.6819 4.18184 29.2811 4.40456 28.689 4.48692C28.5236 4.29436 28.095 4.15866 27.5587 4.12038C28.0432 4.0009 28.3641 3.80601 28.402 3.59837ZM26.538 3.17381C26.5499 3.17265 26.5619 3.17034 26.5739 3.16918C27.2696 3.1135 27.8977 3.26893 27.9794 3.51833C28.0591 3.76773 27.5607 4.0148 26.8649 4.07164C26.853 4.0728 26.841 4.07281 26.8271 4.07281C26.6636 3.87909 26.233 3.74221 25.6967 3.70393C26.1851 3.58445 26.5081 3.38493 26.538 3.17381ZM24.7657 2.75273C25.4375 2.70981 26.0356 2.86294 26.1133 3.10422C26.1911 3.34666 25.7206 3.58563 25.0567 3.65059C24.8953 3.45571 24.4627 3.31766 23.9244 3.27938C24.4088 3.1599 24.7318 2.96269 24.7657 2.75273ZM23.2584 3.43829C23.2704 3.43713 23.2824 3.43482 23.2943 3.43482C23.9901 3.37914 24.6181 3.53457 24.6999 3.78397C24.7796 4.03337 24.2812 4.28044 23.5854 4.33728C23.5734 4.33844 23.5615 4.33845 23.5475 4.33845C23.3841 4.14473 22.9534 4.00786 22.4171 3.96958C22.9056 3.84894 23.2285 3.65057 23.2584 3.43829ZM21.3745 3.02648C21.3924 3.02416 21.4104 3.02187 21.4284 3.02071C22.1241 2.96503 22.752 3.12162 22.8338 3.36986C22.9135 3.61926 22.4152 3.86633 21.7194 3.92317C21.7015 3.92433 21.6835 3.92435 21.6655 3.92551C21.504 3.73063 21.0714 3.59258 20.5332 3.5543C21.0196 3.43366 21.3406 3.23644 21.3745 3.02648ZM19.5104 2.60773C19.5224 2.60657 19.5344 2.60425 19.5463 2.60309C20.2421 2.54741 20.8701 2.704 20.9519 2.95224C21.0316 3.20164 20.5332 3.44875 19.8374 3.50559C19.8254 3.50675 19.8135 3.50672 19.7995 3.50672C19.6361 3.313 19.2054 3.17613 18.6691 3.13785C19.1576 3.01837 19.4805 2.81885 19.5104 2.60773ZM18.095 3.29095C18.7669 3.24803 19.3649 3.40117 19.4427 3.64361C19.5204 3.88605 19.05 4.12502 18.3861 4.18998C18.2246 3.9951 17.792 3.85705 17.2537 3.81877C17.7382 3.69813 18.0612 3.50091 18.095 3.29095ZM16.231 2.8722C16.243 2.87104 16.255 2.86872 16.2669 2.86756C16.9627 2.81188 17.5906 2.96732 17.6723 3.21672C17.7521 3.46612 17.2537 3.71322 16.558 3.77006C16.546 3.77122 16.534 3.7712 16.5221 3.7712C16.3586 3.57748 15.9279 3.4406 15.3917 3.40232C15.8781 3.28284 16.2011 3.08332 16.231 2.8722ZM14.9551 3.54966C15.5691 3.53458 16.0915 3.68305 16.1632 3.90809C16.235 4.13313 15.8342 4.35585 15.2421 4.43821C15.0767 4.24565 14.648 4.10876 14.1117 4.07164C14.5942 3.95332 14.9172 3.7573 14.9551 3.54966ZM13.0911 3.12624C13.103 3.12508 13.115 3.12277 13.1269 3.12277C13.8227 3.06709 14.4506 3.22252 14.5324 3.47192C14.6121 3.72132 14.1138 3.96842 13.418 4.02526C13.406 4.02642 13.3941 4.0264 13.3802 4.0264C13.2167 3.83268 12.786 3.6958 12.2498 3.65752C12.7362 3.53688 13.0592 3.33736 13.0911 3.12624ZM11.6755 3.8095C12.3474 3.76658 12.9455 3.91968 13.0233 4.16212C13.101 4.40456 12.6305 4.64353 11.9666 4.70849C11.8051 4.51361 11.3725 4.37556 10.8342 4.33728C11.3187 4.21664 11.6397 4.01946 11.6755 3.8095ZM9.80957 3.39071C9.82154 3.38955 9.83152 3.38723 9.84547 3.38607C10.5412 3.33039 11.1691 3.48702 11.2509 3.73526C11.3306 3.98466 10.8323 4.23173 10.1365 4.28857C10.1246 4.28973 10.1126 4.28974 10.1006 4.28974C9.93716 4.09602 9.5065 3.95911 8.97022 3.92083C9.45667 3.80135 9.77967 3.60183 9.80957 3.39071ZM8.57549 4.98107C8.41401 4.78619 7.98141 4.64702 7.44313 4.6099C7.92758 4.49042 8.25054 4.29205 8.28443 4.08325C8.30237 4.08093 8.32027 4.0786 8.33821 4.07744C9.03399 4.02176 9.66201 4.17836 9.74374 4.4266C9.82349 4.676 9.32505 4.9231 8.62927 4.97994C8.61133 4.9811 8.59343 4.98107 8.57549 4.98107ZM10.4575 5.39522C10.294 5.2015 9.86339 5.0646 9.32711 5.02632C9.81555 4.90568 10.1385 4.70618 10.1684 4.49506C10.1804 4.4939 10.1923 4.49159 10.2043 4.49042C10.9001 4.43475 11.5281 4.59134 11.6098 4.83958C11.6896 5.08898 11.1911 5.33605 10.4954 5.39289C10.4814 5.39521 10.4695 5.39522 10.4575 5.39522ZM11.1892 5.4416C11.6736 5.32096 11.9966 5.12378 12.0305 4.91498C12.7023 4.87206 13.3003 5.02517 13.3781 5.26761C13.4559 5.51005 12.9854 5.74901 12.3215 5.81397C12.1601 5.61793 11.7295 5.47872 11.1892 5.4416ZM11.546 6.54591C12.0304 6.42643 12.3534 6.2281 12.3873 6.0193C13.0591 5.97638 13.6572 6.12948 13.735 6.37192C13.8127 6.61436 13.3422 6.85333 12.6783 6.91829C12.5168 6.72225 12.0842 6.58419 11.546 6.54591ZM11.9028 7.6514C12.3873 7.53076 12.7103 7.33358 12.7441 7.12478C13.416 7.08186 14.0141 7.23496 14.0919 7.47624C14.1696 7.71868 13.6991 7.95765 13.0352 8.02261C12.8737 7.82657 12.4411 7.68852 11.9028 7.6514ZM13.6751 8.07712C14.1636 7.95648 14.4865 7.75695 14.5164 7.54583C14.5284 7.54467 14.5404 7.54236 14.5523 7.5412C15.2481 7.48552 15.8761 7.64214 15.9578 7.89038C16.0376 8.13978 15.5391 8.38685 14.8434 8.44369C14.8314 8.44485 14.8194 8.44486 14.8075 8.44486C14.642 8.25114 14.2114 8.11424 13.6751 8.07712ZM14.032 9.18144C14.5204 9.0608 14.8434 8.8613 14.8733 8.65018C14.8853 8.64902 14.8972 8.64668 14.9092 8.64668C15.605 8.591 16.233 8.74643 16.3147 8.99583C16.3945 9.24523 15.896 9.49234 15.2003 9.54918C15.1883 9.55034 15.1763 9.55034 15.1644 9.55034C14.9989 9.35662 14.5683 9.21856 14.032 9.18144ZM14.3889 10.2858C14.8773 10.1651 15.2003 9.96562 15.2302 9.7545C15.2422 9.75334 15.2521 9.75102 15.2661 9.74986C15.9619 9.69418 16.5899 9.85078 16.6716 10.099C16.7514 10.3484 16.2529 10.5955 15.5572 10.6523C15.5452 10.6535 15.5333 10.6535 15.5193 10.6535C15.3558 10.4609 14.9252 10.324 14.3889 10.2858ZM15.5871 10.86C15.599 10.8588 15.609 10.8565 15.623 10.8553C16.3188 10.7997 16.9467 10.9563 17.0284 11.2045C17.1081 11.4539 16.6098 11.701 15.914 11.7578C15.9021 11.759 15.89 11.759 15.8761 11.759C15.7126 11.5653 15.2821 11.4284 14.7458 11.3901C15.2342 11.2706 15.5552 11.0711 15.5871 10.86ZM13.3303 12.0699C13.8147 11.9504 14.1377 11.752 14.1716 11.5432C14.8434 11.5003 15.4416 11.6534 15.5193 11.8958C15.5971 12.1383 15.1265 12.3772 14.4626 12.4422C14.2992 12.2462 13.8686 12.1081 13.3303 12.0699ZM14.8195 13.5465C14.658 13.3516 14.2254 13.2136 13.6872 13.1753C14.1716 13.0559 14.4946 12.8575 14.5285 12.6487C15.2003 12.6058 15.7983 12.7589 15.8761 13.0013C15.9538 13.2426 15.4834 13.4816 14.8195 13.5465ZM16.233 12.8645C16.0695 12.6707 15.6388 12.5339 15.1026 12.4956C15.591 12.3749 15.9139 12.1754 15.9439 11.9643C15.9558 11.9631 15.9658 11.9608 15.9797 11.9597C16.6755 11.904 17.3055 12.0606 17.3853 12.3088C17.465 12.5582 16.9666 12.8053 16.2708 12.8621C16.2569 12.8644 16.2449 12.8645 16.233 12.8645ZM16.9666 12.9108C17.447 12.7914 17.77 12.5965 17.8079 12.3889C18.4219 12.3738 18.9443 12.5222 19.016 12.7473C19.0878 12.9723 18.6871 13.195 18.095 13.2774C17.9296 13.0837 17.5009 12.948 16.9666 12.9108ZM19.7677 13.7147C19.7557 13.7159 19.7438 13.7159 19.7298 13.7159C19.5663 13.5222 19.1357 13.3853 18.5994 13.347C19.0878 13.2264 19.4108 13.0268 19.4407 12.8157C19.4527 12.8146 19.4646 12.8122 19.4766 12.8111C20.1724 12.7554 20.8004 12.912 20.8821 13.1603C20.9619 13.4108 20.4634 13.6579 19.7677 13.7147ZM20.1065 12.6568C20.591 12.5373 20.914 12.339 20.9478 12.1302C21.6197 12.0873 22.2178 12.2404 22.2956 12.4828C22.3733 12.7252 21.9028 12.9642 21.2389 13.0292C21.0774 12.8331 20.6448 12.6951 20.1065 12.6568ZM23.0472 13.4503C23.0352 13.4514 23.0232 13.4514 23.0092 13.4514C22.8458 13.2577 22.4152 13.1208 21.8789 13.0825C22.3674 12.9619 22.6903 12.7624 22.7202 12.5512C22.7322 12.5501 22.7421 12.5478 22.756 12.5466C23.4518 12.4909 24.0798 12.6475 24.1615 12.8958C24.2413 13.1463 23.743 13.3934 23.0472 13.4503ZM24.5743 12.7612C24.5563 12.7624 24.5383 12.7624 24.5204 12.7635C24.3589 12.5687 23.9263 12.4294 23.388 12.3923C23.8725 12.2728 24.1954 12.0745 24.2293 11.8657C24.2473 11.8634 24.2653 11.8611 24.2832 11.8587C24.979 11.8031 25.6069 11.9596 25.6886 12.2079C25.7684 12.4573 25.2701 12.7055 24.5743 12.7612ZM26.0436 12.0733C25.8801 11.8796 25.4494 11.7427 24.9132 11.7045C25.4016 11.5838 25.7246 11.3843 25.7545 11.1732C25.7664 11.172 25.7764 11.1697 25.7904 11.1685C26.4861 11.1129 27.1142 11.2694 27.1959 11.5177C27.2756 11.7671 26.7772 12.0142 26.0814 12.071C26.0695 12.0722 26.0555 12.0722 26.0436 12.0733ZM27.9095 12.4898C27.7481 12.2949 27.3155 12.1569 26.7772 12.1186C27.2616 11.9991 27.5846 11.8007 27.6185 11.5919C28.2903 11.549 28.8885 11.7021 28.9662 11.9446C29.046 12.1859 28.5754 12.4248 27.9095 12.4898ZM29.3251 11.8077C29.1616 11.614 28.7309 11.4771 28.1946 11.4388C28.6831 11.3182 29.006 11.1186 29.0359 10.9075C29.0479 10.9064 29.0579 10.904 29.0718 10.9029C29.7676 10.8472 30.3956 11.0026 30.4774 11.252C30.5571 11.5014 30.0587 11.7485 29.3629 11.8054C29.3489 11.8077 29.337 11.8077 29.3251 11.8077ZM31.187 12.2207C31.0215 12.0281 30.593 11.8924 30.0567 11.8541C30.5372 11.7346 30.8601 11.5397 30.898 11.3321C31.5121 11.317 32.0343 11.4655 32.1061 11.6905C32.1798 11.9156 31.7791 12.1383 31.187 12.2207ZM32.5008 11.5537C32.4888 11.5548 32.477 11.5548 32.465 11.5548C32.3015 11.3611 31.8709 11.2242 31.3346 11.1859C31.823 11.0653 32.146 10.8658 32.1759 10.6547C32.1879 10.6535 32.1998 10.6512 32.2118 10.65C32.9076 10.5943 33.5356 10.7498 33.6173 10.9992C33.6971 11.2497 33.1966 11.4968 32.5008 11.5537ZM33.9741 10.8669C33.8126 10.672 33.38 10.534 32.8417 10.4957C33.3262 10.3751 33.6492 10.1779 33.683 9.9691C34.3549 9.92618 34.953 10.0793 35.0308 10.3217C35.1085 10.563 34.638 10.802 33.9741 10.8669ZM35.4255 10.1837C35.4135 10.1849 35.4016 10.1849 35.3877 10.1849C35.2242 9.99114 34.7935 9.85423 34.2573 9.81595C34.7457 9.69531 35.0687 9.49582 35.0986 9.2847C35.1105 9.28354 35.1205 9.28122 35.1345 9.28006C35.8302 9.22438 36.4601 9.38098 36.5399 9.62922C36.6196 9.87978 36.1213 10.128 35.4255 10.1837ZM36.9526 9.49579C36.9347 9.49695 36.9168 9.49697 36.8988 9.49813C36.7373 9.30325 36.3046 9.16404 35.7663 9.12692C36.2508 9.00628 36.5739 8.8091 36.6078 8.6003C36.6257 8.59798 36.6436 8.59566 36.6615 8.5945C37.3573 8.53882 37.9853 8.69425 38.0671 8.94365C38.1468 9.19189 37.6484 9.43895 36.9526 9.49579ZM38.4597 8.80563C38.4478 8.80679 38.4358 8.80676 38.4238 8.80676C38.2604 8.61304 37.8298 8.47617 37.2936 8.43789C37.782 8.31725 38.1049 8.11772 38.1348 7.9066C38.1468 7.90544 38.1588 7.90312 38.1707 7.90196C38.8665 7.84628 39.4944 8.00171 39.5762 8.25111C39.6539 8.50167 39.1555 8.74879 38.4597 8.80563ZM38.7987 7.74769C39.2832 7.62821 39.6061 7.42983 39.64 7.22103C40.3119 7.17811 40.9099 7.33125 40.9876 7.57369C41.0654 7.81613 40.595 8.0551 39.9311 8.12006C39.7696 7.92402 39.339 7.78597 38.7987 7.74769ZM41.7393 8.53998C41.7273 8.54114 41.7153 8.54111 41.7034 8.54111C41.5399 8.34739 41.1092 8.21052 40.573 8.17224C41.0614 8.0516 41.3844 7.85207 41.4143 7.64095C41.4262 7.63979 41.4382 7.63748 41.4502 7.63632C42.1459 7.58064 42.7759 7.73727 42.8557 7.98551C42.9334 8.23723 42.435 8.4843 41.7393 8.53998ZM43.2086 7.84978C43.0431 7.65722 42.6145 7.52033 42.0802 7.48321C42.5607 7.36373 42.8836 7.16884 42.9215 6.96119C43.5355 6.94612 44.0578 7.09462 44.1296 7.31966C44.2013 7.5447 43.8007 7.76742 43.2086 7.84978Z" fill="#B7CCCE"/>
<path d="M8.24591 5.04101C8.21002 5.02941 8.17011 5.0213 8.12824 5.01318C10.3013 5.8913 12.0935 7.56519 12.7454 9.58359C13.174 10.9118 13.0365 12.1739 12.4643 13.219C12.7275 13.226 12.9767 13.1889 13.0405 13.0868C14.6792 10.4698 13.3037 6.60933 8.24591 5.04101Z" fill="#657577"/>
<path d="M8.35905 5.66957C8.33114 5.65913 8.29925 5.651 8.26535 5.64404C9.96989 6.45836 11.2837 7.99768 11.6246 9.84324C11.8499 11.0578 11.6146 12.2073 11.0425 13.1574C11.2578 13.1655 11.4671 13.1341 11.5289 13.0402C13.1318 10.6622 12.3722 7.13233 8.35905 5.66957Z" fill="#657577"/>
<path opacity="0.47" d="M54.605 9.03606C53.2653 7.15918 52.7211 5.16515 53.8954 3.29639C51.6426 3.51679 49.627 3.88683 48.0201 4.34619C47.6334 4.64199 47.2745 4.94476 46.9556 5.25796C46.8579 5.35308 46.497 5.91684 46.2598 6.01892C45.7733 6.22772 45.2291 6.29267 44.6749 6.27643C44.7008 6.48059 44.7446 6.68591 44.8124 6.89239C44.932 7.26011 45.1154 7.61509 45.3527 7.95497C47.2865 8.38649 49.5332 8.60222 51.469 9.0407C52.4599 9.07898 53.5125 9.07782 54.605 9.03606Z" fill="#B7CCCE"/>
<path opacity="0.47" d="M53.3358 4.66357C50.5368 4.92109 48.1125 5.35375 46.4757 5.85023C46.4 5.92795 46.3262 5.99061 46.2624 6.01845C45.9833 6.13909 45.6823 6.20753 45.3733 6.24349C45.1201 6.35253 44.9108 6.46274 44.7434 6.5741C44.7673 6.67966 44.7791 6.7852 44.815 6.89192C44.9307 7.25152 45.1101 7.59722 45.3393 7.92898C45.4629 7.9661 45.6005 8.0009 45.7441 8.03454C45.9933 8.08558 46.2465 8.13427 46.5037 8.18067C48.3219 8.47183 51.081 8.55071 54.1612 8.35583C53.4335 7.14131 53.0786 5.88853 53.3358 4.66357Z" fill="#B7CCCE"/>
</svg>
