<svg width="157" height="125" viewBox="0 0 157 125" fill="none" xmlns="http://www.w3.org/2000/svg">
<path d="M111.261 44.091C111.395 42.2506 110.852 40.2978 109.715 38.529C108.702 36.9523 107.252 35.5533 105.745 34.2373C104.025 32.7359 102.211 31.3207 100.319 30.003C98.9822 29.0714 97.5877 28.1792 96.0376 27.5823C94.5304 27.0023 92.9316 26.7222 91.3619 26.449C88.6969 25.9858 86.0616 25.5275 83.4557 25.0739C81.9313 24.8087 80.3655 24.5452 78.9348 24.8058C77.6603 25.0379 76.588 25.676 75.7373 26.4526L75.9516 27.9773C75.8834 29.0319 76.6278 30.2141 77.1227 31.6111C77.5672 32.8668 78.8646 33.887 80.2592 34.5445C81.6622 35.2058 83.1965 35.5758 84.69 36.0705C85.6804 36.3988 86.6762 36.7935 87.5069 37.397C89.0435 38.513 89.7894 40.1567 90.542 41.6972C91.2965 43.242 92.2524 44.8947 93.9958 45.8296C96.14 46.9799 98.7418 46.6713 101.145 47.3295C102.712 47.759 104.21 48.606 105.817 48.7751C107.409 48.9425 108.889 48.3869 109.818 47.4813C110.751 46.5731 111.17 45.3485 111.261 44.091Z" fill="#B1E2E5"/>
<path d="M109.377 42.1727C109.492 40.5759 109.023 38.8844 108.04 37.3533C107.164 35.9879 105.91 34.7759 104.605 33.636C103.115 32.3339 101.542 31.1054 99.9002 29.9612C98.7388 29.1514 97.5266 28.3751 96.1783 27.8558C94.866 27.3501 93.473 27.1055 92.1038 26.8669C89.7768 26.4608 87.473 26.0591 85.1909 25.6606C83.8544 25.4272 82.4811 25.195 81.2245 25.4213C80.1041 25.6229 79.1609 26.1792 78.4126 26.8583L78.6005 28.1925C78.5402 29.1154 79.1941 30.149 79.6289 31.3715C80.0194 32.4695 81.159 33.3611 82.384 33.9339C83.6151 34.51 84.9607 34.8312 86.2695 35.2613C87.1364 35.5461 88.0083 35.8892 88.735 36.4142C90.078 37.385 90.7298 38.8162 91.3866 40.1578C92.0451 41.5028 92.8791 42.94 94.3993 43.7486C96.2678 44.7422 98.5309 44.4628 100.62 45.0256C101.98 45.3921 103.279 46.1222 104.672 46.2617C106.051 46.3996 107.331 45.9112 108.133 45.1211C108.938 44.3274 109.299 43.2638 109.377 42.1727Z" fill="#92CACC"/>
<path d="M69.3433 82.3506C73.2687 80.155 78.5453 79.0102 80.8408 75.2837C82.1716 73.1234 82.2796 70.3871 83.0978 67.9508C83.7528 66.0005 84.8631 64.2413 86.0317 62.5197C87.9805 59.6481 90.11 56.841 92.4182 54.1049C93.4566 52.8741 94.5383 51.6478 95.2615 50.2293C96.5213 47.7582 96.621 44.8504 96.3827 41.9818C96.3043 41.0414 96.201 40.0531 96.6642 39.2523C97.1057 38.4899 98.0579 37.8685 97.88 36.969C95.2498 39.6793 95.4054 43.8088 93.0779 46.6396C91.9789 47.9754 90.3601 48.973 89.5573 50.4519C88.7659 51.9104 88.8491 53.6872 88.4289 55.286C87.8435 57.516 86.3041 59.3257 84.9903 61.1966C81.8156 65.7175 79.84 70.8339 76.8542 75.2867C75.7946 76.8671 74.5997 78.3684 73.0393 79.531C70.7203 81.2589 67.6786 82.1784 65.4875 83.9359C61.677 86.992 60.8729 92.175 60.2219 97.052L60.9595 97.686C60.6431 91.2186 63.7464 85.4803 69.3433 82.3506Z" fill="#69A8B2"/>
<path d="M87.1374 41.9451C87.8955 40.3464 89.5263 39.2162 90.604 37.7558C91.687 36.2879 92.0652 34.1008 90.4493 32.6702C91.1839 35.0056 89.935 37.2189 88.4755 39.0353C87.0264 40.839 85.3001 42.5572 84.8811 44.7718C84.5374 46.5901 85.1105 48.5507 85.3344 50.4638C85.8464 48.9564 86.2023 47.388 86.3859 45.7787C86.5338 44.4741 86.5787 43.1234 87.1374 41.9451Z" fill="#69A8B2"/>
<path d="M82.1691 59.8622C84.5492 57.5357 85.7347 54.278 85.4321 50.8578C85.4202 50.7268 85.4021 50.5948 85.3868 50.463C84.8416 52.0669 84.1202 53.5991 83.2252 55.0295L82.1691 59.8622Z" fill="#69A8B2"/>
<path d="M80.3974 64.0525C81.0901 63.2469 81.4198 62.2524 81.6248 61.1932C80.8976 62.4043 80.1466 63.5958 79.343 64.7501L80.3974 64.0525Z" fill="#69A8B2"/>
<path d="M84.6827 53.0947C84.6094 53.7504 83.9955 54.1771 83.5341 54.6537C81.9003 56.3374 82.0462 58.9114 81.6055 61.1934C81.9248 60.6626 82.2515 60.1347 82.5555 59.5934C83.6734 57.6003 84.7029 55.4762 84.6827 53.0947Z" fill="#69A8B2"/>
<path d="M75.5416 106.813C76.3207 105.317 77.1079 103.803 77.4682 102.087C77.6917 101.023 77.7488 99.8905 78.0786 98.8684C79.0308 95.9163 82.1216 94.2162 83.8081 91.5948C85.4079 89.1083 85.6699 85.9096 87.0692 83.2649C89.4244 78.8141 95.0621 75.7002 94.7333 70.2425C94.6433 68.7487 94.0853 67.2019 94.1128 65.7276C94.166 62.9009 96.3244 60.7677 98.1494 58.6046C100.211 56.1604 101.934 53.4678 103.271 50.5865C104.819 47.2498 105.82 43.3802 103.994 39.6824C103.958 42.4544 103.471 45.161 102.552 47.7069C101.281 51.2291 99.2105 54.39 97.3359 57.5856C94.045 63.1959 91.3208 68.9792 88.6377 74.6768C87.9742 76.0865 87.3105 77.4954 86.8979 79.0026C86.4777 80.5357 86.3172 82.1688 85.7187 83.6176C84.2275 87.2278 80.1829 89.3607 79.1846 93.1055C78.8169 94.4841 77.493 94.8873 77.3954 96.354C77.0113 102.123 74.3817 103.927 71.5704 108.456L71.3707 108.331C70.2172 110.446 69.5678 112.835 68.926 115.202C68.1104 118.21 67.2993 121.202 66.4922 124.18C69.4607 118.486 72.476 112.698 75.5416 106.813Z" fill="#69A8B2"/>
<path d="M73.0555 62.2908C68.9415 65.8492 67.0517 71.2031 67.8885 76.8116C68.0111 73.1185 70.5901 70.3245 73.1315 67.7297C75.5973 65.2121 78.4052 60.1941 78.8656 56.4391C79.9522 54.1369 80.0922 51.2838 79.9377 48.57C79.7021 44.4359 79.042 40.0517 80.9849 36.5015C81.9289 34.777 83.4541 33.3301 84.248 31.5174C80.8213 33.7899 78.7014 37.1912 77.7922 40.85C76.8878 44.4889 77.1144 48.4143 77.9152 52.2985C78.2083 53.7219 78.5615 55.1653 78.5078 56.5512L77.2816 58.337L76.3176 59.475C76.4054 59.4157 76.483 59.3492 76.5667 59.2868C75.5343 60.407 74.2139 61.2888 73.0555 62.2908Z" fill="#69A8B2"/>
<path d="M85.0076 61.2003C81.8333 65.7208 79.8578 70.8367 76.8724 75.2891C75.8129 76.8694 74.6181 78.3706 73.0579 79.5331C70.7391 81.2608 67.6977 82.1802 65.5069 83.9376C61.6967 86.9934 60.8927 92.1759 60.2419 97.0525L60.9793 97.6865C60.662 91.2196 63.766 85.4819 69.3613 82.3523C73.2863 80.1569 78.5624 79.0123 80.8576 75.2861C82.1883 73.126 82.2963 70.3899 83.1144 67.9539C83.7693 66.0038 84.8795 64.2447 86.048 62.5232C87.9966 59.6518 90.1259 56.845 92.4338 54.1092C93.1285 53.2857 93.8341 52.4594 94.4474 51.5801C92.6791 51.5448 90.8923 51.5898 89.0963 51.7105C88.7927 52.8704 88.7505 54.1271 88.4454 55.2897C87.86 57.5196 86.3213 59.3295 85.0076 61.2003Z" fill="#75BEC6"/>
<path d="M83.2281 55.0348C81.9337 56.7099 82.0114 59.074 81.6016 61.1943C81.9209 60.6635 82.2476 60.1356 82.5517 59.5943C82.6191 59.4738 82.6845 59.3513 82.7514 59.2294C84.4821 57.2502 85.4462 54.7269 85.4798 52.0388C85.2327 52.0689 84.9879 52.0935 84.7408 52.1269C84.3075 53.1309 83.8087 54.1037 83.2285 55.0301L83.2281 55.0348Z" fill="#75BEC6"/>
<path d="M80.3984 64.0515C81.0911 63.2459 81.4209 62.2514 81.6259 61.1923C80.8986 62.4034 80.1476 63.5949 79.344 64.7491L80.3984 64.0515Z" fill="#75BEC6"/>
<path d="M88.6604 74.6845C87.997 76.0941 87.3334 77.5028 86.9208 79.0099C86.5007 80.5427 86.3403 82.1756 85.7419 83.6243C84.2509 87.234 80.2069 89.3666 79.2088 93.111C78.8411 94.4894 77.5173 94.8924 77.4198 96.359C77.0357 102.127 74.4065 103.931 71.5957 108.459L71.396 108.334C70.2426 110.449 69.5934 112.838 68.9517 115.205C68.1362 118.212 67.3252 121.204 66.5182 124.182C69.4847 118.487 72.5 112.699 75.5647 106.815C76.3436 105.32 77.1308 103.805 77.491 102.09C77.7144 101.026 77.7716 99.8935 78.1013 98.8715C79.0533 95.9198 82.1438 94.22 83.83 91.5988C85.4296 89.1127 85.6915 85.9144 87.0906 83.2701C89.4455 78.8198 95.0823 75.7063 94.7536 70.2493C94.6635 68.7557 94.1056 67.2091 94.1331 65.735C94.1863 62.9087 96.3444 60.7757 98.1691 58.6129C99.8072 56.6707 101.221 54.5667 102.408 52.3392C101.8 52.2392 101.189 52.1487 100.574 52.0693C99.5595 53.9493 98.4279 55.7667 97.3563 57.5945C94.0663 63.2046 91.3431 68.9877 88.6604 74.6845Z" fill="#75BEC6"/>
<path d="M78.5442 56.56L77.3185 58.3451L76.355 59.4827C76.4427 59.4234 76.5203 59.3569 76.604 59.2945C75.5726 60.4148 74.2528 61.2963 73.0954 62.2974C68.9833 65.8544 67.0943 71.2061 67.9307 76.8125C68.0532 73.1208 70.6311 70.3279 73.1713 67.7341C75.636 65.2175 78.4426 60.2016 78.9028 56.448C79.4069 55.3793 79.7013 54.1884 79.8632 52.9491C79.2972 53.0682 78.7318 53.2024 78.1673 53.3358C78.3914 54.421 78.5851 55.5072 78.5442 56.56Z" fill="#75BEC6"/>
<path d="M114.059 43.4976C115.032 41.547 114.944 39.0851 113.35 37.0951C115.136 37.7813 117.172 36.9573 117.918 35.662C118.667 34.3617 118.421 32.7631 118.003 31.2637C116.363 25.3889 112.217 19.8181 106.526 15.7684C104.537 14.3528 102.381 13.1288 100.215 11.9642C98.4495 11.0149 96.6596 10.0958 94.7432 9.46307C91.4758 8.38363 87.8831 8.19134 84.7484 8.9946C81.6566 9.78738 79.0338 11.5634 77.6082 13.9197C76.8601 15.1556 76.5966 16.9665 78.0049 17.8757C76.0135 18.9803 74.6372 20.7827 74.2266 22.8093C73.8173 24.8303 75.452 26.8808 75.901 28.2355C76.0509 28.6879 76.4953 29.0594 77.0304 29.1692C77.5669 29.2796 78.1064 29.2137 78.6492 29.2562C81.4061 29.4704 83.2888 32.2109 86.0074 33.1018C87.5318 33.6014 89.1721 33.4686 90.7485 33.8553C92.3705 34.2529 93.8711 35.2198 94.7764 36.4552C95.631 37.6214 95.9816 39.0093 97.1202 40.0276C98.9781 41.6896 101.993 41.6545 104.563 42.419C105.012 42.5521 105.461 42.7172 105.841 42.9696C107.746 44.2311 107.068 46.9 109.091 48.0515C111.198 46.9131 113.092 45.4391 114.059 43.4976Z" fill="#B1E2E5"/>
<path d="M77.9776 17.8693C77.9249 17.8984 77.8772 17.934 77.8251 17.9636C83.7962 17.788 95.3978 20.1256 104.696 26.6897C109.549 30.1153 113.933 35.2395 113.361 37.1078C114.844 37.6773 116.487 37.2008 117.436 36.2835C114.757 31.9225 110.302 27.3172 104.549 23.2922C94.4397 16.2192 83.5078 13.1634 77.1344 14.9048C76.8039 15.9839 76.9137 17.1828 77.9776 17.8693Z" fill="#98D8D8"/>
<path d="M111.057 31.6232C103.569 23.1798 91.3662 17.8969 80.1247 17.9168L79.2563 18.0146C82.2283 20.3959 87.1186 19.8012 91.1076 20.7399C95.4748 21.7673 99.5938 23.8334 103.318 26.3152C107.097 28.834 109.969 32.5878 113.392 35.5578C113.133 34.1526 112.131 32.8337 111.057 31.6232Z" fill="#69A8B2"/>
<path d="M113.118 38.5923C113.053 37.8469 112.675 37.1039 112.058 36.4794C110.929 35.3371 109.704 34.191 108.392 33.0596C99.2926 25.2135 89.5537 21.0629 86.4027 23.5165C85.9358 23.8801 85.6366 24.3685 85.4935 24.9607C84.9738 27.1111 87.4302 29.1944 90.1471 29.1917C95.5748 29.1862 102.342 31.45 108.371 35.7811C110.136 37.0487 113.155 39.0017 113.118 38.5923Z" fill="#D5F5F7"/>
<path d="M102.753 16.7364C108.403 20.6305 112.633 24.9916 114.578 28.5858C114.909 28.7887 115.242 28.9906 115.58 29.1591C115.547 29.0213 115.511 28.8832 115.473 28.7469C114.172 24.0735 110.878 19.6389 106.34 16.4045C104.749 15.2705 103.023 14.2874 101.285 13.3507C99.8663 12.5856 98.426 11.844 96.8809 11.3304C95.066 10.7266 93.1236 10.4685 91.2583 10.5667C91.311 10.6371 91.3807 10.7036 91.4357 10.7737C94.9244 12.0341 98.8629 14.0556 102.753 16.7364Z" fill="#D5F5F7"/>
<path d="M106.317 29.6293C106.505 29.4541 105.626 28.5814 104.359 27.6841C103.097 26.7911 101.93 26.2121 101.746 26.3872C101.562 26.5617 102.428 27.425 103.685 28.3177C104.949 29.2147 106.13 29.8041 106.317 29.6293Z" fill="#69A8B2"/>
<path d="M101.148 25.7508C101.256 25.5948 100.796 25.1899 100.122 24.8468C99.4504 24.5049 98.8203 24.3545 98.7129 24.51C98.6059 24.6652 99.0621 25.0684 99.7326 25.4107C100.405 25.7537 101.04 25.9068 101.148 25.7508Z" fill="#69A8B2"/>
</svg>
