<svg width="183" height="290" viewBox="0 0 183 290" fill="none" xmlns="http://www.w3.org/2000/svg">
<path d="M29.3988 38.5601C30.6599 39.2903 33.6961 43.502 35.9325 47.156C36.8004 48.5753 36.1343 50.2145 34.3211 51.0795L26.827 54.6509C20.5543 49.6158 19.7996 42.2124 21.2338 41.4843C22.6704 40.7536 27.867 37.672 29.3988 38.5601Z" fill="#364849"/>
<path d="M38.4028 38.1439C38.6052 38.715 35.8505 42.4151 36.6034 48.6229L30.6879 44.8538C30.5439 43.2125 33.9307 37.4608 35.13 36.956C36.4689 36.3917 38.1109 37.3155 38.4028 38.1439Z" fill="#364849"/>
<path d="M29.52 32.932C29.7793 33.3866 31.5007 38.6223 32.1066 43.2249L27.6265 41.7327C27.6265 41.7327 26.1132 33.6352 26.7858 32.8705C27.4547 32.11 29.144 32.273 29.52 32.932Z" fill="#364849"/>
<path d="M23.6417 33.6538C24.2309 33.9303 25.8319 38.466 27.3098 42.9673L22.7332 41.8745C22.7332 41.8745 20.4667 35.0403 20.9626 34.2339C21.4559 33.4318 23.0569 33.3793 23.6417 33.6538Z" fill="#364849"/>
<path d="M22.4864 49.9519C17.4344 44.8827 16.7683 36.8552 17.2322 36.3353C17.6948 35.8171 19.3476 34.8117 19.7614 35.6331C20.1802 36.4644 21.1771 40.976 22.1089 41.8155C23.0545 42.6689 29.8759 47.6128 29.7853 47.7819C29.6938 47.95 22.4864 49.9519 22.4864 49.9519Z" fill="#364849"/>
<path d="M139.192 34.7432C147.955 36.5661 154.755 41.0347 156.79 48.1053C158.679 54.6751 156.514 59.4284 147.839 62.324C145.899 62.9718 148.811 63.1141 149.667 62.8282C157.991 60.0496 161.662 55.7255 160.336 48.9276C158.793 41.029 151.711 35.2873 142.067 33.2812C141.285 33.1182 138.213 34.5397 139.192 34.7432Z" fill="#384142"/>
<path d="M97.4917 33.6978C108.455 28.5345 133.44 32.5706 131.694 45.4131C131.618 45.966 134.866 45.7111 134.983 44.8448C136.062 36.904 126.236 32.5267 117.76 30.8847C109.971 29.3753 101.949 30.0866 94.9763 33.3712C93.5102 34.0619 96.7592 34.0432 97.4917 33.6978Z" fill="#384142"/>
<path d="M146.414 37.7753L143.921 37.3278L142.649 41.6302L145.143 42.0786L146.414 37.7753Z" fill="#384142"/>
<path d="M120.762 31.6081L118.296 31.0684L116.751 35.3199L119.216 35.8595L120.762 31.6081Z" fill="#384142"/>
<path d="M124.456 32.0489C122.904 34.066 119.649 34.7162 117.186 33.5008C114.723 32.2853 113.984 29.6644 115.535 27.6473C117.087 25.6302 120.341 24.9799 122.805 26.1954C125.268 27.41 126.008 30.0309 124.456 32.0489Z" fill="#5B6666"/>
<path d="M123.45 31.4625C122.475 32.7282 120.581 33.2088 119.22 32.5374C117.858 31.8659 117.544 30.2956 118.517 29.0299C119.492 27.7642 121.385 27.2835 122.747 27.955C124.109 28.6265 124.423 30.1968 123.45 31.4625Z" fill="#DBD2AF"/>
<path d="M122.388 31.9589C123.404 30.6385 123.075 29.0001 121.656 28.2996C121.002 27.9768 120.234 27.9194 119.492 28.0691C120.522 27.4809 121.816 27.3582 122.832 27.8593C124.252 28.5599 124.579 30.1982 123.564 31.5186C123.015 32.2313 122.185 32.6951 121.315 32.8702C121.726 32.6359 122.098 32.3357 122.388 31.9589Z" fill="#384142"/>
<path d="M121.176 30.7327C120.934 31.0481 120.463 31.1675 120.124 31.0003C119.785 30.8332 119.706 30.4423 119.949 30.1269C120.192 29.8115 120.662 29.6921 121.001 29.8592C121.34 30.0264 121.418 30.4181 121.176 30.7327Z" fill="#384142"/>
<path d="M89.4794 235.315C91.1372 232.762 92.4139 229.782 90.5626 226.975C88.7924 227.083 87.7163 227.953 87.6238 228.754C87.5165 229.678 89.1159 231.252 89.4794 235.315Z" fill="#364849"/>
<path d="M94.3455 234.693C92.0748 232.683 89.9827 230.177 90.6084 227.078C92.1485 226.752 93.3576 227.313 93.7068 228.047C94.1094 228.893 93.2807 230.767 94.3455 234.693Z" fill="#364849"/>
<path d="M130.123 210.835C125.695 211.314 121.977 210.629 119.367 208.128C121.495 207.411 123.434 206.269 124.56 206.471C125.861 206.703 126.399 208.484 130.123 210.835Z" fill="#364849"/>
<path d="M75.882 44.0012C59.0964 60.8824 51.0877 74.1829 51.0877 74.1829L50.5954 94.9322C50.5954 94.9322 80.3004 85.4223 87.7815 64.1036C91.8846 52.4117 85.1671 34.6627 75.882 44.0012Z" fill="#5E787A"/>
<path d="M86.7432 45.8418C85.4761 50.8196 80.7498 57.9042 73.5858 64.891C65.7795 72.5042 57.1343 77.9968 50.9626 79.6996L50.6009 94.9319C50.6009 94.9319 80.3424 85.4169 87.8326 64.0866C89.9305 58.1107 89.1969 50.5601 86.7432 45.8418Z" fill="#485E60"/>
<path d="M50.1961 94.6823C32.0771 82.3818 25.2942 51.7197 25.2942 51.7197L34.1045 46.1079C34.1045 46.1079 57.7776 63.9594 62.9477 74.2786C68.1188 84.5988 50.1961 94.6823 50.1961 94.6823Z" fill="#5E787A"/>
<path d="M64.7725 74.3248C64.6313 74.042 62.733 73.6932 62.5635 73.4005C62.2349 74.2819 61.6767 74.9975 60.8398 75.4819C56.0092 78.2823 44.2905 72.7479 34.667 63.1216C30.6276 59.0813 27.6157 54.9693 25.8183 51.3427L25.3 51.6722C25.3 51.6722 32.0976 82.3805 50.2555 94.7007C50.2555 94.7007 69.9537 84.6599 64.7725 74.3248Z" fill="#485E60"/>
<path d="M41.6694 50.0769L36.4942 43.9685L24.0921 50.286L26.432 59.8444L41.6694 50.0769Z" fill="#364849"/>
<path d="M96.2876 58.5377C96.0351 48.5773 90.7076 39.7367 84.3888 38.7913C78.0699 37.8459 73.153 45.1536 73.4056 55.1131C73.6581 65.0735 78.9856 73.9141 85.3044 74.8595C91.6233 75.8049 96.5402 68.4972 96.2876 58.5377Z" fill="#FFC85A"/>
<path d="M114.331 33.0838C105.389 31.6638 96.2728 36.0266 93.9696 42.8282L76.1786 95.3675C73.8754 102.169 79.2565 108.835 88.1985 110.255C97.1406 111.675 106.256 107.312 108.56 100.51L126.351 47.9712C128.654 41.1696 123.273 34.5039 114.331 33.0838Z" fill="#FFB64D"/>
<path d="M142.379 39.7471C133.46 38.3281 124.657 42.7127 122.714 49.5412L107.715 102.284C105.773 109.112 111.429 115.797 120.347 117.216C129.266 118.635 138.07 114.25 140.012 107.422L155.011 54.6796C156.953 47.8521 151.298 41.1661 142.379 39.7471Z" fill="#FFC85A"/>
<path d="M141.323 96.7696C132.491 95.3534 126.891 88.6819 128.814 81.8684L140.748 39.5922C132.371 38.772 124.388 43.0359 122.559 49.5185L107.703 102.145C105.78 108.959 111.38 115.629 120.211 117.045C129.043 118.462 137.761 114.087 139.685 107.273L142.606 96.9237C142.179 96.882 141.752 96.8377 141.323 96.7696Z" fill="#FFB64D"/>
<path d="M145.519 46.5762L138.639 71.2552C137.442 75.5502 139.781 79.7758 144.129 82.1009L151.008 57.4228C152.206 53.1269 149.867 48.9013 145.519 46.5762Z" fill="#FFDB76"/>
<path d="M143.588 94.7349L116.733 89.9575L115.334 94.6418L142.365 99.408C143.225 99.5593 144.08 99.103 144.236 98.4086L144.747 96.1305C144.89 95.4874 144.382 94.8756 143.588 94.7349Z" fill="#384142"/>
<path d="M152.661 64.5669L125.805 59.7904L124.407 64.4747L151.438 69.2408C152.298 69.3922 153.152 68.9359 153.308 68.2414L153.819 65.9633C153.963 65.3203 153.455 64.7085 152.661 64.5669Z" fill="#384142"/>
<path d="M42.756 163.874C42.9901 138.757 68.1034 98.3904 68.1034 98.3904C68.1034 98.3904 99.1881 99.2464 98.0328 112.381C96.8309 126.041 67.6557 162.646 67.6557 162.646C67.6557 162.646 100.349 198.297 123.143 210.57L123.052 211.979C95.8323 197.921 53.7994 186.241 42.756 163.874Z" fill="#556C70"/>
<path d="M67.9922 162.868C67.9922 162.868 97.1423 125.849 98.5111 112.115C99.1391 105.821 93.8117 102.748 86.73 100.88C78.0827 112.47 55.446 164.801 48.694 172.055C63.9125 189.512 98.4149 199.779 121.697 211.979L121.806 210.563C99.597 198.419 67.9922 162.868 67.9922 162.868Z" fill="#435B5E"/>
<path d="M124.972 209.157C130.45 210.135 162.457 217.228 165.955 250.095C165.955 250.095 149.172 250.738 139.068 258.905C139.068 258.905 140.898 218.245 125.068 211.997C117.088 208.848 123.731 208.935 124.972 209.157Z" fill="#3E4F4F"/>
<path d="M113.962 111.455C104.629 141.915 93.0732 168.88 93.0732 168.88C93.0732 168.88 91.542 206.304 91.1869 230.889L89.339 231.511C89.339 231.511 72.083 179.671 72.7009 160.023C73.0684 148.328 73.4267 123.693 82.0183 102.278C90.3423 81.5319 117.237 100.77 113.962 111.455Z" fill="#556C70"/>
<path d="M106.14 97.3638C96.5692 111.029 88.8932 138.749 86.8782 170.98C85.4187 194.326 87.2088 215.579 91.2757 231.011L91.6227 230.891C91.9731 206.334 93.4803 168.951 93.4803 168.951C93.4803 168.951 104.842 142.015 114.02 111.59C115.355 107.164 111.588 101.272 106.14 97.3638Z" fill="#435B5E"/>
<path d="M92.8386 227.958L90.2814 229.496C87.0529 254.33 99.1923 268.027 113.784 286.986C113.784 286.986 130.65 277.963 153.79 279.808C153.79 279.808 96.6378 246.46 92.8386 227.958Z" fill="#3E4F4F"/>
<path d="M130.191 48.4722C124.277 40.1892 81.994 37.6367 78.7134 44.1515C75.4793 50.5723 76.1446 83.1162 68.3576 98.0017C85.2497 98.5517 95.2841 99.9824 113.067 107.846C124.159 86.8199 135.957 56.5481 130.191 48.4722Z" fill="#556C70"/>
<path d="M88.6304 40.7715C83.1537 41.2344 79.0868 42.3487 78.1584 44.1954C77.102 46.2967 76.4632 51.2098 75.809 57.3777L78.2098 57.0321C78.3102 50.5032 83.8074 44.4657 88.6304 40.7715Z" fill="#485E60"/>
<path d="M74.8376 57.7323L75.4118 60.5864C100.123 59.4485 114.458 64.8211 114.458 64.8211L115.429 61.318C115.429 61.318 92.9651 56.6004 74.8376 57.7323Z" fill="#485E60"/>
<path d="M130.756 49.5636C129.75 48.8564 128.663 48.4224 127.497 48.3178C119.075 47.5633 109.869 63.7056 106.931 84.3722C105.865 91.8728 105.776 98.9329 106.492 104.928C108.691 105.79 110.989 106.751 113.449 107.851C124.044 87.5526 135.292 58.595 130.756 49.5636Z" fill="#435B5E"/>
<path d="M75.1173 55.993L75.6915 58.847C100.402 57.7092 114.738 63.0818 114.738 63.0818L115.709 59.5786C115.709 59.5786 93.2449 54.861 75.1173 55.993Z" fill="#FFC85A"/>
<path d="M72.8285 54.8947L75.6995 55.0158C76.1558 55.0354 76.5229 55.4119 76.5183 55.8563L76.4888 58.8536C76.4842 59.2963 76.1129 59.6398 75.6577 59.6203L72.7866 59.4992C72.3303 59.4797 71.9632 59.1031 71.9678 58.6596L71.9973 55.6623C72.0019 55.2188 72.3744 54.8753 72.8285 54.8947Z" fill="#323F3F"/>
<path d="M73.1929 55.7593L74.9095 55.8302C75.1822 55.8415 75.4004 56.0862 75.3973 56.3763L75.3716 58.3318C75.3675 58.621 75.1451 58.8458 74.8724 58.8345L73.1558 58.7636C72.8832 58.7523 72.665 58.5076 72.668 58.2175L72.6937 56.262C72.6989 55.9728 72.9214 55.748 73.1929 55.7593Z" fill="#FFB64D"/>
<path d="M73.6049 56.2529L74.6059 56.2942C74.7647 56.3007 74.8928 56.4087 74.8911 56.5345L74.8792 57.3858C74.8775 57.5116 74.7474 57.6079 74.5885 57.6014L73.5875 57.5601C73.4287 57.5536 73.3006 57.4456 73.3023 57.3198L73.3142 56.4685C73.3171 56.3428 73.4472 56.2465 73.6049 56.2529Z" fill="#323F3F"/>
<path d="M67.09 97.9001L64.9237 102.552C84.2485 100.459 111.739 114.798 111.739 114.798L113.468 108.707C107.364 106.077 84.557 96.8554 67.09 97.9001Z" fill="#435B5E"/>
<path d="M66.5243 96.7844L65.142 100.297C65.0082 100.638 65.3662 100.968 65.8255 100.933C86.1811 99.3883 114.335 112.405 114.335 112.405L116.141 106.31C109.913 103.756 87.2514 95.0278 69.092 95.3036C67.9061 95.3217 66.8681 95.9101 66.5243 96.7844Z" fill="#FFC85A"/>
<path d="M88.396 97.7123C89.6423 98.6278 90.8356 99.6247 91.9486 100.714C93.5495 102.281 94.8686 103.926 95.9464 105.597C106.427 108.774 114.359 112.409 114.359 112.409L116.159 106.382C112.053 104.713 100.791 100.381 88.396 97.7123Z" fill="#FFB64D"/>
<path d="M113.593 42.4852C107.038 33.8167 112.924 28.9608 114.238 22.5921L93.996 24.5658C93.996 24.5658 99.7923 31.8434 90.2322 41.0382C96.317 43.9068 103.329 44.6528 113.593 42.4852Z" fill="#415456"/>
<path d="M94.6481 37.008C85.7791 35.9904 80.6297 14.7517 83.6623 9.9129C87.7357 3.41431 110.295 0.0411621 113.965 12.3647C116.656 21.402 112.085 29.0945 106.061 33.3961C102.356 36.0412 98.1003 37.4045 94.6481 37.008Z" fill="#556C70"/>
<path d="M115.128 17.4721L107.082 19.8218L107.773 26.3696L114.059 23.9448C115.403 21.6149 115.128 17.4721 115.128 17.4721Z" fill="#384142"/>
<path d="M94.1901 35.6692C88.1415 34.8019 82.858 19.5244 84.2954 16.6502C86.0896 13.0611 97.8303 12.0554 101.68 19.0037C106.892 28.4091 100.265 36.5402 94.1901 35.6692Z" fill="#EDB984"/>
<path d="M96.0715 31.0902C97.9894 31.5873 99.6096 32.3248 100.737 33.1349C103.609 30.1078 104.885 24.8025 101.675 19.0114C97.8191 12.0533 86.0582 13.0604 84.2609 16.6546C83.3019 18.5717 85.3308 25.9952 88.5824 30.9986C90.2425 30.3329 93.1014 30.3189 96.0715 31.0902Z" fill="#E79B69"/>
<path d="M75.9413 13.5603C78.0183 12.4717 103.705 12.9792 106.082 13.7753C108.458 14.5715 109.219 29.908 107.793 30.8173C106.367 31.7266 94.683 28.4898 92.6222 28.2621C90.5627 28.0345 81.8481 30.184 80.6117 30.0476C79.3764 29.9112 73.5876 14.7937 75.9413 13.5603Z" fill="#E0DABF"/>
<path d="M91.0491 32.7738C84.0709 34.064 77.5294 38.0739 76.5941 44.1177C75.5981 50.5492 81.8157 54.3304 88.9551 55.1631C97.7626 56.1905 106.7 53.2077 114.139 48.841C118.351 46.3681 133.44 33.0851 140.606 34.5824C141.936 34.86 143.787 32.6751 141.525 32.2782C139.385 31.903 136.92 32.1224 134.669 32.7365C127.913 34.5806 122.863 39.6189 117.623 43.3422C110.049 48.7247 100.678 53.432 90.7175 52.6207C85.2307 52.1741 79.3271 49.936 79.7497 44.6899C80.1676 39.5077 85.989 36.3557 91.7247 35.2958C93.8102 34.9094 93.1312 32.3883 91.0491 32.7738Z" fill="#384142"/>
<path d="M88.4225 53.7828C92.8494 52.3191 94.5808 47.5401 95.2691 44.3662C96.2219 39.9772 95.1403 35.6751 92.4504 31.7127C91.5498 30.3849 88.7065 31.4415 89.6092 32.771C91.6709 35.8075 92.7439 39.0901 92.3735 42.4855C92.067 45.2929 90.9222 50.4322 86.9605 51.7425C85.0906 52.3607 86.5526 54.4011 88.4225 53.7828Z" fill="#384142"/>
<path d="M97.1756 33.3138C96.3707 30.9557 93.3938 29.2105 90.525 29.4152C87.6562 29.62 85.984 31.6975 86.7877 34.0555C87.5926 36.4136 90.5695 38.1589 93.4383 37.9541C96.3071 37.7493 97.9804 35.6719 97.1756 33.3138Z" fill="#384142"/>
<path d="M93.9349 34.2127C93.2752 32.5355 91.2053 31.2744 89.3125 31.3951C87.4197 31.5167 86.4207 32.9748 87.0804 34.652C87.7401 36.3291 89.81 37.5903 91.7027 37.4695C93.5955 37.3479 94.5946 35.8898 93.9349 34.2127Z" fill="#5B6666"/>
<path d="M92.3173 35.0533C91.9681 34.1665 90.8761 33.4998 89.8781 33.5642C88.8801 33.6286 88.353 34.4003 88.7022 35.2871C89.0515 36.1738 90.1435 36.8405 91.1427 36.7762C92.1407 36.7118 92.6666 35.9401 92.3173 35.0533Z" fill="#384142"/>
<path d="M91.8982 34.9377C91.6863 34.3987 91.0233 33.9941 90.4172 34.0337C89.8112 34.0732 89.4914 34.541 89.7044 35.0801C89.9163 35.6183 90.5794 36.0238 91.1854 35.9842C91.7903 35.9446 92.1101 35.4768 91.8982 34.9377Z" fill="#5B6666"/>
<path d="M77.3972 15.9488C78.9563 15.1823 98.3293 15.7715 100.126 16.3647C101.924 16.9588 102.593 28.0161 101.523 28.6584C100.454 29.3008 91.6222 26.8676 90.0683 26.6863C88.5134 26.504 81.9563 27.9772 81.0235 27.8679C80.0896 27.7594 75.6304 16.8169 77.3972 15.9488Z" fill="#598A99"/>
<path d="M134.361 67.6242C136.391 55.9346 132.949 45.9144 126.672 45.242C120.394 44.5704 113.659 53.502 111.629 65.1917C109.599 76.8814 113.042 86.9016 119.32 87.5732C125.596 88.2455 132.331 79.3139 134.361 67.6242Z" fill="#FFC85A"/>
<path d="M112.84 58.114L115.993 58.6831C116.495 58.7735 116.808 59.2483 116.693 59.7437L115.913 63.0814C115.797 63.575 115.299 63.9006 114.8 63.8111L111.645 63.242C111.144 63.1515 110.831 62.6767 110.946 62.1813L111.726 58.8436C111.842 58.35 112.339 58.0236 112.84 58.114Z" fill="#323F3F"/>
<path d="M113.025 59.1327L114.91 59.4713C115.21 59.5253 115.392 59.8308 115.314 60.1538L114.799 62.3315C114.723 62.6537 114.419 62.8702 114.12 62.8172L112.236 62.4786C111.936 62.4246 111.754 62.1191 111.832 61.7961L112.347 59.6184C112.423 59.2962 112.726 59.0796 113.025 59.1327Z" fill="#FFB64D"/>
<path d="M113.365 59.7519L114.463 59.9491C114.638 59.9802 114.752 60.1197 114.72 60.2603L114.494 61.2072C114.461 61.3469 114.292 61.4355 114.119 61.4036L113.02 61.2064C112.845 61.1753 112.731 61.0358 112.763 60.8952L112.989 59.9482C113.023 59.8085 113.19 59.7208 113.365 59.7519Z" fill="#323F3F"/>
<path d="M122.251 50.7668C106.263 67.813 98.8695 81.2417 98.8695 81.2417L99.8665 102.53C99.8665 102.53 128.512 92.574 135.02 71.053C138.591 59.2499 131.095 41.3373 122.251 50.7668Z" fill="#5E787A"/>
<path d="M126.501 48.2051C133.821 51.1593 132.875 63.6364 124.389 76.0782C117.205 86.6097 106.921 93.7386 99.49 93.8925L99.8952 102.534C99.8952 102.534 129.028 93.5779 135.533 72.0604C138.51 62.2114 133.284 47.1234 126.501 48.2051Z" fill="#435B5E"/>
<path d="M99.397 102.304C78.401 92.9599 63.7403 63.8353 63.7403 63.8353L70.9241 56.9778C70.9241 56.9778 98.8202 70.937 106.588 80.3002C114.358 89.6635 99.397 102.304 99.397 102.304Z" fill="#5E787A"/>
<path d="M80.4177 79.1038C72.5491 73.1019 67.2529 66.6195 65.7865 61.8338L63.7458 63.7829C63.7458 63.7829 78.4288 92.9555 99.457 102.315C99.457 102.315 107.392 97.1965 109.613 90.7756C103.567 91.8156 90.7338 86.9722 80.4177 79.1038Z" fill="#435B5E"/>
<path d="M51.857 40.9141L29.1412 42.723C27.4107 42.8607 26.4196 44.2228 27.1171 45.5034L33.7949 57.7584C34.296 58.6767 35.5258 59.2555 36.7667 59.1566L59.4825 57.3476C61.2131 57.21 62.2041 55.8478 61.5067 54.5672L54.8289 42.3123C54.3278 41.3939 53.098 40.8151 51.857 40.9141Z" fill="#D1C099"/>
<path d="M46.5085 58.3683L57.9125 57.4602L39.99 41.8485L29.1352 42.7126C28.9588 42.7264 28.7961 42.7612 28.6356 42.7997L46.5085 58.3683Z" fill="#DBCBA9"/>
<path d="M61.505 54.6142L54.8205 42.3217C54.3189 41.4006 53.089 40.82 51.8456 40.9193L29.1066 42.7336C28.0013 42.8218 27.2023 43.4117 26.9469 44.1605C27.0731 44.1347 27.1961 44.1043 27.333 44.0932L50.0719 42.2789C51.3142 42.1796 52.5452 42.7602 53.0468 43.6822L59.7312 55.9747C59.9841 56.4394 60.0095 56.913 59.8647 57.3366C61.3478 57.0381 62.1479 55.7982 61.505 54.6142Z" fill="#E0DABF"/>
<path d="M33.4925 44.892L29.9356 45.1756C29.6646 45.1969 29.5089 45.4107 29.6192 45.611L30.6661 47.5306C30.7452 47.6745 30.9369 47.7653 31.1321 47.7497L34.6889 47.4661C34.96 47.4448 35.1156 47.2309 35.0053 47.0307L33.9584 45.1111C33.8794 44.9672 33.6864 44.8772 33.4925 44.892Z" fill="#846D61"/>
<path opacity="0.28" d="M97.2278 16.0935C94.8627 15.9213 91.4099 15.7778 88.0379 15.7064L84.0617 27.4329C86.3136 27.0501 89.1273 26.5448 90.0741 26.6557C90.5814 26.7143 91.8698 27.0143 93.4058 27.3672L97.2278 16.0935Z" fill="#FFFDEE"/>
<path d="M80.7296 17.9514C82.0203 17.3174 95.5132 17.6122 101.138 18.0688C100.857 17.1399 100.515 16.4947 100.118 16.3639C98.3212 15.7704 78.9547 15.1826 77.3961 15.9484C75.6299 16.8156 80.0876 27.7477 81.0201 27.8569C81.2843 27.8878 82.0092 27.7898 82.9351 27.64C81.3961 24.3681 79.4628 18.5732 80.7296 17.9514Z" fill="#598A99"/>
<path d="M80.5255 29.8298C80.5719 29.8635 80.6146 29.8839 80.6539 29.8872C81.4021 29.9682 84.9077 29.1413 88.0158 28.5245C86.4921 28.558 83.233 29.2642 80.5255 29.8298Z" fill="#DBD2AF"/>
<path d="M106.1 13.5524C103.75 12.7655 78.236 12.4637 76.1573 13.5842C76.1212 13.6037 76.0921 13.6369 76.0589 13.6628C83.9102 13.229 100.027 13.5473 101.872 14.1656C103.975 14.8697 104.63 27.39 103.72 30.6841C105.608 30.9963 107.107 31.1214 107.564 30.8226C108.993 29.8895 108.452 14.3401 106.1 13.5524Z" fill="#DBD2AF"/>
<path d="M112.654 283.723C99.6616 269.794 94.3107 255.704 100.702 252.251C105.717 249.542 130.695 265.732 147.5 279.56C149.537 279.56 151.637 279.637 153.79 279.809C153.79 279.809 96.6389 246.461 92.8398 227.958L90.2814 229.496C87.0529 254.33 99.1924 268.027 113.784 286.986C113.784 286.986 114.268 286.729 115.166 286.315C114.32 285.474 113.481 284.61 112.654 283.723Z" fill="#364849"/>
<path d="M142.345 221.227C148.07 220.424 159.279 229.949 164.496 250.195C165.42 250.116 165.955 250.095 165.955 250.095C162.457 217.228 130.45 210.135 124.972 209.157C123.731 208.935 117.088 208.848 125.068 211.998C140.899 218.245 139.068 258.906 139.068 258.906C140.166 258.019 141.345 257.225 142.571 256.507C140.837 237.143 136.402 222.061 142.345 221.227Z" fill="#364849"/>
<path d="M89.6202 230.256L87.6494 223.723C88.8597 225.871 91.7406 225.409 92.1691 223.197L92.8959 229.069L89.6202 230.256Z" fill="#364849"/>
<path d="M115.055 207.479C117.595 207.532 117.469 206.678 116.138 205.414L121.322 208.164C123.102 209.12 122.731 210.049 122.051 210.974L115.055 207.479Z" fill="#364849"/>
<path d="M107.275 20.4401L105.348 20.4979L105.724 25.1563L107.652 25.0986L107.275 20.4401Z" fill="#415456"/>
<path d="M150.086 38.1247C148.625 40.1818 145.401 40.9156 142.886 39.7633C140.372 38.6119 139.517 36.0108 140.977 33.9545C142.438 31.8983 145.662 31.1645 148.177 32.3159C150.692 33.4674 151.547 36.0685 150.086 38.1247Z" fill="#5B6666"/>
<path d="M149.052 37.5642C148.135 38.8542 146.264 39.3835 144.874 38.7471C143.483 38.1106 143.1 36.5489 144.017 35.2589C144.934 33.9688 146.806 33.4396 148.195 34.076C149.586 34.7134 149.97 36.2751 149.052 37.5642Z" fill="#DBD2AF"/>
<path d="M148.014 38.0929C148.97 36.7468 148.57 35.1175 147.12 34.4534C146.452 34.1476 145.681 34.1103 144.948 34.278C145.95 33.6639 147.239 33.5075 148.276 33.9823C149.726 34.6463 150.127 36.2757 149.17 37.6218C148.653 38.3491 147.845 38.8341 146.983 39.0316C147.382 38.7871 147.741 38.4766 148.014 38.0929Z" fill="#384142"/>
<path d="M146.751 36.8977C146.523 37.219 146.057 37.351 145.711 37.1923C145.365 37.0337 145.27 36.6448 145.498 36.3235C145.726 36.0022 146.191 35.8702 146.538 36.0289C146.884 36.1875 146.979 36.5764 146.751 36.8977Z" fill="#384142"/>
<path d="M58.4384 50.2433C60.006 50.441 65.2212 53.093 69.3877 55.537C71.0061 56.4861 71.3706 58.1766 70.2458 59.5909L65.596 65.4311C56.9783 63.2033 51.9381 56.9066 52.8024 55.7491C53.6681 54.5881 56.5349 50.0026 58.4384 50.2433Z" fill="#364849"/>
<path d="M66.1112 46.7268C66.6307 47.1611 66.3099 51.4358 70.6475 56.6759L63.06 55.4568C61.9622 54.0512 61.6503 47.728 62.4408 46.8491C63.3257 45.867 65.3586 46.0971 66.1112 46.7268Z" fill="#364849"/>
<path d="M54.9918 45.0543C55.4993 45.3663 60.1905 49.4301 63.482 53.3312L58.4853 53.6228C58.4853 53.6228 52.2834 46.9224 52.4458 45.9935C52.6092 45.0682 54.2552 44.6 54.9918 45.0543Z" fill="#364849"/>
<path d="M50.2675 47.7201C50.969 47.7545 55.1193 51.2365 59.1375 54.7318L54.3188 55.4058C54.3188 55.4058 48.1964 50.1075 48.1704 49.207C48.1453 48.3102 49.5719 47.6849 50.2675 47.7201Z" fill="#364849"/>
<path d="M59.0051 62.6996C51.4208 59.9859 46.0626 53.0506 46.1746 52.4202C46.2865 51.7908 47.1906 50.2979 48.0519 50.8825C48.9241 51.4746 52.5001 55.1481 53.842 55.5645C55.2053 55.987 64.3191 57.9539 64.3372 58.1369C64.3542 58.3199 59.0051 62.6996 59.0051 62.6996Z" fill="#364849"/>
<path d="M77.581 60.6786L70.735 56.3447L61.713 64.2588L67.2022 72.1533L77.581 60.6786Z" fill="#364849"/>
</svg>
