<svg width="320" height="257" viewBox="0 0 320 257" fill="none" xmlns="http://www.w3.org/2000/svg">
<path d="M70.6161 153.803C67.4949 155.953 64.2733 156.615 61.6919 154.916C64.0235 153.518 65.8717 152.595 66.752 152.393C67.7671 152.16 67.2567 152.678 70.6161 153.803Z" fill="#364849"/>
<path d="M105.441 147.794C102.039 147.462 99.2467 145.964 98.0408 143.11C100.487 143.513 102.339 143.97 103.112 144.363C104.003 144.816 103.369 144.885 105.441 147.794Z" fill="#364849"/>
<path d="M285.064 92.2833C286.449 90.2235 288.027 88.3339 289.96 86.7363C290.992 85.8842 294.244 83.2795 295.372 84.7649C295.905 85.4664 295.498 87.2428 295.381 88.0729C294.688 92.9509 293.508 97.8025 292.096 102.584C291.887 103.29 294.479 103.512 294.743 102.663C296.898 95.715 297.404 93.1676 298.125 88.5227C298.478 86.247 298.52 83.8343 295.937 83.0266C290.973 81.4738 285.19 88.3082 282.742 91.9477C282.255 92.6706 284.599 92.9741 285.064 92.2833Z" fill="#384142"/>
<path d="M264.819 62.4593C266.202 60.1572 268.619 53.6838 272.512 57.5915C274.455 59.5417 274.713 63.2154 274.649 65.8191C274.509 71.6146 274.015 77.4534 273.688 83.2578C273.628 84.3205 276.068 84.3341 276.127 83.2873C276.442 77.6873 276.876 72.0693 277.069 66.4744C277.197 62.7601 276.796 59.1355 274.314 56.3965C269.671 51.2712 265.142 55.6349 262.51 62.0159C262.053 63.1247 264.422 63.4028 264.819 62.4593Z" fill="#384142"/>
<path d="M271.179 60.6746L272.899 62.4674L267.954 66.9159L266.234 65.1231L271.179 60.6746Z" fill="#384142"/>
<path d="M268.98 58.1307C267 60.9948 267.538 64.3402 270.181 65.6024C272.825 66.8649 276.574 65.5664 278.554 62.7025C280.534 59.8384 279.997 56.4931 277.353 55.2308C274.709 53.9683 270.961 55.2669 268.98 58.1307Z" fill="#5B6666"/>
<path d="M270.113 58.5489C268.878 60.3388 269.055 62.3524 270.508 63.0474C271.963 63.7427 274.142 62.8552 275.378 61.0654C276.613 59.2755 276.436 57.261 274.982 56.5668C273.528 55.8716 271.348 56.759 270.113 58.5489Z" fill="#DBD2AF"/>
<path d="M269.844 59.89C271.148 58.0024 273.451 57.0667 274.986 57.7987C275.692 58.1353 276.098 58.7733 276.22 59.5412C276.554 58.19 276.159 56.9521 275.061 56.4279C273.526 55.695 271.224 56.6316 269.919 58.5192C269.215 59.5391 268.959 60.6206 269.103 61.5216C269.236 60.9829 269.473 60.4277 269.844 59.89Z" fill="#384142"/>
<path d="M272.057 59.9834C271.75 60.4287 271.793 60.9307 272.155 61.1028C272.517 61.276 273.06 61.0547 273.368 60.6097C273.675 60.1644 273.631 59.6624 273.27 59.4903C272.907 59.317 272.365 59.5384 272.057 59.9834Z" fill="#384142"/>
<path d="M249.425 174.685C281.717 144.211 287.845 120.165 288.992 114.257C274.803 110.893 247.302 124.901 247.302 124.901C247.302 124.901 239.198 139.567 225.482 158.342C225.919 158.459 226.357 158.572 226.793 158.702C236.624 161.636 244.463 167.466 249.425 174.685Z" fill="#5F5672"/>
<path d="M252.062 158.982C261.249 147.891 271.68 139.695 280.564 135.854C286.52 124.995 288.405 117.283 288.989 114.276C274.764 110.907 247.194 124.937 247.194 124.937C247.194 124.937 239.07 139.628 225.319 158.433C225.758 158.55 226.196 158.663 226.634 158.794C233.783 160.926 239.874 164.588 244.583 169.196C246.763 165.799 249.259 162.367 252.062 158.982Z" fill="#514A66"/>
<path opacity="0.35" d="M280.612 137.47C273.536 132.951 265.063 131.2 265.063 131.2L248.519 139.794L247.87 140.233C248.984 140.856 259.882 147.094 267.381 156.597C273.091 149.571 277.388 143.129 280.612 137.47Z" fill="#B7DAEA"/>
<path d="M205.275 204.631C224.085 192.807 239.362 182.959 250.784 172.215C245.762 164.933 237.83 159.053 227.88 156.093C227.438 155.962 226.995 155.848 226.552 155.73C217.532 168.037 206.473 180.486 193.345 193.371L205.275 204.631Z" fill="#EDB984"/>
<path d="M236.803 177.978C240.094 174.15 242.973 170.215 245.436 166.278C240.739 161.763 234.707 158.173 227.644 156.07C227.204 155.939 226.764 155.826 226.323 155.708C217.35 167.964 206.349 180.362 193.289 193.194L202.286 202.479C213.406 199.084 226.085 190.445 236.803 177.978Z" fill="#E79B69"/>
<path d="M231.713 149.728L227.762 163.349L247.79 177.471L257.127 168.718C257.127 168.718 248.389 156.109 231.713 149.728Z" fill="#384142"/>
<path d="M268.599 62.011C262.437 55.0212 251.304 53.7283 243.734 59.1224L185.264 100.787C177.694 106.181 176.553 116.22 182.717 123.209C188.88 130.198 200.012 131.491 207.581 126.097L266.052 84.4327C273.622 79.0388 274.762 69.0007 268.599 62.011Z" fill="#FFB64D"/>
<path d="M288.474 81.3038C282.311 74.3149 271.179 73.0214 263.609 78.4153L205.138 120.08C197.569 125.474 196.428 135.513 202.591 142.502C208.754 149.491 219.886 150.784 227.456 145.39L285.926 103.726C293.497 98.3317 294.637 88.2928 288.474 81.3038Z" fill="#FFB64D"/>
<path d="M267.005 65.7991C261.737 59.0767 252.355 57.5152 245.012 61.7285C248.194 63.3884 252.011 64.9323 256.226 66.1854C260.691 67.5127 265.013 68.3391 268.822 68.6786C268.324 67.677 267.721 66.711 267.005 65.7991Z" fill="#FFC85A"/>
<path d="M100.929 146.126L99.6679 148.238C78.5849 142.884 70.4341 131.933 58.599 118.049C58.599 118.049 70.1807 110.98 74.4561 97.1517C74.4561 97.1517 86.7707 138.572 100.929 146.126Z" fill="#364849"/>
<path d="M74.9864 99.4536C74.592 99.1691 74.1993 98.8923 73.8105 98.6247C71.206 105.927 66.6155 111.2 63.1278 114.396C65.3513 117.597 68.0366 120.925 71.1115 124.205C79.5278 133.184 88.5811 139.394 94.732 140.925C85.1658 129.674 77.3113 106.706 74.9864 99.4536Z" fill="#3E4F4F"/>
<path d="M210.261 134.568L155.775 161.542C155.775 161.542 150.063 160.815 141.988 159.43C142.708 163.553 142.414 167.763 140.949 171.841C140.75 172.395 140.528 172.937 140.292 173.471C152.286 179.281 159.393 181.495 163.956 182.24C172.585 183.648 212.433 181.014 235.403 159.734C249.83 146.163 224.687 120.998 210.261 134.568Z" fill="#5F5672"/>
<path d="M198.603 140.125L155.628 160.399C155.628 160.399 149.959 159.678 141.945 158.305C142.552 161.777 139.042 167.704 138.101 171.167C144.178 174.074 145.446 175.07 160.012 180.103C165.777 181.988 179.336 181.493 190.574 178.89C179.681 168.339 199.623 141.29 198.603 140.125Z" fill="#514A66"/>
<path d="M143.41 171.816C146.219 168.145 145.487 162.373 142.01 155.781C128.772 153.478 108.842 149.333 97.0559 143.652L93.181 143.532C116.11 158.003 131.986 166.788 143.177 172.085C143.253 171.994 143.338 171.91 143.41 171.816Z" fill="#D27558"/>
<path d="M197.202 104.936C164.656 115.678 139.07 145.874 139.07 145.874C139.07 145.874 131.735 146.817 120.971 148.697C125.49 154.056 127.953 160.04 127.711 165.879C140.372 165.989 151.105 165.691 154.976 164.562C166.742 161.13 204.513 142.836 204.513 142.836L219.601 139.49C224.428 117.579 217.671 98.1794 197.202 104.936Z" fill="#5F5672"/>
<path d="M185.742 111.578C211.025 150.453 228.809 166.43 228.809 166.43L235.073 161.81L191.914 108.158L185.742 111.578Z" fill="#514A66"/>
<path d="M190.451 106.504C161.098 118.461 138.775 144.861 138.775 144.861C138.775 144.861 131.548 145.792 120.94 147.649C122.478 149.477 120.535 161.797 121.563 163.742C131.817 165.306 150.248 164.02 150.248 164.02C150.248 164.02 132.984 151.809 191.842 112.362C191.018 110.44 190.545 108.47 190.451 106.504Z" fill="#514A66"/>
<path d="M121.061 144.29C106.314 146.902 82.9509 151.654 66.4276 157.251L66.8511 159.43C66.8511 159.43 101.999 161.418 128.055 161.856C129.366 155.281 127.179 149.203 121.061 144.29Z" fill="#E79B69"/>
<path d="M242.372 159.369L241.236 156.166C241.236 156.166 274.318 123.131 279.986 100.736C278.947 81.3596 289.625 85.3387 291.893 108.333C292.603 115.533 293.319 135.628 242.372 159.369Z" fill="#FFB64D"/>
<path d="M286.654 117.048C291.284 98.7133 284.466 85.5442 280.344 80.0335C276.223 74.5227 257.412 67.4278 253.81 65.9278C250.208 64.4279 210.574 101.919 193.935 109.398L232.475 164.426C232.475 164.426 282.024 135.383 286.654 117.048Z" fill="#5F5672"/>
<path d="M241.916 89.3546L276.036 134.34L279.178 130.742L243.978 86.6639L241.916 89.3546Z" fill="#514A66"/>
<path d="M279.835 82.2345C276.316 77.5143 262.304 71.661 255.675 68.9786C255.947 74.9139 258.528 82.034 263.264 88.6715C270.462 98.758 280.398 104.599 287.672 103.694C286.788 93.4742 282.683 86.0546 279.835 82.2345Z" fill="#514A66"/>
<path opacity="0.35" d="M281.339 81.092C277.425 76.9112 269.655 75.8782 262.798 72.9396C257.15 95.985 222.866 109.29 224.375 114.708C226.017 120.603 242.516 146.869 249.018 145.675C252.228 145.085 263.831 139.018 274.754 129.943C284.906 121.509 289.814 108.641 287.364 96.3111C285.924 89.0612 283.279 83.1639 281.339 81.092Z" fill="#B7DAEA"/>
<path d="M192.2 109.227L195.212 113.531C206.2 110.368 218.37 107.904 233.129 99.0536C248.31 89.9507 260.596 76.1637 258.395 68.5657C258.231 68.4989 251.973 65.9464 251.846 65.8926C248.257 64.3965 208.775 101.772 192.2 109.227Z" fill="#514A66"/>
<path d="M188.184 108.737C213.727 147.923 232.433 165.472 232.433 165.472L238.752 160.819L194.267 105.975L188.184 108.737Z" fill="#FFC85A"/>
<path d="M199.293 114.327L192.704 105.894L186.657 108.783C188.91 112.411 191.108 115.851 193.244 119.105C195.194 117.342 197.218 115.745 199.293 114.327Z" fill="#FFB64D"/>
<path d="M237.87 162.089C236.715 163.244 235.523 164.326 234.308 165.351C234.455 165.499 234.536 165.577 234.536 165.577L240.682 160.896L239.92 159.916C239.259 160.65 238.581 161.377 237.87 162.089Z" fill="#FFB64D"/>
<path d="M251.321 64.5132C251.321 64.5132 242.969 53.6811 179.62 72.5144C184.746 76.9728 187.323 82.9669 186.985 89.6458C186.734 94.622 184.895 99.304 181.667 103.277C195.153 103.429 196.378 103.341 196.378 103.341L213.575 97.9831C235.139 90.2123 246.556 78.6168 251.321 64.5132Z" fill="#5F5672"/>
<path d="M251.324 64.5106C251.324 64.5106 250.742 63.7584 248.729 62.9953C244.793 68.5223 236.481 74.0105 226.117 77.3011C210.172 82.3631 195.422 80.3025 193.173 72.6988C192.799 71.4333 192.802 70.0936 193.128 68.7162C188.928 69.8227 184.435 71.0801 179.621 72.5109C184.747 76.9694 187.324 82.9636 186.986 89.6427C186.735 94.6191 184.896 99.3012 181.668 103.274C195.154 103.427 196.379 103.338 196.379 103.338L213.577 97.9803C235.141 90.2104 246.559 78.6145 251.324 64.5106Z" fill="#514A66"/>
<path opacity="0.35" d="M209.452 99.3649L210.158 99.1446L226.347 91.9181C226.347 91.9181 236.459 72.8179 229.202 62.4269C223.521 62.9177 216.385 63.9796 207.438 65.922C213.334 79.1452 209.762 97.8215 209.452 99.3649Z" fill="#B7DAEA"/>
<path d="M186.165 86.7931C186.504 80.0754 183.914 74.0458 178.763 69.5601C165.176 73.6021 146.297 79.128 128.168 82.8753L128.238 99.6741C154.918 100.159 171.061 100.395 180.819 100.505C184.064 96.5093 185.913 91.7996 186.165 86.7931Z" fill="#EDB984"/>
<path d="M186.177 86.8658C186.515 80.1662 183.931 74.1529 178.791 69.6793C178.514 69.762 178.229 69.8486 177.949 69.9321C178.629 70.9326 179.031 72.0048 179.098 73.1425C179.567 81.1164 163.903 89.1745 144.112 91.1397C138.924 91.6553 133.973 91.6966 129.474 91.3392L128.38 99.7118C155 100.195 171.107 100.43 180.843 100.54C184.08 96.5558 185.925 91.8588 186.177 86.8658Z" fill="#E79B69"/>
<path d="M195.971 107.256L195.624 103.792C195.624 103.792 240.645 86.4193 251.692 65.3469L257.372 67.6779C257.372 67.6779 252.157 95.2841 195.971 107.256Z" fill="#FFC85A"/>
<path d="M225.6 88.0419C210.704 97.0256 195.632 102.837 195.632 102.837L195.981 106.322C207.744 103.818 217.282 100.634 225.022 97.1611C224.84 94.3294 225.027 91.25 225.6 88.0419Z" fill="#FFB64D"/>
<path d="M287.445 103.298C288.955 86.5792 292.371 83.0143 292.371 83.0143L282.317 68.6545C279.885 72.5552 275.863 75.3261 269.017 75.5337C267.037 93.0256 278.795 106.42 287.445 103.298Z" fill="#433D56"/>
<path d="M288.202 103.277C288.625 98.6011 289.196 94.9448 289.799 92.0948C288.71 90.4249 287.225 89.2137 285.38 88.6651C281.34 87.4637 276.583 89.652 272.9 94.0011C276.766 101.14 283.05 105.135 288.202 103.277Z" fill="#514A66"/>
<path d="M289.233 89.2364C281.989 83.0652 277.613 78.2663 281.969 69.9695C286.325 61.6728 292.601 54.8797 302.816 58.6788C308.561 60.8162 311.126 69.6074 306.735 81.3098C302.74 91.9591 293.472 92.8481 289.233 89.2364Z" fill="#5F5672"/>
<path d="M300.264 83.32C293.022 83.051 287.741 76.046 288.468 67.675C288.762 64.2996 289.998 61.2285 291.831 58.7698C287.66 60.8269 284.507 65.1071 281.994 69.8899C277.62 78.2138 282.014 83.0276 289.287 89.2197C293.482 92.7903 302.577 91.9689 306.679 81.7192C304.718 82.8194 302.529 83.4045 300.264 83.32Z" fill="#514A66"/>
<path d="M296.303 81.9763C292.674 79.1497 288.047 80.4211 287.592 76.9678C287.372 75.2998 295.555 59.5646 303.026 61.5806C307.228 62.7153 309.296 69.4467 306.413 79.1735C304.852 84.4412 301.855 87.1455 299.021 87.955C297.093 88.5062 297.578 82.9694 296.303 81.9763Z" fill="#EDB984"/>
<path d="M288.822 73.0567C291.06 74.159 299.347 74.4023 301.453 75.5442C302.858 76.3059 304.228 79.7726 305.736 81.3399C305.984 80.7392 306.213 80.0987 306.415 79.4146C307.971 74.1562 308.073 69.7646 307.18 66.6161C304.239 64.9615 300.709 63.3191 297.954 62.3798C294.343 64.4674 290.962 69.2122 288.822 73.0567Z" fill="#E79B69"/>
<path d="M298.056 88.4314C297.973 88.4076 297.895 88.3733 297.819 88.3291C297.069 87.8863 296.859 86.511 296.638 85.0553C296.47 83.9571 296.28 82.7123 295.871 82.3864C294.435 81.2472 292.793 80.8322 291.342 80.4654C289.298 79.9482 287.538 79.5029 287.308 77.269C287.157 75.8141 291.423 67.704 296.157 63.59C298.771 61.319 301.206 60.4543 303.395 61.0203C303.435 61.0308 303.475 61.0416 303.515 61.0529C307.487 62.1967 309.784 68.7283 306.529 79.1356C305.017 83.9669 302.181 87.348 298.747 88.4116C298.503 88.486 298.269 88.4926 298.056 88.4314ZM292.823 80.0018C294.011 80.3439 295.258 80.8209 296.411 81.7367C297.041 82.237 297.235 83.5132 297.441 84.8644C297.611 85.9738 297.821 87.353 298.279 87.6233C298.335 87.6573 298.417 87.6862 298.569 87.6399C301.712 86.6667 304.331 83.5031 305.752 78.9601C308.852 69.0475 306.837 62.8722 303.227 61.8324C303.193 61.8227 303.158 61.8127 303.123 61.8044C301.215 61.3103 299.04 62.1088 296.659 64.1774C291.887 68.3235 288.019 76.183 288.115 77.114C288.294 78.8432 289.685 79.1965 291.607 79.6801C292.002 79.7796 292.409 79.8826 292.823 80.0018Z" fill="#433D56"/>
<path d="M243.976 87.9311L278.894 132.914L281.975 129.263L246.033 85.2814L243.976 87.9311Z" fill="#FFC85A"/>
<path d="M264.882 60.2307C261.294 67.4638 261.455 75.9333 262.211 83.6941C262.951 91.278 265.113 98.8174 269.703 104.786C273.02 109.099 278.968 114.398 284.893 113.522C291.153 112.598 293.151 103.898 294.758 98.7883C295.262 97.1871 292.906 96.3177 292.399 97.9297C290.64 103.525 288.359 112.974 280.843 110.349C275.208 108.382 270.84 102.904 268.351 97.5803C263.632 87.4865 262.045 71.5578 267.239 61.0888C267.989 59.5799 265.625 58.7326 264.882 60.2307Z" fill="#384142"/>
<path d="M274.41 107.706C279.369 111.679 283.914 105.073 285.956 100.968C290.376 92.0843 292.662 82.9192 302.287 77.8604C303.673 77.1317 302.683 75.0858 301.295 75.8151C295.888 78.6571 291.965 82.8013 289.186 88.1491C287.349 91.6831 281.558 110.333 275.796 105.718C274.653 104.803 273.28 106.8 274.41 107.706Z" fill="#384142"/>
<path d="M70.2625 155.242L69.6864 153.018C48.3861 151.498 25.981 154.4 13.4448 173.861C13.4448 173.861 26.3201 182.939 27.188 200.889C27.188 200.889 37.5434 168.493 70.2625 155.242Z" fill="#3E4F4F"/>
<path d="M29.1559 197.46C28.8502 197.78 28.5437 198.098 28.2373 198.411C28.2621 198.867 28.2828 199.325 28.2927 199.793C28.2927 199.793 28.568 198.94 29.1559 197.46Z" fill="#364849"/>
<path d="M69.6879 152.528C48.2829 151.389 25.649 154.825 12.514 175.114C12.514 175.114 12.9004 175.393 13.5316 175.938C29.3529 161.895 50.3425 156.029 55.2773 160.598C55.872 161.148 56.1949 161.835 56.3017 162.63C60.4378 159.691 65.0594 157.018 70.2096 154.806L69.6879 152.528Z" fill="#364849"/>
<path d="M304.228 81.6689C305.585 79.6132 305.086 76.6206 303.114 74.9862C301.141 73.3516 298.442 73.6924 297.084 75.7487C295.728 77.8044 296.226 80.7968 298.199 82.4314C300.172 84.066 302.871 83.7254 304.228 81.6689Z" fill="#384142"/>
<path d="M304.836 80.0085C305.805 78.5372 305.538 76.3999 304.24 75.2354C302.941 74.0706 301.104 74.3195 300.135 75.7901C299.167 77.2615 299.434 79.3987 300.732 80.5632C302.029 81.7285 303.868 81.4799 304.836 80.0085Z" fill="#5B6666"/>
<path d="M303.919 78.9254C304.446 78.1243 304.301 76.9601 303.593 76.3262C302.886 75.6915 301.886 75.8272 301.358 76.6282C300.831 77.4293 300.976 78.5935 301.684 79.2274C302.39 79.8619 303.391 79.7264 303.919 78.9254Z" fill="#384142"/>
<path d="M303.053 78.8904C303.362 78.4212 303.277 77.7408 302.863 77.37C302.449 76.9992 301.864 77.0781 301.555 77.5465C301.247 78.0158 301.331 78.6962 301.745 79.067C302.159 79.4385 302.744 79.3597 303.053 78.8904Z" fill="#5B6666"/>
<path d="M286.637 61.8301L284.116 64.9944C284.116 64.9944 289.244 62.1347 293.8 65.0387L295.904 61.7826C295.904 61.7826 290.904 58.8983 286.637 61.8301Z" fill="#384142"/>
<path d="M315.051 70.3876C314.159 67.6321 302.358 59.2993 299.274 59.4617C297.858 59.5361 292.2 68.609 292.581 69.9215C292.977 71.2926 301.903 73.1801 303.888 74.6867C305.465 75.8848 306.821 80.8347 308.528 81.4302C309.601 81.8048 315.798 72.6932 315.051 70.3876Z" fill="#E0DABF"/>
<path d="M305.625 73.3771C303.647 71.874 296.009 69.8616 295.613 68.4942C295.314 67.461 298.709 62.0624 300.848 59.7943C300.198 59.5609 299.651 59.4366 299.252 59.4573C297.84 59.5314 292.196 68.5797 292.575 69.8886C292.971 71.256 301.875 73.1383 303.854 74.6408C305.428 75.8356 306.78 80.7723 308.482 81.3659C308.787 81.4724 309.505 80.8124 310.359 79.762C308.559 80.0729 306.855 74.31 305.625 73.3771Z" fill="#D6C6A7"/>
<path d="M313.852 70.3837C313.071 68.3471 304.66 62.0982 302.612 62.089C301.677 62.0849 297.956 67.9954 298.21 68.931C298.478 69.9173 304.641 71.7319 306.071 72.9449C307.225 73.9234 308.366 77.7725 309.636 78.3452C310.442 78.7091 314.518 72.1231 313.852 70.3837Z" fill="#3D6F7A"/>
<path d="M301.374 63.0744C299.95 64.8157 297.995 68.18 298.182 68.8669C298.449 69.8536 304.615 71.669 306.046 72.8827C306.919 73.6221 307.783 75.999 308.702 77.3655C310.093 75.3872 311.728 72.1202 311.287 70.9691C310.624 69.2416 304.479 64.4886 301.374 63.0744Z" fill="#598A99"/>
<path opacity="0.28" d="M298.983 69.7495C300.597 70.6342 303.868 71.7589 305.418 72.6678L312.478 68.7351C311.293 67.548 309.515 66.1037 307.757 64.8615L298.983 69.7495Z" fill="#FFFDEE"/>
<path d="M248.04 82.8973L244.659 78.2658C244.121 77.5292 243.123 77.4016 242.433 77.9798L237.774 81.8828C237.086 82.4598 236.963 83.5206 237.498 84.2539L240.88 88.8854C241.417 89.622 242.415 89.7496 243.105 89.1714L247.764 85.2684C248.452 84.6914 248.576 83.6305 248.04 82.8973Z" fill="#323F3F"/>
<path d="M247.005 82.679L245.018 79.877C244.702 79.4318 244.143 79.3287 243.771 79.6481L241.26 81.8017C240.889 82.1197 240.843 82.737 241.158 83.181L243.144 85.9828C243.46 86.428 244.019 86.5311 244.391 86.2116L246.902 84.0581C247.274 83.7395 247.319 83.123 247.005 82.679Z" fill="#FFB64D"/>
<path d="M244.893 83.4832L243.737 81.8532C243.553 81.5944 243.273 81.497 243.112 81.6359L242.023 82.5728C241.862 82.7109 241.88 83.0328 242.063 83.2905L243.219 84.9206C243.403 85.1793 243.683 85.2768 243.845 85.1379L244.934 84.2012C245.094 84.0618 245.077 83.7409 244.893 83.4832Z" fill="#323F3F"/>
<path d="M287.145 130.435L284.607 127.145C284.203 126.621 283.381 126.671 282.771 127.256L278.663 131.197C278.056 131.779 277.89 132.673 278.292 133.194L280.83 136.485C281.234 137.009 282.056 136.959 282.665 136.374L286.774 132.433C287.382 131.851 287.548 130.957 287.145 130.435Z" fill="#323F3F"/>
<path d="M286.631 130.937L285.144 128.936C284.907 128.618 284.448 128.621 284.12 128.942L281.902 131.108C281.574 131.428 281.499 131.944 281.734 132.262L283.221 134.262C283.458 134.58 283.917 134.578 284.246 134.256L286.464 132.09C286.792 131.769 286.866 131.254 286.631 130.937Z" fill="#FFB64D"/>
<path d="M284.826 131.93L283.959 130.765C283.821 130.58 283.594 130.543 283.451 130.683L282.487 131.626C282.345 131.765 282.34 132.027 282.477 132.212L283.343 133.377C283.481 133.562 283.709 133.599 283.851 133.459L284.816 132.516C284.958 132.376 284.963 132.113 284.826 131.93Z" fill="#323F3F"/>
<path opacity="0.35" d="M224.029 167.996L218.69 159.887C201.239 169.949 184.732 177.434 167.949 176.436L151.752 172.474L148.525 176.397C156.031 179.64 161.022 181.079 164.521 181.653C171.799 182.847 201.079 181.171 224.029 167.996Z" fill="#B7DAEA"/>
<path opacity="0.35" d="M180.216 111.651C156.016 124.816 138.729 145.215 138.729 145.215C138.729 145.215 134.435 145.769 127.613 146.868L133.426 154.955C133.426 154.955 144.782 155.829 148.379 154.679C160.445 150.819 190.312 126.147 190.312 126.147L180.216 111.651Z" fill="#B7DAEA"/>
<path d="M195.616 86.8431C195.978 79.6552 193.212 73.2039 187.712 68.4052C184.257 69.4353 180.645 70.5499 176.881 71.7502C181.584 76.4123 183.927 82.426 183.593 89.0725C183.372 93.4757 181.885 97.8337 179.479 101.56C183.154 102.015 186.85 101.967 189.738 102C193.202 97.7228 195.346 92.1982 195.616 86.8431Z" fill="#384142"/>
<path d="M221.984 141.815L219.386 138.567C218.721 137.737 217.461 137.616 216.572 138.298L215.634 139.017C214.745 139.7 214.562 140.927 215.227 141.757L217.825 145.005C218.489 145.836 219.75 145.957 220.639 145.274L221.577 144.555C222.467 143.873 222.65 142.647 221.984 141.815Z" fill="#323F3F"/>
<path d="M219.657 141.102L218.495 139.65C218.198 139.278 217.635 139.224 217.237 139.529L216.817 139.851C216.419 140.155 216.338 140.704 216.635 141.076L217.797 142.528C218.093 142.9 218.657 142.954 219.055 142.649L219.475 142.327C219.873 142.022 219.955 141.473 219.657 141.102Z" fill="#FFC85A"/>
<path d="M100.4 148.293L104.848 146.91L94.493 141.921L89.7936 142.759L100.4 148.293Z" fill="#364849"/>
<path d="M66.5229 154.828L65.1258 158.762L72.9399 158.02L74.7676 153.015L66.5229 154.828Z" fill="#364849"/>
<path d="M191.629 210.237C193.558 210.045 200.515 206.285 206.16 202.773C208.353 201.409 209.244 198.789 208.277 196.492C205.684 190.337 197.609 188.81 192.061 193.487C188.159 196.776 185.959 200.156 186.36 201.197C187.085 203.079 189.286 210.471 191.629 210.237Z" fill="#EDB984"/>
<path d="M200.785 216.5C201.499 215.872 202.237 209.3 208.611 201.593L199.525 202.901C197.891 204.973 195.889 214.636 196.576 216.042C197.342 217.611 199.752 217.409 200.785 216.5Z" fill="#EDB984"/>
<path d="M187.228 217.385C187.905 216.942 194.467 211.04 199.347 205.284L193.572 204.467C193.572 204.467 184.547 214.314 184.494 215.754C184.44 217.188 186.246 218.028 187.228 217.385Z" fill="#EDB984"/>
<path d="M181.762 212.504C182.6 212.502 188.433 207.427 194.111 202.32L188.592 200.92C188.592 200.92 179.947 208.658 179.677 210.049C179.409 211.433 180.931 212.505 181.762 212.504Z" fill="#EDB984"/>
<path d="M195.44 190.241C185.723 193.88 177.523 204.221 177.489 205.207C177.455 206.19 178.13 208.569 179.307 207.727C180.5 206.875 185.717 201.451 187.419 200.908C189.148 200.355 200.481 197.987 200.551 197.705C200.621 197.422 195.44 190.241 195.44 190.241Z" fill="#EDB984"/>
<path d="M112.916 94.8437C114.438 95.9136 121.922 97.19 128.294 97.8373C130.769 98.0882 133.119 96.4521 133.914 93.9C136.042 87.0616 131.188 80.62 124.128 81.0153C119.162 81.2936 115.37 82.7353 114.983 83.8679C114.284 85.9143 111.067 93.5435 112.916 94.8437Z" fill="#EDB984"/>
<path d="M115.521 104.859C116.474 104.791 121.4 99.6241 131.316 97.2123L123.618 92.3219C121.012 93.024 113.08 100.013 112.661 101.677C112.194 103.535 114.14 104.956 115.521 104.859Z" fill="#EDB984"/>
<path d="M103.928 97.2435C104.731 97.3068 113.584 96.5231 121.082 94.7518L117.31 90.2169C117.31 90.2169 103.978 92.7986 102.975 94.0142C101.977 95.2267 102.764 97.1525 103.928 97.2435Z" fill="#EDB984"/>
<path d="M102.91 90.3808C103.532 90.9309 111.232 90.3715 118.839 89.6831L115.68 84.8378C115.68 84.8378 104.123 85.8539 102.998 86.8812C101.879 87.9046 102.292 89.8347 102.91 90.3808Z" fill="#EDB984"/>
<path d="M128.197 80.8061C118.552 77.5411 105.558 81.138 104.875 81.9756C104.194 82.8117 103.107 85.3384 104.543 85.3827C105.998 85.4287 113.492 84.1507 115.119 84.8047C116.773 85.4683 126.77 90.9152 127.01 90.7144C127.251 90.5149 128.197 80.8061 128.197 80.8061Z" fill="#EDB984"/>
</svg>
