<svg width="48" height="23" viewBox="0 0 48 23" fill="none" xmlns="http://www.w3.org/2000/svg">
<path d="M31.8432 8.22424C36.3055 9.23621 40.5454 5.81692 45.1212 5.4796C46.0834 5.40827 47.2948 5.649 47.5282 6.5302C47.7301 7.29252 47.0503 7.98946 46.4162 8.50064C44.6527 9.92126 42.7789 11.22 40.8135 12.3806C42.2993 13.9097 43.6338 15.5695 44.7915 17.3319C45.3073 18.1151 45.7711 19.185 45.137 19.8893C44.372 20.7393 42.9161 20.1509 41.9413 19.5178C38.8986 17.543 35.8575 15.5681 32.8148 13.5932C32.4536 14.7567 32.9789 16.0347 33.837 16.9367C34.695 17.8387 35.8449 18.439 36.9727 19.023C33.5909 20.8404 29.6349 21.4036 25.7815 21.9341C21.0148 22.5909 16.1487 23.2462 11.4073 22.4438C6.66581 21.6413 1.98586 19.1122 0 14.9781C2.23035 12.4415 3.61999 9.35658 5.46547 6.55696C7.31095 3.75882 9.84571 1.10185 13.2322 0.280093C16.704 -0.560983 20.3145 0.678339 23.6916 1.81067C27.0686 2.94449 30.8101 3.98766 34.1619 2.78697C34.6729 2.60419 35.1761 2.36792 35.7203 2.33225C36.2645 2.2951 36.8796 2.52098 37.0705 3.00393C37.2424 3.43784 37.0263 3.91633 36.7771 4.31606C35.5988 6.21369 33.5688 7.62242 31.2959 8.1232" fill="#EBEBEB"/>
<path d="M25.4093 14.1729C25.343 10.3152 25.6884 6.4427 26.4203 2.64746C27.2011 2.87333 28.0655 3.05017 28.9945 3.18242C28.2059 7.95991 27.3809 13.3883 27.056 18.2148C25.6742 17.4465 25.4345 15.6841 25.4093 14.1729Z" fill="#FAFAFA"/>
<path d="M20.8776 0.903076L23.4218 1.70105C22.8288 6.85599 22.2373 12.0124 21.6458 17.1673C21.6142 17.4452 21.5779 17.7335 21.4249 17.9728C21.2719 18.212 20.9659 18.3888 20.6804 18.313C20.3886 18.2358 20.234 17.9445 20.1189 17.68C17.8113 12.3735 18.1204 6.01492 20.8776 0.903076Z" fill="#FAFAFA"/>
<path d="M12.5477 0.476665C12.524 4.5379 12.7181 8.86513 13.1282 12.9085C13.2843 14.4436 13.4815 16.0098 14.1897 17.4007C14.3806 17.7752 14.685 18.1794 15.1266 18.1824C15.7844 18.1868 16.0178 17.374 16.0494 16.7558C16.3238 11.1313 16.4816 5.64646 16.5052 0.016009C14.98 -0.055319 13.4168 0.114081 12.5477 0.476665Z" fill="#FAFAFA"/>
<path d="M8.6911 2.75023C8.78574 2.68782 9.0602 10.9411 8.66114 14.5877C8.60278 15.1152 8.41034 15.7721 7.85354 15.8449C7.22261 15.9266 6.87244 15.1895 6.73837 14.6041C6.00806 11.4136 5.7131 10.2025 5.20047 6.97493C5.12791 6.92144 7.56489 3.48877 8.6911 2.75023Z" fill="#FAFAFA"/>
<path d="M3.6752 13.5045C3.69413 13.7853 3.95123 14.0008 4.24935 13.9829C4.54746 13.9651 4.77619 13.7229 4.75726 13.442C4.73833 13.1612 4.48122 12.9457 4.1831 12.9636C3.88499 12.9799 3.65785 13.2221 3.6752 13.5045Z" fill="#E0E0E0"/>
</svg>
