<svg width="48" height="23" viewBox="0 0 48 23" fill="none" xmlns="http://www.w3.org/2000/svg">
<path d="M15.7212 8.22426C11.2589 9.23623 7.01906 5.81695 2.44322 5.47815C1.48105 5.40682 0.269653 5.64756 0.0362073 6.53024C-0.165691 7.29256 0.514166 7.98948 1.14825 8.50066C2.91171 9.92128 4.78559 11.22 6.75095 12.3806C5.2651 13.9097 3.93066 15.5696 2.77132 17.332C2.25553 18.1151 1.7918 19.1865 2.42589 19.8894C3.1909 20.7394 4.64677 20.1509 5.61998 19.5179C8.66266 17.543 11.7038 15.5681 14.7464 13.5932C15.1077 14.7567 14.5824 16.0347 13.7243 16.9367C12.8663 17.8387 11.7164 18.439 10.5886 19.023C13.9704 20.8404 17.9263 21.4036 21.7798 21.9341C26.5465 22.5909 31.4125 23.2462 36.154 22.4438C40.8955 21.6414 45.5754 19.1122 47.5613 14.9782C45.3309 12.4415 43.9413 9.35658 42.0958 6.55695C40.2503 3.75882 37.7156 1.10185 34.3291 0.280093C30.8573 -0.560983 27.2468 0.678339 23.8682 1.81067C20.4911 2.94449 16.7496 3.98768 13.3978 2.78699C12.8868 2.60421 12.3836 2.36943 11.8394 2.33228C11.2952 2.29513 10.6801 2.52099 10.4892 3.00394C10.3173 3.43785 10.5334 3.91634 10.7826 4.31607C11.9609 6.21221 13.9909 7.62244 16.2639 8.12322" fill="#EBEBEB"/>
<path d="M22.1552 14.1728C22.2214 10.3152 21.876 6.4427 21.1441 2.64746C20.3633 2.87333 19.4989 3.05015 18.5699 3.1824C19.3586 7.95989 20.1835 13.3882 20.5084 18.2148C21.8902 17.4465 22.1299 15.6841 22.1552 14.1728Z" fill="#FAFAFA"/>
<path d="M26.6869 0.903076L24.1426 1.70108C24.7341 6.85602 25.3272 12.0124 25.9187 17.1674C25.9503 17.4452 25.9865 17.7335 26.1395 17.9728C26.2925 18.212 26.5986 18.3888 26.8841 18.3131C27.1759 18.2358 27.3304 17.9445 27.4456 17.68C29.7532 12.3735 29.4441 6.01492 26.6869 0.903076Z" fill="#FAFAFA"/>
<path d="M35.0183 0.476665C35.042 4.5379 34.848 8.86513 34.4379 12.9085C34.2817 14.4436 34.0861 16.0098 33.3763 17.4007C33.1855 17.7752 32.881 18.1794 32.4394 18.1824C31.7816 18.1868 31.5482 17.374 31.5166 16.7558C31.2422 11.1313 31.0845 5.64646 31.0608 0.016009C32.5845 -0.055319 34.1476 0.114081 35.0183 0.476665Z" fill="#FAFAFA"/>
<path d="M38.8734 2.75023C38.7787 2.68782 38.5043 10.9411 38.9033 14.5877C38.9617 15.1152 39.1541 15.772 39.7109 15.8448C40.3419 15.9266 40.692 15.1895 40.8261 14.604C41.5564 11.4136 41.8514 10.204 42.3656 6.97491C42.4366 6.92141 39.9996 3.49026 38.8734 2.75023Z" fill="#FAFAFA"/>
<path d="M43.8892 13.5044C43.8703 13.7867 43.6132 14.0007 43.3151 13.9828C43.017 13.965 42.7883 13.7228 42.8072 13.442C42.8261 13.1611 43.0832 12.9456 43.3813 12.9634C43.6795 12.9798 43.9082 13.222 43.8892 13.5044Z" fill="#E0E0E0"/>
</svg>
