<svg width="390" height="344" viewBox="0 0 390 344" fill="none" xmlns="http://www.w3.org/2000/svg">
<path d="M88.5252 98.039L78.1937 99.5742L81.8461 106.173L90.2653 100.564L88.5252 98.039Z" fill="#5E5659"/>
<path d="M92.7055 104.018L89.1992 98.9092L86.9106 100.44L90.4169 105.549L92.7055 104.018Z" fill="#5E5659"/>
<path d="M87.326 105.385C88.5939 104.852 91.8864 103.607 96.2148 103.879C97.8151 103.979 99.03 105.176 99.1503 106.742L102.089 108.969C102.194 110.329 101.331 114.469 99.6164 115.409C97.8136 116.397 92.2091 113.765 90.5301 113.587C86.1221 113.117 85.7582 106.044 87.326 105.385Z" fill="#4C4347"/>
<path d="M97.3988 100.875C98.8937 100.287 100.869 102.013 101.799 104.625C102.693 107.136 104.48 109.737 103.159 110.347C101.817 110.966 97.6146 109.379 96.5906 106.838C95.5244 104.191 95.8788 101.473 97.3988 100.875Z" fill="#5E5659"/>
<path d="M93.932 99.4051C94.2892 99.304 95.8728 100.082 98.6149 100.412C100.537 100.644 101.413 103.12 100.063 104.889C98.4633 105.056 93.0281 102.625 92.6258 101.753C92.1864 100.8 93.1538 99.6255 93.932 99.4051Z" fill="#5E5659"/>
<path d="M208.025 170.123L204.773 164.138L201.399 166L204.651 171.985L208.025 170.123Z" fill="#352D31"/>
<path d="M201.886 154.815C204.848 154.428 207.746 154.08 208.662 158.341C208.923 159.557 208.578 160.985 208.15 162.163C207.235 164.689 205.291 166.639 203.255 168.403C202.483 169.073 204.262 170.629 205.084 169.917C208.829 166.672 211.903 162.256 210.445 157.361C209.182 153.123 204.941 152.386 200.835 152.924C199.554 153.092 200.92 154.942 201.886 154.815Z" fill="#352D31"/>
<path d="M178.009 164.153C173.347 153.269 138.647 144.143 101.885 105.44C100.953 109.503 99.683 113.759 94.538 113.36C122.584 153.682 152.511 169.309 165.384 177.972C178.256 186.634 182.672 175.036 178.009 164.153Z" fill="#5E5659"/>
<path d="M177.976 163.575C175.198 157.098 159.686 148.21 139.159 136.461C143.939 145.874 145.599 158.173 147.047 165.36C154.332 171.001 161.189 174.669 165.298 177.431C178.224 186.118 182.658 174.488 177.976 163.575Z" fill="#4C4347"/>
<path d="M181.519 216.256C206.026 227.796 236.552 232.442 241.453 232.271C246.406 232.099 283.664 209.121 297.27 209.59L296.593 208.159C272.617 201.564 245.239 222.148 241.909 220.682C238.598 219.224 207.951 197.264 194.28 195.163C180.985 193.12 173.519 212.488 181.519 216.256Z" fill="#5E5659"/>
<path d="M296.887 208.78C292.588 207.597 274.898 212.553 270.074 215.461C246.36 229.755 223.785 231.28 220.24 207.114C210.906 201.536 200.714 196.151 194.282 195.163C180.987 193.121 173.521 212.488 181.521 216.254C206.028 227.795 237.115 233.256 242.015 233.085C246.968 232.912 283.664 209.12 297.269 209.589L296.887 208.78Z" fill="#4C4347"/>
<path d="M181.629 227.009C204.409 240.94 231.337 250.909 236.162 251.235C241.04 251.564 283.624 242.826 296.918 244.667L296.411 243.177C273.612 234.209 240.981 241.571 237.875 239.78C234.786 237.998 209.628 210.834 196.447 207.368C183.628 203.996 174.193 222.462 181.629 227.009Z" fill="#5E5659"/>
<path d="M269.589 243.32C258.122 245.559 247.642 245.817 240.55 245.289C237.246 245.207 233.512 244.487 229.763 243.072C220.059 239.41 213.964 232.531 216.147 227.707C216.907 226.028 218.584 224.831 220.838 224.123C212.539 216.705 203.006 209.103 196.443 207.376C183.625 204.005 174.191 222.469 181.626 227.015C204.404 240.945 231.673 251.507 236.498 251.833C241.375 252.162 283.61 242.831 296.903 244.672C296.903 244.672 283.168 240.669 269.589 243.32Z" fill="#4C4347"/>
<path d="M182.283 150.842C176.725 153.535 174.389 159.72 177.064 164.655L197.73 202.78C200.406 207.715 207.08 209.533 212.638 206.84C218.196 204.147 220.532 197.962 217.856 193.026L197.19 154.902C194.515 149.967 187.84 148.148 182.283 150.842Z" fill="#FFAA4D"/>
<path d="M197.999 155.723C195.406 150.952 189.096 149.085 183.629 151.337C184.192 153.705 186.244 156.194 189.32 157.861C193.021 159.867 197.089 160.082 199.592 158.653L197.999 155.723Z" fill="#FFC85A"/>
<path d="M159.998 195.552C167.831 197.341 176.877 190.321 180.201 179.874C183.526 169.426 179.87 159.506 172.037 157.717C164.203 155.928 156.553 159.424 153.229 169.872C149.904 180.319 152.165 193.762 159.998 195.552Z" fill="#FFB64D"/>
<path d="M157.44 165.966C150.873 174.329 147.647 188.649 158.9 207.573C171.455 228.687 185.087 231.031 189.359 227.008C193.632 222.985 204.977 211.699 200.993 205.904C192.724 193.879 179.597 166.379 176.399 161.73C173.2 157.08 158.735 164.318 157.44 165.966Z" fill="#5E5659"/>
<path d="M189.322 227.009C193.592 222.988 204.928 211.708 200.947 205.917C195.56 198.082 188.113 183.679 182.694 173.311C182.686 173.356 182.681 173.401 182.672 173.447C181.096 181.875 175.992 188.233 171.272 187.646C166.552 187.06 164.003 179.753 165.58 171.325C166.415 166.861 168.244 162.992 170.477 160.413C165.128 161.258 158.298 164.893 157.428 166.002C150.865 174.359 147.642 188.671 158.887 207.585C171.432 228.687 185.053 231.029 189.322 227.009Z" fill="#4C4347"/>
<path d="M187.633 181.44C184.556 172.922 180.323 165.005 177.344 161.908C177.403 162.069 177.463 162.229 177.521 162.39C181.182 172.527 181.896 178.283 176.531 178.826C180.185 188.774 186.226 196.098 189.056 197.399C191.932 198.721 191.294 191.576 187.633 181.44Z" fill="#4C4347"/>
<path d="M172.509 151.709C177.953 149.451 183.988 148.063 189.827 147.864C193.353 147.744 196.428 148.12 198.637 151.076C201.115 154.393 201.624 161.292 196.824 159.496C195.344 158.943 196.561 162.033 197.452 162.417C200.684 163.816 202.459 161.077 202.792 158.041C203.217 154.154 201.45 149.793 198.042 147.728C190.858 143.373 178.398 146.893 170.989 149.966C170.033 150.364 171.646 152.067 172.509 151.709Z" fill="#352D31"/>
<path d="M157.776 167.197C161.79 159.131 164.206 153.715 164.206 153.715L179.997 155.564C179.997 155.564 178.067 161.027 177.412 165.691C175.937 176.189 151.996 178.812 157.776 167.197Z" fill="#42393D"/>
<path d="M151.966 159.658C153.53 147.333 167.49 131.015 176.667 129.545C185.845 128.077 193.718 138.315 187.425 148.872C183.073 156.172 171.3 163.347 165.676 164.564C160.052 165.781 151.966 159.658 151.966 159.658Z" fill="#5E5659"/>
<path d="M187.355 148.908C188.389 147.172 189.034 145.446 189.359 143.778C188.857 145.184 188.015 146.363 186.811 147.166C182.672 149.923 175.952 147.275 171.8 141.25C170.052 138.714 169.047 135.984 168.768 133.467C161.02 139.322 153.108 150.583 151.954 159.675C151.954 159.675 160.027 165.786 165.641 164.572C171.256 163.357 183.011 156.195 187.355 148.908Z" fill="#4C4347"/>
<path d="M185.017 151.76L177.827 146.937L172.314 152.269L180.329 156.368L185.017 151.76Z" fill="#42393D"/>
<path d="M156.465 160.469C154.399 159.867 153.294 157.721 154.042 155.7C157.258 147.016 161.272 138.31 167.744 137.728C170.105 137.516 180.491 138.361 175.522 147.09C172.084 153.126 168.439 158.193 164.308 160.435C162.04 161.667 158.866 161.168 156.465 160.469Z" fill="#EDB984"/>
<path d="M162.663 153.464C164.141 155.608 164.835 157.972 164.767 160.058C168.726 157.739 172.242 152.83 175.559 147.005C180.498 138.333 169.907 137.594 167.56 137.805C162.749 138.237 159.882 142.651 156.917 149.008C159.013 149.668 161.113 151.214 162.663 153.464Z" fill="#E79B69"/>
<path d="M198.931 201.618C200.222 213.216 183.038 225.336 176.502 226.487C176.502 226.487 179.784 231.166 185.951 229.439C195.245 226.837 203.448 214.58 203.007 208.484C202.566 202.39 198.931 201.618 198.931 201.618Z" fill="#FFB64D"/>
<path d="M188.972 163.161C183.427 165.865 180.918 171.999 183.368 176.862L202.292 214.422C204.742 219.285 211.224 221.035 216.768 218.331C222.313 215.628 224.822 209.494 222.372 204.631L203.448 167.071C200.998 162.208 194.517 160.458 188.972 163.161Z" fill="#FFAA4D"/>
<path d="M222.541 204.407L203.758 167.028C201.327 162.189 194.894 160.447 189.391 163.138C188.97 163.344 188.572 163.576 188.187 163.821C188.334 164.614 188.579 165.395 188.956 166.145L207.738 203.524C210.17 208.363 216.603 210.105 222.106 207.414C222.527 207.208 222.925 206.975 223.31 206.731C223.163 205.939 222.918 205.156 222.541 204.407Z" fill="#FFC85A"/>
<path d="M207.042 175.913C205.596 173.026 202.722 171.258 199.478 170.872L211.651 195.179C213.096 198.066 215.97 199.834 219.214 200.22L207.042 175.913Z" fill="#FFDB76"/>
<path d="M219.076 197.429C220.108 196.853 217.249 190.246 216.216 190.823C219.59 197.68 206.15 208.274 197.397 207.145L200.107 212.796C200.107 212.796 218.93 208.577 219.076 197.429Z" fill="#352D31"/>
<path d="M211.388 180.023C212.35 179.463 208.639 173.186 207.677 173.746C211.935 180.256 199.799 190.5 190.874 189.509L194.313 194.876C194.313 194.876 212.661 190.661 211.388 180.023Z" fill="#352D31"/>
<path d="M194.422 213.085C200.651 207.784 199.964 196.408 192.887 187.676C185.81 178.944 175.024 176.163 168.795 181.465C162.566 186.765 161.029 194.976 168.106 203.708C175.182 212.439 188.193 218.385 194.422 213.085Z" fill="#FFC85A"/>
<path d="M197.938 206.978C193.287 204.416 187.732 199.059 182.916 192.054C179.82 187.551 177.482 183.021 176.022 178.976C173.297 179.047 170.769 179.907 168.732 181.642C162.538 186.919 161.011 195.093 168.047 203.787C175.083 212.479 188.019 218.4 194.212 213.122C196.069 211.541 197.303 209.413 197.938 206.978Z" fill="#FFB64D"/>
<path d="M183.046 184.271C194.615 188.745 200.337 216.911 241.39 253.44L233.119 258.921C190.303 231.34 177.92 213.334 168.752 200.412C159.584 187.491 171.477 179.797 183.046 184.271Z" fill="#5E5659"/>
<path d="M177.859 198.219C173.875 191.515 174.56 186.342 177.545 183.391C168.216 182.698 161.027 189.847 168.702 200.696C177.805 213.565 190.099 231.498 232.61 258.965L232.87 258.899C196.391 229.976 185.786 211.562 177.859 198.219Z" fill="#4C4347"/>
<path d="M41.9389 98.1361L33.8266 86.2223L31.9919 87.4599L40.1042 99.3737L41.9389 98.1361Z" fill="#FFB64D"/>
<path d="M50.9722 92.0421L42.8599 80.1283L41.0251 81.3659L49.1375 93.2798L50.9722 92.0421Z" fill="#FFB64D"/>
<path d="M86.0312 122.088C84.6542 111.388 66.4667 85.584 66.4667 85.584L25.5217 112.87C25.5217 112.87 42.5275 139.821 52.7427 144.272C66.4029 150.222 87.925 136.803 86.0312 122.088Z" fill="#FFC85A"/>
<path d="M85.1098 128.82C77.1362 132 63.0874 123.132 52.6176 107.93C50.632 105.047 48.9147 102.132 47.4672 99.2578L24.3831 114.647C24.3831 114.647 40.9724 141.102 51.2924 145.254C62.9453 149.942 80.7528 140.652 85.1098 128.82Z" fill="#FFB64D"/>
<path d="M55.0831 119.703C60.7854 128.024 65.5098 136.199 68.9952 143.504C76.4577 140.911 82.623 134.907 84.1999 127.316C76.0358 129.957 59.348 116.977 45.5437 96.8342C42.9258 93.0142 40.5945 89.1963 38.563 85.47L30.4498 90.9064C37.925 97.4056 46.7449 107.537 55.0831 119.703Z" fill="#F49638"/>
<path d="M54.3893 137.634C45.4954 124.602 34.6894 115.581 26.9599 113.935C28.6383 116.593 43.9858 140.595 53.5905 144.64C55.42 145.411 57.3983 145.826 59.447 145.936C57.9707 143.194 56.2825 140.408 54.3893 137.634Z" fill="#FFC85A"/>
<path d="M91.4743 110.499C93.2948 109.894 93.7519 110.453 93.9776 111.272C94.201 112.084 94.1148 112.852 92.3341 113.484C90.5088 114.132 88.7878 113.997 88.5305 113.163C88.2712 112.321 89.6073 111.119 91.4743 110.499Z" fill="#5E5659"/>
<path d="M90.4108 107.291C92.389 106.697 92.872 107.275 93.1009 108.114C93.3276 108.945 93.2203 109.728 91.2849 110.353C89.2975 110.994 87.4338 110.839 87.1703 109.981C86.9054 109.115 88.3777 107.9 90.4108 107.291Z" fill="#5E5659"/>
<path d="M101.279 114.414L92.1218 101.028L88.2593 103.621L97.4165 117.007L101.279 114.414Z" fill="#FFC85A"/>
<path d="M89.6235 103.781C91.5377 103.244 92.0232 103.861 92.2668 104.741C92.5077 105.613 92.4217 106.42 90.5511 106.989C88.6308 107.573 86.814 107.336 86.5363 106.438C86.2557 105.531 87.6582 104.332 89.6235 103.781Z" fill="#5E5659"/>
<path d="M96.9583 121.262L91.4953 113.316C90.4952 111.862 88.417 111.528 86.8542 112.572L86.3146 112.932C84.7519 113.976 84.2956 116.002 85.2957 117.456L90.7588 125.402L96.9583 121.262Z" fill="#FFC85A"/>
<path d="M73.4957 95.513C71.547 92.6615 69.5953 89.9837 67.707 87.5464L60.0574 92.6871C61.6401 95.329 63.4247 98.1199 65.3734 100.971C74.487 114.307 83.6932 123.896 85.9355 122.389C88.1791 120.881 82.609 108.848 73.4957 95.513Z" fill="#FFDB76"/>
<path d="M25.9684 113.884C30.1207 119.913 43.2388 118.299 55.2685 110.279C67.2982 102.259 73.684 90.8698 69.5318 84.8411C65.3795 78.8124 52.2614 80.4267 40.2317 88.4467C28.202 96.4667 21.8161 107.855 25.9684 113.884Z" fill="#51493C"/>
<path d="M69.5924 84.8095C65.4506 78.7981 52.366 80.4077 40.3667 88.4045C34.9204 92.0341 30.6393 96.3558 27.9689 100.556C30.2573 98.1453 33.0196 95.8082 36.1764 93.7044C48.1757 85.7076 61.2603 84.0979 65.4022 90.1094C67.6637 93.3919 66.7849 98.2692 63.5727 103.322C69.9832 96.5704 72.6447 89.2395 69.5924 84.8095Z" fill="#3D362C"/>
<path d="M31.251 112.247C34.5647 117.058 45.0335 115.77 54.6337 109.37C64.2339 102.969 69.3302 93.8805 66.0165 89.0694C62.7028 84.2583 52.2341 85.5466 42.6339 91.947C33.0336 98.3473 27.9374 107.436 31.251 112.247Z" fill="#DBC08F"/>
<path d="M34.1494 110.713C36.8364 114.615 45.5826 113.398 53.6843 107.996C61.7861 102.594 66.1756 95.0521 63.4886 91.1503C60.8015 87.2485 52.0553 88.4647 43.9536 93.8667C35.8518 99.2687 31.4623 106.811 34.1494 110.713Z" fill="#F9E4B7"/>
<path d="M49.2798 89.6564L49.1394 89.4513L46.9159 90.9442L47.0563 91.1493L49.2798 89.6564Z" fill="#E5CB9E"/>
<path d="M36.7164 97.8335L35.8343 98.425C35.6295 98.6577 35.4299 98.8907 35.2357 99.1248L36.8566 98.038L36.7164 97.8335Z" fill="#E5CB9E"/>
<path d="M49.5419 89.4695L51.7654 87.9766L51.6779 87.8488C51.5673 87.8858 51.4564 87.9211 51.3449 87.9596L49.4015 89.2644L49.5419 89.4695Z" fill="#E5CB9E"/>
<path d="M39.3444 96.3573L39.204 96.1522L36.9805 97.6451L37.1209 97.8502L39.3444 96.3573Z" fill="#E5CB9E"/>
<path d="M44.3106 93.0068L44.1702 92.8018L41.9467 94.2947L42.0871 94.4998L44.3106 93.0068Z" fill="#E5CB9E"/>
<path d="M46.7954 91.3331L46.655 91.1281L44.4315 92.6209L44.5719 92.826L46.7954 91.3331Z" fill="#E5CB9E"/>
<path d="M52.2189 87.6517C52.1358 87.678 52.0516 87.7068 51.9684 87.733L52.0089 87.792L52.2189 87.6517Z" fill="#E5CB9E"/>
<path d="M41.8273 94.6851L41.6869 94.48L39.4635 95.9729L39.6039 96.178L41.8273 94.6851Z" fill="#E5CB9E"/>
<path d="M55.7175 87.9287L57.9409 86.4358L57.8225 86.2628C57.7959 86.2645 57.7696 86.2668 57.7434 86.2691L55.577 87.7236L55.7175 87.9287Z" fill="#E5CB9E"/>
<path d="M38.0622 99.8453L37.9218 99.6403L35.6983 101.133L35.8387 101.338L38.0622 99.8453Z" fill="#E5CB9E"/>
<path d="M58.2241 86.1971C58.203 86.1981 58.1822 86.198 58.1616 86.1996L58.1801 86.2264L58.2241 86.1971Z" fill="#E5CB9E"/>
<path d="M55.4557 88.1126L55.3153 87.9075L53.0919 89.4004L53.2323 89.6055L55.4557 88.1126Z" fill="#E5CB9E"/>
<path d="M40.5511 98.1655L40.4107 97.9604L38.1872 99.4534L38.3277 99.6585L40.5511 98.1655Z" fill="#E5CB9E"/>
<path d="M43.0322 96.4918L42.8918 96.2867L40.6683 97.7796L40.8087 97.9847L43.0322 96.4918Z" fill="#E5CB9E"/>
<path d="M35.5796 101.521L35.4392 101.315L33.2158 102.808L33.3562 103.013L35.5796 101.521Z" fill="#E5CB9E"/>
<path d="M48.0014 93.1412L47.861 92.9362L45.6375 94.4291L45.7779 94.6341L48.0014 93.1412Z" fill="#E5CB9E"/>
<path d="M52.9713 89.7877L52.8309 89.5826L50.6074 91.0756L50.7478 91.2807L52.9713 89.7877Z" fill="#E5CB9E"/>
<path d="M50.4865 91.4645L50.3461 91.2594L48.1226 92.7523L48.263 92.9574L50.4865 91.4645Z" fill="#E5CB9E"/>
<path d="M45.5169 94.8165L45.3765 94.6115L43.1531 96.1044L43.2935 96.3095L45.5169 94.8165Z" fill="#E5CB9E"/>
<path d="M32.9563 102.989L31.8519 103.73C31.7802 103.876 31.7109 104.021 31.6445 104.167L33.0966 103.194L32.9563 102.989Z" fill="#E5CB9E"/>
<path d="M62.0335 86.274C61.9495 86.255 61.8648 86.2364 61.7793 86.2193L61.8851 86.3728L62.0335 86.274Z" fill="#E5CB9E"/>
<path d="M44.2362 98.2909L44.0958 98.0858L41.8724 99.5787L42.0128 99.7838L44.2362 98.2909Z" fill="#E5CB9E"/>
<path d="M34.299 104.995L34.1586 104.79L31.9351 106.283L32.0755 106.488L34.299 104.995Z" fill="#E5CB9E"/>
<path d="M36.783 103.317L36.6426 103.112L34.4192 104.604L34.5596 104.81L36.783 103.317Z" fill="#E5CB9E"/>
<path d="M41.7526 99.9662L41.6122 99.7611L39.3887 101.254L39.5291 101.459L41.7526 99.9662Z" fill="#E5CB9E"/>
<path d="M49.2051 94.939L49.0647 94.7339L46.8412 96.2268L46.9816 96.4319L49.2051 94.939Z" fill="#E5CB9E"/>
<path d="M46.7203 96.6141L46.5799 96.4091L44.3564 97.902L44.4968 98.1071L46.7203 96.6141Z" fill="#E5CB9E"/>
<path d="M31.6752 106.461L30.3096 107.376C30.2889 107.488 30.2724 107.599 30.2552 107.711L31.8153 106.665L31.6752 106.461Z" fill="#E5CB9E"/>
<path d="M51.6888 93.2637L51.5484 93.0586L49.3249 94.5515L49.4653 94.7566L51.6888 93.2637Z" fill="#E5CB9E"/>
<path d="M56.6591 89.9102L56.5187 89.7051L54.2953 91.198L54.4357 91.4031L56.6591 89.9102Z" fill="#E5CB9E"/>
<path d="M39.2655 101.644L39.1251 101.439L36.9016 102.932L37.042 103.137L39.2655 101.644Z" fill="#E5CB9E"/>
<path d="M54.1751 91.5839L54.0347 91.3788L51.8112 92.8717L51.9516 93.0768L54.1751 91.5839Z" fill="#E5CB9E"/>
<path d="M61.6264 86.5628L61.486 86.3577L59.2625 87.8506L59.4029 88.0557L61.6264 86.5628Z" fill="#E5CB9E"/>
<path d="M59.1447 88.2349L59.0043 88.0298L56.7808 89.5227L56.9212 89.7278L59.1447 88.2349Z" fill="#E5CB9E"/>
<path d="M40.4746 103.427L40.3342 103.222L38.1107 104.715L38.2511 104.92L40.4746 103.427Z" fill="#E5CB9E"/>
<path d="M52.8994 95.0462L52.759 94.8411L50.5355 96.334L50.6759 96.5391L52.8994 95.0462Z" fill="#E5CB9E"/>
<path d="M63.0954 88.162L64.6318 87.132C64.5551 87.0843 64.4793 87.0351 64.4001 86.9892L62.9553 87.9577L63.0954 88.162Z" fill="#E5CB9E"/>
<path d="M33.0244 108.451L32.884 108.246L30.6605 109.739L30.8009 109.944L33.0244 108.451Z" fill="#E5CB9E"/>
<path d="M35.5084 106.776L35.368 106.571L33.1446 108.064L33.285 108.269L35.5084 106.776Z" fill="#E5CB9E"/>
<path d="M42.9628 101.747L42.8224 101.542L40.5989 103.035L40.7393 103.24L42.9628 101.747Z" fill="#E5CB9E"/>
<path d="M30.3984 109.923L30.0158 110.178C30.0295 110.266 30.047 110.352 30.0638 110.439L30.5368 110.124L30.3984 109.923Z" fill="#E5CB9E"/>
<path d="M47.9302 98.3952L47.7897 98.1901L45.5663 99.683L45.7067 99.8881L47.9302 98.3952Z" fill="#E5CB9E"/>
<path d="M50.4138 96.7229L50.2734 96.5178L48.05 98.0107L48.1904 98.2158L50.4138 96.7229Z" fill="#E5CB9E"/>
<path d="M37.9925 105.098L37.8521 104.893L35.6286 106.385L35.769 106.591L37.9925 105.098Z" fill="#E5CB9E"/>
<path d="M55.3849 93.3694L55.2445 93.1643L53.021 94.6572L53.1614 94.8623L55.3849 93.3694Z" fill="#E5CB9E"/>
<path d="M45.4465 100.075L45.3061 99.8699L43.0827 101.363L43.2231 101.568L45.4465 100.075Z" fill="#E5CB9E"/>
<path d="M62.8366 88.3467L62.6962 88.1416L60.4728 89.6345L60.6132 89.8396L62.8366 88.3467Z" fill="#E5CB9E"/>
<path d="M60.3538 90.016L60.2133 89.8109L57.9899 91.3038L58.1303 91.5089L60.3538 90.016Z" fill="#E5CB9E"/>
<path d="M57.8689 91.6912L57.7285 91.4861L55.5051 92.979L55.6455 93.1841L57.8689 91.6912Z" fill="#E5CB9E"/>
<path d="M31.6013 111.707L30.6574 112.338C30.6986 112.409 30.7431 112.478 30.7874 112.548L31.7404 111.911L31.6013 111.707Z" fill="#E5CB9E"/>
<path d="M61.5568 91.8001L61.4164 91.595L59.1929 93.0879L59.3333 93.293L61.5568 91.8001Z" fill="#E5CB9E"/>
<path d="M39.1952 106.885L39.0547 106.68L36.8313 108.173L36.9717 108.378L39.1952 106.885Z" fill="#E5CB9E"/>
<path d="M49.1321 100.181L48.9917 99.9757L46.7682 101.469L46.9086 101.674L49.1321 100.181Z" fill="#E5CB9E"/>
<path d="M64.3031 89.9402L66.3208 88.5859C66.2717 88.5185 66.2225 88.4522 66.1706 88.3876L64.1627 89.7353L64.3031 89.9402Z" fill="#E5CB9E"/>
<path d="M34.2278 110.235L34.0874 110.03L31.8639 111.523L32.0043 111.728L34.2278 110.235Z" fill="#E5CB9E"/>
<path d="M54.1032 96.8304L53.9628 96.6252L51.7393 98.1182L51.8797 98.3233L54.1032 96.8304Z" fill="#E5CB9E"/>
<path d="M36.7119 108.557L36.5715 108.352L34.348 109.845L34.4884 110.05L36.7119 108.557Z" fill="#E5CB9E"/>
<path d="M64.0409 90.1263L63.9005 89.9211L61.677 91.4141L61.8174 91.6192L64.0409 90.1263Z" fill="#E5CB9E"/>
<path d="M41.6781 105.21L41.5376 105.005L39.3142 106.497L39.4546 106.703L41.6781 105.21Z" fill="#E5CB9E"/>
<path d="M44.167 103.531L44.0266 103.326L41.8031 104.819L41.9436 105.024L44.167 103.531Z" fill="#E5CB9E"/>
<path d="M59.0709 93.4753L58.9305 93.2701L56.707 94.763L56.8475 94.9682L59.0709 93.4753Z" fill="#E5CB9E"/>
<path d="M56.5891 95.1506L56.4487 94.9454L54.2252 96.4384L54.3656 96.6435L56.5891 95.1506Z" fill="#E5CB9E"/>
<path d="M51.6173 98.5055L51.4768 98.3004L49.2534 99.7933L49.3938 99.9984L51.6173 98.5055Z" fill="#E5CB9E"/>
<path d="M46.6492 101.856L46.5088 101.651L44.2853 103.144L44.4257 103.349L46.6492 101.856Z" fill="#E5CB9E"/>
<path d="M52.823 100.288L52.6825 100.083L50.4591 101.576L50.5995 101.781L52.823 100.288Z" fill="#E5CB9E"/>
<path d="M55.3081 98.6128L55.1677 98.4077L52.9442 99.9006L53.0846 100.106L55.3081 98.6128Z" fill="#E5CB9E"/>
<path d="M40.4012 108.664L40.2608 108.459L38.0374 109.952L38.1778 110.157L40.4012 108.664Z" fill="#E5CB9E"/>
<path d="M62.7629 93.5826L62.6225 93.3774L60.399 94.8704L60.5394 95.0755L62.7629 93.5826Z" fill="#E5CB9E"/>
<path d="M37.9172 110.343L37.7768 110.138L35.5533 111.63L35.6937 111.836L37.9172 110.343Z" fill="#E5CB9E"/>
<path d="M50.3378 101.963L50.1974 101.758L47.9739 103.251L48.1143 103.456L50.3378 101.963Z" fill="#E5CB9E"/>
<path d="M60.2773 95.2579L60.1369 95.0527L57.9135 96.5456L58.0539 96.7508L60.2773 95.2579Z" fill="#E5CB9E"/>
<path d="M47.8549 103.64L47.7144 103.435L45.491 104.928L45.6314 105.133L47.8549 103.64Z" fill="#E5CB9E"/>
<path d="M45.3727 105.314L45.2323 105.109L43.0088 106.602L43.1492 106.807L45.3727 105.314Z" fill="#E5CB9E"/>
<path d="M35.4335 112.016L35.2931 111.811L33.0696 113.304L33.21 113.509L35.4335 112.016Z" fill="#E5CB9E"/>
<path d="M32.8106 113.485L32.1297 113.94C32.1981 113.993 32.2649 114.047 32.3365 114.097L32.9505 113.687L32.8106 113.485Z" fill="#E5CB9E"/>
<path d="M65.2477 91.9073L65.1072 91.7021L62.8838 93.1951L63.0242 93.4002L65.2477 91.9073Z" fill="#E5CB9E"/>
<path d="M65.508 91.7241L67.1852 90.599C67.1647 90.5145 67.1372 90.4327 67.1131 90.3486L65.3677 91.5194L65.508 91.7241Z" fill="#E5CB9E"/>
<path d="M42.8838 106.994L42.7433 106.789L40.5198 108.281L40.6603 108.487L42.8838 106.994Z" fill="#E5CB9E"/>
<path d="M57.7937 96.9361L57.6532 96.731L55.4297 98.2239L55.5702 98.429L57.7937 96.9361Z" fill="#E5CB9E"/>
<path d="M49.062 105.426L48.9216 105.221L46.6982 106.713L46.8386 106.919L49.062 105.426Z" fill="#E5CB9E"/>
<path d="M51.5449 103.749L51.4045 103.544L49.181 105.037L49.3214 105.242L51.5449 103.749Z" fill="#E5CB9E"/>
<path d="M46.578 107.098L46.4376 106.893L44.2141 108.386L44.3545 108.591L46.578 107.098Z" fill="#E5CB9E"/>
<path d="M66.4514 93.6959L66.311 93.4908L64.0875 94.9838L64.228 95.1889L66.4514 93.6959Z" fill="#E5CB9E"/>
<path d="M66.7119 93.513L67.155 93.2173C67.1659 93.1121 67.1792 93.0063 67.186 92.902L66.5729 93.3111L66.7119 93.513Z" fill="#E5CB9E"/>
<path d="M54.0297 102.071L53.8893 101.866L51.6659 103.358L51.8063 103.564L54.0297 102.071Z" fill="#E5CB9E"/>
<path d="M44.0909 108.779L43.9505 108.574L41.727 110.067L41.8674 110.272L44.0909 108.779Z" fill="#E5CB9E"/>
<path d="M59.0005 98.7201L58.8601 98.515L56.6366 100.008L56.777 100.213L59.0005 98.7201Z" fill="#E5CB9E"/>
<path d="M36.4996 113.6L34.4693 114.963C34.5709 114.995 34.6771 115.023 34.7815 115.052L36.6393 113.805L36.4989 113.6L36.4996 113.6Z" fill="#E5CB9E"/>
<path d="M63.9689 95.3696L63.8285 95.1646L61.605 96.6575L61.7454 96.8626L63.9689 95.3696Z" fill="#E5CB9E"/>
<path d="M56.513 100.398L56.3726 100.193L54.1491 101.686L54.2895 101.891L56.513 100.398Z" fill="#E5CB9E"/>
<path d="M41.6088 110.451L41.4684 110.246L39.2449 111.739L39.3853 111.944L41.6088 110.451Z" fill="#E5CB9E"/>
<path d="M39.1236 112.125L38.9832 111.92L36.7597 113.413L36.9001 113.618L39.1236 112.125Z" fill="#E5CB9E"/>
<path d="M61.4845 97.0449L61.3441 96.8398L59.1207 98.3327L59.2611 98.5378L61.4845 97.0449Z" fill="#E5CB9E"/>
<path d="M52.7537 105.531L52.6133 105.326L50.3898 106.819L50.5302 107.024L52.7537 105.531Z" fill="#E5CB9E"/>
<path d="M60.2088 100.504L60.0684 100.299L57.8449 101.792L57.9853 101.997L60.2088 100.504Z" fill="#E5CB9E"/>
<path d="M57.7229 102.181L57.5825 101.976L55.359 103.469L55.4994 103.674L57.7229 102.181Z" fill="#E5CB9E"/>
<path d="M55.2373 103.856L55.0969 103.651L52.8735 105.144L53.0139 105.349L55.2373 103.856Z" fill="#E5CB9E"/>
<path d="M47.7863 108.882L47.6459 108.677L45.4224 110.17L45.5629 110.375L47.7863 108.882Z" fill="#E5CB9E"/>
<path d="M50.2693 107.207L50.1289 107.002L47.9054 108.494L48.0458 108.7L50.2693 107.207Z" fill="#E5CB9E"/>
<path d="M42.8168 112.234L42.6763 112.029L40.4529 113.522L40.5933 113.727L42.8168 112.234Z" fill="#E5CB9E"/>
<path d="M40.1919 113.704L37.9684 115.197L37.9953 115.236C38.1135 115.238 38.2317 115.24 38.3509 115.24L40.3323 113.909L40.1919 113.704Z" fill="#E5CB9E"/>
<path d="M65.1773 97.1537L65.0368 96.9486L62.8134 98.4415L62.9538 98.6466L65.1773 97.1537Z" fill="#E5CB9E"/>
<path d="M45.2981 110.563L45.1577 110.358L42.9342 111.851L43.0746 112.056L45.2981 110.563Z" fill="#E5CB9E"/>
<path d="M62.6913 98.829L62.5509 98.6239L60.3275 100.117L60.4679 100.322L62.6913 98.829Z" fill="#E5CB9E"/>
<path d="M65.433 96.9721L65.9999 96.5931C66.0549 96.4588 66.1065 96.3249 66.1574 96.1914L65.2934 96.769L65.433 96.9721Z" fill="#E5CB9E"/>
<path d="M61.672 102.104L62.9244 101.264C63.072 101.068 63.2172 100.872 63.3569 100.675L61.5311 101.9L61.6713 102.105L61.672 102.104Z" fill="#E5CB9E"/>
<path d="M61.4122 102.287L61.2718 102.082L59.0483 103.575L59.1887 103.78L61.4122 102.287Z" fill="#E5CB9E"/>
<path d="M48.9917 110.664L48.8513 110.459L46.6278 111.952L46.7682 112.157L48.9917 110.664Z" fill="#E5CB9E"/>
<path d="M46.503 112.347L46.3626 112.142L44.1391 113.635L44.2795 113.84L46.503 112.347Z" fill="#E5CB9E"/>
<path d="M43.8803 113.811L43.1191 114.32C43.3534 114.264 43.5897 114.205 43.8271 114.143L44.0197 114.014L43.8803 113.811Z" fill="#E5CB9E"/>
<path d="M56.4423 105.64L56.3019 105.435L54.0784 106.928L54.2188 107.133L56.4423 105.64Z" fill="#E5CB9E"/>
<path d="M53.9575 107.316L53.8171 107.11L51.5936 108.603L51.734 108.808L53.9575 107.316Z" fill="#E5CB9E"/>
<path d="M58.9278 103.965L58.7874 103.76L56.5639 105.253L56.7043 105.458L58.9278 103.965Z" fill="#E5CB9E"/>
<path d="M51.4742 108.991L51.3338 108.786L49.1103 110.279L49.2507 110.484L51.4742 108.991Z" fill="#E5CB9E"/>
<path d="M61.6226 86.5051L62.7125 88.1172L62.8337 88.2965L63.9236 89.9086L64.0448 90.0878L65.1347 91.6999L65.2559 91.8792L66.3459 93.4913L66.467 93.6706L66.9034 94.316C66.9333 94.1928 66.9604 94.0707 66.9854 93.9492L66.6931 93.5169L66.5719 93.3376L65.482 91.7255L65.3608 91.5462L64.2709 89.9341L64.1497 89.7549L63.0597 88.1428L62.9386 87.9635L61.8486 86.3514L61.7538 86.2111C61.632 86.1894 61.5083 86.1699 61.3837 86.1517L61.5014 86.3259L61.6226 86.5051Z" fill="#E5CB9E"/>
<path d="M59.0194 88.0061L59.1405 88.1852L60.2291 89.7964L60.3501 89.9756L61.4388 91.5868L61.5599 91.766L62.6485 93.3772L62.7695 93.5564L63.8582 95.1676L63.9792 95.3468L65.0679 96.958L65.1889 97.1371L65.4882 97.5801C65.5363 97.4865 65.5833 97.3926 65.6292 97.2996L65.4157 96.9836L65.2946 96.8045L64.206 95.1933L64.085 95.0141L62.9963 93.4029L62.8753 93.2237L61.7866 91.6125L61.6656 91.4334L60.5769 89.8221L60.4559 89.643L59.3672 88.0318L59.2462 87.8526L58.1575 86.2414L58.1413 86.2173C58.0378 86.2251 57.9339 86.2347 57.8294 86.2449L57.9315 86.396L59.0194 88.0061Z" fill="#E5CB9E"/>
<path d="M55.4499 88.0615L56.5381 89.6724L56.6591 89.8515L57.7472 91.4625L57.8682 91.6416L58.9564 93.2525L59.0774 93.4317L60.1656 95.0426L60.2866 95.2217L61.3747 96.8326L61.4957 97.0117L62.5839 98.6227L62.7049 98.8018L63.7038 100.281C63.7607 100.2 63.816 100.12 63.8709 100.039L62.9312 98.6478L62.8102 98.4686L61.7221 96.8577L61.6011 96.6786L60.5129 95.0677L60.3919 94.8885L59.3037 93.2776L59.1827 93.0985L58.0946 91.4875L57.9736 91.3084L56.8854 89.6975L56.7644 89.5184L55.6762 87.9074L55.5553 87.7283L54.9337 86.8081C54.8389 86.83 54.7438 86.8513 54.6482 86.8746L55.3289 87.8824L55.4499 88.0615Z" fill="#E5CB9E"/>
<path d="M52.842 89.5502L52.9629 89.7293L54.0508 91.3401L54.1718 91.5192L55.2597 93.13L55.3807 93.309L56.4686 94.9198L56.5896 95.099L57.6775 96.7097L57.7984 96.8888L58.8864 98.4996L59.0073 98.6787L60.0952 100.289L60.2162 100.469L61.3041 102.079L61.4251 102.258L61.6975 102.662C61.76 102.591 61.8225 102.52 61.8836 102.448L61.6513 102.104L61.5304 101.925L60.4425 100.315L60.3215 100.135L59.2336 98.5247L59.1126 98.3456L58.0247 96.7348L57.9037 96.5557L56.8158 94.9449L56.6949 94.7658L55.6069 93.155L55.486 92.9759L54.3981 91.3652L54.2771 91.1861L53.1892 89.5753L53.0682 89.3962L51.9803 87.7854L51.9451 87.7333C51.8566 87.7644 51.7674 87.7958 51.6787 87.8279L51.754 87.9394L52.842 89.5502Z" fill="#E5CB9E"/>
<path d="M49.2682 89.6278L50.356 91.2385L50.4769 91.4176L51.5647 93.0283L51.6856 93.2073L52.7734 94.818L52.8943 94.9971L53.9821 96.6078L54.1031 96.7869L55.1908 98.3976L55.3118 98.5767L56.3995 100.187L56.5205 100.366L57.6082 101.977L57.7292 102.156L58.817 103.767L58.9379 103.946L59.5365 104.832C59.6036 104.768 59.6697 104.704 59.736 104.639L59.1637 103.791L59.0428 103.612L57.955 102.002L57.834 101.823L56.7463 100.212L56.6253 100.033L55.5376 98.4221L55.4166 98.243L54.3289 96.6323L54.2079 96.4533L53.1201 94.8426L52.9992 94.6635L51.9114 93.0528L51.7905 92.8737L50.7027 91.263L50.5818 91.0839L49.494 89.4733L49.373 89.2941L49.1188 88.9177C49.0349 88.9556 48.951 88.9934 48.8659 89.0322L49.1465 89.4476L49.2682 89.6278Z" fill="#E5CB9E"/>
<path d="M46.7861 91.3254L47.8738 92.936L47.9947 93.1151L49.0824 94.7257L49.2034 94.9048L50.291 96.5155L50.412 96.6945L51.4997 98.3052L51.6206 98.4843L52.7083 100.095L52.8292 100.274L53.9169 101.885L54.0379 102.064L55.1256 103.674L55.2465 103.853L56.3342 105.464L56.4551 105.643L57.2496 106.82C57.3205 106.761 57.3909 106.703 57.4612 106.645L56.6807 105.49L56.5598 105.31L55.4721 103.7L55.3512 103.521L54.2635 101.91L54.1425 101.731L53.0548 100.12L52.9339 99.9413L51.8462 98.3307L51.7253 98.1516L50.6376 96.5409L50.5166 96.3619L49.429 94.7512L49.308 94.5722L48.2203 92.9615L48.0994 92.7824L47.0117 91.1718L46.8908 90.9927L46.4283 90.3078C46.3482 90.3515 46.2684 90.3966 46.1882 90.4412L46.6646 91.1467L46.7861 91.3254Z" fill="#E5CB9E"/>
<path d="M44.307 92.9916L45.3946 94.6022L45.5156 94.7813L46.6032 96.3919L46.7242 96.571L47.8118 98.1816L47.9328 98.3607L49.0204 99.9713L49.1414 100.15L50.229 101.761L50.35 101.94L51.4376 103.551L51.5586 103.73L52.6462 105.34L52.7671 105.519L53.8548 107.13L53.9757 107.309L54.8509 108.605C54.9251 108.553 55.0013 108.501 55.0752 108.448L54.2023 107.156L54.0814 106.977L52.9937 105.366L52.8728 105.187L51.7851 103.576L51.6642 103.397L50.5766 101.787L50.4556 101.608L49.368 99.9969L49.247 99.8179L48.1594 98.2073L48.0384 98.0282L46.9508 96.4176L46.8298 96.2384L45.7422 94.6278L45.6212 94.4488L44.5336 92.8381L44.4126 92.6591L43.8578 91.8375C43.7817 91.8868 43.706 91.9383 43.6297 91.9886L44.1868 92.8136L44.307 92.9916Z" fill="#E5CB9E"/>
<path d="M41.8228 94.6693L42.9105 96.28L43.0314 96.459L44.1191 98.0697L44.24 98.2487L45.3277 99.8594L45.4486 100.038L46.5363 101.649L46.6572 101.828L47.7449 103.439L47.8658 103.618L48.9535 105.228L49.0744 105.408L50.1621 107.018L50.283 107.197L51.3707 108.808L51.4916 108.987L52.3389 110.242C52.4167 110.195 52.4946 110.147 52.5725 110.099L51.7178 108.833L51.5969 108.654L50.5092 107.043L50.3883 106.864L49.3006 105.254L49.1797 105.074L48.092 103.464L47.9711 103.285L46.8834 101.674L46.7625 101.495L45.6748 99.8844L45.5539 99.7053L44.4662 98.0947L44.3453 97.9156L43.2576 96.305L43.1367 96.1259L42.049 94.5153L41.9281 94.3363L41.3914 93.5415C41.3181 93.5964 41.2448 93.6513 41.1725 93.7064L41.7019 94.4903L41.8228 94.6693Z" fill="#E5CB9E"/>
<path d="M39.3331 96.3153L40.4209 97.926L40.5418 98.1051L41.6295 99.7157L41.7505 99.8948L42.8382 101.505L42.9591 101.685L44.0468 103.295L44.1678 103.474L45.2555 105.085L45.3764 105.264L46.4642 106.875L46.5851 107.054L47.6728 108.664L47.7938 108.843L48.8815 110.454L49.0024 110.633L49.7095 111.68C49.7911 111.639 49.8721 111.595 49.9539 111.553L49.2286 110.479L49.1077 110.3L48.02 108.689L47.899 108.51L46.8113 106.9L46.6904 106.721L45.6027 105.11L45.4817 104.931L44.394 103.32L44.2731 103.141L43.1853 101.531L43.0644 101.351L41.9767 99.7408L41.8557 99.5617L40.768 97.951L40.6471 97.772L39.5594 96.1613L39.4384 95.9822L39.0312 95.3792C38.9623 95.4394 38.8915 95.4993 38.8231 95.5601L39.2122 96.1362L39.3331 96.3153Z" fill="#E5CB9E"/>
<path d="M36.8507 98.0172L37.9385 99.6279L38.0595 99.807L39.1473 101.418L39.2682 101.597L40.3561 103.208L40.477 103.387L41.5648 104.997L41.6858 105.176L42.7736 106.787L42.8946 106.966L43.9824 108.577L44.1034 108.756L45.1912 110.367L45.3121 110.546L46.3999 112.157L46.5209 112.336L46.9657 112.994C47.0509 112.96 47.1368 112.922 47.2228 112.886L46.7471 112.182L46.6262 112.003L45.5383 110.392L45.4174 110.213L44.3296 108.602L44.2086 108.423L43.1208 106.812L42.9998 106.633L41.912 105.022L41.791 104.843L40.7032 103.233L40.5823 103.054L39.4945 101.443L39.3735 101.264L38.2857 99.653L38.1647 99.4739L37.0769 97.8632L36.956 97.6841L36.7979 97.4501C36.7333 97.5166 36.6668 97.5827 36.6026 97.6498L36.7294 97.8375L36.8507 98.0172Z" fill="#E5CB9E"/>
<path d="M35.5745 101.481L36.6625 103.092L36.7835 103.271L37.8715 104.882L37.9925 105.061L39.0805 106.672L39.2015 106.851L40.2895 108.462L40.4105 108.641L41.4985 110.252L41.6194 110.431L42.7075 112.042L42.8284 112.221L43.9164 113.832L44.0374 114.011L44.0768 114.069C44.1681 114.042 44.259 114.015 44.351 113.986L44.2637 113.857L44.1427 113.678L43.0547 112.067L42.9337 111.888L41.8457 110.277L41.7248 110.098L40.6368 108.487L40.5158 108.308L39.4278 106.697L39.3068 106.518L38.2188 104.907L38.0978 104.728L37.0098 103.117L36.8888 102.938L35.8008 101.327L35.6799 101.148L34.7016 99.7C34.6418 99.7749 34.5821 99.8498 34.5233 99.925L35.4536 101.302L35.5745 101.481Z" fill="#E5CB9E"/>
<path d="M33.0889 103.156L34.1772 104.767L34.2982 104.946L35.3866 106.557L35.5076 106.737L36.5959 108.348L36.7169 108.527L37.8053 110.138L37.9263 110.317L39.0146 111.928L39.1356 112.107L40.224 113.718L40.345 113.897L41.0065 114.876C41.1041 114.86 41.2024 114.841 41.3009 114.823L40.571 113.743L40.4499 113.563L39.3616 111.952L39.2406 111.773L38.1522 110.162L38.0312 109.983L36.9429 108.372L36.8219 108.193L35.7336 106.582L35.6126 106.403L34.5242 104.792L34.4032 104.613L33.3149 103.002L33.1938 102.822L32.7821 102.213C32.7289 102.298 32.675 102.383 32.6238 102.468L32.9675 102.977L33.0889 103.156Z" fill="#E5CB9E"/>
<path d="M31.8087 106.625L32.8977 108.237L33.0188 108.416L34.1078 110.027L34.2289 110.206L35.3179 111.818L35.439 111.997L36.528 113.609L36.6491 113.788L37.658 115.281C37.7667 115.282 37.877 115.28 37.9877 115.279L37.9645 115.245L36.8755 113.634L36.7544 113.455L35.6654 111.843L35.5443 111.664L34.4554 110.052L34.3343 109.873L33.2452 108.262L33.1242 108.083L32.0352 106.471L31.9141 106.292L31.1203 105.117C31.078 105.22 31.0362 105.322 30.9971 105.424L31.6876 106.446L31.8087 106.625Z" fill="#E5CB9E"/>
<path d="M30.5339 110.073L31.6252 111.686L31.7466 111.866L32.8379 113.479L32.9593 113.658L33.6831 114.728C33.8269 114.786 33.9735 114.84 34.1241 114.89L33.1866 113.504L33.0653 113.325L31.9739 111.712L31.8526 111.533L30.7612 109.92L30.6399 109.74L30.0215 108.826C30.0126 108.985 30.008 109.142 30.0091 109.296L30.4139 109.895L30.5339 110.073Z" fill="#E5CB9E"/>
<path d="M64.6151 90.917C61.6484 86.6096 52.2748 87.7631 43.6795 93.4935C35.0836 99.2242 30.5212 107.362 33.488 111.669C36.4547 115.976 45.8283 114.823 54.4235 109.093C63.0199 103.363 67.5823 95.225 64.6151 90.917ZM34.4943 110.998C31.739 106.998 36.0231 99.4087 44.0629 94.0487C52.1028 88.6886 60.8543 87.586 63.6101 91.5871C66.3654 95.5876 62.082 103.176 54.0415 108.537C46.001 113.897 37.2501 114.999 34.4943 110.998Z" fill="#51493C"/>
<path d="M38.1816 85.2564C46.7678 79.5165 55.8152 76.5609 62.7145 76.6921L59.3554 71.8025C52.6294 71.1934 43.3206 74.0131 34.5221 79.895C26.1469 85.494 20.2171 92.5437 18.008 98.7197L21.3979 103.654C24.0467 97.5152 29.9997 90.7261 38.1816 85.2564Z" fill="#FFC85A"/>
<path d="M38.9191 86.3455C47.5053 80.6056 56.5527 77.65 63.452 77.7812L60.0929 72.8916C53.3669 72.2825 44.0581 75.1022 35.2596 80.9841C26.8844 86.5831 20.9546 93.6328 18.7455 99.8088L22.1354 104.743C24.7842 98.6044 30.7372 91.8153 38.9191 86.3455Z" fill="#FFB64D"/>
<path d="M45.3454 96.9239C51.6277 93.8986 58.0541 93.3203 60.0959 95.5159C60.6891 94.0548 60.7228 92.7476 60.0703 91.7998C58.3311 89.2733 52.3717 90.2597 46.7601 94.003C44.1953 95.714 42.1557 97.7037 40.8538 99.6025C42.1411 98.6533 43.6522 97.7401 45.3454 96.9239Z" fill="#F9E4B7"/>
<path d="M23.4249 106.776L27.8091 113.154C34.4769 113.891 43.8391 111.122 52.6864 105.211C61.0995 99.5908 67.0117 92.4886 69.1011 86.3199L64.8879 80.191C64.2355 86.3613 58.3573 94.3062 49.304 100.354C39.6744 106.787 29.3593 109.133 23.4249 106.776Z" fill="#FFC85A"/>
<path d="M163.832 131.395C161.776 131.681 155.811 142.465 156.24 143.73C156.669 144.995 169.476 155.306 170.693 155.147C171.909 154.988 180.543 145.775 180.603 144.275C180.664 142.774 165.087 131.22 163.832 131.395Z" fill="#DBD2AF"/>
<path d="M180.589 144.192C180.601 143.877 179.921 143.117 178.835 142.119C177.005 144.979 170.4 151.888 169.345 152.027C168.367 152.155 159.945 145.56 156.385 142.26C156.138 142.931 156.022 143.429 156.095 143.645C156.525 144.915 169.402 155.276 170.625 155.117C171.848 154.957 180.527 145.7 180.589 144.192Z" fill="#D1C099"/>
<path d="M161.164 158.005C162.636 155.282 162.24 152.162 160.28 151.039C158.319 149.915 155.537 151.212 154.066 153.935C152.594 156.659 152.99 159.778 154.95 160.902C156.911 162.026 159.693 160.729 161.164 158.005Z" fill="#352D31"/>
<path d="M156.64 153.66C152.811 157.368 150.723 165.165 151.15 170.143C151.602 175.413 155.057 180.369 160.07 182.442C165.669 184.757 171.041 180.343 175.188 176.793C178.442 174.006 181.496 171.008 184.519 167.992C187.866 164.653 192.185 160.268 197.183 162.986C198.557 163.733 199.686 161.529 198.316 160.784C189.377 155.923 180.841 168.558 175.178 173.63C172.341 176.17 168.303 180.043 164.331 180.475C160.096 180.938 156.705 177.74 154.973 174.312C152.328 169.076 153.917 159.626 158.507 155.183C159.669 154.057 157.8 152.538 156.64 153.66Z" fill="#352D31"/>
<path d="M164.902 194.681C164.902 194.681 155.757 188.36 151.764 178.136L151.558 182.424C155.146 191.844 165.099 199.32 165.099 199.32L164.902 194.681Z" fill="#FFB64D"/>
<path d="M163.774 133.722C162.218 133.939 157.705 142.098 158.03 143.056C158.354 144.013 168.046 151.815 168.965 151.694C169.886 151.573 176.419 144.603 176.464 143.468C176.51 142.332 164.724 133.59 163.774 133.722Z" fill="#598A99"/>
<path d="M56.5365 117.287L52.9926 112.139L49.2722 114.62L52.8161 119.769L56.5365 117.287Z" fill="#51493C"/>
<path d="M65.209 111.439L61.6651 106.29L57.9447 108.772L61.4886 113.921L65.209 111.439Z" fill="#51493C"/>
<path d="M54.9721 116.686L46.8597 104.772L45.025 106.01L53.1373 117.924L54.9721 116.686Z" fill="#FFC85A"/>
<path d="M63.6469 110.835L55.5345 98.9211L53.6997 100.159L61.8121 112.073L63.6469 110.835Z" fill="#FFC85A"/>
<path d="M24.338 108.141L28.7221 114.518C35.3899 115.255 44.7521 112.486 53.5994 106.576C62.0125 100.955 67.9247 93.8531 70.0141 87.6843L65.8009 81.5554C65.1486 87.7258 59.2704 95.6707 50.217 101.719C40.5878 108.152 30.2723 110.497 24.338 108.141Z" fill="#FFB64D"/>
<path d="M81.8705 140.197L76.4075 132.251C75.4074 130.797 73.3293 130.464 71.7665 131.507L71.2263 131.868C69.6635 132.912 69.2073 134.937 70.2074 136.392L75.6704 144.337L81.8705 140.197Z" fill="#FFC85A"/>
<path d="M56.485 148.564L51.0219 140.618C50.0218 139.163 47.9436 138.83 46.3809 139.874L45.8406 140.235C44.2779 141.278 43.8216 143.304 44.8218 144.759L50.2848 152.704L56.485 148.564Z" fill="#FFC85A"/>
<path d="M76.0266 137.699C74.4856 135.451 73.2437 133.249 72.3813 131.334C72.0666 131.442 71.7565 131.577 71.4658 131.772C69.7709 132.907 69.2762 135.111 70.3609 136.693L75.599 144.335L79.2539 141.887C78.1878 140.664 77.0917 139.253 76.0266 137.699Z" fill="#FFB64D"/>
<path d="M164.424 138.142C165.122 138.044 171.672 142.739 175.089 145.692C175.92 144.668 176.499 143.825 176.512 143.49C176.558 142.353 164.746 133.594 163.793 133.726C162.234 133.944 157.711 142.119 158.037 143.078C158.114 143.308 158.736 143.934 159.642 144.749C160.996 142.02 163.376 138.288 164.424 138.142Z" fill="#598A99"/>
<path opacity="0.28" d="M158.939 144.279C160.02 145.292 161.748 146.746 163.474 148.115L174.234 140.934C172.896 139.798 171.175 138.457 169.508 137.227L158.939 144.279Z" fill="#FFFDEE"/>
<path d="M158.696 157.027C159.664 155.236 159.403 153.184 158.114 152.445C156.825 151.706 154.995 152.559 154.028 154.349C153.06 156.14 153.321 158.192 154.61 158.931C155.899 159.67 157.728 158.818 158.696 157.027Z" fill="#5B6666"/>
<path d="M157.561 156.793C158.064 155.862 157.927 154.796 157.257 154.411C156.587 154.027 155.636 154.47 155.133 155.401C154.63 156.333 154.767 157.399 155.437 157.783C156.108 158.168 157.059 157.724 157.561 156.793Z" fill="#30282C"/>
<path d="M156.712 157.056C156.969 156.58 156.9 156.034 156.557 155.838C156.214 155.641 155.727 155.867 155.47 156.344C155.213 156.82 155.283 157.366 155.626 157.562C155.968 157.759 156.455 157.532 156.712 157.056Z" fill="#5B6666"/>
<path d="M203.501 165.951C200.564 162.013 194.644 160.775 189.502 163.272C184.696 165.607 182.13 170.446 182.972 174.885C185.909 178.823 191.828 180.061 196.971 177.563C201.777 175.23 204.343 170.391 203.501 165.951Z" fill="#FFC85A"/>
<path d="M203.768 155.751C203.853 154.09 203.511 152.462 202.854 150.859L199.193 151.671C199.201 153.447 199.501 155.079 200.106 156.562L203.768 155.751Z" fill="#4C4347"/>
<path d="M291.721 239.902C294.337 236.367 301.124 236.484 309.351 243.412C319.476 251.94 320.542 252.31 331.178 254.404C328.51 257.641 330.22 264.072 336.261 276.212C324.002 273.939 315.238 267.804 307.954 253.236C303.162 243.651 290.819 241.121 291.721 239.902Z" fill="#42393D"/>
<path d="M293.517 205.686C293.539 201.38 296.978 201.467 309.745 198.169C322.512 194.871 325.4 194.131 341.22 196.373C338.754 200.593 342.957 208.117 350.939 213.805C338.172 217.103 326.35 210.082 314.617 207.706C303.069 205.366 293.509 207.171 293.517 205.686Z" fill="#42393D"/>
<path d="M319.557 265.072C324.815 270.108 330.702 273.39 335.522 274.366C330.133 263.27 328.681 257.258 331.226 254.17C320.838 252.124 319.583 251.72 310.079 243.739C307.863 248.592 311.681 257.53 319.557 265.072Z" fill="#4F4449"/>
<path d="M341.361 196.072C330.53 194.535 325.813 194.411 319.762 195.56C319.02 196.564 318.515 197.653 318.318 198.819C317.208 205.381 325.875 211.724 337.676 212.985C341.952 213.443 346.045 213.162 349.589 212.317C342.599 206.826 339.066 200.004 341.361 196.072Z" fill="#4F4449"/>
<path d="M238.285 264.137C237.083 263.574 233.651 259.845 231.001 256.564C229.972 255.289 230.162 253.627 231.47 252.584L236.873 248.274C243.159 252.431 245.408 259.509 244.384 260.377C243.358 261.247 239.744 264.821 238.285 264.137Z" fill="#4F4449"/>
<path d="M230.71 265.969C230.414 265.436 231.902 261.514 229.898 255.555L235.683 258.542C236.167 260.125 234.604 266.117 233.712 266.747C232.715 267.451 231.138 266.741 230.71 265.969Z" fill="#4F4449"/>
<path d="M238.924 269.728C238.612 269.32 236.046 264.467 234.542 260.098L238.57 261.024C238.57 261.024 241.588 268.66 241.199 269.473C240.81 270.284 239.378 270.32 238.924 269.728Z" fill="#4F4449"/>
<path d="M243.614 268.073C243.072 267.874 240.779 263.703 238.596 259.551L242.573 260.081C242.573 260.081 245.908 266.382 245.678 267.213C245.448 268.038 244.152 268.271 243.614 268.073Z" fill="#4F4449"/>
<path d="M241.266 252.158C246.495 256.453 248.784 264.083 248.517 264.634C248.252 265.184 247.12 266.336 246.604 265.595C246.081 264.844 244.287 260.626 243.343 259.926C242.384 259.214 235.739 255.239 235.776 255.067C235.814 254.895 241.266 252.158 241.266 252.158Z" fill="#4F4449"/>
<path d="M240.951 252.19L231.283 258.536L225.847 254.066L236.361 246.234L240.951 252.19Z" fill="#4F4449"/>
</svg>
