<svg width="100" height="156" viewBox="0 0 100 156" fill="none" xmlns="http://www.w3.org/2000/svg">
<rect width="100" height="156" fill="#1E1E1E"/>
<g clip-path="url(#clip0_0_1)">
<rect width="1512" height="10298" transform="translate(-1269 -1542)" fill="#0B0F18"/>
<g clip-path="url(#clip1_0_1)">
<path d="M-116.033 99.873C-114.518 99.864 -113.003 99.855 -111.442 99.8457C-108.999 99.8657 -108.999 99.8657 -106.508 99.886C-104.825 99.8853 -103.143 99.8846 -101.409 99.8838C-97.8505 99.8872 -94.292 99.9013 -90.7336 99.9252C-85.2979 99.9592 -79.8633 99.9549 -74.4275 99.9453C-70.9681 99.9534 -67.5086 99.9636 -64.0493 99.9763C-62.4272 99.975 -60.8052 99.9737 -59.1341 99.9724C-51.3124 100.043 -44.7274 100.29 -37.4181 103.301C-36.9188 105.685 -36.4195 108.069 -35.9051 110.526C-34.064 110.615 -32.2228 110.705 -30.3259 110.797C-25.4026 111.423 -23.5734 112.116 -19.2621 114.861C-14.9885 120.983 -15.6689 124.942 -16.2361 132.201C-21.7283 132.201 -27.2205 132.201 -32.8791 132.201C-31.6952 133.894 -30.5114 135.587 -29.2916 137.332C-14.076 159.685 -14.076 159.685 -14.7231 174.106C-5.23657 174.106 4.24994 174.106 14.0239 174.106C14.0239 173.152 14.0239 172.199 14.0239 171.216C21.014 171.216 28.004 171.216 35.2059 171.216C38.6126 185.58 40.161 200.135 41.9199 214.747C42.4185 218.836 42.9193 222.925 43.4204 227.015C43.7504 229.707 44.0797 232.4 44.4084 235.093C45.8852 247.165 47.4593 259.225 49.1062 271.277C49.2721 272.512 49.438 273.747 49.6089 275.019C49.751 276.055 49.893 277.092 50.0393 278.159C50.3356 281.033 50.3359 283.929 50.3359 286.816C46.3416 286.816 42.3473 286.816 38.2319 286.816C38.2319 284.909 38.2319 283.001 38.2319 281.036C40.2291 281.036 42.2262 281.036 44.2839 281.036C44.2839 278.652 44.2839 276.267 44.2839 273.811C37.2939 273.811 30.3038 273.811 23.1019 273.811C21.6011 269.511 21.1544 266.009 20.7792 261.506C20.6476 259.936 20.5159 258.365 20.3803 256.748C20.2486 255.107 20.117 253.465 19.9814 251.775C19.7751 249.347 19.7751 249.347 19.5647 246.87C18.9116 238.925 18.5629 231.229 18.5629 223.236C9.07642 223.236 -0.410095 223.236 -10.1841 223.236C-9.52878 228.986 -9.52878 228.986 -8.8602 234.852C-8.43692 238.635 -8.01749 242.419 -7.59839 246.202C-7.30884 248.798 -7.01541 251.393 -6.71777 253.987C-1.66776 298.084 -1.66776 298.084 -10.1841 312.826C-5.19119 313.303 -0.198273 313.78 4.94592 314.271C1.93576 320.021 -0.527802 323.184 -5.64508 327.276C-9.38031 327.936 -9.38031 327.936 -13.2101 327.276C-15.7337 324.245 -15.7337 324.245 -18.0328 319.961C-22.3299 312.361 -26.9636 305.171 -32.028 298.015C-32.7081 297.05 -33.3882 296.085 -34.0888 295.09C-35.6984 292.811 -37.3141 290.536 -38.9311 288.261C-38.4318 287.307 -37.9325 286.354 -37.4181 285.371C-36.846 286.005 -36.274 286.639 -35.6846 287.292C-33.0806 290.175 -30.474 293.056 -27.8673 295.938C-26.9672 296.935 -26.0671 297.932 -25.1397 298.96C-24.2669 299.924 -23.3942 300.888 -22.4949 301.881C-21.6947 302.767 -20.8944 303.652 -20.0699 304.564C-17.8626 306.925 -15.5774 309.167 -13.2101 311.381C-5.86893 300.007 -7.18686 291.231 -8.67108 278.146C-9.17038 270.04 -9.66968 261.933 -10.1841 253.581C-54.1216 253.581 -98.0591 253.581 -143.328 253.581C-139.833 270.271 -136.338 286.96 -132.737 304.156C-132.737 307.494 -132.737 310.832 -132.737 314.271C-120.754 314.271 -108.771 314.271 -96.4251 314.271C-96.9244 312.84 -97.4237 311.41 -97.9381 309.936C-98.1586 307.798 -98.3112 305.653 -98.4168 303.507C-98.5119 301.67 -98.5119 301.67 -98.6089 299.796C-98.6684 298.522 -98.7279 297.249 -98.7891 295.938C-98.8545 294.648 -98.9198 293.358 -98.9871 292.029C-99.1475 288.846 -99.3019 285.664 -99.4511 282.481C-92.0482 286.045 -87.5894 291.107 -82.2702 296.987C-59.5125 323.452 -59.5125 323.452 -27.632 335.268C-20.168 335.076 -12.9566 334.531 -5.64508 333.056C-5.64508 334.963 -5.64508 336.871 -5.64508 338.836C-11.6992 339.088 -17.751 339.27 -23.8096 339.392C-25.8659 339.442 -27.9219 339.511 -29.9768 339.599C-32.946 339.723 -35.9182 339.774 -38.8897 339.824C-40.6725 339.877 -42.4552 339.93 -44.292 339.984C-50.0967 338.71 -50.6643 337.939 -54.2931 333.798C-58.9257 328.971 -62.0359 327.913 -68.8583 327.435C-72.2843 327.378 -75.7117 327.379 -79.1379 327.428C-81.8644 327.419 -81.8644 327.419 -84.6461 327.409C-88.4751 327.409 -92.3042 327.433 -96.1329 327.482C-102.002 327.547 -107.864 327.512 -113.733 327.465C-117.457 327.477 -121.182 327.495 -124.906 327.519C-127.54 327.499 -127.54 327.499 -130.227 327.479C-134.781 327.569 -138.896 327.718 -143.328 328.721C-147.517 332.694 -147.517 332.694 -149.38 337.391C-159.301 347.765 -171.614 352.558 -186.153 353.331C-199.166 353.187 -211.223 348.988 -220.621 340.23C-227.297 333.06 -227.297 333.06 -229.569 328.721C-260.275 328.006 -260.275 328.006 -291.602 327.276C-290.547 320.222 -289.55 314.982 -287.063 308.491C-288.561 308.491 -290.059 308.491 -291.602 308.491C-293.1 312.783 -294.598 317.074 -296.141 321.496C-300.491 321.767 -300.491 321.767 -305.219 321.496C-308.776 316.4 -308.57 314.229 -308.434 308.22C-308.407 306.65 -308.38 305.08 -308.351 303.462C-308.316 302.26 -308.281 301.059 -308.245 299.821C-309.244 299.344 -310.242 298.867 -311.271 298.376C-310.772 295.992 -310.272 293.607 -309.758 291.151C-310.881 291.091 -312.005 291.032 -313.162 290.97C-317.323 289.706 -317.323 289.706 -320.822 285.913C-323.74 280.338 -324.226 277.073 -323.375 270.921C-321.041 267.881 -319.319 266.816 -315.81 265.141C-315.118 261.908 -315.118 261.908 -314.892 257.952C-314.765 256.417 -314.639 254.883 -314.508 253.303C-314.319 250.794 -314.319 250.794 -314.126 248.236C-313.826 244.724 -313.526 241.212 -313.224 237.7C-312.763 232.142 -312.312 226.584 -311.882 221.024C-311.462 215.672 -311 210.324 -310.532 204.976C-310.357 202.49 -310.357 202.49 -310.178 199.953C-309.294 190.206 -307.946 185.359 -300.68 178.441C-299.684 173.626 -299.684 173.626 -299.64 168.507C-298.615 158.835 -295.758 152.167 -290.373 143.942C-289.727 142.936 -289.081 141.93 -288.415 140.894C-283.637 134.002 -283.637 134.002 -278.251 132.28C-277.165 132.254 -276.078 132.228 -274.959 132.201C-274.959 131.247 -274.959 130.294 -274.959 129.311C-268.661 129.167 -262.364 129.063 -256.065 128.993C-253.925 128.965 -251.786 128.925 -249.647 128.875C-246.559 128.804 -243.473 128.772 -240.385 128.747C-237.604 128.701 -237.604 128.701 -234.766 128.655C-225.656 129.805 -219.865 134.969 -214.237 141.678C-202.176 157.512 -199.36 174.339 -196.005 193.324C-194.613 201.108 -193.042 208.858 -191.466 216.609C-191.026 218.775 -191.026 218.775 -190.578 220.985C-189.976 223.947 -189.374 226.909 -188.772 229.871C-187.286 237.218 -185.828 244.57 -184.368 251.921C-182.478 261.433 -180.567 270.94 -178.6 280.438C-178.24 282.184 -177.88 283.93 -177.51 285.728C-176.875 288.798 -176.234 291.867 -175.585 294.934C-175.314 296.25 -175.043 297.567 -174.764 298.923C-174.419 300.568 -174.419 300.568 -174.066 302.246C-173.588 305.601 -173.588 305.601 -173.588 314.271C-160.607 314.271 -147.625 314.271 -134.25 314.271C-135.748 308.549 -137.246 302.827 -138.789 296.931C-139.735 292.692 -140.651 288.463 -141.508 284.208C-141.741 283.066 -141.975 281.925 -142.215 280.748C-142.97 277.052 -143.716 273.354 -144.463 269.657C-144.993 267.049 -145.524 264.441 -146.054 261.833C-148.71 248.736 -151.309 235.63 -153.825 222.508C-154.058 221.291 -154.291 220.074 -154.532 218.821C-155.631 213.076 -156.722 207.33 -157.801 201.581C-158.782 196.371 -159.798 191.168 -160.844 185.969C-161.286 183.764 -161.719 181.557 -162.146 179.349C-165.718 160.502 -165.718 160.502 -176.236 144.483C-184.179 135.237 -184.179 135.237 -184.179 132.201C-183.18 132.201 -182.182 132.201 -181.153 132.201C-167.97 145.512 -158.458 161.292 -158.458 179.886C-112.024 179.886 -65.5901 179.886 -17.7491 179.886C-19.8356 160.602 -19.8356 160.602 -28.5292 145.477C-35.9051 135.26 -35.9051 135.26 -35.9051 132.201C-64.8639 132.201 -93.8227 132.201 -123.659 132.201C-121.081 124.814 -118.285 118.81 -114.581 111.971C-120.573 111.971 -126.564 111.971 -132.737 111.971C-128.952 102.934 -126.244 99.866 -116.033 99.873Z" fill="#5E8B8D"/>
<path d="M141.116 124.976C144.029 180.849 144.029 180.849 129.343 201.956C124.804 208.543 124.91 214.414 125.655 222.141C126.128 227.84 124.738 232.274 122.96 237.686C124.286 237.505 125.612 237.325 126.979 237.138C132.908 237.78 134.609 239.511 138.293 243.852C138.975 244.708 139.657 245.564 140.359 246.446C141.811 248.181 143.263 249.916 144.715 251.65C145.4 252.487 146.085 253.324 146.79 254.186C149.059 256.928 151.451 259.549 153.882 262.161C157.563 266.362 160.671 270.679 163.811 275.256C120.893 281.225 120.893 281.225 106.22 271.71C93.9875 262.566 83.9419 250.865 74.5439 239.131C74.3142 246.433 74.5163 252.059 77.1916 258.988C77.7377 260.438 78.2838 261.887 78.8465 263.38C79.4238 264.855 80.0011 266.33 80.5959 267.85C81.7343 270.826 82.8692 273.802 84.0001 276.78C84.5072 278.084 85.0143 279.387 85.5368 280.73C86.6479 283.926 86.6479 283.926 86.6479 286.816C74.6649 286.816 62.682 286.816 50.3359 286.816C47.2088 267.796 44.4921 248.742 41.9198 229.648C41.7598 228.469 41.5999 227.289 41.435 226.074C39.4856 211.674 37.6847 197.274 36.227 182.82C35.7499 178.243 35.2216 174.151 33.6929 169.771C38.0993 167.382 42.5145 165.008 46.9316 162.636C48.1798 161.959 49.4281 161.282 50.7141 160.584C51.9233 159.937 53.1326 159.29 54.3784 158.623C55.4877 158.025 56.5969 157.427 57.7398 156.811C60.9269 155.321 60.9269 155.321 64.173 154.753C67.2336 154.118 67.2336 154.118 68.6478 151.247C69.0956 150.207 69.5434 149.167 70.0049 148.096C86.7879 119.98 111.024 122.273 141.116 124.976Z" fill="#C0D9D8"/>
<path d="M102.091 124.129C104.416 124.178 106.739 124.29 109.059 124.434C113.147 124.613 117.235 124.791 121.447 124.976C121.447 136.897 121.447 148.818 121.447 161.101C109.137 163.367 97.553 164.27 85.0406 164.262C83.6545 164.262 82.2684 164.263 80.8403 164.264C74.9311 164.218 69.666 164.101 63.9531 162.546C66.2283 154.844 71.6053 150.155 77.2864 144.573C79.1583 142.711 81.0279 140.846 82.8952 138.98C83.8049 138.087 84.7146 137.194 85.6519 136.275C87.9709 133.845 89.8356 131.358 91.79 128.661C95.9829 124.735 96.5986 124.412 102.091 124.129Z" fill="#DBEDE9"/>
<path d="M-32.8789 132.2C-23.3183 130.667 -13.5078 129.176 -4.13191 132.2C5.56842 139.699 10.9801 152.146 13.8409 163.476C14.3078 167.783 14.3078 167.783 14.0241 174.105C4.53758 174.105 -4.94893 174.105 -14.7229 174.105C-15.425 170.081 -15.425 170.081 -16.1413 165.977C-18.6027 155.479 -23.6621 147.87 -30.0598 139.137C-32.8789 135.09 -32.8789 135.09 -32.8789 132.2Z" fill="#DDEFEE"/>
<path d="M-34.3923 133.645C-23.8941 142.152 -16.0497 154.044 -14.8179 167.241C-14.7867 169.506 -14.7555 171.771 -14.7233 174.105C-5.2368 174.105 4.24971 174.105 14.0237 174.105C14.0237 173.151 14.0237 172.197 14.0237 171.215C21.0137 171.215 28.0038 171.215 35.2057 171.215C35.2057 171.691 35.2057 172.168 35.2057 172.66C28.7149 172.66 22.2242 172.66 15.5367 172.66C15.5367 178.382 15.5367 184.104 15.5367 190C15.0374 190 14.5381 190 14.0237 190C14.0237 185.708 14.0237 181.416 14.0237 176.995C4.53719 176.995 -4.94933 176.995 -14.7233 176.995C-14.7233 181.763 -14.7233 186.532 -14.7233 191.445C-15.2226 191.445 -15.7219 191.445 -16.2363 191.445C-16.2363 188.107 -16.2363 184.769 -16.2363 181.33C-62.6703 181.33 -109.104 181.33 -156.945 181.33C-156.945 180.853 -156.945 180.376 -156.945 179.885C-111.011 179.885 -65.076 179.885 -17.7493 179.885C-19.6715 161.121 -19.6715 161.121 -27.7729 146.198C-34.3923 136.705 -34.3923 136.705 -34.3923 133.645Z" fill="#608D8F"/>
<path d="M92.6999 124.975C93.6985 125.451 94.697 125.928 95.7259 126.42C94.6473 127.537 93.5688 128.655 92.4576 129.806C80.2628 142.384 80.2628 142.384 68.4919 155.32C67.2749 156.594 67.2749 156.594 66.0332 157.894C63.1067 161.925 63.1067 161.925 62.4399 171.215C52.9534 171.215 43.4669 171.215 33.6929 171.215C39.3775 167.143 45.1203 163.609 51.1869 160.106C52.204 159.505 53.2212 158.905 54.2691 158.286C61.9064 153.875 61.9064 153.875 66.9789 153.875C67.3697 153.037 67.7605 152.199 68.1631 151.336C70.1563 147.828 72.3874 145.361 75.2649 142.473C76.2791 141.448 77.2933 140.424 78.3382 139.368C79.3953 138.314 80.4524 137.26 81.5415 136.173C82.6103 135.097 83.6791 134.02 84.7803 132.911C87.4139 130.26 90.0539 127.615 92.6999 124.975Z" fill="#74F8D9"/>
<path d="M92.7001 124.975C93.6987 125.451 94.6973 125.928 95.7261 126.42C94.6476 127.537 93.569 128.655 92.4578 129.806C72.4408 148.072 72.4408 148.072 62.4401 171.215C60.9422 171.215 59.4444 171.215 57.9011 171.215C57.216 166.373 56.8554 162.644 59.7163 158.419C62.3163 155.61 65.022 152.972 67.8302 150.352C69.7798 148.453 71.7282 146.553 73.6753 144.651C74.6127 143.751 75.5501 142.851 76.5159 141.924C80.4701 138.074 84.1354 134.007 87.8065 129.914C89.3647 128.204 91.022 126.577 92.7001 124.975Z" fill="#84B1AC"/>
<rect x="244" y="777" width="1511" height="680" transform="rotate(-180 244 777)" fill="url(#paint0_linear_0_1)"/>
<g opacity="0.81">
<path d="M26.8324 5.40172C26.6524 5.40366 26.5615 4.70894 26.0661 3.86716C25.5939 3.02924 24.5779 2.10812 23.3085 1.89138C22.9795 1.82171 22.7724 1.83139 22.3099 1.83333C22.0835 1.87397 21.7042 1.91653 21.4333 2.03071C20.8431 2.22035 20.3438 2.5919 19.9665 2.99441C19.5949 3.41046 19.355 3.87683 19.2215 4.29869C19.1557 4.50188 19.1073 4.7341 19.0957 4.86956C19.0647 4.9489 19.0628 5.34367 19.055 5.40172C19.055 5.97646 19.206 6.96338 19.9665 7.8071C20.6999 8.64308 22.041 9.17331 23.3085 8.9082C24.5779 8.6934 25.5958 7.76646 26.0661 6.93242C26.5615 6.10224 26.6524 5.39979 26.8324 5.40172C26.9156 5.40366 26.9891 5.57782 27.0472 5.88551C27.0781 6.22029 27.0878 6.71375 26.9233 7.28461C26.6408 8.42441 25.5532 9.9435 23.7497 10.5337C21.9868 11.182 19.7497 10.6421 18.428 9.36489C17.056 8.10511 16.6651 6.38284 16.6806 5.40172C16.7 5.06114 16.6845 4.99534 16.7522 4.57348C16.8064 4.20387 16.8935 3.88845 17.0309 3.52658C17.2979 2.81444 17.7585 2.06167 18.43 1.43662C19.1034 0.825116 19.9684 0.325853 20.9224 0.126534C21.414 0.0084904 21.8416 -0.0108678 22.4086 0.00461328C22.7434 0.0375107 23.3298 0.109113 23.7516 0.26973C25.5532 0.859947 26.6408 2.37904 26.9233 3.5169C27.2291 4.68379 26.9717 5.4114 26.8324 5.40172Z" fill="#B8E2E7"/>
</g>
<g opacity="0.81">
<path d="M24.3157 17.9177C24.2073 17.9196 24.1551 17.5036 23.859 17.0024C23.5765 16.5011 22.9708 15.9516 22.2122 15.8239C22.0148 15.7813 21.891 15.7871 21.6142 15.7871C21.4807 15.8122 21.2524 15.8355 21.0918 15.9051C20.7376 16.0193 20.4416 16.2418 20.2151 16.4818C19.9926 16.7295 19.8494 17.0082 19.7701 17.2597C19.7314 17.3816 19.7023 17.519 19.6946 17.6003C19.6752 17.6468 19.6733 17.8828 19.6694 17.9177C19.6694 18.2621 19.7604 18.8504 20.2132 19.3555C20.6525 19.8547 21.4536 20.1702 22.2083 20.0134C22.9669 19.8857 23.5726 19.3303 23.8551 18.833C24.1551 18.3357 24.2073 17.9157 24.3157 17.9177C24.3641 17.9196 24.4086 18.0241 24.4434 18.206C24.4608 18.4073 24.4686 18.7014 24.3699 19.042C24.1996 19.7232 23.5494 20.6288 22.4754 20.9829C21.4227 21.368 20.0874 21.0468 19.2979 20.2863C18.4774 19.5316 18.2432 18.504 18.2529 17.9177C18.2645 17.7164 18.2548 17.6758 18.2955 17.4242C18.3284 17.2036 18.3787 17.014 18.4619 16.7992C18.6206 16.3734 18.8973 15.9245 19.2979 15.5529C19.6985 15.1853 20.2171 14.8892 20.786 14.7711C21.0782 14.7015 21.3336 14.6879 21.6723 14.6976C21.8716 14.717 22.2238 14.7595 22.4754 14.8563C23.5513 15.2085 24.2015 16.1141 24.3679 16.7953C24.5518 17.4919 24.3989 17.9235 24.3157 17.9177Z" fill="#B8E2E7"/>
</g>
<path d="M56.9824 114.344C56.816 114.346 56.7347 113.715 56.2838 112.945C55.8542 112.181 54.9293 111.339 53.7682 111.142C53.4702 111.08 53.2786 111.088 52.8606 111.091C52.6535 111.128 52.3071 111.165 52.0614 111.267C51.5234 111.442 51.0667 111.78 50.7242 112.146C50.3817 112.527 50.1649 112.951 50.043 113.336C49.9192 113.762 49.9056 113.953 49.8882 114.399C49.8921 114.815 50.0256 115.794 50.7203 116.537C51.3918 117.301 52.6148 117.785 53.7682 117.545C54.9273 117.346 55.8523 116.504 56.2838 115.74C56.7347 114.985 56.816 114.344 56.9824 114.344C57.056 114.35 57.1218 114.507 57.1798 114.788C57.2069 115.091 57.2147 115.542 57.0618 116.063C56.8044 117.102 55.8136 118.486 54.1707 119.022C52.5606 119.616 50.521 119.122 49.3154 117.955C48.7058 117.386 48.284 116.701 48.0421 116.051C47.7963 115.376 47.7305 114.851 47.7247 114.288C47.7247 114.006 47.7963 113.245 48.0421 112.632C48.284 111.984 48.7078 111.298 49.3173 110.731C49.9308 110.17 50.7223 109.717 51.5911 109.536C52.0401 109.427 52.429 109.412 52.9438 109.421C53.2495 109.452 53.7894 109.518 54.1707 109.663C55.8155 110.201 56.8044 111.587 57.0637 112.626C57.3443 113.69 57.1082 114.354 56.9824 114.344Z" fill="#B8E2E7"/>
<path d="M58.4802 123.652C58.3777 123.656 58.3293 123.265 58.0506 122.793C57.7855 122.324 57.2166 121.806 56.5045 121.686C55.7382 121.537 55.0744 121.835 54.6293 122.303C54.1978 122.798 54.1242 123.292 54.1184 123.652C54.1184 123.975 54.2016 124.528 54.6293 124.999C55.0415 125.467 55.7923 125.765 56.5045 125.62C57.2166 125.498 57.7855 124.979 58.0506 124.509C58.3293 124.047 58.3796 123.65 58.4802 123.652C58.5576 123.644 58.7028 124.047 58.5306 124.708C58.3699 125.347 57.7623 126.2 56.7522 126.529C55.7614 126.893 54.5093 126.589 53.7662 125.873C52.998 125.169 52.7774 124.201 52.7851 123.652C52.7716 123.139 52.9999 122.112 53.7662 121.432C54.1436 121.088 54.6293 120.807 55.1654 120.695C55.4421 120.629 55.682 120.62 55.9974 120.627C56.1852 120.645 56.5161 120.685 56.7541 120.776C57.7623 121.107 58.3719 121.957 58.5325 122.593C58.7047 123.249 58.5596 123.658 58.4802 123.652Z" fill="#B8E2E7"/>
<path d="M39.6609 128.043C39.4829 128.047 39.3958 127.364 38.9101 126.541C38.4476 125.721 37.4529 124.813 36.2086 124.604C35.8874 124.536 35.6842 124.546 35.2314 124.546C35.0088 124.587 34.6373 124.627 34.3741 124.742C33.7936 124.929 33.3079 125.289 32.9363 125.686C32.5706 126.09 32.3345 126.547 32.2048 126.963C32.0752 127.418 32.0578 127.625 32.0403 128.103C32.0423 128.548 32.1874 129.601 32.9344 130.402C33.6523 131.22 34.9682 131.741 36.2067 131.486C37.4529 131.275 38.4476 130.367 38.9101 129.547C39.3958 128.73 39.4829 128.041 39.6609 128.043C39.7403 128.047 39.8119 128.217 39.8699 128.519C39.8989 128.846 39.9105 129.33 39.748 129.889C39.4693 131.006 38.4069 132.496 36.6402 133.07C34.9102 133.707 32.7196 133.177 31.4269 131.925C30.769 131.315 30.3161 130.576 30.0549 129.879C29.7917 129.154 29.7201 128.589 29.7143 127.983C29.7143 127.683 29.7917 126.864 30.0568 126.203C30.3161 125.508 30.769 124.771 31.4269 124.157C32.0887 123.557 32.9363 123.068 33.871 122.872C34.3528 122.758 34.7708 122.741 35.3262 122.75C35.6532 122.783 36.2318 122.855 36.644 123.012C38.4089 123.588 39.4732 125.078 39.7499 126.197C40.0499 127.34 39.7964 128.055 39.6609 128.043Z" fill="#B8E2E7"/>
<g opacity="0.81">
<path d="M15.4019 13.7261C15.1329 13.7319 14.9916 12.6753 14.2389 11.402C13.5229 10.1325 11.9864 8.72566 10.059 8.39475C9.82096 8.35024 9.57907 8.32121 9.33911 8.3096C9.08173 8.29218 8.92886 8.30767 8.58054 8.31541C8.16061 8.35605 7.64393 8.44893 7.21239 8.60374C6.32223 8.90756 5.55591 9.44747 4.98891 10.0745C3.82976 11.3458 3.59175 12.8533 3.60529 13.7261C3.59175 14.5988 3.82976 16.1024 4.98891 17.3777C6.09388 18.6568 8.13545 19.4425 10.059 19.0574C11.9864 18.7265 13.5229 17.3215 14.2389 16.0502C14.9916 14.773 15.1329 13.7203 15.4019 13.7261C15.6167 13.7067 16.0076 14.8155 15.5374 16.5843C15.1078 18.3143 13.4629 20.621 10.7266 21.5169C9.38943 21.9678 7.87227 22.0568 6.43446 21.7298C4.99085 21.4163 3.66527 20.681 2.65126 19.7385C0.567115 17.8344 -0.0405105 15.2161 0.00206254 13.728C-0.0385754 12.2379 0.567115 9.61969 2.65126 7.71745C3.66527 6.77503 4.99085 6.03968 6.43446 5.72232C7.16788 5.55977 7.86066 5.50558 8.64826 5.53848C8.9037 5.55977 9.35459 5.59847 9.69324 5.67007C10.0474 5.73199 10.3899 5.82682 10.7247 5.93712C13.461 6.83309 15.1078 9.13978 15.5354 10.8679C16.0057 12.6346 15.6167 13.7454 15.4019 13.7261Z" fill="#B8E2E7"/>
</g>
<path d="M52.7811 56.013C52.7192 56.0149 52.6883 55.775 52.516 55.4847C52.3535 55.1964 51.9994 54.8751 51.562 54.7996C51.0899 54.7048 50.6815 54.8945 50.4087 55.1789C50.1416 55.4847 50.0952 55.7904 50.0913 56.013C50.0913 56.2123 50.1436 56.5529 50.4087 56.8451C50.6622 57.1334 51.1247 57.3192 51.562 57.2283C52.0013 57.1547 52.3535 56.8335 52.516 56.5432C52.6883 56.2549 52.7192 56.013 52.7811 56.013C52.8295 56.0091 52.9186 56.2587 52.8121 56.6651C52.7154 57.0599 52.338 57.5843 51.7168 57.7875C51.1072 58.0139 50.3332 57.8262 49.8765 57.3831C49.4024 56.9457 49.2669 56.3516 49.2708 56.013C49.2631 55.6956 49.4024 55.0648 49.8765 54.6429C50.3139 54.2017 51.1401 54.014 51.7168 54.2365C52.338 54.4397 52.7173 54.968 52.8121 55.3628C52.9186 55.7633 52.8315 56.0188 52.7811 56.013Z" fill="#B8E2E7"/>
<path d="M93.0285 152.008C92.9472 152.014 92.7943 151.582 92.9782 150.895C93.1446 150.222 93.7871 149.326 94.8514 148.98C95.0991 148.883 95.4474 148.842 95.6448 148.823C95.9776 148.815 96.2292 148.827 96.5195 148.894C97.0826 149.014 97.5935 149.309 97.9921 149.669C98.3869 150.036 98.6597 150.481 98.8165 150.901C98.9771 151.3 99.0216 151.791 99.0216 151.973C99.0352 152.623 98.801 153.589 97.9921 154.348C97.2142 155.102 95.8906 155.424 94.8514 155.039C93.7871 154.69 93.1446 153.792 92.9782 153.121C92.7943 152.424 92.9472 152 93.0285 152.008C93.1349 152.006 93.191 152.422 93.4813 152.912C93.7619 153.407 94.3579 153.951 95.1087 154.079C95.8576 154.235 96.6491 153.922 97.0826 153.429C97.5316 152.947 97.6206 152.312 97.6206 152.045C97.609 151.757 97.5993 151.631 97.5199 151.36C97.4425 151.108 97.3013 150.832 97.0807 150.59C96.8562 150.352 96.562 150.135 96.2137 150.021C96.055 149.951 95.8306 149.93 95.6951 149.905C95.4223 149.905 95.3023 149.895 95.1068 149.938C94.356 150.063 93.76 150.611 93.4794 151.106C93.1891 151.6 93.1349 152.012 93.0285 152.008Z" fill="#B8E2E7"/>
<path d="M51.6279 74.2042C51.8794 74.1984 52.0091 75.1834 52.7135 76.3735C53.3811 77.5578 54.817 78.8737 56.6186 79.1795C56.8392 79.2201 57.0637 79.2472 57.2901 79.2588C57.53 79.2762 57.6713 79.2608 57.9983 79.253C58.3873 79.2124 58.8731 79.1292 59.2736 78.9821C60.1057 78.6996 60.8237 78.1945 61.3519 77.612C62.4337 76.4045 62.6543 75.0615 62.6427 74.1617C62.6543 73.4282 62.4356 71.9653 61.3519 70.7945C60.3186 69.5986 58.4125 68.869 56.6186 69.2271C54.817 69.5328 53.383 70.8468 52.7135 72.033C52.011 73.2251 51.8794 74.21 51.6279 74.2042C51.4266 74.2216 51.0648 73.1863 51.5021 71.5337C51.9046 69.9218 53.4411 67.766 55.9936 66.93C57.2437 66.5082 58.6582 66.425 60.0012 66.7288C61.3461 67.0229 62.5866 67.7118 63.5329 68.5923C64.483 69.4709 65.1448 70.5352 65.5183 71.5453C65.8995 72.5729 66.004 73.4515 66.006 74.2468C66.0447 75.5511 65.4777 78.061 63.5309 79.8181C62.5846 80.6966 61.3461 81.3836 60.0012 81.6777C59.3143 81.8306 58.6679 81.8809 57.9306 81.85C57.6926 81.8306 57.2707 81.7958 56.9573 81.7281C56.6263 81.6681 56.3032 81.581 55.9916 81.4765C53.4372 80.6386 51.9046 78.4867 51.5021 76.8709C51.0648 75.2221 51.4266 74.1849 51.6279 74.2042Z" fill="#B8E2E7"/>
</g>
<path d="M247 760L-1298 760V85L247 85L247 760Z" fill="url(#paint1_linear_0_1)"/>
</g>
<defs>
<linearGradient id="paint0_linear_0_1" x1="999.5" y1="777" x2="999.5" y2="1064.91" gradientUnits="userSpaceOnUse">
<stop stop-color="#0B0F18"/>
<stop offset="1" stop-color="#0B0F18" stop-opacity="0"/>
</linearGradient>
<linearGradient id="paint1_linear_0_1" x1="-528.5" y1="745.607" x2="-528.993" y2="474.21" gradientUnits="userSpaceOnUse">
<stop stop-color="#0B0F18"/>
<stop offset="0.18" stop-color="#0B0F18" stop-opacity="0.69"/>
<stop offset="1" stop-color="#0B0F18" stop-opacity="0"/>
</linearGradient>
<clipPath id="clip0_0_1">
<rect width="1512" height="10298" fill="white" transform="translate(-1269 -1542)"/>
</clipPath>
<clipPath id="clip1_0_1">
<rect width="1513" height="867" fill="white" transform="translate(-1269 -99)"/>
</clipPath>
</defs>
</svg>
