<svg width="218" height="147" viewBox="0 0 218 147" fill="none" xmlns="http://www.w3.org/2000/svg">
<g opacity="0.6">
<path d="M181.828 112.044C181.73 112.016 181.691 111.942 181.663 111.871C181.065 110.426 181.087 108.098 182.361 106.617C182.806 106.1 183.475 105.669 183.923 105.154C184.192 104.847 184.378 104.512 184.701 104.226C185.99 103.082 189.133 103.279 190.24 104.09C194.061 106.883 185.565 110.652 182.206 111.981C182.087 112.028 181.943 112.077 181.828 112.044Z" fill="#2C2A2F"/>
<path d="M136.317 73.3087C136.024 73.096 135.675 72.9634 135.258 72.971C134.779 72.9795 134.371 73.2716 134.048 73.5393C130.28 76.6491 127.501 80.2626 125.334 83.878C123.248 87.3566 121.052 91.4908 120.985 95.0929C122.644 94.272 125.45 93.988 127.354 93.5645C129.748 93.0341 132.144 92.5031 134.538 91.9727C139.329 90.9112 144.119 89.8482 148.909 88.7868C146.693 87.3686 144.799 85.7284 143.288 83.9232C142.073 82.4717 141.111 80.9184 140.148 79.3689C139.393 78.1526 138.638 76.9363 137.883 75.7201C137.548 75.1797 137.156 73.916 136.317 73.3087Z" fill="#2C2A2F"/>
<path d="M137.787 75.9047C138.245 76.6407 138.704 77.3767 139.162 78.1127C134.432 82.473 130.276 87.704 130.472 92.6186C129.405 92.855 128.334 93.0904 127.267 93.3267C126.807 93.4282 126.292 93.522 125.755 93.6162C126.238 87.1552 130.127 80.3788 137.787 75.9047Z" fill="#E8F6F0"/>
<path d="M156.016 111.753C148.886 109.622 136.352 92.8531 142.544 84.5515C144.174 82.3656 146.101 85.4304 149.115 86.378C156.872 88.8132 162.841 93.1643 169.818 96.4759C173.079 98.0249 176.601 99.3668 179.367 101.322C181.344 102.72 182.894 104.398 184.933 105.754C185.433 106.087 187.923 107.089 187.82 107.512C187.639 108.268 166.548 114.9 156.016 111.753Z" fill="#2C2A2F"/>
<path d="M145.733 85.9058C146.63 86.657 147.898 86.1827 149.314 86.0543C153.359 85.6934 157.361 85.6969 161.216 86.0665C164.59 86.3896 167.71 87.4461 170.978 88.0673C178.93 89.5643 186.832 91.1601 194.666 92.8537C196.815 93.3188 198.98 93.7937 201.318 93.8261C201.866 93.8303 202.45 93.8095 202.979 93.5897C204.3 93.0412 204.462 91.7157 204.33 90.7127C204.151 89.3089 204.442 87.5981 204.009 86.2658C203.486 84.6548 201.169 83.2034 199.658 82.0264C193.491 77.2143 186.357 72.8898 177.796 69.9999C169.235 67.11 159.146 65.7163 148.935 66.8498C148.375 66.9123 147.769 66.9969 147.334 67.2726C146.916 67.5376 146.748 67.9187 146.611 68.2775C144.649 73.4356 144.808 78.642 144.98 83.7681C145.002 84.4266 145.035 85.1096 145.484 85.6571C145.563 85.7498 145.647 85.8331 145.733 85.9058Z" fill="#2C2A2F"/>
<path d="M143.079 88.1134C143.501 89.4341 144.199 90.7117 145 91.917C149.885 99.2538 160.424 104.011 171.864 106.663C178.185 108.13 185.577 108.951 192.698 107.847C199.919 106.727 200.492 106.168 203.988 105.126C205.687 104.62 213.05 102.821 212.389 101.036C212.11 100.284 210.547 99.7536 209.943 99.1082C209.199 98.3112 208.988 97.281 209.012 96.2981C209.142 91.2003 205.357 86.1866 199.516 83.4409C193.477 80.6006 187.221 77.6884 179.68 76.5561C175.728 75.9632 172.011 75.0975 167.871 74.8104C164.174 74.5537 160.347 74.5658 156.535 75.0192C155.987 75.0838 155.437 75.159 154.89 75.2436C152.858 75.5598 150.863 76.4858 149.253 77.2059C144.77 79.2112 141.763 82.9853 142.892 87.5024C142.948 87.7019 143.008 87.9056 143.079 88.1134Z" fill="#E8F6F0"/>
<path d="M204.785 92.9486C206.032 94.6816 206.863 96.7882 205.545 98.7376C204.777 99.8774 203.367 100.782 201.808 101.467C200.745 101.934 198.104 103.141 197.157 102.473C196.77 102.203 196.626 101.641 196.227 101.313C195.717 100.892 195.237 100.504 194.913 99.9913C194.291 98.9989 194.192 97.8141 194.747 96.6903C194.996 96.1887 195.355 95.7061 195.624 95.2063C196.805 93.0112 195.531 91.4895 194.874 89.5453C194.717 89.0761 194.811 88.5202 195.304 88.1013C195.81 87.6717 196.632 87.4646 197.402 87.3853C199.104 87.2123 200.801 87.5718 201.889 88.3373C202.642 88.8663 202.827 89.9127 203.231 90.5978C203.703 91.398 204.231 92.177 204.785 92.9486Z" fill="#2C2A2F"/>
<path d="M188.406 100.225C187.193 99.8753 185.862 99.5722 184.418 99.3163C183.953 99.2347 183.099 98.9424 182.295 99.1121C181.426 99.2969 180.775 99.8855 180.517 100.126C179.536 101.037 178.801 101.938 178.742 102.714C178.704 103.205 178.951 103.644 179.553 103.972C180.279 104.369 180.844 104.436 182.787 104.128C184.408 103.871 186.068 103.509 187.703 103.152C188.835 102.904 191.199 102.561 191.878 102.095C193.095 101.256 189.624 100.586 188.615 100.288C188.544 100.266 188.476 100.245 188.406 100.225Z" fill="#2C2A2F"/>
<path d="M198.112 93.1722C197.789 92.1617 198.764 91.5014 200.29 91.6953C201.816 91.8892 203.315 92.8661 203.639 93.8765C203.962 94.887 202.987 95.5473 201.461 95.3534C199.934 95.158 198.435 94.1811 198.112 93.1722Z" fill="#F1E3EF"/>
<path d="M199.383 93.4559C199.186 92.8431 199.779 92.4427 200.703 92.5611C201.629 92.6789 202.536 93.271 202.732 93.8822C202.928 94.495 202.336 94.8954 201.412 94.777C200.488 94.6602 199.579 94.0687 199.383 93.4559Z" fill="#2C2A2F"/>
<path d="M188.477 93.991C189.17 92.5043 190.825 90.6793 193.278 90.3729C193.395 90.3576 193.394 90.474 193.291 90.5024C190.808 91.1676 189.321 93.1671 188.9 94.7391C188.464 96.3618 189.155 97.5725 190.202 98.874C190.351 99.061 189.913 99.3194 189.696 99.1497C188.001 97.8189 187.619 95.8342 188.477 93.991Z" fill="#2C2A2F"/>
<path d="M189.054 90.7021C189.058 90.701 189.062 90.7051 189.058 90.7076C185.834 92.6853 185.566 95.4585 186.706 97.8094C186.797 97.9985 186.324 98.1046 186.232 97.9176C185.225 95.8648 185.042 91.9962 189.054 90.7021Z" fill="#2C2A2F"/>
<path d="M187.703 87.5294C186.988 88.5176 185.536 89.3022 183.988 89.539C182.437 89.7763 180.839 89.4561 179.89 88.7228C179.143 88.1432 178.813 87.3598 178.325 86.6554C177.178 84.9969 175.064 83.7169 172.472 83.1121C169.879 82.5074 166.831 82.5845 164.036 83.3242C161.953 83.8759 160.02 84.7765 157.893 85.1909C155.766 85.6054 153.216 85.3505 152.445 84.0848C152.149 83.6033 152.154 83.0355 152.265 82.4843C152.424 81.6911 152.803 80.8847 153.492 80.1831C154.482 79.1746 156.054 78.4391 157.706 78.0348C159.356 77.6289 161.081 77.5313 162.749 77.5717C165.094 77.6291 167.366 77.9568 169.445 78.5344C172.971 79.5164 175.979 81.0391 180.235 80.5862C181.862 80.4135 183.656 80.1253 184.797 80.9378C185.698 81.5794 186.326 82.6007 187.042 83.35C188.149 84.5059 188.765 86.0589 187.703 87.5294Z" fill="#2C2A2F"/>
<path d="M163.403 86.12C162.585 86.055 161.725 86.0361 160.897 86.2351C159.517 86.5693 158.51 87.4337 157.487 88.1858C156.464 88.9379 155.107 89.6773 153.731 89.5821C152.756 89.5139 152.045 89.0393 151.319 88.6427C150.225 88.0457 148.96 87.5835 147.591 87.2823C146.493 90.4106 148.687 93.631 152.716 94.7969C153.681 95.0772 154.761 95.2478 155.875 95.1454C156.989 95.043 158.138 94.6341 158.805 93.9718C160.257 92.5309 159.118 90.3931 161.074 89.2426C161.866 88.7765 162.969 88.6504 163.896 88.7836C164.824 88.9168 165.604 89.2765 166.304 89.6756C167.069 90.1117 167.941 90.6339 169.009 90.4553C171.497 90.041 170.809 87.6964 169.405 87.0864C167.977 86.4712 165.105 86.2572 163.403 86.12Z" fill="#2C2A2F"/>
<path d="M181.905 93.2725C182.344 93.3519 182.808 93.4141 183.161 93.5922C183.811 93.9214 183.912 94.568 183.763 95.1532C183.31 96.9247 180.944 98.4652 178.361 99.1316C177.175 99.4378 175.84 99.5868 174.804 99.255C173.077 98.7017 172.884 97.0886 173.396 95.7414C173.908 94.3942 174.925 93.0619 174.937 91.7167C174.939 91.5385 174.92 91.3586 174.811 91.2054C174.514 90.7812 173.675 90.7121 172.978 90.6007C171.112 90.3013 171.647 89.212 173.36 88.8306C174.614 88.5517 175.2 88.7987 175.777 89.4472C177.337 91.2035 178.674 92.6927 181.905 93.2725Z" fill="#2C2A2F"/>
<path d="M157.541 98.457C157.457 97.8396 158.596 97.2802 159.391 97.0915C160.459 96.837 161.588 96.2277 162.704 96.1412C163.27 96.0978 163.827 96.2153 164.208 96.4572C164.729 96.7906 164.867 97.2976 165.286 97.6798C165.7 98.0593 166.517 98.2913 167.113 98.5467C168.494 99.1441 169.908 99.7106 171.354 100.246C171.553 100.32 171.762 100.398 171.875 100.53C172.029 100.71 171.975 100.952 171.877 101.17C171.457 102.093 170.206 102.893 168.817 103.129C166.816 103.469 165.005 102.694 163.693 101.804C162.378 100.915 161.226 99.8428 159.434 99.3984C158.642 99.203 157.618 99.0354 157.541 98.457Z" fill="#2C2A2F"/>
<path d="M166.159 70.6299C166.834 70.8216 167.505 71.0454 167.965 71.4185C168.423 71.7922 168.632 72.352 168.3 72.8516C167.88 73.4844 166.793 73.8042 165.82 73.9744C163.697 74.3473 161.548 74.3693 159.428 74.3899C157.861 74.4049 156.295 74.42 154.729 74.4351C154.092 74.4406 153.432 74.4448 152.886 74.2718C152.319 74.0931 151.929 73.7417 151.648 73.3635C151.096 72.6252 150.898 71.6923 151.443 70.8486C152.597 69.0614 156.033 69.3541 158.146 69.4202C160.951 69.513 163.673 69.9192 166.159 70.6299Z" fill="#E8F6F0"/>
<path d="M89.4618 134.677C89.3638 134.648 89.3246 134.575 89.2967 134.504C88.6993 133.058 88.7211 130.731 89.995 129.25C90.44 128.732 91.1091 128.302 91.5575 127.787C91.8261 127.48 92.0153 127.145 92.3349 126.859C93.6245 125.714 96.7668 125.912 97.8739 126.722C101.695 129.515 93.1991 133.284 89.8398 134.614C89.7232 134.659 89.5794 134.709 89.4618 134.677Z" fill="#2C2A2F"/>
<path d="M43.9531 95.9406C43.6598 95.7278 43.3109 95.5952 42.894 95.6029C42.4145 95.6114 42.007 95.9034 41.6836 96.1711C37.9159 99.2809 35.1352 102.897 32.9672 106.51C30.8819 109.989 28.6859 114.123 28.6211 117.725C30.2804 116.904 33.0859 116.62 34.9898 116.196C37.3863 115.665 39.7803 115.135 42.1744 114.605C46.9649 113.543 51.7549 112.48 56.5454 111.419C54.3292 110 52.4353 108.36 50.9234 106.553C49.7083 105.102 48.7439 103.549 47.783 101.999C47.0281 100.783 46.2733 99.5666 45.5184 98.3503C45.1846 97.8131 44.789 96.5484 43.9531 95.9406Z" fill="#2C2A2F"/>
<path d="M45.4224 98.5367C45.8809 99.2727 46.3394 100.009 46.7979 100.745C42.07 105.104 37.9115 110.336 38.1078 115.251C37.0403 115.487 35.9698 115.722 34.9022 115.959C34.4421 116.06 33.9277 116.154 33.3901 116.248C33.8727 109.786 37.7629 103.011 45.4224 98.5367Z" fill="#E8F6F0"/>
<path d="M63.6494 134.389C56.5195 132.259 43.9833 115.489 50.1776 107.188C51.8104 105.002 53.7349 108.067 56.7492 109.015C64.5056 111.45 70.4753 115.801 77.4522 119.113C80.7133 120.662 84.2353 122.005 87.0014 123.959C88.978 125.357 90.5284 127.035 92.5666 128.391C93.0671 128.723 95.5547 129.726 95.4543 130.149C95.2749 130.901 74.1812 137.535 63.6494 134.389Z" fill="#2C2A2F"/>
<path d="M53.3698 108.538C54.266 109.289 55.5344 108.815 56.95 108.686C60.9953 108.325 64.9968 108.327 68.8522 108.699C72.2267 109.022 75.3469 110.08 78.6147 110.699C86.5664 112.196 94.4685 113.792 102.302 115.486C104.451 115.951 106.617 116.426 108.954 116.458C109.502 116.462 110.087 116.441 110.615 116.222C111.936 115.673 112.098 114.348 111.966 113.345C111.788 111.941 112.078 110.23 111.645 108.898C111.123 107.287 108.805 105.835 107.295 104.658C101.127 99.8463 93.9933 95.5218 85.4322 92.6319C76.8711 89.742 66.782 88.3483 56.5714 89.4819C56.0109 89.5443 55.405 89.6289 54.9696 89.9031C54.5521 90.168 54.3835 90.5492 54.247 90.9079C52.2852 96.066 52.4439 101.272 52.6161 106.399C52.6381 107.057 52.6705 107.74 53.1199 108.288C53.2002 108.383 53.2818 108.467 53.3698 108.538Z" fill="#2C2A2F"/>
<path d="M50.7149 110.747C51.1362 112.068 51.8346 113.345 52.6357 114.55C57.5203 121.887 68.0589 126.643 79.4993 129.296C85.8208 130.763 93.2125 131.584 100.334 130.48C107.557 129.36 108.13 128.801 111.624 127.76C113.323 127.254 120.686 125.454 120.025 123.669C119.746 122.918 118.182 122.387 117.578 121.742C116.834 120.945 116.623 119.914 116.647 118.93C116.777 113.834 112.992 108.819 107.151 106.073C101.112 103.233 94.8581 100.32 87.3149 99.1881C83.363 98.5952 79.6464 97.7295 75.5089 97.4418C71.811 97.1851 67.984 97.1972 64.172 97.6507C63.624 97.7153 63.0741 97.7904 62.5273 97.875C60.4952 98.1912 58.5004 99.1172 56.8907 99.8373C52.4077 101.843 49.4008 105.617 50.5298 110.134C50.5836 110.335 50.6409 110.54 50.7149 110.747Z" fill="#E8F6F0"/>
<path d="M112.421 115.58C113.668 117.313 114.499 119.42 113.181 121.369C112.412 122.508 111.002 123.412 109.444 124.098C108.382 124.565 105.74 125.772 104.793 125.105C104.407 124.834 104.263 124.273 103.866 123.944C103.355 123.523 102.876 123.135 102.552 122.622C101.93 121.63 101.831 120.445 102.386 119.321C102.634 118.82 102.993 118.337 103.26 117.838C104.441 115.643 103.17 114.121 102.511 112.177C102.351 111.708 102.447 111.152 102.941 110.733C103.448 110.303 104.269 110.096 105.038 110.017C106.74 109.844 108.437 110.204 109.525 110.969C110.278 111.498 110.463 112.544 110.867 113.23C111.339 114.03 111.865 114.811 112.421 115.58Z" fill="#2C2A2F"/>
<path d="M96.0385 122.858C94.8259 122.508 93.4948 122.205 92.0532 121.948C91.5881 121.867 90.7345 121.575 89.9302 121.744C89.0614 121.929 88.41 122.518 88.1503 122.759C87.1687 123.67 86.4342 124.57 86.3746 125.347C86.3371 125.838 86.5841 126.276 87.1854 126.605C87.912 127.002 88.4765 127.069 90.4175 126.762C92.0387 126.505 93.6988 126.143 95.3361 125.784C96.4651 125.537 98.8315 125.194 99.5082 124.728C100.726 123.889 97.2547 123.219 96.2449 122.921C96.1791 122.898 96.1088 122.878 96.0385 122.858Z" fill="#2C2A2F"/>
<path d="M105.746 115.805C105.422 114.794 106.398 114.134 107.924 114.328C109.45 114.521 110.951 115.498 111.275 116.508C111.598 117.519 110.623 118.179 109.094 117.986C107.569 117.792 106.069 116.815 105.746 115.805Z" fill="#F1E3EF"/>
<path d="M107.016 116.09C106.82 115.478 107.412 115.077 108.336 115.196C109.26 115.314 110.169 115.906 110.365 116.517C110.561 117.128 109.969 117.53 109.045 117.412C108.121 117.293 107.212 116.703 107.016 116.09Z" fill="#2C2A2F"/>
<path d="M96.1129 116.623C96.8065 115.136 98.4615 113.311 100.914 113.005C101.031 112.989 101.03 113.106 100.927 113.134C98.4442 113.799 96.9573 115.799 96.5365 117.372C96.1009 118.995 96.7896 120.206 97.8389 121.507C97.9881 121.694 97.55 121.953 97.3347 121.782C95.6373 120.451 95.2523 118.465 96.1129 116.623Z" fill="#2C2A2F"/>
<path d="M96.6872 113.335C96.692 113.334 96.6958 113.338 96.6915 113.34C93.4682 115.318 93.1999 118.093 94.3398 120.442C94.4305 120.631 93.9582 120.737 93.8656 120.55C92.8603 118.495 92.6757 114.627 96.6872 113.335Z" fill="#2C2A2F"/>
<path d="M95.3388 110.161C94.6235 111.149 93.172 111.934 91.6236 112.171C90.0728 112.408 88.4723 112.089 87.5258 111.355C86.7789 110.775 86.4486 109.992 85.9609 109.287C84.8139 107.629 82.7001 106.349 80.1076 105.744C77.5151 105.139 74.4671 105.216 71.6715 105.956C69.5884 106.508 67.6555 107.408 65.5289 107.823C63.4022 108.237 60.8519 107.982 60.0805 106.717C59.7851 106.235 59.7902 105.667 59.9011 105.116C60.0595 104.323 60.439 103.518 61.1283 102.815C62.1174 101.806 63.6901 101.071 65.3414 100.667C66.9922 100.261 68.7169 100.163 70.3849 100.204C72.7299 100.261 75.0019 100.589 77.0807 101.166C80.6072 102.148 83.6149 103.671 87.871 103.218C89.4979 103.045 91.2918 102.757 92.4324 103.57C93.3313 104.212 93.9616 105.233 94.6777 105.982C95.782 107.138 96.4014 108.692 95.3388 110.161Z" fill="#2C2A2F"/>
<path d="M71.0358 108.755C70.2177 108.69 69.3553 108.67 68.5304 108.87C67.1495 109.204 66.143 110.068 65.1198 110.82C64.0966 111.573 62.7397 112.312 61.3644 112.217C60.3885 112.149 59.678 111.674 58.9522 111.277C57.8576 110.68 56.5927 110.218 55.2243 109.917C54.1255 113.045 56.3205 116.266 60.3487 117.432C61.3143 117.712 62.3943 117.882 63.5079 117.78C64.6215 117.678 65.7715 117.269 66.4375 116.606C67.8922 115.165 66.7535 113.027 68.7069 111.877C69.4985 111.411 70.602 111.285 71.5293 111.418C72.4566 111.552 73.2372 111.911 73.9372 112.31C74.702 112.746 75.5737 113.269 76.642 113.09C79.1277 112.676 78.4421 110.331 77.0376 109.721C75.6102 109.106 72.7374 108.89 71.0358 108.755Z" fill="#2C2A2F"/>
<path d="M89.539 115.907C89.9782 115.986 90.4426 116.048 90.7951 116.227C91.4453 116.556 91.5469 117.202 91.3976 117.787C90.9423 119.56 88.5781 121.1 85.9959 121.766C84.8091 122.072 83.4745 122.221 82.4381 121.889C80.7115 121.336 80.5189 119.723 81.0306 118.376C81.5423 117.028 82.5593 115.695 82.571 114.351C82.5731 114.173 82.554 113.993 82.4459 113.84C82.1482 113.415 81.309 113.346 80.6106 113.235C78.7444 112.936 79.2795 111.847 80.992 111.465C82.2466 111.187 82.8319 111.434 83.4095 112.082C84.9735 113.837 86.311 115.326 89.539 115.907Z" fill="#2C2A2F"/>
<path d="M65.1753 121.094C65.0914 120.477 66.2302 119.918 67.0254 119.729C68.0935 119.475 69.2241 118.865 70.3385 118.78C70.9046 118.737 71.4615 118.854 71.843 119.096C72.3633 119.428 72.5018 119.937 72.9201 120.319C73.3374 120.698 74.1514 120.93 74.7447 121.186C76.1263 121.784 77.54 122.35 78.9858 122.886C79.1853 122.96 79.3936 123.037 79.5068 123.17C79.661 123.349 79.6069 123.591 79.5086 123.809C79.0892 124.733 77.838 125.532 76.4494 125.769C74.4482 126.109 72.6375 125.334 71.3253 124.444C70.0105 123.554 68.8581 122.482 67.0661 122.038C66.2788 121.84 65.2541 121.671 65.1753 121.094Z" fill="#2C2A2F"/>
<path d="M73.7951 93.2617C74.4671 93.4541 75.1409 93.6772 75.6014 94.0503C76.0623 94.425 76.2677 94.9838 75.936 95.4835C75.516 96.1162 74.4285 96.4361 73.456 96.6062C71.3326 96.9792 69.1837 97.0011 67.0635 97.0217C65.4972 97.0367 63.9309 97.0518 62.3647 97.0669C61.7284 97.0724 61.0678 97.0766 60.5215 96.9036C59.9548 96.7249 59.565 96.3736 59.2837 95.9953C58.732 95.257 58.5338 94.3241 59.0787 93.4804C60.2329 91.6933 63.6692 91.986 65.7821 92.052C68.587 92.1464 71.3095 92.5527 73.7951 93.2617Z" fill="#E8F6F0"/>
<path d="M106.21 70.9192C106.112 70.8911 106.073 70.8176 106.045 70.7466C105.448 69.301 105.47 66.9733 106.744 65.4923C107.189 64.9749 107.858 64.5443 108.306 64.0295C108.575 63.7224 108.761 63.3886 109.083 63.1013C110.373 61.9567 113.515 62.1543 114.623 62.965C118.444 65.7577 109.948 69.5267 106.588 70.8564C106.472 70.9015 106.328 70.9513 106.21 70.9192Z" fill="#2C2A2F"/>
<path d="M60.7017 32.1833C60.4085 31.9705 60.0595 31.8379 59.6426 31.8455C59.1631 31.854 58.7557 32.1461 58.4322 32.4139C54.6646 35.5236 51.8839 39.1392 49.7158 42.753C47.6305 46.2316 45.4345 50.3659 45.3698 53.9674C47.0266 53.1471 49.8345 52.8625 51.7385 52.439C54.135 51.908 56.529 51.3777 58.923 50.8472C63.7135 49.7858 68.5035 48.7228 73.294 47.6614C71.0778 46.2432 69.184 44.6029 67.6721 42.7962C66.4569 41.3446 65.495 39.7914 64.5316 38.2419C63.7768 37.0256 63.0219 35.8093 62.2671 34.593C61.9332 34.0558 61.5377 32.7911 60.7017 32.1833Z" fill="#2C2A2F"/>
<path d="M62.1711 34.7793C62.6296 35.5154 63.0881 36.2514 63.5466 36.9874C58.8187 41.3471 54.6602 46.5787 54.8565 51.4932C53.7889 51.7296 52.7184 51.965 51.6508 52.2014C51.1907 52.3028 50.6764 52.3966 50.1393 52.4923C50.6219 46.0298 54.512 39.2549 62.1711 34.7793Z" fill="#E8F6F0"/>
<path d="M80.398 70.6309C73.2681 68.5014 60.7319 51.731 66.9257 43.4288C68.5585 41.2423 70.483 44.3077 73.4973 45.2554C81.2537 47.6905 87.2233 52.0417 94.2002 55.3533C97.4614 56.9023 100.983 58.2458 103.75 60.1996C105.729 61.5972 107.279 63.2749 109.315 64.6312C109.815 64.9639 112.305 65.9662 112.202 66.3898C112.023 67.1428 90.9298 73.7775 80.398 70.6309Z" fill="#2C2A2F"/>
<path d="M70.1176 44.7806C71.0138 45.5318 72.2823 45.0575 73.6979 44.9291C77.7431 44.5682 81.7452 44.5717 85.6001 44.9413C88.9751 45.266 92.0943 46.321 95.3626 46.9421C103.314 48.4392 111.216 50.0349 119.05 51.7285C121.199 52.1936 123.365 52.6685 125.702 52.7009C126.248 52.7057 126.834 52.6843 127.363 52.4645C128.684 51.916 128.846 50.5905 128.714 49.5875C128.535 48.1837 128.826 46.4728 128.393 45.1406C127.871 43.5296 125.553 42.0782 124.043 40.9013C117.875 36.0891 110.741 31.7646 102.18 28.8747C93.619 25.9848 83.5299 24.5911 73.3193 25.7247C72.7563 25.7877 72.1529 25.8717 71.7174 26.1459C71.3 26.4108 71.1314 26.792 70.9949 27.1507C69.033 32.3088 69.1917 37.5153 69.364 42.6413C69.3859 43.2999 69.4183 43.9828 69.8677 44.5303C69.9475 44.6247 70.0292 44.7084 70.1176 44.7806Z" fill="#2C2A2F"/>
<path d="M67.4635 46.9879C67.8848 48.3086 68.5807 49.5868 69.3842 50.7915C74.2689 58.1283 84.8075 62.8838 96.2479 65.5376C102.57 67.0042 109.959 67.8258 117.082 66.7215C124.305 65.6012 124.879 65.0421 128.373 64.001C130.072 63.4947 137.435 61.6954 136.776 59.91C136.497 59.1583 134.934 58.6276 134.329 57.9822C133.585 57.1852 133.375 56.155 133.399 55.1721C133.526 50.0748 129.744 45.0606 123.903 42.3148C117.863 39.4745 111.607 36.5624 104.067 35.4301C100.115 34.8372 96.398 33.9714 92.2581 33.6844C88.5602 33.4277 84.7331 33.4397 80.9211 33.8932C80.3731 33.9578 79.8232 34.033 79.2764 34.1175C77.2443 34.4337 75.2495 35.3598 73.6398 36.0799C69.1568 38.0852 66.1498 41.8593 67.2789 46.3763C67.3298 46.577 67.39 46.7823 67.4635 46.9879Z" fill="#E8F6F0"/>
<path d="M129.169 51.8231C130.417 53.5562 131.247 55.6628 129.93 57.6121C129.158 58.751 127.751 59.6552 126.192 60.3413C125.13 60.8083 122.488 62.015 121.539 61.3483C121.152 61.0763 121.009 60.5159 120.612 60.1876C120.101 59.7663 119.622 59.3786 119.298 58.8658C118.676 57.8734 118.577 56.6886 119.132 55.5648C119.381 55.0633 119.739 54.5806 120.009 54.0809C121.189 51.8857 119.918 50.3635 119.259 48.4199C119.101 47.9506 119.195 47.3947 119.689 46.9759C120.197 46.5457 121.017 46.3391 121.787 46.2598C123.489 46.0868 125.186 46.4463 126.274 47.2118C127.027 47.7408 127.211 48.7873 127.616 49.4724C128.087 50.2725 128.614 51.0536 129.169 51.8231Z" fill="#2C2A2F"/>
<path d="M112.787 59.1004C111.575 58.7506 110.243 58.4474 108.799 58.1915C108.334 58.11 107.481 57.8176 106.679 57.9868C105.81 58.1715 105.159 58.7601 104.899 59.0016C103.917 59.9125 103.183 60.813 103.123 61.5894C103.086 62.0804 103.333 62.5191 103.934 62.8476C104.661 63.2443 105.225 63.3115 107.169 63.0037C108.79 62.7466 110.45 62.3847 112.085 62.0269C113.216 61.7793 115.58 61.4364 116.259 60.9702C117.477 60.1315 114.006 59.461 112.996 59.1632C112.928 59.1408 112.858 59.1206 112.787 59.1004Z" fill="#2C2A2F"/>
<path d="M122.495 52.0468C122.171 51.0363 123.147 50.376 124.675 50.5694C126.201 50.7633 127.7 51.7401 128.024 52.7506C128.347 53.7611 127.372 54.4214 125.846 54.2276C124.319 54.0321 122.818 53.0573 122.495 52.0468Z" fill="#F1E3EF"/>
<path d="M123.765 52.3332C123.568 51.7204 124.161 51.32 125.085 51.4384C126.011 51.5563 126.918 52.1483 127.114 52.7596C127.31 53.3723 126.718 53.7727 125.794 53.6543C124.87 53.536 123.96 52.9444 123.765 52.3332Z" fill="#2C2A2F"/>
<path d="M112.862 52.8655C113.555 51.3788 115.21 49.5538 117.663 49.2474C117.78 49.2321 117.779 49.3485 117.676 49.3769C115.193 50.0421 113.706 52.0416 113.283 53.6156C112.847 55.2384 113.536 56.4496 114.585 57.7506C114.734 57.9375 114.296 58.196 114.079 58.0263C112.386 56.6919 112.001 54.7077 112.862 52.8655Z" fill="#2C2A2F"/>
<path d="M113.437 49.5771C113.441 49.576 113.445 49.5801 113.441 49.5826C110.217 51.5603 109.949 54.3351 111.089 56.6844C111.18 56.8735 110.707 56.9796 110.615 56.7926C109.607 54.7383 109.425 50.8697 113.437 49.5771Z" fill="#2C2A2F"/>
<path d="M112.087 46.404C111.372 47.3922 109.92 48.1768 108.372 48.4136C106.821 48.6509 105.221 48.3313 104.274 47.5974C103.527 47.0178 103.197 46.2344 102.709 45.5301C101.562 43.8716 99.4484 42.5915 96.8559 41.9867C94.2635 41.382 91.2155 41.4591 88.4199 42.1988C86.3368 42.7505 84.4039 43.6511 82.2772 44.0656C80.1506 44.4801 77.6002 44.2251 76.8289 42.9595C76.536 42.4774 76.5386 41.9101 76.6494 41.3589C76.8078 40.5657 77.1873 39.761 77.8766 39.0578C78.8658 38.0492 80.4385 37.3137 82.0898 36.9094C83.7406 36.5036 85.4653 36.406 87.1333 36.4464C89.4783 36.5038 91.7497 36.8298 93.8291 37.409C97.355 38.3894 100.363 39.9121 104.619 39.4608C106.246 39.2881 108.04 38.9999 109.181 39.8124C110.08 40.4546 110.71 41.4769 111.426 42.2246C112.53 43.3811 113.15 44.9351 112.087 46.404Z" fill="#2C2A2F"/>
<path d="M87.7844 44.9974C86.9663 44.9324 86.1064 44.9118 85.2815 45.1118C83.8981 45.4466 82.8941 46.3104 81.8709 47.0625C80.8477 47.8146 79.4907 48.554 78.1155 48.4589C77.1396 48.3907 76.4291 47.916 75.7008 47.52C74.6062 46.923 73.3413 46.4608 71.9729 46.1596C70.8741 49.2879 73.0691 52.5083 77.0973 53.6742C78.0629 53.9545 79.1429 54.1251 80.2565 54.0227C81.3701 53.9203 82.5201 53.5114 83.1861 52.8491C84.6384 51.4082 83.5021 49.2698 85.4555 48.1199C86.2471 47.6538 87.3506 47.5278 88.2779 47.661C89.2052 47.7942 89.9858 48.1538 90.6858 48.5529C91.4506 48.989 92.3223 49.5112 93.3907 49.3327C95.8788 48.9183 95.1907 46.5737 93.7862 45.9637C92.3583 45.347 89.4861 45.1329 87.7844 44.9974Z" fill="#2C2A2F"/>
<path d="M106.288 52.1494C106.727 52.2289 107.191 52.291 107.544 52.4691C108.194 52.7984 108.296 53.445 108.146 54.0301C107.693 55.8016 105.327 57.3421 102.744 58.0086C101.558 58.3148 100.223 58.4638 99.1867 58.1319C97.4602 57.5786 97.2675 55.9655 97.7792 54.6183C98.2909 53.2711 99.3079 51.9373 99.3197 50.5936C99.3218 50.4155 99.3027 50.2355 99.1946 50.0824C98.8969 49.6582 98.0601 49.5886 97.3617 49.4776C95.4954 49.1782 96.0306 48.0889 97.7431 47.7075C98.9977 47.4287 99.5829 47.6757 100.161 48.3257C101.722 50.0784 103.059 51.5676 106.288 52.1494Z" fill="#2C2A2F"/>
<path d="M81.9235 57.3352C81.8395 56.7178 82.9783 56.1584 83.7735 55.9697C84.8416 55.7153 85.9723 55.1055 87.0867 55.021C87.6527 54.9777 88.2097 55.0951 88.5911 55.3371C89.1115 55.6688 89.25 56.1775 89.6683 56.5596C90.0856 56.9386 90.8996 57.1711 91.4953 57.4266C92.8769 58.024 94.2907 58.5904 95.7365 59.1258C95.936 59.2001 96.1443 59.2773 96.2574 59.4101C96.4116 59.5893 96.3576 59.8313 96.2593 60.0497C95.8399 60.9729 94.5887 61.7725 93.2001 62.0091C91.1988 62.3487 89.3881 61.5743 88.0759 60.6841C86.7611 59.7945 85.6087 58.7226 83.8167 58.2782C83.025 58.0828 82.0027 57.9131 81.9235 57.3352Z" fill="#2C2A2F"/>
<path d="M90.5437 29.5044C91.2157 29.6968 91.8895 29.9199 92.35 30.293C92.811 30.6677 93.0163 31.2265 92.6846 31.7262C92.2646 32.359 91.1771 32.6787 90.2046 32.8489C88.0812 33.2219 85.9323 33.2439 83.8121 33.2644C82.2458 33.2795 80.6795 33.2945 79.1133 33.3096C78.477 33.3151 77.8164 33.3193 77.2701 33.1463C76.7034 32.9676 76.3136 32.6162 76.0323 32.238C75.4806 31.4997 75.2829 30.5684 75.8273 29.7231C76.9815 27.9359 80.4178 28.2287 82.5307 28.2947C85.3351 28.3875 88.0581 28.7954 90.5437 29.5044Z" fill="#E8F6F0"/>
</g>
</svg>
