<svg width="39" height="39" viewBox="0 0 39 39" fill="none" xmlns="http://www.w3.org/2000/svg">
<g id="teenyicons:instagram-solid" clip-path="url(#clip0_0_2679)">
<path id="Vector" d="M19.4996 12.9993C17.7757 12.9993 16.1223 13.6841 14.9034 14.9031C13.6844 16.1221 12.9996 17.7754 12.9996 19.4993C12.9996 21.2232 13.6844 22.8765 14.9034 24.0955C16.1223 25.3144 17.7757 25.9993 19.4996 25.9993C21.2235 25.9993 22.8768 25.3144 24.0958 24.0955C25.3147 22.8765 25.9996 21.2232 25.9996 19.4993C25.9996 17.7754 25.3147 16.1221 24.0958 14.9031C22.8768 13.6841 21.2235 12.9993 19.4996 12.9993Z" fill="#1C7A9C"/>
<path id="Vector_2" fill-rule="evenodd" clip-rule="evenodd" d="M11.7 0C8.59701 0 5.62107 1.23268 3.4269 3.42685C1.23272 5.62103 4.57764e-05 8.59697 4.57764e-05 11.7L4.57764e-05 27.3C4.57764e-05 30.403 1.23272 33.379 3.4269 35.5731C5.62107 37.7673 8.59701 39 11.7 39H27.3C30.4031 39 33.379 37.7673 35.5732 35.5731C37.7674 33.379 39 30.403 39 27.3V11.7C39 8.59697 37.7674 5.62103 35.5732 3.42685C33.379 1.23268 30.4031 0 27.3 0L11.7 0ZM10.4 19.5C10.4 17.0865 11.3588 14.7719 13.0654 13.0653C14.772 11.3587 17.0866 10.4 19.5 10.4C21.9135 10.4 24.2281 11.3587 25.9347 13.0653C27.6413 14.7719 28.6 17.0865 28.6 19.5C28.6 21.9135 27.6413 24.2281 25.9347 25.9347C24.2281 27.6413 21.9135 28.6 19.5 28.6C17.0866 28.6 14.772 27.6413 13.0654 25.9347C11.3588 24.2281 10.4 21.9135 10.4 19.5ZM28.6 10.4H31.2V7.8H28.6V10.4Z" fill="#1C7A9C"/>
</g>
<defs>
<clipPath id="clip0_0_2679">
<rect width="39" height="39" fill="white"/>
</clipPath>
</defs>
</svg>
