<svg width="36" height="38" viewBox="0 0 36 38" fill="none" xmlns="http://www.w3.org/2000/svg">
<g id="radix-icons:linkedin-logo">
<path id="Vector" fill-rule="evenodd" clip-rule="evenodd" d="M4.79929 2.53296C4.16277 2.53296 3.55232 2.79986 3.10224 3.27496C2.65215 3.75005 2.39929 4.39441 2.39929 5.06629V32.933C2.39929 33.6048 2.65215 34.2492 3.10224 34.7243C3.55232 35.1994 4.16277 35.4663 4.79929 35.4663H31.1993C31.8358 35.4663 32.4463 35.1994 32.8963 34.7243C33.3464 34.2492 33.5993 33.6048 33.5993 32.933V5.06629C33.5993 4.39441 33.3464 3.75005 32.8963 3.27496C32.4463 2.79986 31.8358 2.53296 31.1993 2.53296H4.79929ZM7.31929 15.1996H11.8793V30.3996H7.31929V15.1996ZM12.1793 10.1456C12.1793 10.8679 11.9075 11.5606 11.4236 12.0713C10.9398 12.582 10.2836 12.869 9.59929 12.869C8.91503 12.869 8.2588 12.582 7.77496 12.0713C7.29111 11.5606 7.01929 10.8679 7.01929 10.1456C7.01929 9.42335 7.29111 8.73066 7.77496 8.21994C8.2588 7.70921 8.91503 7.42229 9.59929 7.42229C10.2836 7.42229 10.9398 7.70921 11.4236 8.21994C11.9075 8.73066 12.1793 9.42335 12.1793 10.1456ZM28.7993 21.1707C28.7993 16.598 25.9985 14.8196 23.2169 14.8196C22.3078 14.773 21.4027 14.9746 20.5889 15.4048C19.9721 15.7342 19.3265 16.479 18.8273 17.7811H18.7001V15.1996H14.3993V30.4123H18.9737V22.3183C18.9089 21.4899 19.1585 20.4183 19.6721 19.7824C20.1881 19.144 20.9201 18.992 21.4793 18.916H21.6545C23.1089 18.916 24.1889 19.866 24.1889 22.26V30.4098H28.7633L28.7993 21.1707Z" fill="#1C7A9C"/>
</g>
</svg>
