<svg width="274" height="227" viewBox="0 0 274 227" fill="none" xmlns="http://www.w3.org/2000/svg">
<mask id="mask0_1140_501" style="mask-type:alpha" maskUnits="userSpaceOnUse" x="0" y="0" width="274" height="227">
<path fill-rule="evenodd" clip-rule="evenodd" d="M135.767 0.00393142C151.041 -0.291345 160.831 16.1322 175.416 20.2808C191.17 24.7615 209.639 18.0727 224.202 25.1571C238.677 32.1985 247.346 46.3189 255.578 59.2758C264.032 72.5837 275.525 86.9192 273.115 102.148C270.572 118.209 248.593 126.267 242.559 141.53C237.027 155.524 249.206 173.409 240.072 185.727C231.09 197.84 211.666 198.566 196.595 203.516C183.354 207.866 169.604 209.582 156.134 213.299C141.371 217.372 128.085 226.688 112.664 226.677C96.9667 226.665 82.094 220.166 68.3529 213.234C54.3397 206.165 41.2335 197.311 31.475 185.719C21.6916 174.098 16.832 159.914 11.7576 146.005C6.55457 131.744 -3.24233 116.88 1.06668 102.372C5.53029 87.343 25.3246 80.7666 34.9511 67.9155C43.2819 56.7941 42.5183 40.3056 53.9441 31.7816C65.4511 23.197 83.0909 27.1114 96.7634 21.8014C110.91 16.3073 120.399 0.301057 135.767 0.00393142Z" fill="#C4C4C4"/>
</mask>
<g mask="url(#mask0_1140_501)">
<path opacity="0.66" d="M340.468 -13.8945H-66.7471V276.807H340.468V-13.8945Z" fill="#0D86A0"/>
</g>
</svg>
