<svg width="44" height="44" viewBox="0 0 44 44" fill="none" xmlns="http://www.w3.org/2000/svg">
<g id="icon-park-outline:telegram">
<path id="Vector" d="M37.968 6.69953C37.968 6.69953 41.5292 5.31078 41.2313 8.68319C41.1332 10.0719 40.2432 14.933 39.5502 20.1901L37.176 35.7643C37.176 35.7643 36.978 38.0459 35.1969 38.4428C33.4167 38.8388 30.7456 37.054 30.2506 36.6571C29.8546 36.3592 22.8311 31.895 20.3579 29.7134C19.6649 29.1175 18.8729 27.9277 20.4569 26.5389L30.8437 16.6188C32.0307 15.4289 33.2178 12.6514 28.2715 16.0239L14.4207 25.4472C14.4207 25.4472 12.8376 26.4399 9.87032 25.5471L3.43899 23.5625C3.43899 23.5625 1.06482 22.0748 5.12107 20.587C15.0147 15.9249 27.1834 11.1637 37.9662 6.69953H37.968Z" fill="#1C7A9C"/>
</g>
</svg>
