<svg width="38" height="37" viewBox="0 0 38 37" fill="none" xmlns="http://www.w3.org/2000/svg">
<g id="mdi:twitter">
<path id="Vector" d="M35.5621 9.24935C34.3429 9.78893 33.0288 10.1435 31.6671 10.3131C33.0604 9.49602 34.1371 8.20102 34.6438 6.64393C33.3296 7.41477 31.8729 7.95435 30.3371 8.26268C29.0863 6.93685 27.3288 6.16602 25.3338 6.16602C21.6129 6.16602 18.5729 9.12602 18.5729 12.7798C18.5729 13.3039 18.6363 13.8127 18.7471 14.2906C13.1104 14.0131 8.09125 11.3768 4.75042 7.38393C4.16458 8.35518 3.83208 9.49602 3.83208 10.6985C3.83208 12.9956 5.01958 15.0306 6.85625 16.1868C5.73208 16.1868 4.68708 15.8785 3.76875 15.416V15.4623C3.76875 18.6689 6.11209 21.3514 9.21542 21.9527C8.21907 22.2182 7.17307 22.2551 6.15959 22.0606C6.58963 23.3748 7.43185 24.5248 8.56786 25.3489C9.70387 26.1729 11.0765 26.6296 12.4929 26.6548C10.092 28.5054 7.11591 29.5058 4.05375 29.4914C3.51542 29.4914 2.97708 29.4606 2.43875 29.3989C5.44708 31.2798 9.02542 32.3743 12.8571 32.3743C25.3338 32.3743 32.1896 22.2918 32.1896 13.5506C32.1896 13.2577 32.1896 12.9802 32.1738 12.6873C33.5038 11.7623 34.6438 10.5906 35.5621 9.24935Z" fill="#1C7A9C"/>
</g>
</svg>
