<svg width="661" height="237" viewBox="0 0 661 237" fill="none" xmlns="http://www.w3.org/2000/svg">
<path d="M0.333333 11C0.333333 16.891 5.10896 21.6667 11 21.6667C16.891 21.6667 21.6667 16.891 21.6667 11C21.6667 5.10896 16.891 0.333333 11 0.333333C5.10896 0.333333 0.333333 5.10896 0.333333 11ZM639.333 11C639.333 16.891 644.109 21.6667 650 21.6667C655.891 21.6667 660.667 16.891 660.667 11C660.667 5.10896 655.891 0.333333 650 0.333333C644.109 0.333333 639.333 5.10896 639.333 11ZM171.5 225.785H169.5V227.785H171.5V225.785ZM310.833 225.785C310.833 231.676 315.609 236.451 321.5 236.451C327.391 236.451 332.167 231.676 332.167 225.785C332.167 219.894 327.391 215.118 321.5 215.118C315.609 215.118 310.833 219.894 310.833 225.785ZM11 13H171.5V9H11V13ZM171.5 13H650V9H171.5V13ZM169.5 11V225.785H173.5V11H169.5ZM171.5 227.785H321.5V223.785H171.5V227.785Z" fill="#F9F9F9"/>
</svg>
