<svg width="53" height="62" viewBox="0 0 53 62" fill="none" xmlns="http://www.w3.org/2000/svg">
<path fill-rule="evenodd" clip-rule="evenodd" d="M41.048 46.5217L46.4702 49.6528L53 45.8834V30.5885V15.2907L45.7103 11.082C45.7103 21.301 45.8262 31.4671 45.8262 41.7434L41.0966 44.4739L41.1009 44.4982L41.1038 44.5068L41.1095 44.5397L41.1152 44.5697L41.1209 44.6027L41.1224 44.6084L41.1267 44.6341L41.1324 44.6656L41.1367 44.6971L41.1395 44.72L41.141 44.73L41.1453 44.7629L41.1496 44.7959L41.1538 44.8273L41.1553 44.8302L41.1581 44.8602L41.1624 44.8917L41.1653 44.9246L41.1682 44.9404V44.9576L41.171 44.9905L41.1753 45.022L41.1796 45.0878L41.181 45.1207L41.1825 45.1522L41.1839 45.1651L41.1853 45.1837L41.1868 45.2166L41.1882 45.2495L41.1896 45.2767V45.2824V45.3153L41.1911 45.3468V45.3811V45.3869V45.4112V45.4427L41.1896 45.4756V45.4971V45.5056L41.1882 45.5386L41.1868 45.5715L41.1839 45.6359L41.1825 45.6674L41.181 45.7003L41.1796 45.7189L41.1782 45.7318L41.1768 45.7647L41.1725 45.7962L41.171 45.8276H41.1696L41.1667 45.8605L41.1639 45.892L41.1596 45.9249C41.141 46.0838 41.1138 46.2426 41.078 46.3986L41.0708 46.4315L41.0651 46.4616L41.048 46.5217ZM7.18096 41.7434V36.2797L7.15663 36.2726L7.14805 36.2697L7.11799 36.2583L7.08794 36.2468L7.05646 36.2354L7.05217 36.2339L7.02641 36.2253L6.99635 36.2139L6.9663 36.2025L6.9477 36.1967L6.93625 36.191L6.9062 36.1796L6.87615 36.1667L6.8461 36.1552L6.84466 36.1538L6.81747 36.1409L6.78742 36.1295L6.75737 36.1152L6.74306 36.1094L6.72732 36.1037L6.69727 36.0894L6.66865 36.0751L6.64146 36.0636L6.63859 36.0622L6.60997 36.0465L6.58135 36.0336L6.5513 36.0193L6.54128 36.0136L6.52268 36.0021L6.49406 35.9878L6.46544 35.9735L6.44254 35.962L6.43682 35.9577L6.4082 35.9434L6.38101 35.9277L6.35382 35.912L6.34666 35.9077L6.3252 35.8933L6.29801 35.879L6.27082 35.8619L6.24363 35.8447L6.21644 35.829L6.18925 35.8118L6.16206 35.7932L6.1592 35.7917L6.13487 35.7746L6.10768 35.7588L6.08049 35.7388L6.06618 35.7302L6.0533 35.7216L6.02611 35.7045L6.00035 35.6859L5.97459 35.6687L5.97316 35.6672L5.9474 35.6501L5.92164 35.6315L5.89445 35.6114L5.84437 35.5742L5.81861 35.5542L5.79714 35.5399L5.79285 35.5356L5.76852 35.5156L5.74419 35.4955L5.71843 35.4755L5.71271 35.4698L5.69411 35.4555L5.66978 35.4354L5.64545 35.4154L5.62828 35.4011L5.62113 35.3939L5.5968 35.3739L5.57247 35.3524L5.54957 35.3324L5.54528 35.3281L5.52524 35.3109L5.50235 35.288L5.47802 35.2666L5.45512 35.2451L5.43223 35.2236L0.0100183 38.3562V45.8935L26.5057 61.1913L33.7954 56.9826C24.943 51.8638 16.0806 46.8794 7.18096 41.7434ZM26.5029 8.27714L31.2324 11.009L31.2568 10.9875L31.2811 10.9661L31.3054 10.9446L31.3298 10.9246L31.3355 10.9203L31.3555 10.9031L31.3798 10.8816L31.4042 10.8616L31.4213 10.8487L31.4299 10.8416L31.4557 10.8215L31.48 10.8029L31.5072 10.7829L31.5086 10.7815L31.533 10.7629L31.5587 10.7428L31.5845 10.7242L31.6117 10.707L31.6374 10.687L31.6632 10.6698L31.6889 10.6527L31.6904 10.6512L31.7176 10.6326L31.7448 10.6155L31.7705 10.5983L31.782 10.5926L31.7991 10.5811L31.8263 10.5639L31.8535 10.5468L31.8764 10.5325L31.8807 10.531L31.9093 10.5153L31.9365 10.4967L31.9637 10.4809L31.9694 10.4766L31.9895 10.4652L32.0181 10.4509L32.0467 10.4337L32.0739 10.4194L32.1025 10.4022L32.1311 10.3879L32.1598 10.3736L32.1641 10.3722L32.1884 10.3593L32.217 10.345L32.2742 10.3164L32.3043 10.3021L32.363 10.2763V10.2749C32.4803 10.2219 32.5991 10.1747 32.7193 10.1289L32.7494 10.1189L32.8095 10.0989L32.8395 10.0888L32.871 10.0774L32.8753 10.076L32.9311 10.0588L32.9611 10.0502L32.9797 10.0445L32.9912 10.0402L33.0227 10.0316V3.76793L26.4943 0L13.2457 7.64891L0 15.2964V23.7152C8.85671 18.5978 17.6032 13.416 26.5029 8.27714Z" fill="url(#paint0_linear_943_410)"/>
<path d="M10.0499 40.0867L18.1468 44.7619V35.7664C17.6345 35.6061 17.2595 35.1253 17.2595 34.5586C17.2595 33.8602 17.0248 44.0478 17.7246 44.0478C18.4215 44.0478 19.5964 44.1723 19.5964 44.8721C19.5964 45.4388 19.4175 35.6061 18.9024 35.7664L18.0867 44.7318L21.949 46.9542V35.7649C21.4339 35.6047 21.0618 35.1238 21.0618 34.5571C21.0618 33.8588 21.6285 46.7467 22.3268 46.7467C23.0266 46.7467 23.5919 33.8588 23.5919 34.5571C23.5919 35.1238 23.2169 35.6032 22.7046 35.7649L21.7244 46.8254L25.7499 49.148V35.7649C25.2347 35.6047 24.8626 35.1238 24.8626 34.5571C24.8626 33.8588 25.0573 48.8403 25.7556 48.8403C26.454 48.8403 27.9236 34.1107 27.3927 34.5571C26.9591 34.9206 27.0206 35.6032 26.5069 35.7649L25.6411 49.0836L36.5471 55.3816L43.7209 51.2402L39.6052 48.8632C39.3891 49.0507 39.1516 49.2196 38.8954 49.3698C36.7002 50.6363 33.8925 49.885 32.626 47.6898C31.3596 45.4946 32.1109 42.6869 34.3061 41.4218C36.0734 40.4029 38.2328 40.6906 39.671 41.9842L42.9596 40.0852V30.7363L35.169 35.234C35.2863 35.7592 34.1315 36.1699 34.5665 36.605C35.0602 37.0987 42.9925 31.0225 42.6433 30.4171C42.2941 29.8118 32.6747 34.1049 33.3029 34.414C34.2259 34.8677 34.3948 34.2137 34.7912 34.58L42.9581 30.9366V26.3473L33.2686 31.9412C33.3859 32.4664 32.8808 32.6567 32.6661 33.3121C32.4486 33.9776 43.0597 26.6564 42.7106 26.051C42.3614 25.4457 30.4179 31.1598 31.4025 31.1226C31.9692 31.1012 32.4958 30.9223 32.8908 31.2858L42.9596 26.5104V21.9554L31.3681 28.6469C31.4855 29.1721 30.8616 29.527 30.7657 30.0179C30.6312 30.7033 43.0569 22.2874 42.7077 21.6821C42.3585 21.0782 28.944 27.4077 29.5021 27.8284C30.3292 28.4509 30.5954 27.628 30.9918 27.993L42.9596 22.2645V9.48818L39.7512 7.64214L35.7829 5.34961V10.1021C36.0534 10.1965 36.3195 10.3167 36.5771 10.4656C38.7723 11.7335 39.5251 14.5397 38.2572 16.735C36.9907 18.9287 34.183 19.6815 31.9892 18.4136C30.2233 17.3947 29.3919 15.3798 29.794 13.4879L26.5055 11.5889L18.4086 16.2627L26.1992 20.7619C26.5956 20.397 27.1981 20.3126 27.6889 20.5973C28.2943 20.9465 19.1256 16.038 18.7764 16.6419C18.4272 17.2473 26.5341 23.478 26.4239 22.7868C26.3595 22.3818 25.7041 21.9411 25.8214 21.4159L18.4831 16.2198L14.6078 18.4594L24.2959 24.0533C24.6923 23.6884 25.2934 23.6054 25.7857 23.8887C26.3896 24.2379 14.8253 18.2118 14.4761 18.8157C14.127 19.421 25.1259 26.4274 24.5206 26.0768C24.0312 25.7934 23.8008 25.2296 23.9196 24.7059L14.6951 18.4064L10.8055 20.6503L22.397 27.3433C22.7934 26.9769 23.5389 26.8238 24.0298 27.1071C24.6351 27.4563 11.3508 20.3569 11.003 20.9623C10.6538 21.5662 23.2284 29.7174 22.6231 29.3682C22.1322 29.0848 21.9032 28.521 22.0206 27.9958L10.8327 20.636L0.00976562 26.8839V35.1682L4.12543 32.7927C4.07249 32.5122 4.04387 32.2202 4.04387 31.9255C4.04387 29.3897 6.09741 27.3361 8.63321 27.3361C11.1662 27.3361 13.2211 29.3911 13.2211 31.9255C13.2211 33.9633 11.8917 35.6919 10.0528 36.2901V40.0867H10.0499Z" fill="url(#paint1_linear_943_410)"/>
<path fill-rule="evenodd" clip-rule="evenodd" d="M34.6839 46.5027C35.2936 47.5574 36.6459 47.9209 37.702 47.3112C38.7581 46.7016 39.1202 45.3493 38.5105 44.2932C37.9009 43.2371 36.5486 42.8765 35.4925 43.4846C34.4378 44.0928 34.0757 45.448 34.6839 46.5027ZM36.1951 15.545C36.8047 14.4875 36.4413 13.1366 35.3851 12.5255C34.3305 11.9173 32.9767 12.2794 32.3685 13.3355C31.7589 14.3902 32.1209 15.7439 33.1771 16.3536C34.2332 16.9632 35.5855 16.6011 36.1951 15.545ZM8.63042 29.7152C7.40975 29.7152 6.4209 30.704 6.4209 31.9247C6.4209 33.1454 7.40975 34.1328 8.63042 34.1328C9.8511 34.1328 10.8385 33.144 10.8385 31.9247C10.8385 30.704 9.84967 29.7152 8.63042 29.7152Z" fill="url(#paint2_linear_943_410)"/>
<defs>
<linearGradient id="paint0_linear_943_410" x1="0.0488414" y1="29.5526" x2="29.9012" y2="30.7215" gradientUnits="userSpaceOnUse">
<stop stop-color="#01E8FB"/>
<stop offset="1" stop-color="#B562D3"/>
</linearGradient>
<linearGradient id="paint1_linear_943_410" x1="0.00803407" y1="30.3667" x2="43.7179" y2="30.3667" gradientUnits="userSpaceOnUse">
<stop stop-color="#01E8FB"/>
<stop offset="1" stop-color="#B562D3"/>
</linearGradient>
<linearGradient id="paint2_linear_943_410" x1="6.42044" y1="29.9186" x2="38.807" y2="29.9186" gradientUnits="userSpaceOnUse">
<stop stop-color="#01E8FB"/>
<stop offset="1" stop-color="#B562D3"/>
</linearGradient>
</defs>
</svg>
