<svg width="181" height="269" viewBox="0 0 181 269" fill="none" xmlns="http://www.w3.org/2000/svg">
<g opacity="0.64">
<path d="M154.533 135.597C140.891 121.796 129.542 106.695 130.747 86.4549C130.758 86.2945 130.511 86.2688 130.498 86.4282C129.705 95.5817 132.232 104.674 135.758 113.28C140.517 124.894 150.758 132.132 159.023 141.248C169.433 152.731 178.4 166.313 180.021 181.867C181.661 197.593 175.904 212.489 171.169 226.93C171.078 227.208 171.498 227.366 171.603 227.094C179.379 207.132 185.507 185.293 175.827 164.185C170.858 153.344 162.879 144.041 154.533 135.597Z" fill="#D8E4F1"/>
<path d="M133.622 80.4515C133.434 80.4582 133.454 80.7713 133.642 80.7821C165.29 82.707 162.257 140.274 161.224 161.703C160.313 180.594 164.74 193.659 179.594 206.712C179.898 206.98 180.359 206.474 180.055 206.198C164.401 192.05 161.356 177.071 162.461 157.224C163.176 144.395 162.909 131.728 160.685 118.928C158.1 104.04 153.166 79.7458 133.622 80.4515Z" fill="#D8E4F1"/>
<path d="M200.706 110.495C200.671 110.195 200.224 110.271 200.249 110.564C201.774 128.27 203.599 145.957 205.416 163.646C206.798 177.083 205.488 194.13 213.174 206.046C213.351 206.319 213.807 206.119 213.63 205.84C205.583 193.216 207.043 172.684 205.636 158.226C204.088 142.308 202.52 126.394 200.706 110.495Z" fill="#D8E4F1"/>
<path d="M203.067 171.045C192.985 163.346 186.857 153.936 177.948 145.397C169.142 136.956 156.332 135.558 147.646 126.739C133.819 112.704 134.417 94.9736 137.174 77.5075C137.189 77.4014 137.022 77.3845 137.006 77.4888C133.397 99.5754 134.933 122.014 157.304 134.471C162.846 137.558 169.223 139.111 174.372 142.984C181.292 148.19 185.349 156.355 191.483 162.337C201.359 171.969 213.271 178.415 221.26 190.006C221.423 190.242 221.823 189.991 221.676 189.743C217.048 181.869 210.266 176.541 203.067 171.045Z" fill="#D8E4F1"/>
<path d="M143.465 90.46C146.807 93.7752 152.834 97.3521 145.976 100.092C142.518 101.474 139.314 103.822 137.863 107.201C136.411 110.579 137.142 115.066 140.201 117.371C141.728 118.523 143.758 119.14 144.777 120.741C146.533 123.499 144.159 126.74 142.452 129.397C140.808 131.957 139.727 134.875 139.296 137.909C138.885 140.805 139.343 144.299 141.899 145.925C142.804 146.5 143.883 146.765 144.942 146.768C148.556 146.782 151.665 143.378 151.277 139.832C151.165 138.802 150.804 137.798 150.727 136.765C150.307 131.172 157.845 127.955 158.207 122.389C161.153 122.394 162.539 125.937 164.162 128.416C164.37 128.733 164.635 129.067 165.007 129.131C165.333 129.187 165.643 129.018 165.903 128.83C168.754 126.765 169.561 118.583 174.172 119.256C179.747 120.069 178.826 129.337 176.276 132.221C174.673 134.036 172.234 135.937 172.999 138.296C173.863 140.961 178.453 142.051 177.949 144.755C177.836 145.353 177.46 145.86 177.072 146.327C175.047 148.768 172.435 150.777 170.96 153.585C169.485 156.39 169.624 160.484 172.398 162.281C173.241 162.825 174.401 163.327 174.423 164.302C174.436 164.876 174.014 165.338 173.694 165.804C170.707 170.146 176.955 177.512 179.928 180.553C185.219 185.968 190.508 191.381 195.797 196.797C198.369 199.431 201.359 202.258 205.004 202.362C204.151 199.011 200.366 197.376 197.395 195.472C194.593 193.678 192.202 191.248 190.472 188.44C189.77 187.301 189.158 186.015 189.304 184.72C189.602 182.046 192.867 180.638 193.487 178.03C193.982 175.946 192.608 173.783 190.946 172.309C189.284 170.835 187.276 169.742 185.797 168.092C183.546 165.582 182.818 161.865 183.984 158.833C185.589 154.657 190.183 152.3 192.087 148.254C193.514 145.223 193.242 141.663 192.943 138.276C192.664 135.103 192.358 131.841 190.912 128.949C189.708 126.543 183.212 120.843 188.443 118.888C189.872 118.354 191.494 118.619 193.033 118.51C194.574 118.403 196.291 117.672 196.562 116.184C196.891 114.382 194.949 112.927 193.208 112.173C191.466 111.418 189.394 110.579 188.914 108.779C188.228 106.204 191.309 104.478 193.835 103.681C198.334 102.263 202.835 100.846 207.335 99.4279C207.502 94.9567 204.232 90.4525 199.835 89.0931C194.586 87.4701 188.953 90.0633 183.611 88.8251C181.1 88.2428 178.478 86.2838 178.613 83.7766C178.736 81.511 181.079 79.6883 180.635 77.4403C180.313 75.8125 178.601 74.739 176.949 74.3946C175.298 74.0494 173.594 74.2158 171.93 73.9523C169.05 73.4945 166.739 71.742 165.074 69.4265C162.607 65.9987 163.816 66.6887 159.895 67.6251C154.44 68.929 148.116 68.6667 143.906 72.9661C140.318 76.6309 139.168 84.3692 142.141 88.9099C142.474 89.4166 142.934 89.935 143.465 90.46Z" fill="#C0D2E7"/>
<path d="M194.727 58.7255C196.79 62.7575 198.256 67.3621 197.048 70.9897C196.04 74.0223 193.342 76.403 190.148 77.0823C188.637 77.4044 186.941 77.4081 185.77 78.3714C184.779 79.1861 184.288 80.6047 183.058 81.0308C182.128 81.353 181.093 80.9872 180.109 80.7743C177.108 80.1242 173.861 81.029 171.75 83.105C169.932 84.8921 168.21 87.727 165.641 87.0908C164.84 86.8931 164.16 86.3597 163.397 86.0395C160.356 84.7704 157.206 87.1391 155.14 89.5293C153.074 91.9196 150.75 94.7545 147.49 94.6574C146.526 94.6281 145.57 94.33 144.606 94.3513C139.669 94.4645 138.382 102.147 133.523 102.879C127.93 103.724 122.44 96.0036 120.371 91.8234C110.248 71.373 118.673 47.3922 139.188 38.2602C150.982 33.0107 164.703 34.13 176.352 40.535C182.114 43.7036 187.538 47.7626 191.298 53.0963C192.41 54.6697 193.65 56.6189 194.727 58.7255Z" fill="#D8E4F1"/>
<path d="M243.359 101.898C224.908 97.1435 204.008 111.388 193.968 87.5833C189.657 77.3608 192.753 60.6448 183.169 53.471C183.057 53.3864 182.943 53.5571 183.051 53.6433C190.197 59.2189 188.83 71.6046 190.727 79.2475C192.053 84.5934 193.852 90.2443 196.942 94.9251C200.893 100.91 205.452 103.106 212.342 103.365C229.652 104.016 244.425 97.5249 258.987 112.205C270.912 124.228 276.049 141.607 277.946 157.627C277.993 158.037 278.607 157.931 278.574 157.532C276.814 136.923 266.541 107.871 243.359 101.898Z" fill="#D8E4F1"/>
<path d="M147.436 101.465C149.102 108.531 152.457 115.726 156.243 122.461C155.876 121.761 155.498 121.063 155.152 120.355C152.257 114.452 149.124 108.012 147.436 101.465Z" fill="#D8E4F1"/>
<path d="M152.18 122.192C162.578 141.289 179.796 158.173 176.243 180.861C173.949 195.501 146.756 232.454 170.952 243.191C171.237 243.317 171.36 242.898 171.096 242.761C151.909 232.799 167.439 208.246 172.692 195.65C176.077 187.528 178.477 178.616 177.419 169.496C176.152 158.563 169.851 149.314 163.781 140.19C160.342 135.023 156.065 128.827 152.18 122.192Z" fill="#D8E4F1"/>
<path d="M148.147 84.4543C146.333 90.027 146.759 95.7854 148.29 101.465C146.845 95.6039 146.565 89.8345 148.269 84.5008C148.292 84.4237 148.171 84.379 148.147 84.4543Z" fill="#D8E4F1"/>
<path d="M120.107 199.138C124.792 197.896 129.279 196.556 133.157 194.769C142.584 190.428 153.093 185.558 154.535 174.117C155.206 168.794 153.815 163.496 151.75 158.372C152.486 160.777 153.049 163.151 153.338 165.467C155.751 184.828 137.258 193.834 120.107 199.138Z" fill="#D8E4F1"/>
<path d="M136.356 121.466C134.855 118.052 133.41 114.719 132.124 111.375C136.627 123.892 143.57 136.274 148.736 147.447C150.348 150.933 152.134 154.605 153.558 158.375C149.986 145.91 141.188 132.457 136.356 121.466Z" fill="#D8E4F1"/>
<path d="M127.953 91.2507C128.274 98.4302 130.214 104.934 132.804 111.404C130.281 104.677 128.471 97.9093 128.077 91.2673C128.071 91.1864 127.949 91.169 127.953 91.2507Z" fill="#D8E4F1"/>
<path d="M105.676 203.195C109.618 202.16 114.039 200.972 118.545 199.54C112.699 201.132 106.546 202.568 100.82 204.501C102.398 204.058 104.016 203.631 105.676 203.195Z" fill="#D8E4F1"/>
<path d="M80.8188 217.742C80.7588 217.84 80.9106 217.948 80.9735 217.851C85.2409 211.318 92.4633 207.612 100.551 204.897C92.4821 207.158 85.5826 209.96 80.8188 217.742Z" fill="#D8E4F1"/>
<path d="M260.436 101.456C253.693 103.154 249.004 109.2 244.772 114.115C241.749 117.627 239.052 121.404 236.079 124.954C233.286 128.56 230.176 131.869 226.748 134.885C222.532 140.231 217.141 141.307 210.575 138.109C198.783 136.294 197.051 133.415 192.412 122.376C189.91 116.422 188.438 110.075 187.355 103.789C185.575 93.4583 186.551 82.4565 183.923 72.2676C181.479 62.7961 176.65 58.8662 168.176 64.848C168.063 64.9275 168.21 65.0905 168.321 65.0137C185.144 53.486 185.082 89.6848 185.542 94.2117C186.358 102.234 187.594 110.299 190.173 118.047C193.042 126.662 198.896 140.446 209.588 142.303C219.489 144.022 228.132 135.426 233.927 129.199C240.029 122.644 244.795 113.653 251.962 108.149C266.805 96.7475 282.128 107.758 293.632 118.288C294.105 118.721 294.859 118.133 294.388 117.657C286.628 109.846 272.496 98.4161 260.436 101.456Z" fill="#D8E4F1"/>
<path d="M198.43 119.241C202.534 107.702 201.476 95.7206 195.921 84.2576C192.091 76.3545 183.886 61.8676 174.405 60.4376C174.159 60.4007 174.141 60.7755 174.383 60.8141C183.651 62.3214 193.081 79.0289 196.296 86.3507C201.378 97.9225 201.431 109.566 197.199 120.842C192.331 133.814 180.473 145.815 180.286 160.549C180.141 172.072 188.451 180.649 197.891 186.551C198.459 186.906 199.049 187.236 199.623 187.585C195.504 184.874 191.737 181.91 188.592 178.565C169.76 158.543 191.843 137.758 198.43 119.241Z" fill="#D8E4F1"/>
<path d="M212.712 137.442C202.98 130.6 192.463 127.101 181.436 123.316C176.749 121.708 172.426 119.872 168.607 117.44C171.293 119.337 174.24 120.983 177.477 122.245C194.086 128.72 209.266 133.211 222.722 146.263C238.046 161.127 246.052 180.467 248.268 200.9C248.289 201.093 248.57 201.045 248.556 200.858C246.7 175.822 233.911 152.351 212.712 137.442Z" fill="#D8E4F1"/>
<path d="M156.282 76.3801C152.269 86.4352 152.966 96.9623 157.291 105.925C153.105 96.2878 152.666 85.7796 156.362 76.411C156.384 76.3615 156.303 76.3305 156.282 76.3801Z" fill="#D8E4F1"/>
<path d="M156.332 105.918C159.217 112.511 163.442 116.96 168.607 120.28C163.175 116.404 158.946 111.348 156.218 105.619C156.258 105.718 156.288 105.818 156.332 105.918Z" fill="#D8E4F1"/>
<path d="M208.124 145.168C201.773 136.676 194.019 130.886 185.308 125.122C175.971 118.946 169.8 112.337 166.358 101.258C163.408 91.7617 162.498 80.2471 168.957 72.5193C169.04 72.4198 168.868 72.3003 168.784 72.398C161.705 80.7321 163.282 90.9469 165.92 101.326C168.896 113.032 175.009 118.994 184.924 125.696C201.002 136.563 213.667 149.72 219.226 168.883C223.335 183.047 220.292 197.932 226.06 211.698C226.207 212.049 226.715 211.809 226.576 211.461C221.31 198.326 223.881 184.379 220.442 170.894C218.084 161.656 213.87 152.852 208.124 145.168Z" fill="#D8E4F1"/>
<path d="M134.498 139.903C134.27 140.026 134.045 140.152 133.821 140.277C134.077 140.147 134.33 140.018 134.589 139.889C134.554 139.895 134.514 139.906 134.498 139.903Z" fill="#D8E4F1"/>
<path d="M144.757 77.0219C140.094 83.8404 137.325 91.2404 137.838 99.8683C138.114 104.517 139.499 108.849 141.068 113.277C142.423 117.104 148.98 128.405 148.12 131.446C147.155 134.852 142.085 137.443 137.128 139.861C138.167 139.681 148.26 135.751 148.346 135.574C148.648 134.953 149.016 134.187 149.134 133.455C149.789 129.374 144.814 121.212 143.406 117.652C137.622 103.018 136.285 90.1664 145.049 77.2217C145.167 77.0458 144.878 76.8444 144.757 77.0219Z" fill="#D8E4F1"/>
<path d="M134.511 139.904C135.011 139.637 135.476 139.331 135.994 139.083C134.794 139.659 134.394 139.893 134.511 139.904Z" fill="#D8E4F1"/>
<path d="M113.975 165.407C114.074 202.133 169.266 223.505 198.629 226.934C198.986 226.977 199.016 226.436 198.661 226.388C180.809 223.955 163.63 218.348 147.988 208.612C127.286 195.726 102.873 170.924 121.145 147.484C123.909 143.938 127.246 141.133 131.181 138.983C127.836 140.621 124.636 142.192 122.934 143.904C117.355 149.509 113.952 157.232 113.975 165.407Z" fill="#D8E4F1"/>
<path d="M168.423 186.323C147.329 180.718 136.165 169.121 133.739 147.478C131.809 130.253 133.383 113.008 134.899 95.9511C134.906 95.8703 134.779 95.856 134.771 95.9375C132.745 118.019 125.009 157.917 144.734 175.655C152.183 182.354 163.114 185.689 172.578 187.759C192.573 192.129 220.548 185.936 232.922 206.817C233.063 207.053 233.444 206.887 233.307 206.644C220.659 184.255 189.323 191.878 168.423 186.323Z" fill="#D8E4F1"/>
<path d="M181.705 95.207C175.685 95.1038 169.712 97.3428 163.687 96.5925C159.736 96.0999 154.984 92.3855 153.622 88.651C153.051 87.0822 153.498 84.6272 153.628 82.9833C153.972 78.6705 155.26 74.5814 156.802 70.6056C156.871 70.4271 156.588 70.3251 156.514 70.499C153.906 76.6814 150.01 88.0013 156.137 93.724C162.977 100.114 173.86 95.2789 181.693 95.3781C181.803 95.3783 181.816 95.2091 181.705 95.207Z" fill="#D8E4F1"/>
<path d="M265.929 163.087C242.287 154.74 242.817 121.535 224.267 106.689C218.923 102.413 212.841 100.101 206.284 98.5325C201.162 97.3082 195.7 97.3338 190.647 95.9723C179.915 93.0795 175.942 85.3688 173.032 75.9818C173.016 75.9314 172.933 75.942 172.948 75.995C174.893 82.4089 174.76 90.3453 181.36 93.9829C193.25 100.535 208.4 96.7471 220.615 104.631C242.141 118.525 240.436 155.592 265.791 163.481C266.055 163.564 266.193 163.181 265.929 163.087Z" fill="#D8E4F1"/>
<path d="M173.599 113.009C173.553 112.825 173.268 112.867 173.31 113.052C177.257 130.284 178.776 147.101 180.046 164.597C181.004 177.77 183.165 189.256 192.691 199.203C192.955 199.479 193.396 199.11 193.13 198.83C180.677 185.777 181.237 169.306 180.058 152.849C179.097 139.41 176.877 126.162 173.599 113.009Z" fill="#D8E4F1"/>
<path d="M144.144 86.952L147.278 93.6435C147.312 93.7162 147.419 93.6654 147.385 93.5927L144.251 86.9012C144.215 86.8293 144.11 86.8793 144.144 86.952Z" fill="#D8E4F1"/>
<path d="M222.351 107.694C215.575 104.148 208.13 102.139 200.851 100.063C197.211 99.0242 193.465 98.2367 189.899 96.94C178.123 92.657 174.757 87.4198 171.396 76.249C171.332 76.0395 170.997 76.0875 171.057 76.3004C174.595 88.6989 179.356 94.3605 191.815 98.3512C212.714 105.045 238.341 110.146 243.271 135.339C243.357 135.774 244.001 135.668 243.948 135.236C242.36 122.616 233.644 113.603 222.351 107.694Z" fill="#D8E4F1"/>
<path d="M231.354 134.903C217.241 129.867 202.724 132.955 190.693 121.802C177.88 109.92 174.073 91.6838 166.725 76.5913C166.653 76.4432 166.428 76.5448 166.498 76.6937C175.276 95.1936 179.97 121.894 201.995 129.98C214.372 134.526 227.869 132.414 239.481 139.992C256.075 150.823 259.066 170.929 262.613 188.465C262.711 188.95 263.423 188.831 263.363 188.351C260.666 167.16 254.064 143.008 231.354 134.903Z" fill="#D8E4F1"/>
<path d="M121.607 66.2534C120.517 71.779 121.004 77.6874 123.241 82.9986C123.874 84.5016 124.816 86.1052 126.401 86.5795C127.236 86.8297 128.128 86.7187 128.951 86.4865C133.225 85.2796 135.753 81.2188 138.32 77.7053C141.389 73.5058 145.072 69.6116 146.871 64.7257C148.504 60.292 148.422 55.2193 146.646 50.7099C146.074 49.2568 145.22 47.657 143.719 46.9299C142.672 46.4231 140.91 46.4151 139.768 46.3718C136.652 46.2568 133.611 47.4501 131.2 49.2323C128.423 51.2835 126.482 54.0289 125.167 57.1694C124.572 58.5881 123.651 59.8229 123.074 61.2906C122.441 62.8987 121.944 64.5572 121.607 66.2534Z" fill="#F7FBFF"/>
</g>
</svg>
