<svg width="238" height="310" viewBox="0 0 238 310" fill="none" xmlns="http://www.w3.org/2000/svg">
<path d="M75.0202 145.666C74.9719 146.064 74.8328 146.425 74.5334 146.717C74.0956 147.15 73.3717 147.353 72.6321 147.476C66.1742 148.571 56.8238 144.889 52.4952 148.321C50.0513 150.259 50.4633 153.86 52.2289 156.996C46.087 157.062 39.5442 157.787 36.762 161.513C36.3565 162.057 36.0377 162.678 36.137 163.395C36.4414 165.592 40.0572 167.094 42.0405 169.062C45.1639 172.162 43.6575 176.052 40.5419 177.831C37.4263 179.611 33.1275 180.098 29.71 181.575C26.2915 183.053 23.7518 186.217 25.8014 189.658C26.4211 190.699 27.4042 191.658 27.9781 192.703C29.2837 195.081 28.176 197.4 26.2389 198.796C24.3045 200.193 21.6498 200.914 19.2946 201.917C16.1274 203.268 13.4583 205.159 11.465 207.472C11.0297 207.978 10.6131 208.544 10.6993 209.241C10.9172 210.993 13.7789 212.155 15.7383 213.46C19.4717 215.946 20.4795 219.983 19.6282 223.003C18.777 226.023 16.5089 228.426 15.0858 231.21C13.427 234.454 12.9289 238.239 13.6489 242.158C13.8251 243.119 14.0956 244.129 14.8654 245.026C15.6652 245.954 16.8928 246.637 18.0734 247.283C21.4989 249.155 25.0152 251.064 28.7581 252.053C32.5009 253.042 36.5833 252.938 38.6607 251.043C40.7782 249.108 40.3369 245.783 38.7468 242.842C37.1566 239.901 34.5798 237.17 32.4059 234.352C29.3469 230.384 27.0789 226.219 24.9659 222.062C24.1461 220.449 23.3307 218.724 23.7205 217.268C24.8782 212.966 34.5261 214.841 37.2852 211.283C39.887 207.927 34.7717 202.3 35.5882 198.153C36.1509 195.301 39.5805 193.678 43.4167 193.607C45.8639 193.562 48.5765 194.039 50.6849 193.401C53.7146 192.486 54.5252 189.545 54.205 186.739C53.8849 183.934 52.7016 181.001 52.7899 178.272C52.8783 175.543 54.7366 172.912 58.2854 172.936C60.5066 172.949 62.9738 174.002 65.1269 173.838C69.2429 173.526 69.5037 169.312 68.5511 165.891C67.5985 162.47 66.3494 158.387 69.3467 156.605C71.1615 155.525 73.9844 155.71 76.5528 155.706C80.7896 155.701 84.8063 155.079 88.3559 153.881C88.9776 153.671 89.6544 153.329 89.5003 152.731C89.398 152.33 88.9481 151.973 88.595 151.614C86.7748 149.76 87.4112 147.423 89.127 146.251C90.8402 145.078 93.3389 144.713 95.5831 144.101C104.056 141.787 110.137 134.858 109.074 126.952C108.619 123.57 104.398 112.856 98.4522 112.147C93.8715 111.601 91.9893 123.061 91.7851 125.564C91.5054 129.021 91.8453 132.937 89.0517 135.181C87.0022 136.829 83.666 137.21 80.7207 137.942C77.7736 138.67 74.8761 140.083 74.7947 142.651C74.7681 143.626 75.1346 144.746 75.0202 145.666Z" fill="#86DEE4"/>
<path d="M33.9407 87.8402C31.0204 89.0574 29.078 91.6192 30.1636 94.5536C31.3814 97.8485 36.0686 101.038 35.6933 104.117C35.3763 106.72 31.6592 107.513 28.8996 108.679C23.6798 110.885 21.4994 117.147 26.8014 121.48C28.7122 123.041 31.4034 124.219 32.4877 126.086C33.3954 127.651 32.8373 129.186 32.0059 130.413C29.0676 134.749 23.1482 137.103 18.8176 140.56C14.4879 144.015 11.875 149.748 16.1817 155.022C19.2699 158.806 25.3987 161.663 26.608 165.688C27.0857 167.28 26.653 168.758 26.0366 170.094C23.5219 175.545 18.0359 179.531 15.7328 185.071C15.2492 186.231 14.9293 187.572 15.7251 188.91C16.5861 190.36 18.5058 191.408 20.2814 192.331C23.3096 193.905 26.336 195.476 29.3642 197.05C33.5021 199.201 38.0241 201.703 39.7597 205.12C41.0584 207.678 40.4609 210.147 40.0591 212.523C37.8281 225.798 42.7913 241.145 53.6987 254.697C55.5572 257.006 57.6101 259.311 58.6567 261.759C60.4663 265.991 58.9999 269.891 58.2006 273.757C57.2568 278.318 57.4717 283.658 61.6038 288.243C65.736 292.829 74.9053 295.48 78.343 292.114C79.3519 291.127 79.6771 289.505 78.4134 288.18C77.3144 287.029 75.4666 286.516 73.944 285.702C70.8105 284.027 69.1374 281.018 69.0388 278.473C68.9402 275.929 70.1211 273.733 71.2778 271.597C74.5241 265.606 77.7691 259.155 75.616 251.798C71.7319 238.54 52.0598 227.543 47.2099 214.27C45.1681 208.687 46.0565 203.249 48.6927 198.793C49.69 197.109 50.9544 195.413 50.5346 193.32C50.2185 191.741 48.9652 190.159 47.5411 188.747C43.6864 184.923 38.2811 181.877 32.6746 180.375C31.3894 180.03 30.0235 179.734 28.9359 178.996C26.4615 177.323 27.0059 174.679 28.1096 172.909C29.4373 170.781 31.1367 168.844 33.1691 167.147C35.0743 165.554 37.3032 164.133 38.3976 162.064C40.2971 158.475 38.0699 153.169 33.273 149.854C30.5774 147.991 26.781 146.188 26.5187 143.766C26.3492 142.209 27.8578 141.201 29.3732 140.476C32.596 138.935 36.3068 137.884 39.3179 136.142C42.329 134.401 44.6575 131.758 44.2055 128.432C43.9122 126.274 42.4918 124.069 41.1067 121.934C37.6505 116.611 34.2587 110.069 38.2344 106.534C41.6286 103.515 48.9691 104.283 52.6722 101.489C55.0567 99.6899 55.477 96.4652 53.7102 93.5117C49.5554 86.5786 39.9582 85.3304 33.9407 87.8402Z" fill="#86DEE4"/>
<path d="M42.7634 72.7017C8.66223 74.5412 -3.44956 92.4611 -4.75365 117.761C-5.71299 136.341 -3.21142 157.163 -19.4222 169.706C-34.6902 181.52 -61.5787 181.035 -84.8 180.738C-86.478 180.716 -85.9653 182.807 -84.2702 182.828C-54.3534 183.212 -21.2386 182.589 -8.75488 161.858C-1.15828 149.244 -2.80973 133.274 -2.04484 118.461C-0.729898 92.9259 11.7319 78.1332 43.4254 73.8542C44.3326 73.7331 43.6595 72.654 42.7634 72.7017Z" fill="#B6F2FF"/>
<path d="M46.7623 104.849C47.2684 108.012 48.2131 111.294 49.1344 114.588C48.8767 113.128 48.5627 111.631 48.1416 110.054C47.6349 108.15 47.1476 106.449 46.7623 104.849Z" fill="#B6F2FF"/>
<path d="M47.1814 93.628C44.8029 97.4887 45.021 100.802 45.9837 104.853C45.353 100.857 45.4453 97.0575 47.3614 93.7125C47.4014 93.6349 47.2258 93.5547 47.1814 93.628Z" fill="#B6F2FF"/>
<path d="M10.8687 252.292C5.74557 254.044 -2.95898 230.186 -4.18441 227.384C-7.97659 218.707 -12.7414 209.691 -15.084 201.012C-20.9926 179.123 0.316891 168.182 17.0033 157.665C28.4546 150.447 46.778 143.198 52.6689 132.162C55.7388 126.409 54.0592 119.616 52.1836 112.848C54.717 127.285 49.2865 136.047 36.5177 144.075C20.1276 154.378 -2.08929 163.726 -12.7485 178.32C-20.1998 188.525 -17.953 199.165 -12.5465 212.228C-9.99146 218.396 -7.24436 224.567 -4.60088 230.731C-2.68817 235.193 -0.194964 245.115 3.30045 249.243C6.36612 252.865 4.97229 253.233 9.62656 254.541C9.99391 254.644 10.4223 254.59 10.6174 254.392C11.0269 253.98 11.4338 253.565 11.8433 253.152C12.2373 252.75 11.4726 252.084 10.8687 252.292Z" fill="#B6F2FF"/>
<path d="M30.8238 186.689C26.7482 161.977 58.9399 153.233 78.2051 141.899C92.4095 133.542 106.942 124.987 114.085 111.725C114.168 111.572 113.809 111.405 113.724 111.556C104.244 128.867 82.0543 139.694 62.5854 149.681C50.7269 155.766 36.5963 161.263 30.946 172.084C26.297 180.983 29.5291 190.631 37.0844 200.753C42.058 207.413 48.322 213.742 54.5037 219.918C57.511 222.923 61.3056 225.951 63.9148 229.112C70.8958 237.569 73.696 254.645 66.6938 260.807C65.9333 261.475 67.6656 262.721 68.4207 262.05C96.5362 237.035 35.6169 215.755 30.8238 186.689Z" fill="#B6F2FF"/>
<path d="M134.867 218.495C131.645 202.105 116.924 190.43 104.569 176.069C81.9706 149.809 121.948 126.907 139.6 113.371C139.872 113.162 139.307 112.761 139.031 112.959C124.201 123.624 109.339 134.442 99.6168 148.646C92.4349 159.14 91.5034 164.473 103.228 176.643C124.378 198.595 143.069 219.81 125.941 240.494C113.736 255.232 98.5145 268.406 76.0123 274.208C74.9414 274.484 75.728 275.965 76.892 275.742C95.3295 272.208 107.559 262.537 118.325 251.726C127.645 242.368 137.705 232.928 134.867 218.495Z" fill="#B6F2FF"/>
<path d="M46.3598 200.14C34.8662 178.052 13.55 150.645 15.6866 128.935C16.493 120.728 20.0524 114.056 25.4876 108.654C15.5372 118.213 11.6532 131.328 18.2201 148.446C25.5184 167.468 38.4743 186.092 47.2651 204.97C55.3872 222.417 54.0434 234.732 40.332 245.749C29.2787 254.629 14.6727 261.284 0.264324 267.042C-0.466289 267.335 0.490908 268.36 1.21785 268.068C18.2081 261.252 38.6287 252.6 49.1933 240.122C58.5438 229.071 53.8418 214.516 46.3598 200.14Z" fill="#B6F2FF"/>
<path d="M18.9635 108.79C19.1805 108.581 19.3957 108.369 19.6181 108.162C19.3984 108.37 19.1761 108.577 18.9635 108.79Z" fill="#B6F2FF"/>
<path d="M75.9728 91.4794C76.0127 91.4769 75.9832 91.426 75.9432 91.4285C63.9691 92.4034 52.3287 94.6292 42.1337 98.2082C52.5001 94.6573 64.2414 92.5342 75.9728 91.4794Z" fill="#B6F2FF"/>
<path d="M21.2098 107.61C26.8449 102.919 34.0097 99.1607 42.14 96.3024C34.0349 99.0859 26.8422 102.799 21.2098 107.61Z" fill="#B6F2FF"/>
<path d="M19.6159 108.225C20.1221 107.742 20.6719 107.291 21.2075 106.828C20.6639 107.287 20.131 107.751 19.6159 108.225Z" fill="#B6F2FF"/>
<path d="M96.4054 231.761C93.7162 194.125 62.2828 139.298 97.3164 113.602C97.4921 113.474 97.1324 113.215 96.955 113.34C73.1928 130.124 81.0569 162.711 85.875 189.46C89.3274 208.627 99.9396 231.81 90.9396 247.935C81.0511 265.652 62.5974 270.78 37.5176 273.075C36.5666 273.163 37.2727 274.314 38.2032 274.272C70.0895 272.785 98.4003 259.701 96.4054 231.761Z" fill="#B6F2FF"/>
<path d="M-26.6682 122.286C4.26595 97.0422 80.1893 105.1 94.2773 67.0976C94.5553 66.3509 92.9688 65.5777 92.6115 66.3164C74.0342 104.827 -2.17571 93.7654 -31.783 123.994C-43.1047 135.553 -34.6039 148.333 -27.2572 163.501C-11.8841 195.242 -30.2378 218.718 -48.6635 239.702C-48.933 240.011 -48.2182 240.537 -47.9379 240.226C-34.0201 224.876 -19.1292 208.571 -19.2844 186.881C-19.447 164.026 -47.7641 139.503 -26.6682 122.286Z" fill="#B6F2FF"/>
<path d="M59.6394 107.047C56.8146 111.838 56.7296 117.749 55.5011 123.201C53.9381 130.138 50.0855 136.739 42.2087 139.535C35.8258 141.8 27.5643 141.316 20.7763 143.061C9.08846 146.067 3.31016 155.244 0.701856 164.778C-1.90645 174.311 -2.08646 184.718 -6.0456 193.72C-8.85207 200.099 -14.3661 206.037 -23.6164 206.463C-28.7786 206.7 -34.436 205.183 -39.7779 204.904C-48.2547 204.461 -55.7254 207.36 -59.2926 212.48C-61.8844 216.197 -62.4513 220.86 -62.5471 225.519C-62.7227 234.098 -60.8588 243.966 -52.2311 251.544C-51.3961 252.277 -50.3542 253.043 -49.252 253.128C-47.9507 253.23 -47.2241 252.342 -46.8872 251.462C-44.3222 244.758 -52.8317 235.905 -52.4628 228.496C-52.1615 222.419 -44.9683 218.409 -36.7222 219.722C-34.1121 220.138 -31.4085 221.015 -28.9229 220.926C-21.5749 220.661 -21.3669 212.921 -16.2796 209.654C-11.423 206.535 -2.95784 207.982 3.32024 206.407C9.03897 204.974 12.7181 200.832 12.7204 195.828C12.7242 191.49 10.1867 186.863 9.00343 182.364C7.82018 177.865 8.43082 172.89 13.145 171.326C16.0963 170.348 20.1428 170.909 22.8233 169.63C26.1307 168.052 26.2677 164.248 25.6075 160.794C24.9474 157.34 23.7429 153.636 25.1848 150.764C29.4807 142.193 52.1338 148.178 55.7368 139.301C56.9531 136.308 55.6097 132.035 58.7363 130.249C60.3184 129.345 62.6574 129.365 64.7611 129.126C73.9393 128.08 79.0838 121.898 82.4643 115.601C84.7994 111.251 85.6957 103.119 76.1273 100.24C68.8739 98.0555 61.9033 103.206 59.6394 107.047Z" fill="#86DEE4"/>
<path d="M139.17 119.497C136.438 123.809 132.108 127.783 127.094 129.172C123.519 130.162 119.054 130.113 116.336 131.982C115.525 132.541 114.87 133.27 113.78 133.534C112.432 133.858 110.731 133.398 109.161 132.937C104.474 131.558 99.8019 130.092 95.1546 128.536C91.2874 127.243 87.1498 125.851 83.5711 126.284C81.2095 126.569 79.2083 127.646 76.6326 127.288C73.8888 126.905 71.4038 125.012 69.5188 123.135C67.6309 121.257 65.9232 119.183 63.4294 117.796C59.2819 115.49 54.3284 115.796 49.8331 114.193C46.41 112.972 43.3646 110.597 41.8426 107.961C40.6061 105.818 40.3468 103.567 38.8788 101.467C37.5186 99.5214 35.2732 97.9156 33.155 96.324C30.4188 94.2664 27.7863 92.1251 25.2755 89.9132C23.6536 88.484 22.0397 86.9713 21.2239 85.2995C20.4804 83.7744 20.4703 82.2556 20.4729 80.7804C20.4777 75.3596 19.7367 69.8207 22.1627 65.1574C32.8158 44.6796 67.7284 40.2871 100.143 55.3452C100.519 55.5201 100.897 55.6981 101.271 55.8787C119.083 64.4196 133.636 78.0489 139.657 92.6409C142.549 99.6526 143.387 106.708 141.957 113.084C141.498 115.117 140.532 117.349 139.17 119.497Z" fill="white"/>
<path d="M149.905 112.185C138.252 134.597 91.0771 120.954 70.4818 111.63C43.7911 99.5495 9.85929 74.9162 21.5123 52.5045C33.1653 30.0929 71.354 25.285 106.808 41.7652C142.263 58.2454 161.558 89.7737 149.905 112.185Z" fill="#37EAEA"/>
<path d="M150.324 111.148C161.016 88.8069 141.831 57.9201 106.852 41.6627C89.0823 33.404 69.1232 30.0245 52.3542 32.8854C44.2883 34.2623 37.0911 37.0572 31.4607 41.1347C28.5893 43.2133 26.1893 45.6196 24.1652 48.2642C22.0569 51.0231 18.8672 52.923 17.1255 55.9042C16.585 56.8276 16.1112 57.7798 15.7964 58.8011C14.9369 61.5789 15.2783 64.9315 17.6378 67.901C18.7456 69.2957 20.2644 70.5819 21.6506 71.8843C22.5972 73.9778 23.7434 76.0555 25.1757 78.1011C25.0747 80.1771 23.9772 82.1036 24.5579 84.3007C25.4166 87.5516 29.6817 90.3407 33.7956 91.9956C36.6814 93.1552 39.6965 94.0116 42.5799 95.1418C46.186 97.8345 49.9899 100.379 53.8851 102.727C58.2079 106.809 62.1747 111.167 68.032 112.967C70.3343 113.674 72.6644 113.877 74.9783 114.2C76.1913 114.37 77.4024 114.591 78.6162 114.827C84.1403 116.914 90.5398 118.98 97.2322 120.647C100.9 122.158 104.518 123.811 108.059 125.544C110.792 126.883 113.581 128.297 116.505 128.918C119.707 129.599 122.89 129.227 125.033 127.921C126.646 126.939 127.732 125.446 129.768 124.925C133.372 124.001 138.739 126.417 141.896 124.962C142.968 124.467 143.587 123.592 144.175 122.74C145.483 120.852 146.791 118.965 148.096 117.076C149.305 115.33 150.45 113.278 150.324 111.148Z" fill="#37EAEA"/>
<path d="M119.249 53.6769C125.507 60.3489 122.973 65.2443 113.59 64.6106C104.208 63.975 91.5279 58.0504 85.2699 51.3784C79.0119 44.7064 81.5455 39.811 90.9287 40.4447C100.312 41.0784 112.992 47.0029 119.249 53.6769Z" fill="white"/>
<path d="M96.542 43.6566C93.7221 42.5798 90.9156 41.8064 88.1254 41.1962C89.1081 41.1778 90.0898 41.1613 91.0709 41.119C92.231 41.0691 91.6329 39.7725 90.6514 39.4663C65.4814 31.6367 34.0901 43.2729 29.3463 60.0794C28.8598 61.8046 32.5979 63.3023 33.857 62.1696C41.4621 55.3437 50.6688 49.2996 62.7277 46.7274C73.6434 44.4011 84.1084 46.2827 96.169 47.5476C98.8204 47.8265 99.2621 44.6965 96.542 43.6566Z" fill="white"/>
<path d="M98.5027 52.4778C93.4491 52.4857 88.6615 53.6522 84.1712 55.5094C70.2026 58.5073 59.6824 70.0426 54.8742 78.6006C54.3316 79.5653 56.3269 80.6199 57.2261 79.9687C69.9573 70.7301 80.7754 61.6464 96.7866 55.647C97.0789 55.6372 97.3677 55.6077 97.6645 55.6023C97.7921 55.6002 97.8056 55.4427 97.6481 55.4104C97.5891 55.399 97.5355 55.3968 97.4765 55.3853C98.2276 55.1111 98.9264 54.8059 99.7014 54.5451C100.818 54.1724 99.8504 52.4763 98.5027 52.4778Z" fill="white"/>
<path d="M114.454 54.6762C117.081 56.1233 119.445 57.7459 121.662 59.4558C121.077 58.7111 120.491 57.9682 119.924 57.2087C119.257 56.3141 120.712 55.9667 121.569 56.5123C143.519 70.5177 152.923 101.061 141.704 114.865C140.553 116.281 137.012 114.406 137.194 112.774C138.281 102.928 137.733 92.3637 132.527 81.7912C127.813 72.2222 119.841 65.56 111.411 57.33C109.56 55.5226 111.917 53.2778 114.454 54.6762Z" fill="white"/>
<path d="M106.405 56.8424C109.485 60.6301 111.432 64.9264 112.62 69.4221C118.642 81.7096 115.407 96.6306 111.177 105.457C110.701 106.453 108.599 105.603 108.595 104.533C108.555 89.3593 109.555 75.7127 104.799 60.0628C104.626 59.8368 104.477 59.6038 104.3 59.3784C104.224 59.2816 104.347 59.1752 104.471 59.2735C104.516 59.3106 104.551 59.3494 104.597 59.3865C104.367 58.6568 104.196 57.9472 103.941 57.2079C103.571 56.1443 105.583 55.8326 106.405 56.8424Z" fill="white"/>
</svg>
