<svg width="20" height="20" viewBox="0 0 20 20" fill="none" xmlns="http://www.w3.org/2000/svg">
<path fill-rule="evenodd" clip-rule="evenodd" d="M11.7738 1.41364C10.7494 0.548968 9.25077 0.548968 8.22631 1.41364L7.12849 2.34027C6.98334 2.46278 6.80373 2.53717 6.61448 2.55318L5.18296 2.67424C3.84716 2.78721 2.78746 3.84692 2.67449 5.18272L2.55342 6.61423C2.53742 6.80348 2.46302 6.9831 2.34052 7.12824L1.41389 8.22605C0.549213 9.25052 0.549213 10.7492 1.41389 11.7736L2.34052 12.8714C2.46302 13.0165 2.53742 13.1962 2.55342 13.3854L2.67449 14.817C2.78746 16.1527 3.84716 17.2125 5.18296 17.3254L6.61448 17.4465C6.80373 17.4625 6.98334 17.5369 7.12849 17.6594L8.22631 18.586C9.25077 19.4507 10.7494 19.4507 11.7738 18.586L12.8717 17.6594C13.0168 17.5369 13.1965 17.4625 13.3857 17.4465L14.8172 17.3254C16.153 17.2125 17.2127 16.1527 17.3257 14.817L17.4468 13.3854C17.4627 13.1962 17.5372 13.0165 17.6596 12.8714L18.5863 11.7736C19.451 10.7492 19.451 9.25052 18.5863 8.22605L17.6596 7.12824C17.5372 6.9831 17.4627 6.80348 17.4468 6.61423L17.3257 5.18272C17.2127 3.84692 16.153 2.78721 14.8172 2.67424L13.3857 2.55318C13.1965 2.53717 13.0168 2.46278 12.8717 2.34027L11.7738 1.41364ZM14.2501 8.29159C14.5723 7.9694 14.5723 7.44704 14.2501 7.12486C13.9279 6.80268 13.4056 6.80268 13.0834 7.12486L9.08339 11.1248L6.91676 8.95819C6.59457 8.63598 6.07221 8.63598 5.75003 8.95819C5.42784 9.2804 5.42784 9.80272 5.75003 10.1249L8.50002 12.8749C8.82223 13.1971 9.34455 13.1971 9.66676 12.8749L14.2501 8.29159Z" fill="#00FF38"/>
</svg>
